<svg width="25" height="24" viewBox="0 0 25 24" fill="none" xmlns="http://www.w3.org/2000/svg">
<g id="baby-carriage">
<path id="Vector" d="M2.5 5H5L6.632 9.897C7.03021 11.0919 7.79434 12.1312 8.81612 12.8676C9.8379 13.604 11.0655 14.0002 12.325 14H15C16.4587 14 17.8576 13.4205 18.8891 12.3891C19.9205 11.3576 20.5 9.95869 20.5 8.5C20.5 7.04131 19.9205 5.64236 18.8891 4.61091C17.8576 3.57946 16.4587 3 15 3H14.5V9M6.5 9H20.5M9.5 17L10.5 14M16.5 14L17.5 17M6.5 19C6.5 19.5304 6.71071 20.0391 7.08579 20.4142C7.46086 20.7893 7.96957 21 8.5 21C9.03043 21 9.53914 20.7893 9.91421 20.4142C10.2893 20.0391 10.5 19.5304 10.5 19C10.5 18.4696 10.2893 17.9609 9.91421 17.5858C9.53914 17.2107 9.03043 17 8.5 17C7.96957 17 7.46086 17.2107 7.08579 17.5858C6.71071 17.9609 6.5 18.4696 6.5 19ZM16.5 19C16.5 19.5304 16.7107 20.0391 17.0858 20.4142C17.4609 20.7893 17.9696 21 18.5 21C19.0304 21 19.5391 20.7893 19.9142 20.4142C20.2893 20.0391 20.5 19.5304 20.5 19C20.5 18.4696 20.2893 17.9609 19.9142 17.5858C19.5391 17.2107 19.0304 17 18.5 17C17.9696 17 17.4609 17.2107 17.0858 17.5858C16.7107 17.9609 16.5 18.4696 16.5 19Z" stroke="#3463ED" stroke-width="2" stroke-linecap="round" stroke-linejoin="round"/>
</g>
</svg>
