<svg width="25" height="24" viewBox="0 0 25 24" fill="none" xmlns="http://www.w3.org/2000/svg">
<g id="baguette">
<path id="Vector" d="M10.0005 7.50019L11.5005 11.0002M7.00046 10.5002L8.50046 14.0002M13.0005 4.50019L14.5005 8.00019M6.12846 11.2832L11.7725 5.64619C14.4375 2.98319 17.6965 1.89919 20.4355 4.44119L20.6235 4.62219C20.9014 4.89963 21.1219 5.22915 21.2723 5.59189C21.4228 5.95463 21.5002 6.34348 21.5002 6.73619C21.5002 7.12889 21.4228 7.51774 21.2723 7.88049C21.1219 8.24323 20.9014 8.57275 20.6235 8.85019L9.33646 20.1242C8.79848 20.6599 8.07737 20.9718 7.31854 20.9968C6.55971 21.0219 5.81961 20.7583 5.24746 20.2592L5.10446 20.1242C2.37646 17.4002 3.40046 14.0072 6.12846 11.2832Z" stroke="#3463ED" stroke-width="2" stroke-linecap="round" stroke-linejoin="round"/>
</g>
</svg>
