<svg width="25" height="24" viewBox="0 0 25 24" fill="none" xmlns="http://www.w3.org/2000/svg">
<g id="bowl">
<path id="Vector" d="M4.5 8H20.5C20.7652 8 21.0196 8.10536 21.2071 8.29289C21.3946 8.48043 21.5 8.73478 21.5 9V9.5C21.5 11 18.983 15.073 17.5 16V17C17.5 17.2652 17.3946 17.5196 17.2071 17.7071C17.0196 17.8946 16.7652 18 16.5 18H8.5C8.23478 18 7.98043 17.8946 7.79289 17.7071C7.60536 17.5196 7.5 17.2652 7.5 17V16C5.813 14.946 3.5 11 3.5 9.5V9C3.5 8.73478 3.60536 8.48043 3.79289 8.29289C3.98043 8.10536 4.23478 8 4.5 8Z" stroke="#3463ED" stroke-width="2" stroke-linecap="round" stroke-linejoin="round"/>
</g>
</svg>
