<svg width="25" height="24" viewBox="0 0 25 24" fill="none" xmlns="http://www.w3.org/2000/svg">
<g id="cheese">
<path id="Vector" d="M21.5 8.99981V12.4998C20.9696 12.4998 20.4609 12.7105 20.0858 13.0856C19.7107 13.4607 19.5 13.9694 19.5 14.4998C19.5 15.0302 19.7107 15.539 20.0858 15.914C20.4609 16.2891 20.9696 16.4998 21.5 16.4998V19.9998L5.01902 20.0078C4.06002 18.3718 3.5 16.4038 3.5 14.2868C3.5 11.6538 4.365 9.25281 5.788 7.43281C7.357 5.42781 9.603 4.12781 12.115 4.00781L21.5 8.99981ZM21.5 8.99981H4.77802M15.5 12.9998V13.0098M8.5 12.9998V13.0098M11.5 15.9998V16.0098" stroke="#3463ED" stroke-width="2" stroke-linecap="round" stroke-linejoin="round"/>
</g>
</svg>
