<svg width="25" height="24" viewBox="0 0 25 24" fill="none" xmlns="http://www.w3.org/2000/svg">
<g id="bottle">
<path id="Vector" d="M14.5 3.5C14.5 5.126 15.007 6.712 15.95 8.037L16 8.107C16.9758 9.4777 17.5001 11.1184 17.5 12.801V19C17.5 19.5304 17.2893 20.0391 16.9142 20.4142C16.5391 20.7893 16.0304 21 15.5 21H9.5C8.96957 21 8.46086 20.7893 8.08579 20.4142C7.71071 20.0391 7.5 19.5304 7.5 19V12.8C7.5 11.118 8.024 9.478 9 8.107L9.05 8.037C9.99317 6.71215 10.5 5.12629 10.5 3.5M7.5 14.803C7.9 14.631 8.24568 14.3534 8.5 14C8.72717 13.6835 9.02797 13.4271 9.37642 13.2528C9.72488 13.0786 10.1105 12.9918 10.5 13C10.8895 12.9918 11.2751 13.0786 11.6236 13.2528C11.972 13.4271 12.2728 13.6835 12.5 14C12.7272 14.3165 13.028 14.5729 13.3764 14.7472C13.7249 14.9214 14.1105 15.0082 14.5 15C14.8895 15.0082 15.2751 14.9214 15.6236 14.7472C15.972 14.5729 16.2728 14.3165 16.5 14C16.7541 13.6458 17.0998 13.3676 17.5 13.195M10.5 5H14.5V3C14.5 2.73478 14.3946 2.48043 14.2071 2.29289C14.0196 2.10536 13.7652 2 13.5 2H11.5C11.2348 2 10.9804 2.10536 10.7929 2.29289C10.6054 2.48043 10.5 2.73478 10.5 3V5Z" stroke="#3463ED" stroke-width="2" stroke-linecap="round" stroke-linejoin="round"/>
</g>
</svg>
