<svg width="25" height="24" viewBox="0 0 25 24" fill="none" xmlns="http://www.w3.org/2000/svg">
<g id="chef-hat">
<path id="Vector" d="M6.66058 17.009L18.4996 17M12.4996 3C14.4176 3 16.0196 4.35 16.4096 6.151C17.4337 5.87385 18.526 6.01488 19.4461 6.54308C20.3663 7.07128 21.0389 7.94337 21.3161 8.9675C21.5932 9.99163 21.4522 11.0839 20.924 12.0041C20.3958 12.9242 19.5237 13.5968 18.4996 13.874V21H6.49958V13.874C5.99249 13.7366 5.51741 13.5007 5.10147 13.1798C4.68554 12.8588 4.3369 12.4591 4.07546 12.0034C3.81401 11.5477 3.64489 11.0449 3.57774 10.5239C3.51058 10.0028 3.54672 9.4736 3.68408 8.9665C3.82145 8.4594 4.05735 7.98432 4.37831 7.56839C4.69928 7.15246 5.09902 6.80382 5.55473 6.54237C6.01043 6.28093 6.51317 6.1118 7.03423 6.04465C7.5553 5.9775 8.08448 6.01364 8.59158 6.151C8.78542 5.25857 9.2788 4.45933 9.98973 3.88611C10.7007 3.31289 11.5863 3.0002 12.4996 3Z" stroke="#3463ED" stroke-width="2" stroke-linecap="round" stroke-linejoin="round"/>
</g>
</svg>
