<svg width="25" height="24" viewBox="0 0 25 24" fill="none" xmlns="http://www.w3.org/2000/svg">
<g id="meat">
<path id="Vector" d="M14.1198 8.3824L16.0858 6.4154C15.8532 6.18288 15.6815 5.89658 15.586 5.58187C15.4904 5.26716 15.474 4.93374 15.5381 4.61116C15.6022 4.28858 15.7449 3.98678 15.9535 3.7325C16.1621 3.47822 16.4302 3.27931 16.734 3.15339C17.0378 3.02746 17.368 2.9784 17.6953 3.01056C18.0226 3.04272 18.337 3.1551 18.6105 3.33776C18.884 3.52041 19.1082 3.76769 19.2633 4.05771C19.4185 4.34772 19.4997 4.67151 19.4998 5.0004C19.8287 5.00017 20.1527 5.08109 20.4429 5.23599C20.7331 5.39089 20.9807 5.61499 21.1636 5.88844C21.3465 6.16188 21.4591 6.47622 21.4915 6.80359C21.5238 7.13097 21.475 7.46128 21.3492 7.76525C21.2233 8.06922 21.0245 8.33746 20.7702 8.5462C20.516 8.75495 20.2141 8.89775 19.8915 8.96195C19.5688 9.02615 19.2353 9.00977 18.9205 8.91426C18.6057 8.81875 18.3193 8.64706 18.0868 8.4144L16.2668 10.2354M3.57577 11.5254C4.74577 10.3544 7.91277 11.6204 10.6458 14.3544C13.3798 17.0874 14.6458 20.2534 13.4738 21.4254C12.3038 22.5964 9.13677 21.3304 6.40377 18.5964C3.66977 15.8634 2.40377 12.6974 3.57577 11.5254ZM3.57577 11.5254C7.48077 7.6204 12.8628 6.6704 15.5958 9.4044C18.3298 12.1374 17.3798 17.5194 13.4748 21.4254M7.99976 16.0004L8.99976 17.0004" stroke="#3463ED" stroke-width="2" stroke-linecap="round" stroke-linejoin="round"/>
</g>
</svg>
