<svg width="25" height="24" viewBox="0 0 25 24" fill="none" xmlns="http://www.w3.org/2000/svg">
<g id="dog">
<path id="Vector" d="M11.4995 5H13.4995M19.4995 12C18.8325 17.333 17.1665 20 14.4995 20H10.4995C7.83253 20 6.16653 17.333 5.49953 12M12.4995 18V20M10.4995 11V11.01M14.4995 11V11.01M11.4995 16C11.4995 16.667 11.8325 17 12.4995 17C13.1665 17 13.4995 16.667 13.4995 16H11.4995ZM5.49952 4L11.4995 4.97L5.26152 11.658C5.08629 11.855 4.84167 11.9765 4.57885 11.9972C4.31604 12.0179 4.05541 11.9361 3.85152 11.769C3.71324 11.6565 3.60929 11.5074 3.55149 11.3388C3.49368 11.1702 3.48434 10.9887 3.52452 10.815L5.49952 4ZM19.4995 4L13.4995 4.97L19.7375 11.658C20.0955 12.066 20.7265 12.116 21.1475 11.769C21.2858 11.6565 21.3898 11.5074 21.4476 11.3388C21.5054 11.1702 21.5147 10.9887 21.4745 10.815L19.4995 4Z" stroke="#3463ED" stroke-width="2" stroke-linecap="round" stroke-linejoin="round"/>
</g>
</svg>
