<svg width="25" height="24" viewBox="0 0 25 24" fill="none" xmlns="http://www.w3.org/2000/svg">
<g id="vaccine-bottle">
<path id="Vector" d="M14.5 6C14.7652 6 15.0196 5.89464 15.2071 5.70711C15.3946 5.51957 15.5 5.26522 15.5 5V4C15.5 3.73478 15.3946 3.48043 15.2071 3.29289C15.0196 3.10536 14.7652 3 14.5 3H10.5C10.2348 3 9.98043 3.10536 9.79289 3.29289C9.60536 3.48043 9.5 3.73478 9.5 4V5C9.5 5.26522 9.60536 5.51957 9.79289 5.70711C9.98043 5.89464 10.2348 6 10.5 6M14.5 6H10.5M14.5 6V6.98C14.5001 7.40482 14.6509 7.81582 14.9256 8.13991C15.2003 8.46401 15.581 8.68018 16 8.75C16.866 8.894 17.5 9.643 17.5 10.52V19C17.5 19.5304 17.2893 20.0391 16.9142 20.4142C16.5391 20.7893 16.0304 21 15.5 21H9.5C8.96957 21 8.46086 20.7893 8.08579 20.4142C7.71071 20.0391 7.5 19.5304 7.5 19V10.52C7.5 9.643 8.134 8.894 9 8.75C9.866 8.606 10.5 7.857 10.5 6.98V6M7.5 12H17.5M7.5 18H17.5M11.5 15H13.5" stroke="#3463ED" stroke-width="2" stroke-linecap="round" stroke-linejoin="round"/>
</g>
</svg>
