<svg width="25" height="24" viewBox="0 0 25 24" fill="none" xmlns="http://www.w3.org/2000/svg">
<g id="paper-bag">
<path id="Vector" d="M6.5 21H18.5C19.0304 21 19.5391 20.7893 19.9142 20.4142C20.2893 20.0391 20.5 19.5304 20.5 19V13.18C20.4999 12.4038 20.3192 11.6382 19.972 10.944L19.028 9.056C18.6808 8.36175 18.5001 7.59621 18.5 6.82V5C18.5 4.46957 18.2893 3.96086 17.9142 3.58579C17.5391 3.21071 17.0304 3 16.5 3H8.5C7.96957 3 7.46086 3.21071 7.08579 3.58579C6.71071 3.96086 6.5 4.46957 6.5 5V8M6.5 21C5.96957 21 5.46086 20.7893 5.08579 20.4142C4.71071 20.0391 4.5 19.5304 4.5 19V13.18C4.50005 12.4038 4.68082 11.6382 5.028 10.944L6.5 8M6.5 21C7.03043 21 7.53914 20.7893 7.91421 20.4142C8.28929 20.0391 8.5 19.5304 8.5 19V13.18C8.49995 12.4038 8.31918 11.6382 7.972 10.944L6.5 8M11.5 7H13.5M12.5 15C12.5 15.5304 12.7107 16.0391 13.0858 16.4142C13.4609 16.7893 13.9696 17 14.5 17C15.0304 17 15.5391 16.7893 15.9142 16.4142C16.2893 16.0391 16.5 15.5304 16.5 15C16.5 14.4696 16.2893 13.9609 15.9142 13.5858C15.5391 13.2107 15.0304 13 14.5 13C13.9696 13 13.4609 13.2107 13.0858 13.5858C12.7107 13.9609 12.5 14.4696 12.5 15Z" stroke="#3463ED" stroke-width="2" stroke-linecap="round" stroke-linejoin="round"/>
</g>
</svg>
