<svg width="25" height="24" viewBox="0 0 25 24" fill="none" xmlns="http://www.w3.org/2000/svg">
<g id="apple">
<path id="Vector" d="M12.5 11V5C12.5 4.46957 12.7107 3.96086 13.0858 3.58579C13.4609 3.21071 13.9696 3 14.5 3H16.5V4C16.5 4.53043 16.2893 5.03914 15.9142 5.41421C15.5391 5.78929 15.0304 6 14.5 6H12.5M10.5 10.5C11.833 11.167 13.167 11.167 14.5 10.5M5.5 14C5.5 14.9193 5.68106 15.8295 6.03284 16.6788C6.38463 17.5281 6.90024 18.2997 7.55025 18.9497C8.20026 19.5998 8.97194 20.1154 9.82122 20.4672C10.6705 20.8189 11.5807 21 12.5 21C13.4193 21 14.3295 20.8189 15.1788 20.4672C16.0281 20.1154 16.7997 19.5998 17.4497 18.9497C18.0998 18.2997 18.6154 17.5281 18.9672 16.6788C19.3189 15.8295 19.5 14.9193 19.5 14C19.5 13.0807 19.3189 12.1705 18.9672 11.3212C18.6154 10.4719 18.0998 9.70026 17.4497 9.05025C16.7997 8.40024 16.0281 7.88463 15.1788 7.53284C14.3295 7.18106 13.4193 7 12.5 7C11.5807 7 10.6705 7.18106 9.82122 7.53284C8.97194 7.88463 8.20026 8.40024 7.55025 9.05025C6.90024 9.70026 6.38463 10.4719 6.03284 11.3212C5.68106 12.1705 5.5 13.0807 5.5 14Z" stroke="#3463ED" stroke-width="2" stroke-linecap="round" stroke-linejoin="round"/>
</g>
</svg>
