<svg width="22" height="26" viewBox="0 0 22 26" fill="none" xmlns="http://www.w3.org/2000/svg">
<path d="M20.6484 3.65625H16.7271L17.101 1.52344H18.5156C18.9363 1.52344 19.2773 1.18239 19.2773 0.761719C19.2773 0.341047 18.9363 0 18.5156 0H16.4613C16.0913 0 15.7749 0.265789 15.711 0.630195L15.1805 3.65625H1.35156C0.930891 3.65625 0.589844 3.9973 0.589844 4.41797V8.07422C0.589844 8.49489 0.930891 8.83594 1.35156 8.83594H2.64638C2.85164 10.5199 2.99611 11.7043 3.15932 13.0421C6.44289 13.7925 6.99813 15.8438 11 15.8438C14.9943 15.8438 15.5649 13.7917 18.8407 13.0415C18.9493 12.1512 19.2449 9.72694 19.3536 8.83594H20.6484C21.0691 8.83594 21.4102 8.49489 21.4102 8.07422V4.41797C21.4102 3.9973 21.0691 3.65625 20.6484 3.65625Z" fill="#F5BA3C"/>
<path d="M10.9999 17.3673C6.84607 17.3673 5.7794 15.4402 3.35815 14.6725L4.28664 22.2837C4.28664 22.2837 4.28664 22.2838 4.28664 22.2838L4.65785 25.3306C4.70447 25.7127 5.02896 26.0001 5.41398 26.0001H16.5859C16.9709 26.0001 17.2954 25.7127 17.342 25.3306L17.4666 24.3085C17.4666 24.3085 18.6418 14.6715 18.6418 14.6714C16.2241 15.4387 15.1536 17.3673 10.9999 17.3673ZM15.9114 24.4766H6.08851L5.9029 22.9532H16.0971C16.0282 23.5181 15.9743 23.9598 15.9114 24.4766Z" fill="#F5BA3C"/>
</svg>
