<svg width="74" height="74" viewBox="0 0 74 74" fill="none" xmlns="http://www.w3.org/2000/svg">
<path d="M32.375 21.9688C32.0683 21.9688 31.7742 22.0906 31.5574 22.3074C31.3406 22.5242 31.2188 22.8183 31.2188 23.125V25.4375C31.2188 25.7442 31.3406 26.0383 31.5574 26.2551C31.7742 26.4719 32.0683 26.5938 32.375 26.5938C32.6817 26.5938 32.9758 26.4719 33.1926 26.2551C33.4094 26.0383 33.5312 25.7442 33.5312 25.4375V23.125C33.5312 22.8183 33.4094 22.5242 33.1926 22.3074C32.9758 22.0906 32.6817 21.9688 32.375 21.9688Z" fill="#2451DB"/>
<path d="M41.625 26.5938C41.9317 26.5938 42.2258 26.4719 42.4426 26.2551C42.6594 26.0383 42.7812 25.7442 42.7812 25.4375V23.125C42.7812 22.8183 42.6594 22.5242 42.4426 22.3074C42.2258 22.0906 41.9317 21.9688 41.625 21.9688C41.3183 21.9688 41.0242 22.0906 40.8074 22.3074C40.5906 22.5242 40.4688 22.8183 40.4688 23.125V25.4375C40.4688 25.7442 40.5906 26.0383 40.8074 26.2551C41.0242 26.4719 41.3183 26.5938 41.625 26.5938Z" fill="#2451DB"/>
<path d="M62.4375 62.0791V48.5625C62.4332 45.8039 61.3355 43.1595 59.3848 41.2089C57.4342 39.2583 54.7898 38.1605 52.0312 38.1562H46.25V37C46.2488 36.8207 46.2064 36.6441 46.1263 36.4837C46.0461 36.3234 45.9302 36.1836 45.7875 36.075C45.6465 35.9666 45.4818 35.8933 45.3068 35.8612C45.1319 35.829 44.9519 35.8389 44.7816 35.89L43.9375 36.1328V34.9303C45.5444 33.8807 46.8936 32.482 47.8846 30.8383C48.8756 29.1946 49.4828 27.3485 49.6609 25.4375H50.875C51.7941 25.4348 52.6748 25.0684 53.3247 24.4185C53.9747 23.7686 54.341 22.8879 54.3438 21.9688V19.6562C54.341 18.7371 53.9747 17.8564 53.3247 17.2065C52.6748 16.5566 51.7941 16.1902 50.875 16.1875H49.7188V15.0312C49.7188 11.658 48.3787 8.42296 45.9935 6.03774C43.6083 3.65251 40.3732 2.3125 37 2.3125C33.6268 2.3125 30.3917 3.65251 28.0065 6.03774C25.6213 8.42296 24.2812 11.658 24.2812 15.0312V16.1875H23.125C22.2059 16.1902 21.3252 16.5566 20.6753 17.2065C20.0253 17.8564 19.659 18.7371 19.6562 19.6562V21.9688C19.659 22.8879 20.0253 23.7686 20.6753 24.4185C21.3252 25.0684 22.2059 25.4348 23.125 25.4375H24.3391C24.5172 27.3485 25.1244 29.1946 26.1154 30.8383C27.1064 32.482 28.4556 33.8807 30.0625 34.9303V36.1328L29.2184 35.89C29.0481 35.8389 28.8681 35.829 28.6932 35.8612C28.5182 35.8933 28.3535 35.9666 28.2125 36.075C28.0698 36.1836 27.9539 36.3234 27.8738 36.4837C27.7936 36.6441 27.7512 36.8207 27.75 37V38.1562H21.9688C19.2102 38.1605 16.5658 39.2583 14.6151 41.2089C12.6645 43.1595 11.5668 45.8039 11.5625 48.5625V62.0791C10.8084 63.213 10.4062 64.5445 10.4063 65.9062V68.2188C10.409 69.1379 10.7753 70.0186 11.4253 70.6685C12.0752 71.3184 12.9559 71.6848 13.875 71.6875H60.125C61.0441 71.6848 61.9248 71.3184 62.5747 70.6685C63.2247 70.0186 63.591 69.1379 63.5938 68.2188V65.9062C63.5938 64.5445 63.1916 63.213 62.4375 62.0791ZM49.7188 18.5H50.875C51.1817 18.5 51.4758 18.6218 51.6926 18.8387C51.9094 19.0555 52.0312 19.3496 52.0312 19.6562V21.9688C52.0312 22.2754 51.9094 22.5695 51.6926 22.7863C51.4758 23.0032 51.1817 23.125 50.875 23.125H49.7188V18.5ZM24.2812 23.125H23.125C22.8183 23.125 22.5242 23.0032 22.3074 22.7863C22.0906 22.5695 21.9688 22.2754 21.9688 21.9688V19.6562C21.9688 19.3496 22.0906 19.0555 22.3074 18.8387C22.5242 18.6218 22.8183 18.5 23.125 18.5H24.2812V23.125ZM45.4059 42.735C45.6483 42.667 45.8618 42.5219 46.0141 42.3216C46.1665 42.1212 46.2493 41.8767 46.25 41.625V40.4688H52.0312C54.1771 40.4712 56.2344 41.3247 57.7517 42.8421C59.269 44.3594 60.1226 46.4167 60.125 48.5625V54.3438H57.8125V46.25C57.8125 45.9433 57.6907 45.6492 57.4738 45.4324C57.257 45.2156 56.9629 45.0938 56.6562 45.0938H38.1562V44.8047L45.4059 42.735ZM60.125 56.6562V59.9053C59.41 59.4921 58.6268 59.2101 57.8125 59.0728V56.6562H60.125ZM34.6875 64.75H39.3125C40.2316 64.7473 41.1123 64.3809 41.7622 63.731C42.4122 63.0811 42.7785 62.2004 42.7812 61.2812H55.5V65.9062H18.5V61.2812H31.2188C31.2215 62.2004 31.5878 63.0811 32.2378 63.731C32.8877 64.3809 33.7684 64.7473 34.6875 64.75ZM33.5312 61.2812H40.4688C40.4688 61.5879 40.3469 61.882 40.1301 62.0988C39.9133 62.3157 39.6192 62.4375 39.3125 62.4375H34.6875C34.3808 62.4375 34.0867 62.3157 33.8699 62.0988C33.6531 61.882 33.5312 61.5879 33.5312 61.2812ZM18.5 58.9688V54.3438H31.2188C31.2215 55.2629 31.5878 56.1436 32.2378 56.7935C32.8877 57.4434 33.7684 57.8098 34.6875 57.8125H39.3125C40.2316 57.8098 41.1123 57.4434 41.7622 56.7935C42.4122 56.1436 42.7785 55.2629 42.7812 54.3438H55.5V58.9688H18.5ZM33.5312 54.3438H40.4688C40.4688 54.6504 40.3469 54.9445 40.1301 55.1613C39.9133 55.3782 39.6192 55.5 39.3125 55.5H34.6875C34.3808 55.5 34.0867 55.3782 33.8699 55.1613C33.6531 54.9445 33.5312 54.6504 33.5312 54.3438ZM18.5 52.0312V47.4062H31.2188C31.2215 48.3254 31.5878 49.2061 32.2378 49.856C32.8877 50.5059 33.7684 50.8723 34.6875 50.875H39.3125C40.2316 50.8723 41.1123 50.5059 41.7622 49.856C42.4122 49.2061 42.7785 48.3254 42.7812 47.4062H55.5V52.0312H18.5ZM41.625 36.7919L37 38.11L32.375 36.7919V36.1213C35.347 37.293 38.653 37.293 41.625 36.1213V36.7919ZM43.9375 38.5378V40.7578L38.1562 42.3997V40.1797L43.9375 38.5378ZM33.5312 47.4062H40.4688C40.4688 47.7129 40.3469 48.007 40.1301 48.2238C39.9133 48.4407 39.6192 48.5625 39.3125 48.5625H34.6875C34.3808 48.5625 34.0867 48.4407 33.8699 48.2238C33.6531 48.007 33.5312 47.7129 33.5312 47.4062ZM37 4.625C39.5577 4.63027 42.0242 5.57564 43.9302 7.28123C45.8362 8.98682 47.0487 11.3336 47.3369 13.875H26.6631C26.9513 11.3336 28.1638 8.98682 30.0698 7.28123C31.9758 5.57564 34.4423 4.63027 37 4.625ZM46.25 16.1875L44.5156 18.5H29.4844L27.75 16.1875H46.25ZM26.5938 24.2812V18.5L27.9813 20.35C28.0898 20.4927 28.2296 20.6086 28.39 20.6887C28.5504 20.7689 28.727 20.8113 28.9062 20.8125H45.0938C45.273 20.8113 45.4496 20.7689 45.61 20.6887C45.7704 20.6086 45.9102 20.4927 46.0187 20.35L47.4062 18.5V24.2812C47.4062 27.0412 46.3099 29.688 44.3583 31.6396C42.4068 33.5911 39.7599 34.6875 37 34.6875C34.2401 34.6875 31.5932 33.5911 29.6417 31.6396C27.6901 29.688 26.5938 27.0412 26.5938 24.2812ZM30.0625 38.5378L35.8438 40.1797V42.3997L30.0625 40.7578V38.5378ZM13.875 48.5625C13.8774 46.4167 14.731 44.3594 16.2483 42.8421C17.7657 41.3247 19.8229 40.4712 21.9688 40.4688H27.75V41.625C27.7507 41.8767 27.8335 42.1212 27.9859 42.3216C28.1382 42.5219 28.3517 42.667 28.5941 42.735L35.8438 44.8047V45.0938H17.3438C17.0371 45.0938 16.743 45.2156 16.5262 45.4324C16.3093 45.6492 16.1875 45.9433 16.1875 46.25V54.3438H13.875V48.5625ZM13.875 56.6562H16.1875V59.0728C15.3732 59.2101 14.59 59.4921 13.875 59.9053V56.6562ZM20.8125 69.375H13.875C13.5683 69.375 13.2742 69.2532 13.0574 69.0363C12.8406 68.8195 12.7188 68.5254 12.7188 68.2188V65.9062C12.7221 64.8835 13.0643 63.8907 13.692 63.0831C14.3196 62.2756 15.1972 61.6988 16.1875 61.4431V67.0625C16.1875 67.3692 16.3093 67.6633 16.5262 67.8801C16.743 68.0969 17.0371 68.2188 17.3438 68.2188H21.9688C21.9688 68.5254 21.8469 68.8195 21.6301 69.0363C21.4133 69.2532 21.1192 69.375 20.8125 69.375ZM24.0731 69.375C24.2077 69.0042 24.2781 68.6132 24.2812 68.2188H49.7188C49.7219 68.6132 49.7923 69.0042 49.9269 69.375H24.0731ZM61.2812 68.2188C61.2812 68.5254 61.1594 68.8195 60.9426 69.0363C60.7258 69.2532 60.4317 69.375 60.125 69.375H53.1875C52.8808 69.375 52.5867 69.2532 52.3699 69.0363C52.1531 68.8195 52.0312 68.5254 52.0312 68.2188H56.6562C56.9629 68.2188 57.257 68.0969 57.4738 67.8801C57.6907 67.6633 57.8125 67.3692 57.8125 67.0625V61.4431C58.8028 61.6988 59.6804 62.2756 60.308 63.0831C60.9357 63.8907 61.2779 64.8835 61.2812 65.9062V68.2188Z" fill="#2451DB"/>
</svg>
