<svg width="358" height="208" viewBox="0 0 358 208" fill="none" xmlns="http://www.w3.org/2000/svg">
<g clip-path="url(#clip0_426_9603)">
<g opacity="0.1">
<path d="M263.213 204.932C267.034 204.932 270.132 200.876 270.132 195.872C270.132 190.869 267.034 186.812 263.213 186.812C259.392 186.812 256.294 190.869 256.294 195.872C256.294 200.876 259.392 204.932 263.213 204.932Z" fill="#3F3D56"/>
<path d="M268.688 157.113C269.657 155.43 270.16 153.518 270.144 151.576C270.144 146.562 267.047 142.516 263.225 142.516C259.404 142.516 256.31 146.571 256.31 151.576C256.29 153.517 256.789 155.429 257.754 157.113C256.807 158.805 256.31 160.711 256.31 162.649C256.31 164.588 256.807 166.494 257.754 168.185C256.807 169.877 256.31 171.783 256.31 173.722C256.31 175.661 256.807 177.568 257.754 179.26C256.789 180.944 256.29 182.856 256.31 184.797C256.31 189.811 259.407 193.857 263.225 193.857C267.044 193.857 270.144 189.802 270.144 184.797C270.164 182.856 269.665 180.944 268.7 179.26C269.647 177.568 270.144 175.661 270.144 173.722C270.144 171.783 269.647 169.877 268.7 168.185C269.647 166.494 270.144 164.588 270.144 162.649C270.144 160.711 269.647 158.805 268.7 157.113H268.688Z" fill="#3F3D56"/>
<path d="M263.213 149.564C267.034 149.564 270.132 145.508 270.132 140.504C270.132 135.501 267.034 131.444 263.213 131.444C259.392 131.444 256.294 135.501 256.294 140.504C256.294 145.508 259.392 149.564 263.213 149.564Z" fill="#3F3D56"/>
<path d="M263.213 138.489C267.034 138.489 270.132 134.433 270.132 129.429C270.132 124.426 267.034 120.37 263.213 120.37C259.392 120.37 256.294 124.426 256.294 129.429C256.294 134.433 259.392 138.489 263.213 138.489Z" fill="#3F3D56"/>
<path d="M289.109 53.6476C290.053 52.4432 290.914 51.1752 291.684 49.8526L273.518 46.8661L293.178 47.0134C295.062 42.9077 296.089 38.4607 296.197 33.9442C296.305 29.4277 295.491 24.9367 293.804 20.7458L267.426 34.428L291.756 16.5465C289.476 12.6095 286.41 9.18417 282.75 6.48378C279.09 3.78338 274.913 1.86572 270.48 0.850152C266.047 -0.165414 261.452 -0.257145 256.982 0.580671C252.512 1.41849 248.263 3.16792 244.497 5.72006C240.732 8.27221 237.533 11.5724 235.097 15.4153C232.662 19.2582 231.044 23.5615 230.342 28.0573C229.641 32.5531 229.872 37.1452 231.022 41.5477C232.171 45.9503 234.213 50.069 237.022 53.6476C235.55 55.5212 234.284 57.5479 233.245 59.6927L256.839 71.9584L231.682 63.4972C229.912 68.7199 229.472 74.302 230.401 79.7379C231.331 85.1738 233.601 90.2918 237.007 94.6284C233.162 99.5185 230.771 105.392 230.106 111.578C229.44 117.764 230.528 124.012 233.245 129.609C235.962 135.205 240.198 139.924 245.468 143.225C250.739 146.526 256.832 148.277 263.05 148.277C269.268 148.277 275.361 146.526 280.632 143.225C285.902 139.924 290.138 135.205 292.855 129.609C295.572 124.012 296.66 117.764 295.995 111.578C295.329 105.392 292.938 99.5185 289.094 94.6284C293.688 88.785 296.185 81.5663 296.185 74.1317C296.185 66.6972 293.688 59.4785 289.094 53.6351L289.109 53.6476Z" fill="#6368B0"/>
<path opacity="0.1" d="M229.931 74.1459C229.92 81.5818 232.418 88.8036 237.022 94.6409C233.178 99.5311 230.786 105.405 230.121 111.591C229.456 117.777 230.544 124.025 233.261 129.621C235.978 135.218 240.213 139.936 245.484 143.238C250.755 146.539 256.848 148.29 263.066 148.29C269.284 148.29 275.377 146.539 280.647 143.238C285.918 139.936 290.154 135.218 292.871 129.621C295.587 124.025 296.675 117.777 296.01 111.591C295.345 105.405 292.954 99.5311 289.109 94.6409C293.551 89.0001 229.931 70.4229 229.931 74.1459Z" fill="black"/>
</g>
<g opacity="0.1">
<path d="M69.1601 195.242C71.485 195.242 73.3697 192.773 73.3697 189.727C73.3697 186.681 71.485 184.211 69.1601 184.211C66.8352 184.211 64.9506 186.681 64.9506 189.727C64.9506 192.773 66.8352 195.242 69.1601 195.242Z" fill="#3F3D56"/>
<path d="M72.5083 166.132C73.0959 165.107 73.3997 163.943 73.3884 162.76C73.3884 159.714 71.5092 157.245 69.1758 157.245C66.8423 157.245 64.9662 159.714 64.9662 162.76C64.954 163.942 65.2567 165.106 65.8432 166.132C65.2683 167.163 64.9664 168.323 64.9664 169.503C64.9664 170.683 65.2683 171.843 65.8432 172.873C65.2683 173.903 64.9664 175.064 64.9664 176.244C64.9664 177.423 65.2683 178.584 65.8432 179.614C65.2562 180.639 64.9535 181.802 64.9662 182.983C64.9662 186.032 66.8455 188.501 69.1758 188.501C71.5061 188.501 73.3884 186.032 73.3884 182.983C73.4002 181.801 73.0964 180.638 72.5083 179.614C73.085 178.584 73.3878 177.424 73.3878 176.244C73.3878 175.063 73.085 173.903 72.5083 172.873C73.085 171.844 73.3878 170.683 73.3878 169.503C73.3878 168.322 73.085 167.162 72.5083 166.132Z" fill="#3F3D56"/>
<path d="M69.1601 161.535C71.485 161.535 73.3697 159.066 73.3697 156.02C73.3697 152.974 71.485 150.504 69.1601 150.504C66.8352 150.504 64.9506 152.974 64.9506 156.02C64.9506 159.066 66.8352 161.535 69.1601 161.535Z" fill="#3F3D56"/>
<path d="M69.1601 154.794C71.485 154.794 73.3697 152.325 73.3697 149.279C73.3697 146.233 71.485 143.763 69.1601 143.763C66.8352 143.763 64.9506 146.233 64.9506 149.279C64.9506 152.325 66.8352 154.794 69.1601 154.794Z" fill="#3F3D56"/>
<path d="M53.4025 103.143C52.8276 102.41 52.3043 101.639 51.8364 100.833L62.9022 99.0157L50.9344 99.1066C49.7886 96.6084 49.1636 93.9029 49.0973 91.1551C49.0311 88.4072 49.5251 85.6747 50.5491 83.1242L66.5949 91.4632L51.7894 80.5576C53.1781 78.1625 55.0445 76.0789 57.2725 74.4364C59.5005 72.794 62.0425 71.6279 64.7403 71.0106C67.4381 70.3933 70.234 70.3381 72.954 70.8483C75.6741 71.3586 78.2601 72.4234 80.5512 73.9765C82.8423 75.5297 84.7894 77.5379 86.2715 79.8763C87.7536 82.2147 88.7389 84.8332 89.1661 87.569C89.5933 90.3048 89.4532 93.0992 88.7547 95.7785C88.0562 98.4578 86.8141 100.965 85.1057 103.143C86.0019 104.282 86.7726 105.514 87.4046 106.819L73.0408 114.29L88.3568 109.147C89.4325 112.328 89.6985 115.727 89.1308 119.036C88.5631 122.345 87.1797 125.461 85.1057 128.101C87.4457 131.077 88.9013 134.653 89.3061 138.419C89.7108 142.184 89.0484 145.988 87.3945 149.395C85.7406 152.801 83.1621 155.674 79.9536 157.683C76.7451 159.693 73.0362 160.758 69.2509 160.758C65.4657 160.758 61.7568 159.693 58.5483 157.683C55.3398 155.674 52.7612 152.801 51.1074 149.395C49.4535 145.988 48.7911 142.184 49.1958 138.419C49.6006 134.653 51.0562 131.077 53.3962 128.101C50.6 124.543 49.0798 120.148 49.0798 115.622C49.0798 111.096 50.6 106.701 53.3962 103.143H53.4025Z" fill="#6368B0"/>
<path opacity="0.1" d="M89.4217 115.622C89.4284 120.149 87.9076 124.546 85.1057 128.101C87.4457 131.077 88.9013 134.653 89.3061 138.419C89.7108 142.184 89.0484 145.988 87.3945 149.395C85.7406 152.801 83.1621 155.674 79.9536 157.683C76.7451 159.693 73.0362 160.758 69.2509 160.758C65.4657 160.758 61.7568 159.693 58.5483 157.683C55.3398 155.674 52.7612 152.801 51.1073 149.395C49.4535 145.988 48.791 142.184 49.1958 138.419C49.6006 134.653 51.0562 131.077 53.3962 128.101C50.6932 124.682 89.4217 113.356 89.4217 115.622Z" fill="black"/>
</g>
<g opacity="0.1">
<path d="M164.063 200.043C167.175 200.043 169.698 196.739 169.698 192.663C169.698 188.587 167.175 185.283 164.063 185.283C160.951 185.283 158.428 188.587 158.428 192.663C158.428 196.739 160.951 200.043 164.063 200.043Z" fill="#3F3D56"/>
<path d="M168.523 161.087C169.308 159.714 169.714 158.156 169.698 156.574C169.698 152.5 167.192 149.194 164.06 149.194C160.928 149.194 158.422 152.5 158.422 156.574C158.405 158.157 158.812 159.715 159.6 161.087C158.828 162.465 158.422 164.018 158.422 165.598C158.422 167.178 158.828 168.731 159.6 170.109C158.828 171.487 158.422 173.039 158.422 174.619C158.422 176.198 158.828 177.751 159.6 179.128C158.812 180.5 158.405 182.059 158.422 183.641C158.422 187.715 160.947 191.021 164.06 191.021C167.173 191.021 169.698 187.715 169.698 183.641C169.714 182.059 169.308 180.501 168.523 179.128C169.293 177.75 169.698 176.198 169.698 174.619C169.698 173.04 169.293 171.487 168.523 170.109C169.293 168.731 169.698 167.177 169.698 165.598C169.698 164.019 169.293 162.465 168.523 161.087Z" fill="#3F3D56"/>
<path d="M164.063 154.935C167.175 154.935 169.698 151.631 169.698 147.555C169.698 143.479 167.175 140.175 164.063 140.175C160.951 140.175 158.428 143.479 158.428 147.555C158.428 151.631 160.951 154.935 164.063 154.935Z" fill="#3F3D56"/>
<path d="M164.063 145.913C167.175 145.913 169.698 142.609 169.698 138.533C169.698 134.457 167.175 131.153 164.063 131.153C160.951 131.153 158.428 134.457 158.428 138.533C158.428 142.609 160.951 145.913 164.063 145.913Z" fill="#3F3D56"/>
<path d="M142.981 76.797C142.211 75.8169 141.509 74.7844 140.882 73.7071L155.688 71.2752L139.676 71.3943C138.14 68.0499 137.302 64.427 137.213 60.7473C137.124 57.0676 137.786 53.4084 139.16 49.9936L160.646 61.1437L140.829 46.5715C142.68 43.3523 145.175 40.5498 148.158 38.339C151.141 36.1282 154.548 34.5566 158.165 33.7225C161.782 32.8885 165.533 32.8098 169.182 33.4914C172.831 34.173 176.3 35.6003 179.373 37.684C182.446 39.7677 185.056 42.4632 187.041 45.6018C189.025 48.7405 190.342 52.255 190.907 55.9257C191.473 59.5964 191.276 63.3444 190.329 66.9356C189.382 70.5267 187.705 73.8838 185.402 76.797C186.601 78.3239 187.632 79.9756 188.478 81.7234L169.259 91.7139L189.753 84.8195C191.192 89.0755 191.548 93.6236 190.789 98.052C190.029 102.48 188.178 106.649 185.402 110.181C188.533 114.165 190.481 118.95 191.023 123.989C191.564 129.028 190.678 134.118 188.465 138.677C186.252 143.236 182.801 147.08 178.507 149.769C174.214 152.458 169.251 153.884 164.185 153.884C159.12 153.884 154.156 152.458 149.863 149.769C145.569 147.08 142.119 143.236 139.905 138.677C137.692 134.118 136.806 129.028 137.347 123.989C137.889 118.95 139.837 114.165 142.968 110.181C139.227 105.42 137.193 99.5395 137.193 93.483C137.193 87.4264 139.227 81.5456 142.968 76.7845L142.981 76.797Z" fill="#6368B0"/>
<path opacity="0.1" d="M191.178 93.4971C191.187 99.5547 189.152 105.438 185.402 110.194C188.533 114.178 190.481 118.963 191.023 124.002C191.565 129.041 190.678 134.131 188.465 138.69C186.252 143.248 182.801 147.092 178.507 149.781C174.214 152.471 169.251 153.897 164.185 153.897C159.12 153.897 154.156 152.471 149.863 149.781C145.569 147.092 142.119 143.248 139.905 138.69C137.692 134.131 136.806 129.041 137.347 124.002C137.889 118.963 139.837 114.178 142.968 110.194C139.351 105.6 191.178 90.4636 191.178 93.4971Z" fill="black"/>
</g>
<path d="M358 199.379C358 201.532 342.271 203.5 316.265 205.02C311.535 205.292 306.467 205.553 301.093 205.797C296.449 206.006 291.582 206.203 286.491 206.389C281.559 206.565 276.438 206.728 271.128 206.878C254.359 207.358 235.82 207.702 216.125 207.875C211.345 207.919 206.502 207.952 201.595 207.975C196.483 207.998 191.313 208.008 186.085 208.006C91.1381 208.006 14.1728 204.149 14.1728 199.388C14.1728 194.628 91.1381 190.77 186.085 190.77C226.962 190.77 264.5 191.488 294.005 192.679L297.231 192.81H297.25C334.415 194.387 358 196.759 358 199.379Z" fill="#3F3D56"/>
<path opacity="0.15" d="M358 199.379C358 201.532 342.271 203.5 316.265 205.02C311.535 205.292 306.467 205.553 301.093 205.797C296.449 206.006 291.582 206.203 286.491 206.389C281.559 206.565 276.438 206.728 271.128 206.878C254.359 207.358 235.82 207.702 216.125 207.875C211.345 207.919 206.502 207.952 201.595 207.975C196.483 207.998 191.313 208.008 186.085 208.006C91.1381 208.006 14.1728 204.149 14.1728 199.388C14.1728 194.628 91.1381 190.77 186.085 190.77C226.962 190.77 264.5 191.488 294.005 192.679L297.231 192.81H297.25C334.415 194.387 358 196.759 358 199.379Z" fill="black"/>
<path d="M343.827 197.862C343.827 199.661 328.098 201.309 302.092 202.563C297.366 202.792 292.295 203.008 286.923 203.212C282.277 203.387 277.41 203.552 272.321 203.707C267.389 203.853 262.268 203.99 256.958 204.117C240.186 204.518 221.647 204.807 201.952 204.951C197.177 204.986 192.333 205.014 187.422 205.032C182.311 205.051 177.142 205.061 171.915 205.061C76.9684 205.061 0 201.836 0 197.853C0 193.87 76.9684 190.645 171.915 190.645C212.789 190.645 250.327 191.244 279.832 192.24L283.058 192.35H283.08C320.258 193.688 343.827 195.659 343.827 197.862Z" fill="#3F3D56"/>
<path d="M44.4008 132.388L40.0847 119.166L143.444 118.035L147.679 131.125L44.4008 132.388Z" fill="#3F3D56"/>
<path opacity="0.15" d="M44.4008 132.388L40.0847 119.166L143.444 118.035L147.679 131.125L44.4008 132.388Z" fill="black"/>
<path d="M37.5101 132.388L33.1941 119.166L136.554 118.035L140.788 131.125L37.5101 132.388Z" fill="#3F3D56"/>
<path d="M213.957 112.071C203.271 112.071 194.848 107.827 188.691 99.3384C182.533 90.85 179.454 80.567 179.454 68.4893C179.454 56.3301 182.432 46.0679 188.387 37.7028C194.342 29.3376 202.742 25.1592 213.588 25.1676C225.089 25.1676 233.754 29.5747 239.584 38.3891C245.414 47.2034 248.33 57.405 248.332 68.9938C248.332 80.4991 245.315 90.5565 239.281 99.1661C233.246 107.776 224.805 112.077 213.957 112.071ZM214.271 102.522C221.301 102.522 226.556 99.4565 230.035 93.3247C233.513 87.1929 235.253 79.4628 235.253 70.1345C235.253 59.7512 233.473 51.2492 229.912 44.6285C226.352 38.0078 220.892 34.6964 213.531 34.6943C199.541 34.6943 192.546 45.8131 192.546 68.0505C192.546 91.0339 199.786 102.524 214.264 102.522H214.271ZM217.791 193.964H202.334L303.526 26.8692H318.692L217.791 193.964ZM307.313 195.678C296.466 195.678 288.009 191.395 281.943 182.829C275.877 174.264 272.832 163.979 272.807 151.977C272.807 139.899 275.763 129.678 281.677 121.313C287.59 112.948 296.011 108.769 306.94 108.777C318.36 108.777 326.965 113.185 332.755 121.999C338.545 130.813 341.442 141.014 341.444 152.601C341.444 164.031 338.446 174.069 332.451 182.716C326.457 191.364 318.075 195.684 307.307 195.678H307.313ZM307.495 185.885C314.492 185.885 319.718 182.871 323.174 176.844C326.63 170.816 328.358 163.118 328.358 153.748C328.358 143.719 326.609 135.309 323.111 128.517C319.614 121.725 314.165 118.324 306.765 118.314C292.693 118.314 285.658 129.432 285.658 151.67C285.654 174.482 292.93 185.887 307.488 185.885H307.495Z" fill="#3F3D56"/>
<path d="M213.957 112.071C203.271 112.071 194.848 107.827 188.691 99.3384C182.533 90.85 179.454 80.567 179.454 68.4893C179.454 56.3301 182.432 46.0679 188.387 37.7028C194.342 29.3376 202.742 25.1592 213.588 25.1676C225.089 25.1676 233.754 29.5747 239.584 38.3891C245.414 47.2034 248.33 57.405 248.332 68.9938C248.332 80.4991 245.315 90.5565 239.281 99.1661C233.246 107.776 224.805 112.077 213.957 112.071ZM214.271 102.522C221.301 102.522 226.556 99.4565 230.035 93.3247C233.513 87.1929 235.253 79.4628 235.253 70.1345C235.253 59.7512 233.473 51.2492 229.912 44.6285C226.352 38.0078 220.892 34.6964 213.531 34.6943C199.541 34.6943 192.546 45.8131 192.546 68.0505C192.546 91.0339 199.786 102.524 214.264 102.522H214.271ZM217.791 193.964H202.334L303.526 26.8692H318.692L217.791 193.964ZM307.313 195.678C296.466 195.678 288.009 191.395 281.943 182.829C275.877 174.264 272.832 163.979 272.807 151.977C272.807 139.899 275.763 129.678 281.677 121.313C287.59 112.948 296.011 108.769 306.94 108.777C318.36 108.777 326.965 113.185 332.755 121.999C338.545 130.813 341.442 141.014 341.444 152.601C341.444 164.031 338.446 174.069 332.451 182.716C326.457 191.364 318.075 195.684 307.307 195.678H307.313ZM307.495 185.885C314.492 185.885 319.718 182.871 323.174 176.844C326.63 170.816 328.358 163.118 328.358 153.748C328.358 143.719 326.609 135.309 323.111 128.517C319.614 121.725 314.165 118.324 306.765 118.314C292.693 118.314 285.658 129.432 285.658 151.67C285.654 174.482 292.93 185.887 307.488 185.885H307.495Z" fill="#3F3D56"/>
<path opacity="0.15" d="M213.957 112.071C203.271 112.071 194.848 107.827 188.691 99.3384C182.533 90.85 179.454 80.567 179.454 68.4893C179.454 56.3301 182.432 46.0679 188.387 37.7028C194.342 29.3376 202.742 25.1592 213.588 25.1676C225.089 25.1676 233.754 29.5747 239.584 38.3891C245.414 47.2034 248.33 57.405 248.332 68.9938C248.332 80.4991 245.315 90.5565 239.281 99.1661C233.246 107.776 224.805 112.077 213.957 112.071ZM214.271 102.522C221.301 102.522 226.556 99.4565 230.035 93.3247C233.513 87.1929 235.253 79.4628 235.253 70.1345C235.253 59.7512 233.473 51.2492 229.912 44.6285C226.352 38.0078 220.892 34.6964 213.531 34.6943C199.541 34.6943 192.546 45.8131 192.546 68.0505C192.546 91.0339 199.786 102.524 214.264 102.522H214.271ZM217.791 193.964H202.334L303.526 26.8692H318.692L217.791 193.964ZM307.313 195.678C296.466 195.678 288.009 191.395 281.943 182.829C275.877 174.264 272.832 163.979 272.807 151.977C272.807 139.899 275.763 129.678 281.677 121.313C287.59 112.948 296.011 108.769 306.94 108.777C318.36 108.777 326.965 113.185 332.755 121.999C338.545 130.813 341.442 141.014 341.444 152.601C341.444 164.031 338.446 174.069 332.451 182.716C326.457 191.364 318.075 195.684 307.307 195.678H307.313ZM307.495 185.885C314.492 185.885 319.718 182.871 323.174 176.844C326.63 170.816 328.358 163.118 328.358 153.748C328.358 143.719 326.609 135.309 323.111 128.517C319.614 121.725 314.165 118.324 306.765 118.314C292.693 118.314 285.658 129.432 285.658 151.67C285.654 174.482 292.93 185.887 307.488 185.885H307.495Z" fill="black"/>
<path d="M204.248 112.071C193.561 112.071 185.139 107.827 178.981 99.3384C172.823 90.85 169.745 80.567 169.745 68.4893C169.745 56.3301 172.722 46.0679 178.677 37.7028C184.633 29.3376 193.033 25.1592 203.878 25.1676C215.379 25.1676 224.045 29.5747 229.875 38.3891C235.705 47.2034 238.621 57.405 238.623 68.9938C238.623 80.4991 235.606 90.5565 229.571 99.1661C223.537 107.776 215.095 112.077 204.248 112.071ZM204.561 102.522C211.592 102.522 216.846 99.4565 220.325 93.3247C223.804 87.1929 225.543 79.4628 225.543 70.1345C225.543 59.7512 223.763 51.2492 220.203 44.6285C216.643 38.0078 211.182 34.6964 203.822 34.6943C189.832 34.6943 182.837 45.8131 182.837 68.0505C182.837 91.0339 190.076 102.524 204.555 102.522H204.561ZM208.082 193.964H192.625L293.817 26.8692H308.982L208.082 193.964ZM297.604 195.678C286.756 195.678 278.299 191.395 272.233 182.829C266.168 174.264 263.122 163.979 263.097 151.977C263.097 139.899 266.054 129.678 271.967 121.313C277.881 112.948 286.302 108.769 297.231 108.777C308.65 108.777 317.255 113.185 323.046 121.999C328.836 130.813 331.732 141.014 331.734 152.601C331.734 164.031 328.737 174.069 322.742 182.716C316.747 191.364 308.365 195.684 297.597 195.678H297.604ZM297.785 185.885C304.782 185.885 310.009 182.871 313.465 176.844C316.92 170.816 318.648 163.118 318.648 153.748C318.648 143.719 316.899 135.309 313.402 128.517C309.904 121.725 304.453 118.324 297.049 118.314C282.978 118.314 275.942 129.432 275.942 151.67C275.942 174.482 283.221 185.887 297.779 185.885H297.785Z" fill="#3F3D56"/>
<path d="M238.062 198.157C239.353 195.762 237.887 192.829 236.202 190.692C234.517 188.555 232.462 186.336 232.506 183.613C232.568 179.705 236.715 177.395 240.023 175.321C242.483 173.783 244.752 171.959 246.782 169.887C247.632 169.088 248.335 168.146 248.859 167.104C249.544 165.575 249.523 163.835 249.485 162.162C249.341 156.579 249.065 151.005 248.658 145.44" stroke="#3F3D56" stroke-width="4" stroke-miterlimit="10"/>
<path d="M254.96 145.133C254.913 144.112 254.61 143.119 254.078 142.246C253.546 141.373 252.804 140.648 251.919 140.138L250.553 142.839L250.594 139.567C249.942 139.377 249.264 139.295 248.586 139.326C247.382 139.382 246.222 139.795 245.252 140.511C244.282 141.227 243.546 142.215 243.137 143.35C242.729 144.485 242.665 145.715 242.956 146.886C243.246 148.056 243.877 149.115 244.768 149.927C245.659 150.739 246.771 151.268 247.963 151.448C249.155 151.628 250.374 151.45 251.465 150.937C252.555 150.423 253.47 149.598 254.092 148.565C254.714 147.532 255.016 146.338 254.96 145.133Z" fill="#6368B0"/>
<path d="M244.091 186.417C243.452 187.661 242.405 188.646 241.125 189.209C239.846 189.771 238.412 189.876 237.064 189.507C235.716 189.137 234.536 188.315 233.722 187.178C232.909 186.041 232.51 184.659 232.594 183.263C232.677 181.867 233.238 180.543 234.182 179.512C235.126 178.48 236.395 177.805 237.778 177.599C239.16 177.394 240.571 177.669 241.774 178.381C242.977 179.092 243.899 180.196 244.386 181.507L240.577 184.606L244.774 183.628C244.773 184.599 244.538 185.556 244.091 186.417Z" fill="#6368B0"/>
<path d="M241.082 174.569C240.282 174.606 239.483 174.486 238.73 174.214C237.977 173.943 237.284 173.525 236.692 172.986C236.101 172.447 235.621 171.796 235.28 171.071C234.94 170.347 234.745 169.562 234.708 168.762C234.66 167.806 234.841 166.854 235.234 165.982C235.598 165.167 236.136 164.442 236.81 163.858C237.485 163.274 238.279 162.845 239.136 162.601L239.102 165.108L240.483 162.375C242.098 162.299 243.677 162.869 244.872 163.958C246.068 165.047 246.782 166.566 246.857 168.182C246.933 169.798 246.364 171.377 245.275 172.573C244.187 173.769 242.668 174.484 241.053 174.559L241.082 174.569Z" fill="#6368B0"/>
<path d="M255.878 164.719C255.069 164.773 254.257 164.665 253.49 164.401C252.723 164.137 252.017 163.723 251.412 163.182C250.807 162.642 250.316 161.986 249.968 161.254C249.619 160.521 249.42 159.727 249.382 158.916C249.344 158.106 249.468 157.296 249.747 156.534C250.025 155.772 250.453 155.074 251.005 154.479C251.557 153.885 252.221 153.406 252.96 153.072C253.699 152.737 254.497 152.554 255.308 152.532C256.447 152.476 257.578 152.745 258.571 153.306L257.494 156.258L259.711 154.13C260.901 155.215 261.612 156.729 261.688 158.339C261.715 158.903 261.663 159.469 261.531 160.018C261.228 161.31 260.512 162.468 259.492 163.317C258.472 164.165 257.203 164.657 255.878 164.719Z" fill="#6368B0"/>
<path opacity="0.1" d="M254.139 146.759C252.733 146.913 251.367 147.351 249.955 147.439C248.542 147.527 246.992 147.189 246.099 146.089C245.617 145.499 245.379 144.75 244.972 144.105C244.587 143.504 244.06 143.008 243.437 142.66C243.046 143.433 242.823 144.281 242.785 145.146C242.747 146.012 242.894 146.876 243.215 147.68C243.537 148.485 244.026 149.211 244.651 149.812C245.275 150.412 246.02 150.873 246.836 151.163C247.652 151.452 248.521 151.565 249.384 151.492C250.247 151.42 251.084 151.164 251.841 150.743C252.597 150.321 253.255 149.743 253.771 149.047C254.287 148.351 254.648 147.553 254.831 146.706C254.6 146.718 254.371 146.734 254.139 146.759Z" fill="black"/>
<path opacity="0.1" d="M255.878 164.719C254.827 164.767 253.782 164.542 252.844 164.067C251.906 163.592 251.107 162.883 250.524 162.007C249.94 161.132 249.593 160.121 249.515 159.072C249.437 158.023 249.632 156.971 250.08 156.02C250.563 156.347 250.979 156.764 251.305 157.248C251.74 157.903 252.003 158.661 252.514 159.263C253.453 160.382 255.085 160.745 256.554 160.679C258.023 160.614 259.445 160.194 260.911 160.053C261.114 160.034 261.321 160.021 261.537 160.015C261.235 161.309 260.518 162.468 259.496 163.317C258.475 164.166 257.204 164.658 255.878 164.719Z" fill="black"/>
<path opacity="0.1" d="M241.082 174.569C240.282 174.606 239.483 174.486 238.73 174.214C237.977 173.943 237.284 173.525 236.692 172.986C236.101 172.447 235.621 171.796 235.28 171.071C234.94 170.347 234.745 169.562 234.708 168.762C234.66 167.806 234.841 166.854 235.234 165.982C235.736 166.317 236.173 166.742 236.521 167.235C236.994 167.903 237.292 168.674 237.846 169.291C238.873 170.435 240.602 170.839 242.159 170.802C243.716 170.764 245.122 170.401 246.622 170.285C246.25 171.482 245.519 172.535 244.528 173.302C243.536 174.068 242.333 174.51 241.082 174.569Z" fill="black"/>
<path opacity="0.1" d="M244.091 186.418C243.382 187.812 242.164 188.881 240.69 189.402C239.215 189.923 237.597 189.857 236.169 189.218C234.742 188.579 233.614 187.415 233.021 185.968C232.427 184.52 232.412 182.899 232.979 181.441C233.481 181.771 233.931 182.174 234.316 182.635C234.896 183.343 235.278 184.146 235.948 184.804C237.201 186.026 239.205 186.53 240.997 186.577C242.031 186.586 243.064 186.532 244.091 186.418Z" fill="black"/>
<path d="M332.339 197.843C333.629 195.449 332.163 192.516 330.478 190.379C328.793 188.241 326.738 186.023 326.782 183.299C326.845 179.391 330.992 177.082 334.299 175.007C336.759 173.47 339.028 171.646 341.058 169.573C341.909 168.775 342.612 167.833 343.135 166.79C343.821 165.261 343.799 163.522 343.761 161.848C343.617 156.266 343.342 150.692 342.935 145.126" stroke="#3F3D56" stroke-width="4" stroke-miterlimit="10"/>
<path d="M349.236 144.819C349.189 143.798 348.886 142.805 348.354 141.932C347.823 141.059 347.08 140.334 346.195 139.824L344.829 142.525L344.87 139.254C344.219 139.063 343.54 138.982 342.863 139.012C341.658 139.069 340.498 139.481 339.528 140.198C338.558 140.914 337.823 141.902 337.414 143.037C337.005 144.171 336.942 145.402 337.232 146.572C337.522 147.743 338.153 148.801 339.044 149.613C339.936 150.425 341.048 150.955 342.24 151.134C343.432 151.314 344.65 151.136 345.741 150.623C346.832 150.11 347.746 149.285 348.368 148.252C348.991 147.219 349.293 146.024 349.236 144.819Z" fill="#6368B0"/>
<path d="M338.368 186.104C337.728 187.347 336.681 188.333 335.402 188.895C334.122 189.458 332.688 189.563 331.34 189.193C329.993 188.823 328.813 188.001 327.999 186.865C327.185 185.728 326.787 184.346 326.87 182.95C326.954 181.554 327.515 180.23 328.459 179.198C329.402 178.167 330.672 177.492 332.054 177.286C333.437 177.08 334.848 177.356 336.051 178.067C337.254 178.779 338.176 179.883 338.662 181.193L334.854 184.293L339.051 183.315C339.049 184.286 338.815 185.242 338.368 186.104Z" fill="#6368B0"/>
<path d="M335.358 174.255C334.558 174.293 333.759 174.172 333.006 173.901C332.253 173.629 331.561 173.212 330.969 172.673C330.377 172.133 329.897 171.483 329.557 170.758C329.216 170.033 329.022 169.248 328.984 168.448C328.937 167.493 329.117 166.54 329.51 165.669C329.874 164.854 330.413 164.129 331.087 163.545C331.761 162.961 332.555 162.531 333.413 162.287L333.378 164.794L334.76 162.062H334.775C335.575 162.024 336.374 162.145 337.127 162.416C337.88 162.688 338.572 163.105 339.164 163.644C339.756 164.184 340.236 164.834 340.577 165.559C340.917 166.284 341.112 167.069 341.149 167.869C341.187 168.669 341.066 169.468 340.795 170.222C340.523 170.975 340.106 171.668 339.567 172.26C339.028 172.852 338.378 173.332 337.654 173.673C336.929 174.014 336.145 174.208 335.345 174.246L335.358 174.255Z" fill="#6368B0"/>
<path d="M350.154 164.406C349.345 164.459 348.533 164.351 347.767 164.087C347 163.823 346.293 163.409 345.688 162.869C345.084 162.329 344.593 161.673 344.244 160.94C343.895 160.208 343.696 159.413 343.658 158.603C343.621 157.792 343.745 156.983 344.023 156.221C344.302 155.459 344.73 154.76 345.281 154.166C345.833 153.571 346.498 153.093 347.237 152.758C347.975 152.424 348.773 152.24 349.584 152.218C350.723 152.163 351.855 152.431 352.848 152.992L351.77 155.944L353.988 153.817C355.178 154.902 355.889 156.416 355.964 158.025C355.992 158.59 355.939 159.155 355.808 159.705C355.504 160.997 354.788 162.155 353.768 163.003C352.748 163.852 351.479 164.344 350.154 164.406Z" fill="#6368B0"/>
<path opacity="0.1" d="M348.416 146.446C347.009 146.599 345.644 147.038 344.231 147.126C342.819 147.214 341.268 146.875 340.376 145.775C339.893 145.186 339.655 144.437 339.248 143.791C338.864 143.191 338.336 142.694 337.713 142.347C337.322 143.12 337.1 143.967 337.062 144.833C337.024 145.699 337.17 146.562 337.492 147.367C337.813 148.171 338.303 148.898 338.927 149.499C339.551 150.099 340.296 150.559 341.113 150.849C341.929 151.139 342.797 151.251 343.66 151.179C344.523 151.107 345.361 150.851 346.117 150.429C346.874 150.008 347.532 149.43 348.047 148.734C348.563 148.037 348.925 147.239 349.108 146.393C348.876 146.405 348.648 146.421 348.416 146.446Z" fill="black"/>
<path opacity="0.1" d="M350.154 164.406C349.104 164.454 348.059 164.229 347.121 163.754C346.183 163.279 345.383 162.569 344.8 161.694C344.217 160.819 343.869 159.807 343.792 158.758C343.714 157.709 343.909 156.658 344.357 155.706C344.839 156.034 345.255 156.451 345.581 156.935C346.017 157.59 346.28 158.348 346.79 158.95C347.73 160.068 349.362 160.432 350.831 160.366C352.3 160.3 353.722 159.88 355.187 159.739C355.391 159.721 355.598 159.708 355.814 159.702C355.511 160.995 354.794 162.155 353.773 163.004C352.751 163.853 351.481 164.345 350.154 164.406Z" fill="black"/>
<path opacity="0.1" d="M335.358 174.255C334.558 174.293 333.759 174.172 333.006 173.901C332.253 173.629 331.561 173.212 330.969 172.673C330.377 172.133 329.897 171.483 329.557 170.758C329.216 170.033 329.022 169.248 328.984 168.448C328.937 167.493 329.117 166.54 329.51 165.669C330.013 166.004 330.449 166.429 330.798 166.922C331.271 167.59 331.568 168.361 332.123 168.978C333.15 170.122 334.879 170.526 336.435 170.488C337.945 170.457 339.398 170.087 340.899 169.971C340.527 171.168 339.795 172.222 338.804 172.988C337.813 173.755 336.609 174.197 335.358 174.255Z" fill="black"/>
<path opacity="0.1" d="M338.368 186.104C337.659 187.499 336.441 188.567 334.966 189.089C333.492 189.61 331.873 189.544 330.446 188.905C329.018 188.266 327.891 187.102 327.297 185.654C326.703 184.207 326.688 182.586 327.255 181.128C327.757 181.458 328.208 181.86 328.593 182.322C329.172 183.03 329.554 183.832 330.224 184.49C331.477 185.712 333.482 186.217 335.273 186.264C336.307 186.272 337.34 186.219 338.368 186.104Z" fill="black"/>
<path d="M34.4313 193.769C33.1409 191.375 34.6067 188.442 36.2918 186.305C37.9768 184.167 40.0315 181.949 39.9876 179.225C39.925 175.318 35.7781 173.008 32.4706 170.933C30.0107 169.396 27.7418 167.572 25.7115 165.499C24.8613 164.701 24.1583 163.759 23.6349 162.716C22.949 161.187 22.9709 159.448 23.0085 157.774C23.1526 152.192 23.4282 146.618 23.8354 141.052" stroke="#3F3D56" stroke-width="4" stroke-miterlimit="10"/>
<path d="M17.5336 140.745C17.5807 139.724 17.884 138.731 18.4155 137.858C18.947 136.985 19.6896 136.26 20.5748 135.75L21.9404 138.451L21.8997 135.18C22.5511 134.989 23.2295 134.908 23.9074 134.938C25.1115 134.995 26.2719 135.407 27.2418 136.124C28.2116 136.84 28.9474 137.828 29.3561 138.963C29.7648 140.097 29.828 141.328 29.5378 142.498C29.2476 143.669 28.6169 144.727 27.7256 145.539C26.8343 146.351 25.7224 146.881 24.5304 147.06C23.3384 147.24 22.1199 147.062 21.0289 146.549C19.938 146.036 19.0237 145.211 18.4015 144.178C17.7793 143.145 17.4773 141.95 17.5336 140.745Z" fill="#6368B0"/>
<path d="M28.402 182.03C29.0415 183.273 30.0888 184.259 31.3684 184.821C32.6479 185.384 34.0817 185.489 35.4295 185.119C36.7773 184.749 37.9571 183.927 38.771 182.791C39.5848 181.654 39.9833 180.272 39.8997 178.876C39.816 177.48 39.2552 176.156 38.3113 175.124C37.3675 174.093 36.098 173.418 34.7156 173.212C33.3333 173.006 31.9223 173.282 30.7192 173.994C29.516 174.705 28.594 175.809 28.1076 177.12L31.9162 180.219L27.7192 179.241C27.7209 180.212 27.9551 181.168 28.402 182.03Z" fill="#6368B0"/>
<path d="M31.4119 170.181C32.2115 170.219 33.0107 170.098 33.7638 169.827C34.5168 169.555 35.2091 169.138 35.801 168.599C36.3928 168.059 36.8728 167.409 37.2133 166.684C37.5539 165.959 37.7484 165.174 37.7858 164.374C37.8332 163.419 37.6528 162.466 37.2596 161.595C36.8955 160.78 36.3573 160.055 35.6831 159.471C35.0089 158.887 34.2149 158.457 33.357 158.213L33.3914 160.72L32.0102 157.988C30.3953 157.912 28.8166 158.481 27.6212 159.57C26.4259 160.659 25.7119 162.179 25.6363 163.795C25.5607 165.41 26.1297 166.99 27.2181 168.186C28.3066 169.382 29.8253 170.096 31.4401 170.172L31.4119 170.181Z" fill="#6368B0"/>
<path d="M16.6158 160.332C17.4249 160.385 18.2366 160.277 19.0033 160.013C19.7701 159.749 20.4766 159.335 21.0814 158.795C21.6863 158.255 22.1773 157.599 22.5259 156.866C22.8745 156.134 23.0735 155.339 23.1114 154.529C23.1493 153.718 23.0253 152.909 22.7467 152.147C22.468 151.385 22.0403 150.686 21.4885 150.092C20.9367 149.497 20.272 149.019 19.5332 148.684C18.7944 148.35 17.9964 148.166 17.1859 148.144C16.052 148.092 14.9263 148.36 13.9379 148.918L15.0153 151.87L12.7821 149.752C11.5942 150.835 10.8836 152.345 10.8058 153.951C10.778 154.516 10.8308 155.081 10.9624 155.631C11.2655 156.923 11.9814 158.081 13.0017 158.929C14.0219 159.778 15.2907 160.27 16.6158 160.332Z" fill="#6368B0"/>
<path opacity="0.1" d="M18.3542 142.372C19.7605 142.525 21.1261 142.964 22.5387 143.052C23.9513 143.14 25.5017 142.801 26.3943 141.701C26.8766 141.112 27.1147 140.363 27.5219 139.718C27.9064 139.117 28.4337 138.62 29.0566 138.273C29.4478 139.046 29.67 139.893 29.7082 140.759C29.7464 141.625 29.5998 142.488 29.2782 143.293C28.9565 144.097 28.4673 144.824 27.8429 145.425C27.2186 146.025 26.4736 146.485 25.6574 146.775C24.8413 147.065 23.9728 147.177 23.1098 147.105C22.2469 147.033 21.4092 146.777 20.6527 146.355C19.8962 145.934 19.2382 145.356 18.7225 144.66C18.2068 143.963 17.8453 143.165 17.662 142.319C17.8938 142.331 18.1224 142.347 18.3542 142.372Z" fill="black"/>
<path opacity="0.1" d="M16.6158 160.332C17.6662 160.38 18.711 160.155 19.6491 159.68C20.5872 159.205 21.3866 158.495 21.9699 157.62C22.5532 156.745 22.9006 155.734 22.9783 154.685C23.056 153.635 22.8614 152.584 22.4134 151.632C21.9305 151.96 21.5148 152.377 21.1887 152.861C20.7534 153.516 20.4903 154.274 19.9797 154.876C19.0401 155.995 17.4083 156.358 15.9393 156.292C14.4703 156.226 13.0484 155.807 11.5825 155.666C11.379 155.647 11.1722 155.634 10.9561 155.628C11.2589 156.922 11.9756 158.081 12.9971 158.93C14.0186 159.779 15.2892 160.271 16.6158 160.332Z" fill="black"/>
<path opacity="0.1" d="M31.4119 170.181C32.2115 170.219 33.0107 170.098 33.7638 169.827C34.5168 169.555 35.2091 169.138 35.801 168.599C36.3928 168.059 36.8728 167.409 37.2133 166.684C37.5539 165.959 37.7484 165.174 37.7858 164.374C37.8332 163.419 37.6528 162.466 37.2596 161.595C36.757 161.93 36.3206 162.355 35.9723 162.848C35.4993 163.516 35.2018 164.287 34.6474 164.904C33.6201 166.048 31.8911 166.452 30.3345 166.414C28.8248 166.383 27.3715 166.013 25.8712 165.897C26.2431 167.094 26.9744 168.148 27.9658 168.914C28.9571 169.681 30.1604 170.123 31.4119 170.181Z" fill="black"/>
<path opacity="0.1" d="M28.402 182.03C29.1112 183.425 30.3291 184.493 31.8037 185.015C33.2783 185.536 34.8968 185.47 36.3242 184.831C37.7517 184.192 38.879 183.028 39.4728 181.58C40.0667 180.133 40.0817 178.512 39.5147 177.054C39.0129 177.384 38.5623 177.786 38.1773 178.248C37.5978 178.956 37.2157 179.758 36.5455 180.416C35.2926 181.638 33.2881 182.143 31.4965 182.19C30.4627 182.198 29.4294 182.145 28.402 182.03Z" fill="black"/>
<path d="M210.948 164.402C210.953 163.643 210.781 162.892 210.445 162.211C210.109 161.529 209.618 160.936 209.012 160.479C208.937 157.605 206.888 155.258 204.254 154.894C204.051 153.918 203.594 153.013 202.93 152.269C202.266 151.525 201.417 150.969 200.471 150.658C200.24 150.585 200.005 150.529 199.766 150.491H199.697L199.575 150.476H199.471H199.368H199.233H199.152H198.93C196.242 150.476 194.006 152.532 193.546 155.242C191.807 154.841 190.213 155.361 189.928 156.461C189.854 156.753 189.871 157.06 189.975 157.342C190.269 158.194 191.228 159.009 192.528 159.413L192.697 159.464C192.781 159.489 192.866 159.507 192.95 159.526H193.007C192.529 160.546 192.461 161.71 192.817 162.778C193.174 163.846 193.927 164.736 194.921 165.264C194.881 165.286 194.844 165.31 194.808 165.336C194.647 165.484 194.519 165.663 194.432 165.863C194.118 166.414 193.874 167.003 193.705 167.615C193.58 168.138 193.558 168.686 193.392 169.203C193.107 170.144 192.374 170.968 192.29 171.967C192.252 172.412 192.324 172.936 192.008 173.24C191.929 173.308 191.845 173.369 191.757 173.425C191.535 173.577 191.348 173.773 191.206 174.001C191.114 174.19 190.99 174.362 190.839 174.509C190.554 174.725 190.085 174.703 189.944 175.035C189.803 175.368 190.166 175.759 190.081 176.123C190.012 176.417 189.69 176.552 189.455 176.75C189.192 177.035 189.009 177.384 188.923 177.762C188.455 177.852 187.973 177.838 187.511 177.72C187.049 177.603 186.619 177.385 186.251 177.082C186.377 177.405 186.469 177.74 186.526 178.082C186.154 177.684 185.54 177.568 185.086 177.361C184.5 177.092 183.977 176.704 183.551 176.22L184.372 176.107L180.738 170.592L179.667 170.372L180.629 172.218C180.55 172.256 180.481 172.311 180.427 172.38C180.372 172.448 180.334 172.528 180.315 172.613C180.264 172.818 180.251 173.03 180.278 173.24C180.329 173.735 180.411 174.225 180.525 174.71L180.804 176.007C180.828 176.129 180.858 176.249 180.895 176.367C180.532 176.354 180.169 176.395 179.817 176.49C179.097 176.223 178.347 176.045 177.584 175.96C177.416 175.93 177.244 175.939 177.08 175.985C176.894 176.071 176.732 176.202 176.61 176.367C175.984 177.092 175.428 177.875 174.95 178.705C172.999 182.102 170.393 185.067 167.953 188.138C166.268 188.824 164.57 189.476 162.87 190.122L159.214 191.516C158.485 191.795 157.727 192.08 156.95 192.03C156.599 192.008 156.173 191.955 155.976 192.253C155.88 192.4 155.805 192.561 155.753 192.729C155.625 192.729 155.497 192.76 155.378 192.767H155.356C155.124 192.19 154.923 191.573 154.479 191.153C154.389 191.166 154.305 191.202 154.232 191.257C154.16 191.312 154.103 191.383 154.065 191.466C153.978 191.629 153.924 191.808 153.824 191.958C153.627 192.246 153.285 192.387 153.041 192.632C152.797 192.876 152.643 193.259 152.38 193.497C152.012 193.765 151.58 193.932 151.127 193.982C150.449 194.142 149.795 194.391 149.182 194.722C148.956 194.861 148.714 194.973 148.462 195.054C148.184 195.107 147.9 195.117 147.619 195.082L145.684 194.941C145.512 194.919 145.337 194.926 145.167 194.963C144.968 195.036 144.798 195.174 144.685 195.353C144.571 195.533 144.521 195.745 144.541 195.957C144.564 196.167 144.63 196.37 144.736 196.553C144.841 196.736 144.982 196.896 145.151 197.022C145.487 197.269 145.859 197.462 146.254 197.596C147.936 198.248 149.67 198.756 151.437 199.116V199.507C152.663 200.125 154.015 200.447 155.387 200.447C155.488 200.455 155.59 200.437 155.681 200.394C155.808 200.299 155.896 200.161 155.929 200.006C156.34 198.777 156.599 197.502 156.703 196.211C156.944 196.195 157.181 196.134 157.401 196.032C158.068 195.85 158.729 196.308 159.415 196.383C160.261 196.474 161.047 195.982 161.845 195.678C161.961 195.634 162.077 195.596 162.193 195.559C161.965 195.854 161.696 196.114 161.394 196.333C161.062 196.571 160.69 196.746 160.364 196.994C160.093 197.241 159.803 197.467 159.496 197.668C159.28 197.769 159.057 197.854 158.829 197.925C158.499 198.045 158.183 198.204 157.89 198.398C157.626 198.553 157.403 198.768 157.238 199.025C157.155 199.145 157.104 199.284 157.09 199.429C157.075 199.575 157.098 199.721 157.157 199.855C157.215 199.989 157.307 200.105 157.423 200.194C157.539 200.282 157.676 200.339 157.821 200.36C158.082 200.406 158.349 200.414 158.613 200.382C159.659 200.303 160.702 200.206 161.745 200.112C162.187 200.083 162.625 200.02 163.058 199.924C163.286 199.868 163.512 199.793 163.74 199.733C164.13 199.63 164.531 199.57 164.934 199.554C165.051 199.545 165.168 199.557 165.281 199.589C165.526 199.667 165.698 199.902 165.945 199.965C166.106 199.981 166.268 199.958 166.418 199.899C167.182 199.733 167.961 199.65 168.742 199.651C169.084 199.633 169.485 199.567 169.644 199.25C169.839 198.859 169.513 198.42 169.384 197.997C169.319 197.728 169.283 197.453 169.278 197.176C169.218 196.493 169.022 195.829 168.702 195.223C168.531 194.941 168.387 194.643 168.273 194.333C169.769 193.764 171.201 193.037 172.545 192.165C173.315 191.685 174.111 191.168 174.981 190.993C175.996 190.789 177.042 191.059 178.042 191.347C180.422 192.036 182.763 192.853 185.054 193.794C186.151 194.243 187.247 194.719 188.368 195.048C188.696 195.491 189.092 195.878 189.543 196.195C190.294 196.681 191.212 196.822 192.095 196.891C193.289 197 194.487 197.045 195.685 197.025C196.599 197.01 197.542 196.947 198.36 196.53C198.559 196.428 198.747 196.304 198.92 196.16C199.547 196.273 200.189 195.938 200.68 195.509C201.331 194.955 201.801 194.218 202.027 193.393C202.315 192.262 202.093 190.943 202.788 190.018C202.973 189.771 203.214 189.57 203.396 189.319C203.62 188.984 203.73 188.585 203.709 188.182L203.741 188.135C203.898 187.771 204.003 187.387 204.054 186.994C204.136 186.687 204.241 186.386 204.367 186.095C204.72 185.22 205.027 184.328 205.288 183.422C205.469 182.82 205.611 182.208 205.714 181.588C205.789 181.093 205.833 180.595 205.873 180.097C205.924 179.317 206.075 178.547 206.325 177.806C206.943 176.038 207.292 174.187 207.361 172.315C207.361 172.278 207.361 172.243 207.361 172.206C208.271 172.106 209.11 171.67 209.715 170.984C210.321 170.298 210.648 169.41 210.634 168.495C210.635 167.944 210.52 167.398 210.296 166.894C210.728 166.135 210.953 165.276 210.948 164.402ZM193.235 185.935C193.289 186.126 193.351 186.317 193.414 186.508C193.126 186.223 192.841 185.929 192.55 185.647C192.665 185.681 192.781 185.719 192.894 185.759C193.014 185.807 193.129 185.866 193.239 185.935H193.235ZM191.832 184.995C190.122 183.509 188.143 182.356 186.392 180.921C187.331 181.394 188.271 181.942 189.211 182.469C190.305 183.096 191.412 183.695 192.531 184.268C192.347 184.546 192.113 184.789 191.842 184.982L191.832 184.995ZM192.562 181.253L192.643 181.168C192.643 181.378 192.643 181.576 192.643 181.754C192.49 181.704 192.33 181.654 192.183 181.598C192.318 181.487 192.446 181.368 192.565 181.24L192.562 181.253ZM177.506 185.277C178.21 184.48 178.823 183.606 179.332 182.673C180.009 183.86 181.111 184.716 182.051 185.709C180.541 185.496 179.028 185.33 177.509 185.264L177.506 185.277Z" fill="url(#paint0_linear_426_9603)"/>
<path d="M179.949 170.83L181.03 171.049L184.71 176.49L183.084 176.709L179.949 170.83Z" fill="#2F2E41"/>
<path d="M153.78 192.911C154.072 193.875 154.431 194.817 154.855 195.731C156.074 195.476 157.274 195.133 158.444 194.706C158.217 194.353 157.968 194.015 157.699 193.694C157.411 193.374 157.067 193.11 156.684 192.914C156.311 192.751 155.851 192.873 155.453 192.895C154.895 192.916 154.338 192.921 153.78 192.911Z" fill="#FBBEBE"/>
<path d="M156.69 194.365C156.082 194.174 155.71 193.559 155.462 192.967C155.215 192.375 155.014 191.729 154.544 191.294C154.455 191.308 154.371 191.344 154.298 191.398C154.226 191.453 154.169 191.525 154.131 191.607C154.04 191.764 153.987 191.942 153.884 192.093C153.689 192.375 153.345 192.513 153.097 192.754C152.85 192.995 152.697 193.362 152.43 193.603C152.061 193.869 151.63 194.035 151.177 194.086C150.495 194.241 149.835 194.485 149.217 194.813C148.988 194.946 148.744 195.051 148.49 195.126C148.21 195.18 147.924 195.189 147.641 195.155L145.69 195.014C145.517 194.992 145.341 195 145.17 195.039C144.971 195.108 144.802 195.242 144.688 195.419C144.574 195.596 144.524 195.807 144.544 196.016C144.57 196.225 144.639 196.426 144.746 196.607C144.854 196.788 144.999 196.944 145.17 197.066C145.509 197.309 145.883 197.499 146.279 197.63C147.979 198.27 149.728 198.77 151.509 199.125V199.511C152.747 200.124 154.109 200.445 155.49 200.451C155.598 200.46 155.706 200.442 155.804 200.397C155.931 200.304 156.02 200.169 156.054 200.015C156.522 198.646 156.795 197.217 156.865 195.772C156.901 195.406 156.874 195.037 156.784 194.681C156.677 194.33 157.041 194.478 156.703 194.34" fill="#2F2E41"/>
<path d="M194.1 187.007C188.315 187.358 182.602 185.659 176.808 185.477C176.088 185.434 175.367 185.48 174.659 185.615C173.921 185.813 173.207 186.091 172.529 186.443C169.425 187.887 166.212 189.084 163.001 190.282L159.318 191.654C158.579 191.927 157.818 192.206 157.031 192.159C156.681 192.137 156.251 192.083 156.051 192.378C155.453 193.265 155.738 194.572 156.132 195.568C156.261 195.882 156.477 196.242 156.822 196.28C157.065 196.263 157.304 196.202 157.526 196.101C158.197 195.922 158.867 196.374 159.556 196.446C160.411 196.537 161.203 196.051 162.008 195.753C163.343 195.261 164.802 195.277 166.205 195.042C168.561 194.65 170.741 193.556 172.783 192.309C173.56 191.836 174.349 191.328 175.238 191.156C176.263 190.955 177.318 191.219 178.323 191.504C180.72 192.183 183.08 192.987 185.393 193.914C186.596 194.437 187.831 194.887 189.089 195.261C191.83 195.983 194.73 195.814 197.37 194.779C198.309 194.412 199.299 193.766 199.352 192.767C199.384 192.196 198.942 191.695 198.648 191.2C198.457 190.886 198.269 190.573 198.062 190.275C197.066 188.821 195.857 186.9 194.1 187.007Z" fill="#2F2E41"/>
<path opacity="0.1" d="M194.1 187.007C188.315 187.358 182.602 185.659 176.808 185.477C176.088 185.434 175.367 185.48 174.659 185.615C173.921 185.813 173.207 186.091 172.529 186.443C169.425 187.887 166.212 189.084 163.001 190.282L159.318 191.654C158.579 191.927 157.818 192.206 157.031 192.159C156.681 192.137 156.251 192.083 156.051 192.378C155.453 193.265 155.738 194.572 156.132 195.568C156.261 195.882 156.477 196.242 156.822 196.28C157.065 196.263 157.304 196.202 157.526 196.101C158.197 195.922 158.867 196.374 159.556 196.446C160.411 196.537 161.203 196.051 162.008 195.753C163.343 195.261 164.802 195.277 166.205 195.042C168.561 194.65 170.741 193.556 172.783 192.309C173.56 191.836 174.349 191.328 175.238 191.156C176.263 190.955 177.318 191.219 178.323 191.504C180.72 192.183 183.08 192.987 185.393 193.914C186.596 194.437 187.831 194.887 189.089 195.261C191.83 195.983 194.73 195.814 197.37 194.779C198.309 194.412 199.299 193.766 199.352 192.767C199.384 192.196 198.942 191.695 198.648 191.2C198.457 190.886 198.269 190.573 198.062 190.275C197.066 188.821 195.857 186.9 194.1 187.007Z" fill="black"/>
<path d="M164.884 193.193C165.79 193.5 166.702 193.784 167.621 194.045C168.138 193.196 169.103 192.607 169.322 191.638C169.334 191.597 169.334 191.552 169.322 191.51C169.298 191.469 169.262 191.436 169.218 191.416C168.558 191.052 167.825 190.838 167.073 190.789C166.478 190.752 166.208 191.372 165.939 191.808C165.845 191.983 165.125 193.274 164.884 193.193Z" fill="#FBBEBE"/>
<path d="M166.158 192.572C165.888 192.527 165.63 192.426 165.401 192.276C165.171 192.125 164.976 191.928 164.827 191.698C164.699 191.475 164.564 191.175 164.307 191.19C164.05 191.206 163.963 191.488 163.91 191.723C163.736 192.601 163.486 193.462 163.161 194.296C162.834 195.132 162.279 195.861 161.56 196.399C161.225 196.631 160.853 196.806 160.524 197.051C160.25 197.295 159.956 197.517 159.647 197.715C159.429 197.815 159.204 197.898 158.973 197.966C158.636 198.083 158.313 198.24 158.012 198.433C157.748 198.587 157.523 198.802 157.357 199.059C157.277 199.19 157.23 199.338 157.22 199.491C157.21 199.644 157.238 199.797 157.301 199.937C157.368 200.05 157.459 200.148 157.567 200.224C157.675 200.301 157.798 200.353 157.927 200.379C158.191 200.422 158.46 200.429 158.726 200.397C159.781 200.319 160.834 200.225 161.886 200.131C162.332 200.103 162.775 200.043 163.211 199.949C163.443 199.893 163.668 199.818 163.897 199.758C164.292 199.657 164.696 199.599 165.103 199.583C165.221 199.574 165.34 199.585 165.454 199.617C165.698 199.695 165.87 199.93 166.121 199.987C166.282 200.004 166.445 199.982 166.597 199.924C167.367 199.761 168.152 199.679 168.94 199.68C169.284 199.661 169.691 199.595 169.848 199.285C170.045 198.899 169.72 198.467 169.588 198.053C169.523 197.788 169.486 197.517 169.478 197.245C169.419 196.571 169.222 195.918 168.899 195.324C168.63 194.829 168.273 194.283 168.451 193.757C168.547 193.593 168.608 193.41 168.63 193.221C168.586 192.372 166.634 192.685 166.158 192.572Z" fill="#2F2E41"/>
<path d="M185.427 177.724C184.402 177.272 183.581 176.456 183.122 175.433C183.028 175.214 182.946 174.985 182.856 174.763C182.551 174.027 182.079 173.373 181.477 172.851C181.413 172.78 181.334 172.724 181.246 172.687C181.158 172.65 181.063 172.632 180.967 172.635C180.874 172.663 180.791 172.714 180.725 172.785C180.659 172.855 180.613 172.942 180.591 173.036C180.537 173.24 180.524 173.453 180.55 173.663C180.604 174.149 180.688 174.632 180.801 175.108L181.083 176.386C181.118 176.583 181.177 176.774 181.258 176.957C181.379 177.171 181.538 177.361 181.728 177.517C181.985 177.756 182.245 177.984 182.508 178.207C182.653 178.338 182.812 178.454 182.981 178.552C183.259 178.683 183.556 178.77 183.861 178.809C185.011 179.022 186.179 179.329 187.147 180.062C187.147 180.062 187.147 179.207 187.125 179.122C187.113 178.874 187.028 178.635 186.88 178.436C186.517 178.044 185.891 177.928 185.427 177.724Z" fill="#FBBEBE"/>
<path opacity="0.1" d="M185.427 177.724C184.402 177.272 183.581 176.456 183.122 175.433C183.028 175.214 182.946 174.985 182.856 174.763C182.551 174.027 182.079 173.373 181.477 172.851C181.413 172.78 181.334 172.724 181.246 172.687C181.158 172.65 181.063 172.632 180.967 172.635C180.874 172.663 180.791 172.714 180.725 172.785C180.659 172.855 180.613 172.942 180.591 173.036C180.537 173.24 180.524 173.453 180.55 173.663C180.604 174.149 180.688 174.632 180.801 175.108L181.083 176.386C181.118 176.583 181.177 176.774 181.258 176.957C181.379 177.171 181.538 177.361 181.728 177.517C181.985 177.756 182.245 177.984 182.508 178.207C182.653 178.338 182.812 178.454 182.981 178.552C183.259 178.683 183.556 178.77 183.861 178.809C185.011 179.022 186.179 179.329 187.147 180.062C187.147 180.062 187.147 179.207 187.125 179.122C187.113 178.874 187.028 178.635 186.88 178.436C186.517 178.044 185.891 177.928 185.427 177.724Z" fill="black"/>
<path d="M197.204 167.947C197.98 167.947 198.61 167.313 198.61 166.53C198.61 165.748 197.98 165.114 197.204 165.114C196.427 165.114 195.797 165.748 195.797 166.53C195.797 167.313 196.427 167.947 197.204 167.947Z" fill="#2F2E41"/>
<path d="M196.333 165.675C195.955 165.589 195.559 165.646 195.221 165.835C195.059 165.979 194.929 166.156 194.842 166.355C194.526 166.896 194.28 167.475 194.109 168.078C193.984 168.596 193.962 169.135 193.796 169.645C193.508 170.585 192.769 171.385 192.684 172.365C192.647 172.804 192.719 173.321 192.399 173.619C192.32 173.686 192.235 173.745 192.145 173.798C191.923 173.947 191.734 174.141 191.591 174.368C191.495 174.571 191.363 174.755 191.2 174.91C190.911 175.123 190.438 175.101 190.298 175.43C190.157 175.759 190.52 176.142 190.435 176.499C190.366 176.79 190.041 176.925 189.809 177.126C189.545 177.406 189.36 177.751 189.273 178.125C188.803 178.214 188.319 178.2 187.854 178.083C187.39 177.967 186.956 177.752 186.583 177.452C186.974 178.42 186.984 179.489 186.999 180.532C187.045 180.866 186.956 181.204 186.752 181.472C187.873 181.497 188.963 181.786 190.056 182.046C190.524 182.203 191.03 182.203 191.497 182.046C191.747 181.911 191.971 181.733 192.158 181.519C192.753 180.915 193.376 180.266 193.52 179.423C193.559 178.949 193.567 178.472 193.546 177.997C193.603 177.41 193.724 176.831 193.906 176.27C194.22 175.106 194.43 173.915 194.532 172.713C194.598 171.971 195.237 171.375 195.575 170.711C196.202 169.457 196.859 168.157 196.909 166.753C196.953 166.295 196.797 165.734 196.333 165.675Z" fill="#2F2E41"/>
<path opacity="0.1" d="M196.333 165.675C195.955 165.589 195.559 165.646 195.221 165.835C195.059 165.979 194.929 166.156 194.842 166.355C194.526 166.896 194.28 167.475 194.109 168.078C193.984 168.596 193.962 169.135 193.796 169.645C193.508 170.585 192.769 171.385 192.684 172.365C192.647 172.804 192.719 173.321 192.399 173.619C192.32 173.686 192.235 173.745 192.145 173.798C191.923 173.947 191.734 174.141 191.591 174.368C191.495 174.571 191.363 174.755 191.2 174.91C190.911 175.123 190.438 175.101 190.298 175.43C190.157 175.759 190.52 176.142 190.435 176.499C190.366 176.79 190.041 176.925 189.809 177.126C189.545 177.406 189.36 177.751 189.273 178.125C188.803 178.214 188.319 178.2 187.854 178.083C187.39 177.967 186.956 177.752 186.583 177.452C186.974 178.42 186.984 179.489 186.999 180.532C187.045 180.866 186.956 181.204 186.752 181.472C187.873 181.497 188.963 181.786 190.056 182.046C190.524 182.203 191.03 182.203 191.497 182.046C191.747 181.911 191.971 181.733 192.158 181.519C192.753 180.915 193.376 180.266 193.52 179.423C193.559 178.949 193.567 178.472 193.546 177.997C193.603 177.41 193.724 176.831 193.906 176.27C194.22 175.106 194.43 173.915 194.532 172.713C194.598 171.971 195.237 171.375 195.575 170.711C196.202 169.457 196.859 168.157 196.909 166.753C196.953 166.295 196.797 165.734 196.333 165.675Z" fill="black"/>
<path d="M195.018 188.226C193.812 187.652 192.932 186.584 191.958 185.668C190.097 183.92 187.823 182.685 185.869 181.046C184.575 179.962 183.416 178.699 181.991 177.79C180.738 176.99 179.316 176.491 177.838 176.333C177.669 176.303 177.496 176.312 177.331 176.358C177.144 176.442 176.981 176.571 176.858 176.734C176.226 177.446 175.665 178.217 175.182 179.037C172.704 183.243 169.187 186.781 166.271 190.695C166.178 190.787 166.122 190.911 166.116 191.042C166.109 191.174 166.153 191.302 166.237 191.403L166.829 192.566C167.161 193.215 167.693 193.973 168.395 193.845C168.717 193.752 169.005 193.568 169.225 193.315L171.887 190.767L174.678 188.097C176.313 186.53 177.976 184.932 179.044 182.933C179.877 184.377 181.355 185.324 182.37 186.649C182.755 187.151 183.069 187.705 183.413 188.238C183.968 189.094 184.594 189.896 185.22 190.695L188.425 194.785C188.829 195.367 189.33 195.876 189.906 196.289C190.664 196.768 191.588 196.897 192.481 196.975C193.683 197.085 194.891 197.129 196.098 197.107C197.019 197.091 197.977 197.032 198.792 196.621C199.606 196.211 200.298 195.368 200.255 194.449C200.205 193.968 200.047 193.504 199.794 193.092C198.663 190.993 197.166 189.238 195.018 188.226Z" fill="#2F2E41"/>
<path d="M198.068 168.599C198.665 168.599 199.149 168.112 199.149 167.511C199.149 166.911 198.665 166.424 198.068 166.424C197.471 166.424 196.988 166.911 196.988 167.511C196.988 168.112 197.471 168.599 198.068 168.599Z" fill="#E8E8F0"/>
<path d="M197.83 166.693C198.074 167.18 198.117 167.743 197.949 168.26C197.782 168.769 197.548 169.254 197.254 169.702C197 170.164 196.697 170.597 196.349 170.993C198.018 171.074 199.637 170.419 201.11 169.623C202.297 168.997 203.481 168.198 204.113 167.004C203.925 167.048 203.729 167.054 203.539 167.018C203.349 166.983 203.168 166.909 203.008 166.8C202.689 166.578 202.403 166.312 202.159 166.01L201.323 165.07C201.125 164.864 200.952 164.636 200.806 164.39C200.623 164.056 200.545 163.675 200.583 163.296C200.25 163.645 199.878 163.954 199.475 164.218C198.876 164.609 198.222 164.891 197.617 165.277C197.404 165.415 196.931 165.637 197.053 165.904C197.176 166.17 197.661 166.392 197.83 166.693Z" fill="#FBBEBE"/>
<path opacity="0.1" d="M197.83 166.693C198.074 167.18 198.117 167.743 197.949 168.26C197.782 168.769 197.548 169.254 197.254 169.702C197 170.164 196.697 170.597 196.349 170.993C198.018 171.074 199.637 170.419 201.11 169.623C202.297 168.997 203.481 168.198 204.113 167.004C203.925 167.048 203.729 167.054 203.539 167.018C203.349 166.983 203.168 166.909 203.008 166.8C202.689 166.578 202.403 166.312 202.159 166.01L201.323 165.07C201.125 164.864 200.952 164.636 200.806 164.39C200.623 164.056 200.545 163.675 200.583 163.296C200.25 163.645 199.878 163.954 199.475 164.218C198.876 164.609 198.222 164.891 197.617 165.277C197.404 165.415 196.931 165.637 197.053 165.904C197.176 166.17 197.661 166.392 197.83 166.693Z" fill="black"/>
<path d="M197.852 166.856C197.683 167.095 197.593 167.38 197.593 167.673C197.593 167.965 197.683 168.25 197.852 168.489C197.899 168.549 198.078 168.921 198.165 168.925C198.239 168.918 198.308 168.883 198.356 168.827C198.735 168.432 199.088 168.013 199.415 167.574C199.745 167.129 200.222 166.816 200.762 166.69C201.416 166.587 202.046 166.935 202.619 167.267C202.866 167.389 203.08 167.567 203.246 167.787C203.366 168.005 203.438 168.247 203.455 168.495C203.62 169.989 203.683 171.493 203.643 172.995C203.674 174.079 203.603 175.163 203.43 176.233C203.324 176.784 203.164 177.323 203.089 177.881C203.034 178.372 203.012 178.866 203.023 179.36V181.428C203.009 181.807 203.037 182.187 203.105 182.56C203.234 183.005 203.386 183.443 203.559 183.873C203.711 184.384 203.816 184.909 203.872 185.44L204.154 187.58C204.245 188.257 204.311 188.993 203.9 189.536C203.719 189.783 203.474 189.977 203.274 190.222C202.569 191.118 202.804 192.419 202.491 193.531C202.259 194.348 201.785 195.074 201.131 195.615C200.633 196.038 199.988 196.374 199.343 196.242C198.475 196.079 197.952 195.173 197.714 194.318C197.476 193.462 197.401 192.528 196.878 191.811C196.458 191.218 195.81 190.849 195.224 190.426C194.639 190.003 194.062 189.46 193.934 188.746C193.878 188.433 193.912 188.119 193.881 187.806C193.834 187.406 193.681 187.027 193.437 186.707C193.194 186.387 192.869 186.139 192.496 185.988C192.051 185.816 191.5 185.753 191.243 185.361C191.881 184.961 192.346 184.336 192.546 183.61C192.741 182.894 192.846 182.157 192.86 181.416L193.01 178.928C193.076 177.815 193.107 176.712 193.596 175.712C193.815 175.267 194.087 174.847 194.313 174.406C194.615 173.785 194.872 173.145 195.083 172.488C195.437 171.469 195.794 170.448 196.111 169.417C196.237 168.917 196.427 168.436 196.674 167.984C196.966 167.514 197.351 166.95 197.852 166.856Z" fill="#E8E8F0"/>
<path d="M192.33 183.024L192.988 183.046L193.129 182.052C193.148 181.853 193.194 181.658 193.267 181.472C193.376 181.276 193.503 181.091 193.646 180.918C194.294 180.003 194.247 178.787 194.407 177.674C194.62 176.192 195.24 174.8 195.854 173.434L197.132 170.586C197.246 170.351 197.337 170.107 197.404 169.855C197.46 169.578 197.486 169.295 197.483 169.012C197.483 168.574 197.627 166.972 197.636 166.53C197.636 166.367 197.279 166.458 197.204 166.314C197.044 166.001 196.825 166.853 196.524 167.041C196.241 167.258 196.034 167.56 195.935 167.903C195.66 168.621 195.491 169.376 195.234 170.097C195.008 170.835 194.598 171.503 194.04 172.036C193.78 172.268 193.477 172.45 193.229 172.695C192.434 173.481 192.358 174.722 192.33 175.828C192.311 176.515 192.183 183.024 192.33 183.024Z" fill="#2F2E41"/>
<path d="M201.805 165.669C201.178 165.919 200.815 166.609 200.637 167.279C200.458 167.95 200.383 168.658 200.038 169.254C199.237 170.651 197.191 171.059 196.624 172.569C196.48 173.079 196.403 173.606 196.396 174.136C196.296 175.217 195.938 176.264 195.832 177.345C195.777 178.186 195.797 179.03 195.891 179.868L196.609 188.401C196.748 189.658 196.675 190.929 196.393 192.162C197.128 192.268 197.879 192.144 198.541 191.808C199.215 191.494 199.829 191.081 200.474 190.723C201.586 190.097 202.813 189.674 203.784 188.843C203.961 188.706 204.112 188.539 204.232 188.351C204.388 187.992 204.494 187.614 204.545 187.226C204.628 186.924 204.733 186.629 204.859 186.342C205.218 185.482 205.532 184.603 205.798 183.71C205.981 183.117 206.124 182.513 206.227 181.902C206.306 181.416 206.346 180.924 206.39 180.435C206.44 179.666 206.593 178.907 206.844 178.179C207.466 176.441 207.817 174.618 207.887 172.773C207.909 172.506 207.891 172.238 207.834 171.977C207.726 171.66 207.581 171.357 207.402 171.074C207.104 170.513 206.926 169.896 206.644 169.329C206.018 168.044 204.893 167.069 203.719 166.252C203.117 165.854 202.456 165.421 201.805 165.669Z" fill="#2F2E41"/>
<path d="M186.852 179.592C186.343 179.326 185.883 178.976 185.49 178.558C185.311 178.348 185.177 178.113 184.982 177.906C184.522 177.415 183.925 177.075 183.269 176.928C182.617 176.785 181.951 176.72 181.283 176.737C180.838 176.706 180.39 176.761 179.965 176.897C179.751 176.967 179.559 177.09 179.405 177.254C179.252 177.418 179.143 177.619 179.088 177.837C178.991 178.37 179.338 178.887 179.755 179.225C180.142 179.542 180.598 179.764 181.086 179.874C181.484 179.943 181.886 179.99 182.289 180.015C184.657 180.263 186.771 181.551 188.844 182.726C190.667 183.756 192.525 184.72 194.419 185.618C194.494 185.051 194.526 184.479 194.513 183.907C194.513 183.481 194.482 182.829 194.078 182.579C193.608 182.284 192.825 182.218 192.305 182.043C191.085 181.644 189.893 181.163 188.738 180.601C188.083 180.285 187.457 179.949 186.852 179.592Z" fill="#FBBEBE"/>
<path d="M197.204 166.208C199.534 166.208 201.423 164.306 201.423 161.961C201.423 159.616 199.534 157.715 197.204 157.715C194.874 157.715 192.985 159.616 192.985 161.961C192.985 164.306 194.874 166.208 197.204 166.208Z" fill="#FBBEBE"/>
<path d="M203.011 170.482C202.675 170.954 202.4 171.467 202.193 172.008C201.67 173.083 200.853 174.005 200.446 175.142C200.013 176.324 200.029 177.731 199.193 178.661C199.025 178.802 198.898 178.987 198.826 179.194C198.821 179.324 198.806 179.452 198.782 179.58C198.663 179.918 198.109 179.934 198.006 180.278C197.977 180.379 198.006 180.488 197.956 180.592C197.871 180.814 197.58 180.846 197.382 180.98C196.972 181.259 197.069 181.905 196.756 182.306C196.629 182.455 196.464 182.568 196.279 182.632C196.095 182.697 195.896 182.712 195.704 182.676C195.32 182.595 194.95 182.456 194.607 182.265C194.487 182.197 194.353 182.156 194.216 182.143C194.052 182.146 193.894 182.2 193.762 182.297C192.982 182.792 192.615 183.776 192.622 184.703C192.677 185.631 192.896 186.541 193.27 187.392C193.314 187.539 193.388 187.676 193.486 187.793C193.743 188.066 194.194 188.022 194.538 187.868C194.861 187.677 195.205 187.524 195.563 187.411C196.214 187.292 196.853 187.743 197.514 187.706C197.997 187.632 198.453 187.431 198.833 187.123C199.503 186.715 200.104 186.202 200.612 185.603C200.9 185.224 201.113 184.791 201.366 184.387C201.69 183.89 202.046 183.415 202.431 182.964L204.865 179.984C205.109 179.702 205.328 179.399 205.52 179.078C205.739 178.645 205.91 178.189 206.03 177.718C206.291 176.933 206.46 176.12 206.534 175.296C206.547 174.613 206.487 173.932 206.356 173.262C206.274 172.596 206.098 171.945 205.833 171.328C205.291 170.231 204.004 169.323 203.011 170.482Z" fill="#2F2E41"/>
<path d="M211.486 164.951C211.49 164.198 211.314 163.455 210.974 162.783C210.634 162.112 210.14 161.53 209.532 161.087C209.513 159.75 209.021 158.464 208.143 157.456C207.265 156.449 206.057 155.787 204.737 155.587C204.481 154.321 203.787 153.186 202.777 152.381C201.767 151.577 200.506 151.155 199.216 151.19C197.925 151.225 196.689 151.714 195.724 152.572C194.758 153.43 194.127 154.601 193.94 155.879C192.186 155.484 190.583 155.998 190.291 157.079C189.978 158.21 191.231 159.533 193.085 160.034C193.666 160.198 194.271 160.259 194.873 160.213C195.305 160.846 195.863 161.382 196.514 161.787C197.164 162.192 197.892 162.456 198.651 162.563C198.874 163.585 199.377 164.525 200.105 165.276C200.833 166.027 201.755 166.561 202.77 166.816C203.05 167.494 203.486 168.097 204.041 168.577C204.041 168.708 204.019 168.843 204.019 168.981C203.999 169.463 204.076 169.944 204.247 170.395C204.417 170.846 204.677 171.258 205.011 171.606C205.344 171.954 205.744 172.23 206.188 172.42C206.631 172.609 207.108 172.706 207.59 172.706C208.072 172.706 208.549 172.609 208.992 172.42C209.435 172.23 209.836 171.954 210.169 171.606C210.503 171.258 210.763 170.846 210.933 170.395C211.103 169.944 211.181 169.463 211.16 168.981C211.161 168.44 211.044 167.906 210.819 167.414C211.259 166.668 211.49 165.817 211.486 164.951Z" fill="#F86D70"/>
<path opacity="0.1" d="M191.481 157.295C191.773 156.214 193.361 155.7 195.13 156.095C195.336 154.797 195.994 153.613 196.987 152.753C197.98 151.893 199.245 151.412 200.558 151.394C200.68 151.394 200.803 151.394 200.922 151.394C200.414 151.239 199.886 151.161 199.356 151.162C198.042 151.18 196.777 151.661 195.784 152.521C194.791 153.381 194.133 154.565 193.928 155.863C192.174 155.468 190.57 155.982 190.279 157.063C189.965 158.194 191.218 159.517 193.073 160.018C193.417 160.114 193.771 160.175 194.128 160.2C192.368 159.686 191.184 158.401 191.481 157.295Z" fill="black"/>
<path opacity="0.1" d="M205.209 169.2C205.209 169.062 205.209 168.928 205.231 168.793C204.676 168.315 204.24 167.712 203.96 167.035C202.946 166.777 202.024 166.243 201.297 165.492C200.57 164.74 200.066 163.801 199.841 162.779C199.082 162.673 198.354 162.409 197.704 162.004C197.053 161.599 196.494 161.063 196.064 160.429C195.713 160.457 195.36 160.447 195.011 160.401C195.444 160.985 195.989 161.476 196.614 161.848C197.239 162.219 197.931 162.462 198.651 162.563C198.874 163.585 199.377 164.525 200.105 165.276C200.833 166.028 201.755 166.561 202.77 166.816C203.05 167.494 203.486 168.097 204.041 168.577C204.041 168.708 204.019 168.843 204.019 168.981C204.003 169.942 204.368 170.87 205.033 171.563C205.699 172.255 206.611 172.657 207.571 172.679C206.87 172.408 206.269 171.931 205.847 171.309C205.425 170.687 205.203 169.952 205.209 169.2Z" fill="black"/>
<path d="M199.134 163.517C199.421 163.299 199.418 162.813 199.128 162.432C198.838 162.05 198.371 161.917 198.084 162.135C197.798 162.352 197.801 162.838 198.09 163.22C198.38 163.602 198.848 163.735 199.134 163.517Z" fill="#FBBEBE"/>
<path d="M98.2856 184.647L102.458 182.193C101.894 181.229 101.173 180.366 100.325 179.639L92.4567 182.087L98.6207 178.461C97.0944 177.624 95.3767 177.2 93.6367 177.23C91.8967 177.259 90.1943 177.742 88.6972 178.629C87.2001 179.517 85.9597 180.779 85.0982 182.292C84.2367 183.805 83.7838 185.516 83.7839 187.257C83.7839 192.795 88.2722 192.986 93.8067 192.986C99.3411 192.986 103.829 192.795 103.829 187.257C103.833 185.854 103.539 184.465 102.968 183.183L98.2856 184.647Z" fill="#6368B0"/>
<path opacity="0.1" d="M99.3474 190.031C98.9031 189.585 98.4067 189.195 97.869 188.868C97.1142 188.364 96.328 187.85 95.4354 187.68C94.6524 187.53 93.8443 187.659 93.0456 187.612C91.6588 187.527 90.3533 186.928 89.3842 185.932C88.8141 185.343 88.3662 184.619 87.6803 184.167C86.9136 183.712 86.0091 183.546 85.1307 183.701C84.8762 183.736 84.6241 183.787 84.3759 183.854C83.9833 184.946 83.783 186.097 83.7839 187.257C83.7839 192.795 88.2723 192.986 93.8067 192.986C96.494 192.986 98.9308 192.942 100.732 192.262L100.419 191.701C100.134 191.101 99.7741 190.54 99.3474 190.031Z" fill="black"/>
</g>
<defs>
<linearGradient id="paint0_linear_426_9603" x1="177.747" y1="200.451" x2="177.747" y2="150.423" gradientUnits="userSpaceOnUse">
<stop stop-color="#808080" stop-opacity="0.25"/>
<stop offset="0.54" stop-color="#808080" stop-opacity="0.12"/>
<stop offset="1" stop-color="#808080" stop-opacity="0.1"/>
</linearGradient>
<clipPath id="clip0_426_9603">
<rect width="358" height="208" fill="white"/>
</clipPath>
</defs>
</svg>
