<svg width="336" height="269" viewBox="0 0 336 269" fill="none" xmlns="http://www.w3.org/2000/svg">
<rect x="33.6796" y="15.5445" width="212.441" height="212.441" rx="75" fill="#E6E6E6"/>
<rect x="49.92" y="31.68" width="177.6" height="176.64" rx="57" fill="white"/>
<circle cx="117.4" cy="134.478" r="23.5514" transform="rotate(-165 117.4 134.478)" stroke="#6368B0" stroke-width="5"/>
<path d="M138.739 120.606L196.68 87.3915" stroke="#6368B0" stroke-width="5" stroke-linecap="round"/>
<path d="M186.583 93.2211L193.06 104.439" stroke="#6368B0" stroke-width="5" stroke-linecap="round"/>
<path d="M167.512 104.232L173.989 115.45" stroke="#6368B0" stroke-width="5" stroke-linecap="round"/>
<rect opacity="0.5" x="12.9537" y="7.77222" width="108.811" height="108.811" rx="54.4055" fill="#4C407B"/>
<rect width="108.811" height="108.811" rx="54.4055" fill="#6368B0"/>
<path d="M51.0468 59.6133V58.1994C51.0468 57.3332 51.1678 56.5689 51.4098 55.9066C51.6519 55.2315 52.0404 54.5946 52.5753 53.9959C53.1103 53.3845 53.8173 52.7603 54.6962 52.1235C55.4859 51.563 56.1164 51.0599 56.5877 50.614C57.0718 50.1682 57.4221 49.7288 57.6386 49.2957C57.8679 48.8499 57.9825 48.3467 57.9825 47.7862C57.9825 46.9583 57.6768 46.3278 57.0654 45.8947C56.454 45.4616 55.6006 45.2451 54.5051 45.2451C53.4097 45.2451 52.3206 45.417 51.2379 45.7609C50.1679 46.1049 49.0788 46.5571 47.9706 47.1175L45.888 42.9332C47.1618 42.2198 48.5438 41.6466 50.0342 41.2136C51.5245 40.7677 53.1549 40.5448 54.9255 40.5448C57.6513 40.5448 59.7595 41.2008 61.2498 42.5128C62.7528 43.8121 63.5044 45.468 63.5044 47.4805C63.5044 48.5505 63.3324 49.4804 62.9885 50.2701C62.6573 51.0471 62.1478 51.7732 61.4599 52.4483C60.7848 53.1106 59.9378 53.8112 58.9188 54.55C58.1545 55.1105 57.5686 55.5818 57.1609 55.9639C56.7533 56.346 56.4731 56.7282 56.3203 57.1103C56.1801 57.4797 56.1101 57.9319 56.1101 58.4669V59.6133H51.0468ZM50.4354 66.1477C50.4354 64.9504 50.7602 64.1097 51.4098 63.6257C52.0722 63.1416 52.8683 62.8996 53.7982 62.8996C54.7026 62.8996 55.4796 63.1416 56.1292 63.6257C56.7915 64.1097 57.1227 64.9504 57.1227 66.1477C57.1227 67.2941 56.7915 68.1221 56.1292 68.6316C55.4796 69.1411 54.7026 69.3959 53.7982 69.3959C52.8683 69.3959 52.0722 69.1411 51.4098 68.6316C50.7602 68.1221 50.4354 67.2941 50.4354 66.1477Z" fill="white"/>
<path d="M308.678 242.072L309.153 231.351C314.11 228.695 319.639 227.291 325.259 227.263C317.524 233.605 318.49 245.83 313.246 254.358C311.59 257.005 309.361 259.245 306.724 260.911C304.088 262.577 301.111 263.627 298.015 263.982L291.542 267.957C290.653 262.991 290.849 257.892 292.116 253.009C293.382 248.127 295.689 243.578 298.877 239.676C300.688 237.505 302.764 235.57 305.056 233.919C306.606 238.019 308.678 242.072 308.678 242.072Z" fill="#F2F2F2"/>
<path d="M291.998 262.439L286.137 262.439L283.348 239.768L291.999 239.768L291.998 262.439Z" fill="#FFB6B6"/>
<path d="M293.493 268.137L274.593 268.136V267.897C274.593 265.94 275.368 264.064 276.748 262.681C278.127 261.297 279.999 260.52 281.95 260.52L285.402 257.894L291.844 260.52L293.493 260.52L293.493 268.137Z" fill="#2F2E41"/>
<path d="M264.767 262.439L258.905 262.439L256.117 239.768L264.768 239.768L264.767 262.439Z" fill="#FFB6B6"/>
<path d="M266.262 268.137L247.362 268.136V267.897C247.362 265.94 248.137 264.064 249.516 262.681C250.896 261.297 252.767 260.52 254.718 260.52L258.171 257.894L264.612 260.52L266.262 260.52L266.262 268.137Z" fill="#2F2E41"/>
<path d="M262.23 138.495L300.355 139.451C307.596 143.395 307.706 151.93 305.334 162.065C305.334 162.065 306.135 168.088 304.533 169.694C302.931 171.301 302.13 171.301 302.931 174.112C303.732 176.923 299.5 181.514 300.014 182.029C300.528 182.545 301.73 185.356 301.73 185.356L297.725 208.245C297.725 208.245 294.922 248 294.121 248.803C293.32 249.606 292.519 248.803 293.32 250.811C294.121 252.819 294.922 252.016 294.121 252.819C293.411 253.586 292.743 254.39 292.119 255.228H282.436C282.436 255.228 281.706 251.213 281.706 250.811C281.706 250.41 280.906 248 280.906 247.599C280.906 247.197 281.613 246.487 281.613 246.487C281.858 245.671 282.023 244.833 282.107 243.984C282.107 243.181 284.51 212.261 284.51 212.261L279.704 172.104L268.091 211.457C268.091 211.457 268.091 245.992 267.29 246.795C266.489 247.599 266.489 247.197 266.889 248.803C267.29 250.41 268.892 250.008 267.69 251.213C266.489 252.417 266.088 250.41 266.489 252.417L266.889 254.425L254.875 254.598C254.875 254.598 253.274 251.213 254.075 250.008C254.875 248.803 254.827 249.132 253.85 247.161C252.873 245.189 252.473 244.788 252.873 244.386C253.274 243.984 253.274 241.849 253.274 241.849L255.276 203.426C255.276 203.426 255.676 162.868 255.676 161.663C255.707 161.043 255.593 160.425 255.344 159.856V158.221L256.878 152.427L262.23 138.495Z" fill="#2F2E41"/>
<path d="M285.132 58.9996C291.675 58.9996 296.978 53.6813 296.978 47.121C296.978 40.5606 291.675 35.2424 285.132 35.2424C278.59 35.2424 273.286 40.5606 273.286 47.121C273.286 53.6813 278.59 58.9996 285.132 58.9996Z" fill="#FFB6B6"/>
<path d="M279.209 66.8505C276.657 68.3719 275.131 71.1672 274.254 74.0117C272.632 79.278 271.655 84.7228 271.346 90.226L270.42 106.701L258.957 141.782C268.892 150.212 306.237 143.698 306.237 143.698C306.237 143.698 307.383 143.315 306.237 142.165C305.091 141.016 303.975 142.034 305.121 140.884C306.267 139.735 305.477 141.016 305.095 139.866C304.713 138.716 305.095 139.483 305.477 139.1C305.859 138.716 302.519 135.268 302.519 135.268L305.576 115.131L309.397 74.5141C304.812 68.7664 295.59 65.3781 295.59 65.3781L293.207 61.0771L281.292 62.0329L279.209 66.8505Z" fill="#E6E6E6"/>
<path d="M277.585 40.1497C278.043 40.1533 278.499 40.2133 278.943 40.3284C279.818 40.5393 280.706 40.6887 281.602 40.7755C284.344 41.0342 286.921 42.207 288.921 44.1065C290.92 46.006 292.227 48.5226 292.633 51.2545C293.322 50.6527 294.888 49.5457 296.172 50.5746C296.191 50.5909 296.203 50.5993 296.248 50.5778C297.101 50.1723 298.614 45.1801 298.66 40.7846C298.684 38.4517 298.318 35.4726 296.436 34.5291L296.337 34.4794L296.311 34.3714C296.185 33.8466 294.781 32.9508 292.34 32.2536C287.904 30.9865 281.291 28.5183 277.567 32.1507C277.285 33.3753 276.369 35.9959 275.442 36.293C274.417 36.6218 273.531 36.9055 273.392 38.167C273.275 39.9621 273.283 41.7632 273.417 43.5572C273.764 42.4595 274.447 41.4987 275.367 40.8101C276.022 40.3681 276.796 40.1377 277.585 40.1497Z" fill="#2F2E41"/>
<path d="M255.536 105.784L274.886 93.3575L265.14 80.366L255.516 92.2367L225.531 94.0808C224.742 93.2991 223.744 92.7643 222.657 92.5417C221.571 92.3192 220.443 92.4184 219.412 92.8274C218.381 93.2363 217.49 93.9374 216.85 94.8449C216.209 95.7525 215.845 96.8275 215.803 97.9387C215.761 99.0499 216.042 100.149 216.613 101.103C217.183 102.057 218.018 102.824 219.015 103.31C220.012 103.796 221.129 103.981 222.229 103.841C223.33 103.702 224.366 103.245 225.211 102.525L255.536 105.784Z" fill="#FFB6B6"/>
<path d="M292.846 76.0122C293.969 82.8277 272.761 95.8424 272.761 95.8424C272.76 94.2427 260.102 106.319 259.531 104.993C257.907 101.222 256.765 92.2909 254.496 90.8614C253.198 90.0439 262.311 82.3642 262.311 82.3642C262.311 82.3642 267.081 77.5453 273.341 71.4669C275.079 69.7155 277.231 68.4336 279.596 67.7404C281.961 67.0472 284.463 66.9653 286.868 67.5023C286.868 67.5023 291.723 69.1968 292.846 76.0122Z" fill="#E6E6E6"/>
<path d="M332.73 109.046L319.931 89.9097L307.184 99.9556L319.224 109.352L321.697 139.375C320.934 140.182 320.422 141.194 320.223 142.288C320.025 143.382 320.147 144.511 320.577 145.536C321.007 146.561 321.724 147.439 322.643 148.062C323.561 148.685 324.641 149.027 325.749 149.046C326.858 149.064 327.949 148.759 328.887 148.167C329.826 147.575 330.573 146.722 331.037 145.712C331.5 144.702 331.661 143.578 331.499 142.478C331.336 141.378 330.859 140.349 330.123 139.517L332.73 109.046Z" fill="#FFB6B6"/>
<path d="M302.257 72.2718C309.028 71.0015 322.453 91.9882 322.453 91.9882C320.858 92.0224 333.167 104.457 331.856 105.058C328.131 106.766 319.251 108.1 317.874 110.405C317.086 111.723 309.237 102.749 309.237 102.749C309.237 102.749 304.331 98.0691 298.138 91.9219C296.355 90.2166 295.031 88.0867 294.29 85.7304C293.549 83.3741 293.414 80.868 293.899 78.4455C293.899 78.4455 295.486 73.542 302.257 72.2718Z" fill="#E6E6E6"/>
<path d="M336 268.231C336 268.306 335.986 268.38 335.957 268.449C335.929 268.518 335.887 268.581 335.834 268.634C335.782 268.687 335.719 268.729 335.65 268.757C335.581 268.786 335.507 268.8 335.433 268.8H201.854C201.704 268.8 201.56 268.74 201.453 268.633C201.347 268.527 201.287 268.382 201.287 268.231C201.287 268.08 201.347 267.936 201.453 267.829C201.56 267.722 201.704 267.663 201.854 267.663H335.433C335.507 267.662 335.581 267.677 335.65 267.705C335.719 267.734 335.782 267.776 335.834 267.829C335.887 267.882 335.929 267.944 335.957 268.013C335.986 268.082 336 268.157 336 268.231Z" fill="#CCCCCC"/>
</svg>
