<svg width="21" height="26" viewBox="0 0 21 26" fill="none" xmlns="http://www.w3.org/2000/svg">
<path d="M11.0714 7.25193C11.5354 6.47695 12.2698 5.3678 13.1973 4.30352H13.1984C13.9839 3.40026 15.5223 2.24096 15.5223 2.24096C15.7535 2.06622 15.7287 1.82285 15.4658 1.70038L13.6065 0.831428C13.3436 0.708424 12.9862 0.798169 12.8119 1.02992C12.8119 1.02992 11.4367 3.00274 9.81808 7.2023C4.81335 4.93861 0.0562134 8.10926 0.0562134 13.6228C0.0562134 19.3818 4.48709 28.1299 10.479 25.4893C16.7899 28.2202 20.905 19.3824 20.905 13.6228C20.905 8.06175 16.6288 4.80135 11.0714 7.25193Z" fill="#F8644A"/>
</svg>
