<svg width="25" height="27" viewBox="0 0 25 27" fill="none" xmlns="http://www.w3.org/2000/svg">
<path d="M21.7526 9.04073C19.4919 9.98268 17.1364 10.5782 14.7227 10.8205L15.8605 8.84966L19.7407 9.08258C20.1717 9.10843 20.5421 8.78003 20.5679 8.34906C20.5938 7.91808 20.2654 7.54773 19.8344 7.52182L16.7346 7.33576L17.4241 6.14155L21.3043 6.37447C21.7353 6.40032 22.1057 6.07192 22.1315 5.64095C22.1574 5.20997 21.829 4.83961 21.398 4.81371L18.2982 4.62765L19.1642 3.12771C20.0277 1.63199 21.9402 1.11956 23.4359 1.98307C24.9316 2.84663 25.4441 4.75914 24.5805 6.25486L23.3584 8.37163L21.7526 9.04073Z" fill="#AE80FF"/>
<path d="M12.2308 10.945C11.1934 10.945 10.1643 10.8809 9.14608 10.7537C9.11867 10.5608 9.10366 10.3637 9.10366 10.1632C9.10366 7.86041 10.9704 5.99365 13.2732 5.99365C14.0401 5.99365 14.758 6.20161 15.3754 6.56285L12.8497 10.9374C12.6437 10.9424 12.4375 10.945 12.2308 10.945Z" fill="#AE80FF"/>
<path d="M8.09193 7.7103C7.51424 6.18259 7.40844 5.03299 7.40693 5.01538C7.37029 4.58518 6.99175 4.26715 6.56171 4.30259C6.13152 4.33918 5.81239 4.71762 5.84898 5.14781C5.85852 5.26008 6.07565 7.61967 7.54119 10.2166C7.54207 10.3119 7.54598 10.4066 7.55151 10.5008C5.89969 10.183 4.28134 9.69578 2.70901 9.04064L1.768 8.64855C1.89162 8.34548 2.06403 8.06299 2.28007 7.81381C1.21876 7.34323 0.50395 6.28646 0.50395 5.08162C0.50395 3.42913 1.84831 2.08477 3.5008 2.08477C3.76265 2.08477 4.02184 2.1199 4.27555 2.18947C4.62991 0.912763 5.79102 0 7.14915 0C8.47188 0 9.61704 0.862312 10.0029 2.09842C10.095 2.0893 10.1859 2.08477 10.2763 2.08477C11.7053 2.08477 12.9032 3.09046 13.2012 4.43107C10.9477 4.45895 9.00323 5.79341 8.09193 7.7103Z" fill="#AE80FF"/>
<path d="M2.10768 10.484C5.33193 11.8274 8.73786 12.5086 12.2308 12.5086C15.7238 12.5086 19.1298 11.8274 22.354 10.484C22.9024 10.2554 23.4953 10.6981 23.432 11.2889C23.1715 13.7197 22.2288 22.613 22.0179 24.5888C21.8903 25.7838 20.8877 26.685 19.6858 26.685H4.77592C3.57395 26.685 2.57138 25.7838 2.44379 24.5888C2.23287 22.613 1.29014 13.7197 1.0297 11.2888C0.966372 10.6981 1.55923 10.2554 2.10768 10.484ZM6.23713 21.4731C6.23713 21.9048 6.58717 22.2549 7.01892 22.2549H17.4428C17.8745 22.2549 18.2245 21.9048 18.2245 21.4731V17.3036C18.2245 16.8718 17.8745 16.5218 17.4428 16.5218H7.01892C6.58717 16.5218 6.23713 16.8718 6.23713 17.3036V21.4731Z" fill="#AE80FF"/>
<path d="M16.6609 18.0853H7.80063V20.6913H16.6609V18.0853Z" fill="#AE80FF"/>
</svg>
