<svg width="257" height="198" viewBox="0 0 257 198" fill="none" xmlns="http://www.w3.org/2000/svg">
<g clip-path="url(#clip0_426_10046)">
<path d="M185.4 36.6585H166.577V6.89467L185.4 12.8474V36.6585Z" fill="#2F2E41"/>
<path d="M188.741 187.779L184.857 187.87L182.692 170.577L188.424 170.442L188.741 187.779Z" fill="#A0616A"/>
<path d="M175.414 195.809C175.414 196.459 175.88 196.987 176.454 196.987H184.165C184.165 196.987 184.924 193.964 188.017 192.664L188.231 196.987H192.208L191.726 190.035C191.726 190.035 192.79 186.317 190.581 184.416C188.371 182.515 190.161 182.779 190.161 182.779L189.291 178.477L183.281 179.177L183.237 185.931L180.32 192.634L176.042 194.729C175.661 194.915 175.414 195.34 175.414 195.809Z" fill="#2F2E41"/>
<path d="M168.833 187.779L164.949 187.87L162.783 170.577L168.516 170.442L168.833 187.779Z" fill="#A0616A"/>
<path d="M155.506 195.809C155.506 196.459 155.972 196.987 156.546 196.987H164.257C164.257 196.987 165.015 193.964 168.109 192.664L168.322 196.987H172.3L171.818 190.035C171.818 190.035 172.882 186.317 170.672 184.416C168.463 182.515 170.252 182.779 170.252 182.779L169.383 178.477L163.373 179.177L163.329 185.931L160.412 192.634L156.133 194.729C155.753 194.915 155.506 195.34 155.506 195.809Z" fill="#2F2E41"/>
<path d="M186.601 69.2004L161.771 83.8839L156.164 106.504L158.967 176.35H171.263L173.986 109.084L179.437 176.35H191.924L195.083 100.813C195.953 95.3232 195.266 89.702 193.1 84.5766L186.601 69.2004Z" fill="#2F2E41"/>
<path d="M180.994 24.3561L170.582 23.5624L167.778 29.1184L159.768 31.1026L157.766 55.7074C161.727 65.9059 164.214 75.6517 161.771 83.8839L192.208 82.2965L187.126 68.6801C187.126 68.6801 187.002 63.6445 189.805 56.898C192.609 50.1515 188.203 32.69 188.203 32.69L181.795 31.1026L180.994 24.3561Z" fill="#6368B0"/>
<path d="M110.882 33.9274C111.896 33.9585 112.833 33.7601 113.57 33.4048L123.21 34.3059L123.509 29.748L113.698 29.3246C112.984 28.9247 112.062 28.6692 111.048 28.6381C108.731 28.567 106.817 29.6934 106.771 31.154C106.725 32.6146 108.566 33.8563 110.882 33.9274Z" fill="#A0616A"/>
<path d="M167.907 47.8418C167.907 47.8418 167.566 33.3216 164.352 31.1422C163.027 30.2434 142.647 30.0392 141.904 29.963C137.326 29.4928 134.068 27.6915 130.212 27.494C120.818 27.0129 116.068 29.272 116.068 29.272L115.902 33.9338L167.907 47.8418Z" fill="#6368B0"/>
<path d="M174.901 23.1862C179.493 23.1862 183.215 19.4975 183.215 14.9473C183.215 10.3971 179.493 6.70837 174.901 6.70837C170.309 6.70837 166.586 10.3971 166.586 14.9473C166.586 19.4975 170.309 23.1862 174.901 23.1862Z" fill="#A0616A"/>
<path d="M172.379 2.67905C170.591 3.79614 169.281 2.99636 168.004 3.55975C165.508 4.66051 161.294 12.3918 161.674 15.6286C162.212 20.2128 163.913 20.4015 163.862 23.6904C163.78 28.9717 163.357 28.9498 164.448 30.7938C165.662 32.8449 172.538 32.288 173.815 29.5067C174.067 28.9579 171.269 29.1737 168.179 21.975C166.628 18.3627 167.646 15.071 168.179 13.6411C168.303 13.3064 168.36 10.9297 168.627 11.1934C170.961 13.5062 172.269 11.8156 173.678 11.6216C176.571 11.2234 178.749 13.5356 179.626 12.7055C180.279 12.0878 179.446 10.4546 179.763 10.3344C180.101 10.2062 181.219 11.9979 181.951 13.925C182.423 15.1677 182.659 15.789 182.634 16.4993C182.559 18.6929 181.995 24.9124 180.994 26.7373C178.835 30.6781 181.554 32.1651 183.25 31.8778C184.62 31.6457 190.675 32.5595 191.007 31.8963C191.302 31.3055 190.627 25.2283 189.919 19.5785C189.067 12.7877 185.653 6.54739 180.299 2.22451C179.986 1.971 179.751 1.79706 179.626 1.73061C179.33 1.57319 176.273 0.000204802 174.02 1.25638C173.191 1.71883 173.326 2.08776 172.379 2.67905Z" fill="#2F2E41"/>
<path d="M68.5169 194.211L63.9037 194.21L61.7092 176.578L68.5179 176.578L68.5169 194.211Z" fill="#FFB6B6"/>
<path d="M52.7116 194.107C52.568 194.347 52.4922 195.12 52.4922 195.399C52.4922 196.256 53.1932 196.951 54.0579 196.951H68.3444C68.9343 196.951 69.4126 196.477 69.4126 195.892V195.303C69.4126 195.303 70.1193 193.531 68.6643 191.348C68.6643 191.348 66.8558 193.058 64.1536 190.38L63.3567 188.949L57.5884 193.13L54.3911 193.52C53.6916 193.605 53.0714 193.506 52.7116 194.107Z" fill="#2F2E41"/>
<path d="M87.9669 194.211L83.3537 194.21L81.1592 176.578L87.9678 176.578L87.9669 194.211Z" fill="#FFB6B6"/>
<path d="M72.1616 194.107C72.0179 194.347 71.9421 195.12 71.9421 195.399C71.9421 196.256 72.6431 196.951 73.5079 196.951H87.7944C88.3843 196.951 88.8625 196.477 88.8625 195.892V195.303C88.8625 195.303 89.5693 193.531 88.1142 191.348C88.1142 191.348 86.3058 193.058 83.6035 190.38L82.8066 188.949L77.0384 193.13L73.8411 193.52C73.1416 193.605 72.5214 193.506 72.1616 194.107Z" fill="#2F2E41"/>
<path d="M88.8818 82.8896L55.0388 82.5041L51.5378 104.475L60.0958 180.412H71.3155L73.9053 109.679L78.5733 181.761H90.061L95.3002 99.6572L88.8818 82.8896Z" fill="#2F2E41"/>
<path d="M232.357 191.182C233.161 191.232 233.605 190.243 232.997 189.666L232.937 189.428C232.945 189.409 232.953 189.39 232.961 189.371C233.773 187.45 236.528 187.464 237.333 189.387C238.049 191.094 238.959 192.803 239.183 194.608C239.284 195.405 239.239 196.216 239.06 196.998C240.736 193.371 241.618 189.41 241.618 185.426C241.618 184.425 241.563 183.425 241.45 182.426C241.357 181.61 241.229 180.798 241.063 179.994C240.166 175.647 238.224 171.507 235.422 168.048C234.076 167.319 232.953 166.179 232.274 164.812C232.03 164.319 231.839 163.789 231.749 163.248C231.902 163.268 232.327 160.955 232.211 160.814C232.425 160.492 232.807 160.333 233.04 160.019C234.201 158.461 235.799 158.733 236.633 160.851C238.416 161.742 238.433 163.221 237.339 164.643C236.644 165.547 236.548 166.771 235.937 167.74C236 167.819 236.066 167.897 236.128 167.976C237.28 169.44 238.276 171.014 239.116 172.667C238.879 170.83 239.229 168.616 239.827 167.19C240.507 165.564 241.781 164.195 242.904 162.789C244.252 161.101 247.017 161.838 247.254 163.978C247.257 163.999 247.259 164.019 247.261 164.04C247.094 164.133 246.931 164.232 246.772 164.337C245.862 164.933 246.176 166.331 247.254 166.496L247.279 166.5C247.218 167.095 247.115 167.685 246.965 168.265C248.405 173.783 245.296 175.793 240.857 175.883C240.759 175.933 240.663 175.983 240.565 176.03C241.015 177.285 241.374 178.572 241.641 179.877C241.879 181.03 242.045 182.195 242.138 183.365C242.254 184.841 242.244 186.325 242.118 187.799L242.126 187.747C242.445 186.123 243.334 184.607 244.626 183.557C246.549 181.991 249.267 181.414 251.343 180.155C252.342 179.549 253.622 180.332 253.448 181.48L253.439 181.535C253.13 181.659 252.829 181.804 252.537 181.966C252.371 182.059 252.207 182.158 252.048 182.262C251.138 182.859 251.452 184.257 252.531 184.422L252.555 184.425C252.573 184.428 252.588 184.43 252.605 184.433C252.075 185.68 251.336 186.838 250.412 187.836C249.511 192.653 245.644 193.111 241.508 191.708H241.505C241.053 193.66 240.392 195.567 239.543 197.384H232.533C232.508 197.307 232.485 197.227 232.463 197.15C233.111 197.19 233.764 197.153 234.402 197.036C233.882 196.403 233.362 195.766 232.842 195.133C232.829 195.121 232.819 195.109 232.809 195.096C232.545 194.772 232.279 194.451 232.015 194.128L232.015 194.127C231.999 193.134 232.119 192.143 232.357 191.182Z" fill="#F2F2F2"/>
<path d="M0 197.541C0 197.796 0.206181 198 0.462932 198H256.537C256.794 198 257 197.796 257 197.541C257 197.287 256.794 197.083 256.537 197.083H0.462932C0.206181 197.083 0 197.287 0 197.541Z" fill="#CCCCCC"/>
<path d="M77.4063 25.2628H65.3611L63.0133 29.8884L51.5378 35.1104L55.6223 64.9655L52.5103 84.6242H91.3842L87.9093 61.8818L92.5772 34.514L79.7403 29.5029L77.4063 25.2628Z" fill="#E6E6E6"/>
<path d="M117.725 97.6075C117.2 96.5454 116.96 95.4539 116.987 94.4986L111.338 84.6945L116.125 82.1672L121.34 92.3846C122.119 92.9485 122.842 93.8049 123.368 94.867C124.568 97.2932 124.278 99.8736 122.719 100.63C121.161 101.387 118.925 100.034 117.725 97.6075Z" fill="#FFB6B6"/>
<path d="M80.4871 33.1983C80.4871 33.1983 84.2982 29.3127 88.5735 32.0167C92.8488 34.7206 108.445 62.3906 108.445 62.3906L120.475 86.1785L111.984 90.0987L101.738 67.3198L80.2229 44.3766L80.4871 33.1983Z" fill="#E6E6E6"/>
<path d="M70.8737 23.0082C76.8807 23.0082 81.7503 18.1828 81.7503 12.2304C81.7503 6.27803 76.8807 1.45267 70.8737 1.45267C64.8667 1.45267 59.9971 6.27803 59.9971 12.2304C59.9971 18.1828 64.8667 23.0082 70.8737 23.0082Z" fill="#FFB6B6"/>
<path d="M67.4602 20.9045C67.5105 21.9604 67.5357 22.4883 67.372 22.5521C66.8792 22.7442 60.5336 19.0307 59.7864 16.5587C59.4379 15.4057 59.7322 15.3827 59.4778 12.1026C59.2345 8.96544 58.9617 8.94044 59.2842 8.16428C59.6426 7.30162 60.7372 6.23875 62.9263 4.11301C63.754 3.30926 64.1679 2.90738 64.4291 2.69959C65.221 2.06984 68.1708 -0.276211 70.8756 0.0268906C72.0094 0.153943 71.8156 0.602499 76.0512 2.87852C76.416 3.07456 76.9052 3.33334 77.5809 3.63046C79.2241 4.3531 80.2435 4.54044 80.7801 4.74196C84.0325 5.96328 83.078 12.7666 82.7986 12.8056C82.6967 12.8198 82.669 11.9376 82.1353 11.8647C81.6549 11.799 81.349 12.4689 80.9123 12.4933C79.72 12.5599 81.0441 11.4288 78.1258 10.1725C76.9912 9.68418 80.1481 11.8861 77.1429 11.8504C72.4434 11.7945 75.449 12.0909 73.6643 13.0199C72.3627 13.6974 67.1267 9.96896 67.3395 11.1603C67.4895 12.0006 68.1049 12.2426 68.0161 13.184C67.9301 14.096 67.2384 15.079 66.6283 15.1151C66.0659 15.1484 65.7577 14.3664 65.5702 14.4412C65.3661 14.5226 65.5902 15.5039 66.0302 16.5121C66.5888 17.792 66.9222 17.802 67.2167 18.7864C67.3862 19.3525 67.4108 19.8699 67.4602 20.9045Z" fill="#2F2E41"/>
<path d="M153.186 94.4428L83.1044 76.7744C78.6245 75.6449 75.9071 71.1145 77.0469 66.6753L85.7654 32.7195C86.9052 28.2804 91.4772 25.5877 95.9571 26.7171L166.038 44.3855C170.518 45.515 173.236 50.0454 172.096 54.4846L163.377 88.4404C162.237 92.8795 157.665 95.5723 153.186 94.4428Z" fill="white"/>
<path d="M153.186 94.4428L83.1046 76.7744C80.8646 76.2097 79.0653 74.7947 77.78 72.9185C75.9098 70.1887 75.4219 66.7519 76.2429 63.5544L83.5539 35.0801C84.3749 31.8826 86.4611 29.0948 89.4204 27.5826C91.4544 26.5432 93.7174 26.1524 95.9573 26.7171L166.039 44.3855C170.526 45.5168 173.238 50.0383 172.096 54.4846L163.377 88.4404C162.238 92.8796 157.666 95.5723 153.186 94.4428ZM95.7655 27.4642C91.6948 26.438 92.7587 30.0911 91.723 34.1248C86.6701 53.8044 97.1212 74.1503 116.155 81.6747C126.43 85.7365 134.976 89.0565 134.976 89.0565C149.21 92.6449 163.684 84.1204 167.305 70.0164L171.342 54.2945C172.378 50.2608 169.917 46.1589 165.847 45.1327L95.7655 27.4642Z" fill="#3F3D56"/>
<path d="M128.556 54.2224C128.068 50.2443 124.417 47.4117 120.403 47.8956C116.426 48.3749 113.586 51.9286 114.007 55.862L113.89 55.876L115.659 70.2821L129.037 68.6695C129.459 68.6922 129.89 68.681 130.325 68.6285C134.339 68.1446 137.198 64.5274 136.709 60.5493C136.221 56.5711 132.571 53.7385 128.556 54.2224Z" fill="#6368B0"/>
<path d="M102.913 190.312C102.347 188.865 100.704 188.147 99.2439 188.709C97.7977 189.265 97.0743 190.867 97.6113 192.304L97.5689 192.32L99.6207 197.559L104.486 195.688C104.647 195.656 104.807 195.612 104.965 195.551C106.425 194.989 107.149 193.361 106.583 191.915C106.016 190.468 104.373 189.75 102.913 190.312Z" fill="#E6E6E6"/>
<path d="M211.833 190.312C211.267 188.865 209.624 188.147 208.164 188.709C206.718 189.265 205.994 190.867 206.531 192.304L206.489 192.32L208.541 197.559L213.406 195.688C213.567 195.656 213.727 195.612 213.885 195.551C215.345 194.989 216.069 193.361 215.503 191.915C214.936 190.468 213.293 189.75 211.833 190.312Z" fill="#E6E6E6"/>
<path d="M122.812 95.7436C127.968 95.7436 132.148 91.6017 132.148 86.4925C132.148 81.3832 127.968 77.2414 122.812 77.2414C117.655 77.2414 113.476 81.3832 113.476 86.4925C113.476 91.6017 117.655 95.7436 122.812 95.7436Z" fill="#6368B0"/>
<path d="M80.3716 48.9742C79.3698 49.6173 78.3045 49.9829 77.3442 50.0697L68.1917 56.7934L65.0903 52.3843L74.7085 46.0385C75.181 45.2055 75.9532 44.3915 76.9549 43.7484C79.2434 42.2792 81.8634 42.2581 82.8069 43.7012C83.7504 45.1443 82.6601 47.5051 80.3716 48.9742Z" fill="#FFB6B6"/>
<path d="M58.9349 33.2841C58.9349 33.2841 51.9329 32.5132 50.7659 35.2115C49.5989 37.9097 47.2649 64.8921 47.2649 64.8921L51.1549 71.445L76.665 52.3136L71.4989 47.1945L60.5659 52.3136L58.9349 33.2841Z" fill="#E6E6E6"/>
<path d="M160.352 42.0029C161.184 42.851 162.141 43.4424 163.057 43.739L170.469 52.3136L174.483 48.6996L166.533 40.3907C166.259 39.4743 165.69 38.5103 164.858 37.6623C162.957 35.725 160.407 35.1263 159.163 36.3249C157.919 37.5235 158.451 40.0657 160.352 42.0029Z" fill="#A0616A"/>
<path d="M184.777 31.4375C184.777 31.4375 191.776 32.2311 192.308 35.1191C192.839 38.0072 189.05 64.827 189.05 64.827L183.785 70.3569L163.215 46.0764L169.402 42.2259L178.91 49.6291L184.777 31.4375Z" fill="#6368B0"/>
<path d="M90.4002 62.5771C93.6237 62.5771 96.2369 59.9876 96.2369 56.7934C96.2369 53.5992 93.6237 51.0098 90.4002 51.0098C87.1767 51.0098 84.5635 53.5992 84.5635 56.7934C84.5635 59.9876 87.1767 62.5771 90.4002 62.5771Z" fill="#E6E6E6"/>
</g>
<defs>
<clipPath id="clip0_426_10046">
<rect width="257" height="198" fill="white"/>
</clipPath>
</defs>
</svg>
