<svg width="358" height="319" viewBox="0 0 358 319" fill="none" xmlns="http://www.w3.org/2000/svg">
<g clip-path="url(#clip0_426_9691)">
<path d="M307.664 263.579C301.623 281.321 293.855 299.024 283.903 315.873C283.682 316.253 283.459 316.625 283.234 317.003L258.596 309.187C258.738 308.829 258.893 308.429 259.059 307.992C268.997 282.221 328.952 125.207 326.261 94.2496C326.551 96.7837 335.93 180.644 307.664 263.579Z" fill="#E6E6E6"/>
<path d="M288.656 317.381C288.322 317.725 287.978 318.065 287.632 318.398L269.149 312.535C269.399 312.231 269.69 311.874 270.025 311.471C275.499 304.767 291.773 284.697 307.664 263.579C324.742 240.885 341.38 216.986 343.712 207.166C343.244 209.399 328.66 277.378 288.656 317.381Z" fill="#E6E6E6"/>
<path d="M297.895 55.9457C297.888 55.9457 297.882 55.9477 297.875 55.9479V16.2183C297.875 11.9169 296.171 7.79173 293.138 4.75022C290.105 1.7087 285.991 0 281.701 0H157.661C153.372 0 149.258 1.7087 146.225 4.75022C143.192 7.79173 141.488 11.9169 141.488 16.2183V36.5858C141.145 36.5931 140.819 36.7346 140.58 36.9799C140.34 37.2253 140.206 37.555 140.205 37.8984V47.9867C140.206 48.3301 140.34 48.6598 140.58 48.9052C140.819 49.1505 141.145 49.2919 141.488 49.2991V59.8675H141.422C141.25 59.8675 141.079 59.9015 140.92 59.9677C140.761 60.0338 140.616 60.1307 140.494 60.2528C140.373 60.375 140.276 60.52 140.21 60.6796C140.144 60.8392 140.11 61.0103 140.11 61.1831V80.6912C140.11 80.864 140.144 81.0351 140.21 81.1947C140.276 81.3543 140.373 81.4993 140.494 81.6215C140.616 81.7436 140.761 81.8405 140.92 81.9067C141.079 81.9728 141.25 82.0068 141.422 82.0068H141.488V89.7548H141.467C141.295 89.7548 141.124 89.7888 140.965 89.8549C140.806 89.921 140.661 90.0179 140.54 90.1401C140.418 90.2623 140.321 90.4073 140.255 90.5669C140.189 90.7265 140.155 90.8976 140.155 91.0703V110.769C140.155 110.942 140.189 111.113 140.255 111.273C140.321 111.432 140.418 111.577 140.54 111.7C140.661 111.822 140.806 111.919 140.965 111.985C141.124 112.051 141.295 112.085 141.467 112.085H141.488V302.499C141.488 306.8 143.192 310.926 146.225 313.967C149.258 317.009 153.372 318.717 157.661 318.717H281.701C285.991 318.717 290.105 317.009 293.138 313.967C296.171 310.926 297.875 306.8 297.875 302.499V94.5786C297.882 94.5786 297.888 94.5806 297.895 94.5806C298.202 94.5806 298.506 94.52 298.789 94.4023C299.073 94.2846 299.33 94.1121 299.547 93.8945C299.764 93.677 299.936 93.4188 300.053 93.1346C300.171 92.8504 300.231 92.5458 300.231 92.2381V58.2884C300.231 57.6671 299.985 57.0712 299.547 56.6319C299.109 56.1925 298.515 55.9457 297.895 55.9457Z" fill="#3F3D56"/>
<path d="M288.218 20.758V297.955C288.217 301.258 286.908 304.425 284.578 306.759C282.249 309.094 279.09 310.406 275.797 310.406H163.566C160.272 310.406 157.114 309.094 154.784 306.759C152.455 304.425 151.146 301.258 151.145 297.955V20.758C151.145 17.4546 152.453 14.2864 154.783 11.9506C157.112 9.61466 160.272 8.30237 163.566 8.30237H180.36V10.4881C180.361 13.2079 181.439 15.8159 183.357 17.7391C185.275 19.6623 187.876 20.7432 190.588 20.7444H247.687C250.396 20.7384 252.991 19.6552 254.904 17.7324C256.818 15.8096 257.892 13.2043 257.892 10.4881V8.32509H275.797C279.087 8.32508 282.243 9.63426 284.572 11.9652C286.901 14.2962 288.212 17.4585 288.218 20.758Z" fill="white"/>
<path d="M106.227 155.54C105.563 155.282 104.851 155.174 104.141 155.222C103.431 155.27 102.74 155.473 102.117 155.818C101.494 156.163 100.954 156.641 100.534 157.217C100.115 157.794 99.8274 158.456 99.691 159.157L59.6973 180.963L66.7291 188.899L103.87 164.997C105.059 165.149 106.262 164.858 107.251 164.18C108.24 163.502 108.947 162.484 109.238 161.318C109.528 160.152 109.382 158.92 108.827 157.855C108.272 156.79 107.347 155.967 106.227 155.54Z" fill="#FFB8B8"/>
<path d="M96.0269 312.438L101.01 309.205L90.9488 288.391L83.5935 293.162L96.0269 312.438Z" fill="#FFB8B8"/>
<path d="M113.615 307.612L97.9521 317.771L94.0379 311.703L103.875 305.322C105.42 304.32 107.299 303.974 109.098 304.361C110.897 304.748 112.469 305.836 113.468 307.385L113.615 307.612Z" fill="#2F2E41"/>
<path d="M40.11 313.19H46.0451L48.8697 290.233H40.11V313.19Z" fill="#FFB8B8"/>
<path d="M57.4918 318.716H38.8383V311.489H50.5542C51.4653 311.489 52.3674 311.669 53.2091 312.018C54.0508 312.368 54.8156 312.881 55.4598 313.527C56.104 314.173 56.6151 314.939 56.9637 315.783C57.3124 316.628 57.4918 317.532 57.4918 318.446V318.716Z" fill="#2F2E41"/>
<path d="M176.281 44.9841H164.046C163.745 44.9841 163.457 44.8644 163.244 44.6514C163.032 44.4383 162.913 44.1494 162.913 43.8481C162.913 43.5468 163.032 43.2578 163.244 43.0448C163.457 42.8317 163.745 42.712 164.046 42.712H176.281C176.581 42.712 176.87 42.8317 177.082 43.0448C177.295 43.2578 177.414 43.5468 177.414 43.8481C177.414 44.1494 177.295 44.4383 177.082 44.6514C176.87 44.8644 176.581 44.9841 176.281 44.9841Z" fill="#3F3D56"/>
<path d="M176.281 48.165H164.046C163.745 48.165 163.457 48.0454 163.244 47.8323C163.032 47.6193 162.913 47.3303 162.913 47.029C162.913 46.7277 163.032 46.4387 163.244 46.2257C163.457 46.0126 163.745 45.8929 164.046 45.8929H176.281C176.581 45.8929 176.87 46.0126 177.082 46.2257C177.295 46.4387 177.414 46.7277 177.414 47.029C177.414 47.3303 177.295 47.6193 177.082 47.8323C176.87 48.0454 176.581 48.165 176.281 48.165Z" fill="#3F3D56"/>
<path d="M176.281 51.3461H164.046C163.745 51.3461 163.457 51.2264 163.244 51.0133C163.032 50.8003 162.913 50.5113 162.913 50.21C162.913 49.9087 163.032 49.6198 163.244 49.4067C163.457 49.1937 163.745 49.074 164.046 49.074H176.281C176.581 49.074 176.87 49.1937 177.082 49.4067C177.295 49.6198 177.414 49.9087 177.414 50.21C177.414 50.5113 177.295 50.8003 177.082 51.0133C176.87 51.2264 176.581 51.3461 176.281 51.3461Z" fill="#3F3D56"/>
<path d="M271.125 48.1878H270.712L270.554 48.056C271.074 47.4333 271.36 46.6466 271.36 45.8339C271.357 45.1652 271.155 44.5126 270.782 43.9586C270.408 43.4047 269.88 42.9742 269.262 42.7216C268.645 42.4691 267.966 42.4058 267.313 42.5398C266.66 42.6737 266.061 42.999 265.592 43.4743C265.123 43.9497 264.805 44.5538 264.678 45.2103C264.552 45.8668 264.622 46.5463 264.881 47.1627C265.139 47.779 265.574 48.3047 266.131 48.6732C266.687 49.0417 267.34 49.2365 268.007 49.2329C268.815 49.2272 269.596 48.9414 270.218 48.4241L270.372 48.5558V48.9739L272.973 51.5868L273.753 50.8052L271.125 48.1878ZM268.007 48.1878C267.543 48.1896 267.088 48.0533 266.701 47.7961C266.314 47.539 266.012 47.1725 265.832 46.7431C265.653 46.3137 265.605 45.8405 265.694 45.3836C265.782 44.9266 266.004 44.5063 266.331 44.1759C266.658 43.8454 267.076 43.6196 267.531 43.527C267.986 43.4344 268.458 43.4792 268.888 43.6557C269.317 43.8322 269.685 44.1325 269.944 44.5186C270.204 44.9046 270.343 45.3592 270.345 45.8248L270.345 45.8339C270.347 46.1412 270.288 46.4459 270.173 46.7305C270.057 47.0151 269.887 47.2741 269.671 47.4926C269.456 47.7112 269.199 47.8851 268.917 48.0044C268.635 48.1236 268.331 48.1859 268.025 48.1877C268.019 48.1878 268.013 48.1878 268.007 48.1878Z" fill="#3F3D56"/>
<path d="M201.207 86.7908H179.227C177.905 86.7908 176.637 86.2642 175.702 85.3268C174.767 84.3893 174.242 83.1179 174.242 81.7922C174.242 80.4665 174.767 79.1951 175.702 78.2576C176.637 77.3202 177.905 76.7936 179.227 76.7936H201.207C202.53 76.7936 203.797 77.3202 204.732 78.2576C205.667 79.1951 206.192 80.4665 206.192 81.7922C206.192 83.1179 205.667 84.3893 204.732 85.3268C203.797 86.2642 202.53 86.7908 201.207 86.7908Z" fill="#6368B0"/>
<path d="M268.5 97.6969H176.961C176.24 97.6969 175.548 97.4097 175.038 96.8984C174.528 96.387 174.242 95.6935 174.242 94.9704C174.242 94.2473 174.528 93.5538 175.038 93.0425C175.548 92.5312 176.24 92.2439 176.961 92.2439H268.5C269.221 92.2439 269.913 92.5312 270.423 93.0425C270.932 93.5538 271.219 94.2473 271.219 94.9704C271.219 95.6935 270.932 96.387 270.423 96.8984C269.913 97.4097 269.221 97.6969 268.5 97.6969Z" fill="#E6E6E6"/>
<path d="M210.586 108.603H176.961C176.24 108.603 175.548 108.316 175.038 107.804C174.528 107.293 174.242 106.6 174.242 105.877C174.242 105.153 174.528 104.46 175.038 103.949C175.548 103.437 176.24 103.15 176.961 103.15H210.586C211.307 103.15 211.998 103.437 212.508 103.949C213.018 104.46 213.305 105.153 213.305 105.877C213.305 106.6 213.018 107.293 212.508 107.804C211.998 108.316 211.307 108.603 210.586 108.603Z" fill="#E6E6E6"/>
<path d="M201.207 207.667H179.227C177.905 207.667 176.637 207.14 175.702 206.203C174.767 205.265 174.242 203.994 174.242 202.668C174.242 201.342 174.767 200.071 175.702 199.134C176.637 198.196 177.905 197.67 179.227 197.67H201.207C202.53 197.67 203.797 198.196 204.732 199.134C205.667 200.071 206.192 201.342 206.192 202.668C206.192 203.994 205.667 205.265 204.732 206.203C203.797 207.14 202.53 207.667 201.207 207.667Z" fill="#6368B0"/>
<path d="M268.5 218.573H176.961C176.24 218.573 175.548 218.286 175.038 217.774C174.528 217.263 174.242 216.57 174.242 215.846C174.242 215.123 174.528 214.43 175.038 213.918C175.548 213.407 176.24 213.12 176.961 213.12H268.5C269.221 213.12 269.913 213.407 270.423 213.918C270.932 214.43 271.219 215.123 271.219 215.846C271.219 216.57 270.932 217.263 270.423 217.774C269.913 218.286 269.221 218.573 268.5 218.573Z" fill="#E6E6E6"/>
<path d="M210.586 229.479H176.961C176.24 229.479 175.548 229.192 175.038 228.68C174.528 228.169 174.242 227.476 174.242 226.753C174.242 226.029 174.528 225.336 175.038 224.825C175.548 224.313 176.24 224.026 176.961 224.026H210.586C211.307 224.026 211.998 224.313 212.508 224.825C213.018 225.336 213.305 226.029 213.305 226.753C213.305 227.476 213.018 228.169 212.508 228.68C211.998 229.192 211.307 229.479 210.586 229.479Z" fill="#E6E6E6"/>
<path d="M201.207 263.561H179.227C177.905 263.561 176.637 263.034 175.702 262.097C174.767 261.159 174.242 259.888 174.242 258.562C174.242 257.236 174.767 255.965 175.702 255.027C176.637 254.09 177.905 253.563 179.227 253.563H201.207C202.53 253.563 203.797 254.09 204.732 255.027C205.667 255.965 206.192 257.236 206.192 258.562C206.192 259.888 205.667 261.159 204.732 262.097C203.797 263.034 202.53 263.561 201.207 263.561Z" fill="#6368B0"/>
<path d="M268.5 274.467H176.961C176.24 274.467 175.548 274.179 175.038 273.668C174.528 273.157 174.242 272.463 174.242 271.74C174.242 271.017 174.528 270.324 175.038 269.812C175.548 269.301 176.24 269.014 176.961 269.014H268.5C269.221 269.014 269.913 269.301 270.423 269.812C270.932 270.324 271.219 271.017 271.219 271.74C271.219 272.463 270.932 273.157 270.423 273.668C269.913 274.179 269.221 274.467 268.5 274.467Z" fill="#E6E6E6"/>
<path d="M210.586 285.373H176.961C176.24 285.373 175.548 285.086 175.038 284.574C174.528 284.063 174.242 283.369 174.242 282.646C174.242 281.923 174.528 281.23 175.038 280.718C175.548 280.207 176.24 279.92 176.961 279.92H210.586C211.307 279.92 211.998 280.207 212.508 280.718C213.018 281.23 213.305 281.923 213.305 282.646C213.305 283.369 213.018 284.063 212.508 284.574C211.998 285.086 211.307 285.373 210.586 285.373Z" fill="#E6E6E6"/>
<path d="M281.415 179.266H106.494C105.472 179.264 104.493 178.857 103.771 178.133C103.049 177.409 102.643 176.427 102.642 175.403V127.689C102.643 126.665 103.049 125.683 103.771 124.959C104.493 124.235 105.472 123.827 106.494 123.826H281.415C282.436 123.827 283.415 124.235 284.138 124.959C284.86 125.683 285.266 126.665 285.267 127.689V175.403C285.266 176.427 284.86 177.409 284.138 178.133C283.415 178.857 282.436 179.264 281.415 179.266Z" fill="#6368B0"/>
<path d="M43.6088 236.032C45.2809 247.797 36.4261 299.919 37.4095 299.914L50.1253 299.846C50.5784 298.974 56.4152 270.849 58.246 266.337C60.8018 260.075 63.3803 253.736 64.3864 247.047C65.3335 240.767 64.8667 234.369 64.2504 228.048C64.279 227.86 64.2627 227.667 64.2027 227.487C64.1427 227.306 64.0407 227.143 63.9053 227.01C63.7698 226.877 63.6048 226.778 63.4237 226.721C63.2425 226.664 63.0506 226.652 62.8637 226.684L45.8021 225.803C42.2855 225.621 41.4517 224.848 41.9864 228.311C42.358 230.897 43.2372 233.414 43.6088 236.032Z" fill="#2F2E41"/>
<path d="M46.9622 207.426C43.4955 212.425 39.8611 218.178 41.0121 224.162C41.8867 228.707 45.3398 232.228 48.5981 235.523C61.622 248.637 87.3029 306.503 87.3029 306.503C99.6962 298.551 87.0076 306.731 99.5836 298.324C98.4689 298.238 73.1415 206.94 71.0433 206.817C62.5556 206.254 55.2324 205.422 46.9622 207.426Z" fill="#2F2E41"/>
<path d="M60.6743 159.849C58.9134 158.274 46.539 153.418 46.539 153.418C46.3115 153.388 46.0806 153.394 45.8553 153.438C45.1511 153.617 44.8298 154.494 44.9802 155.204C45.1306 155.913 43.8965 167.575 43.5786 172.878C43.0214 182.133 48.4567 203.099 48.4089 203.74C48.2226 206.026 47.2243 208.169 45.5955 209.78C46.0188 210.307 72.9055 211.363 74.7343 211.987C75.1035 211.518 72.6525 178.263 72.5397 176.385C72.3517 173.533 62.9988 162.008 60.6743 159.849Z" fill="#E6E6E6"/>
<path d="M41.4975 232.005C42.1347 231.687 42.6946 231.233 43.1378 230.674C43.581 230.116 43.8967 229.467 44.0626 228.773C44.2286 228.079 44.2408 227.357 44.0984 226.658C43.956 225.958 43.6624 225.299 43.2384 224.726L54.5825 161.77L43.9965 161.63L36.1187 223.885C35.2057 224.663 34.6091 225.75 34.4419 226.94C34.2747 228.13 34.5486 229.34 35.2116 230.341C35.8746 231.342 36.8807 232.064 38.0392 232.371C39.1978 232.677 40.4283 232.547 41.4975 232.005Z" fill="#FFB8B8"/>
<path d="M41.4064 166.442C40.9649 166.474 40.5252 166.359 40.1556 166.115C39.5257 165.574 44.6646 157.299 45.6797 157.176C48.9833 156.794 52.382 156.667 55.5859 157.562C58.7898 158.458 61.8033 160.493 63.2353 163.506C63.8335 164.76 59.4967 171.072 57.5254 170.145C55.1644 169.037 44.5151 166.519 41.4064 166.442Z" fill="#E6E6E6"/>
<path d="M53.0665 152.74C59.6334 152.74 64.957 147.401 64.957 140.816C64.957 134.231 59.6334 128.893 53.0665 128.893C46.4995 128.893 41.176 134.231 41.176 140.816C41.176 147.401 46.4995 152.74 53.0665 152.74Z" fill="#FFB8B8"/>
<path d="M41.3875 160.53C43.0398 160.704 44.7091 160.459 46.2427 159.818C47.7763 159.177 49.1251 158.161 50.1659 156.863C51.2066 155.564 51.906 154.024 52.2 152.385C52.4941 150.745 52.3734 149.058 51.849 147.477C51.3758 146.05 50.5849 144.743 50.1515 143.303C49.7182 141.864 49.7064 140.162 50.6675 139.009C52.548 136.751 56.1725 138.171 59.0716 137.722C62.1606 137.244 64.5305 134.272 64.7777 131.148C65.0249 128.023 63.4008 124.931 60.9832 122.945C58.5655 120.958 55.4474 119.98 52.3368 119.673C48.3419 119.28 44.3132 119.924 40.6386 121.544C36.9641 123.165 33.7675 125.707 31.3565 128.925C28.9456 132.143 27.4016 135.93 26.8732 139.92C26.3448 143.911 26.8498 147.97 28.3396 151.708C29.6392 154.968 31.762 158.005 34.7772 159.791C37.7924 161.577 41.7746 161.92 44.7798 160.117" fill="#2F2E41"/>
<path d="M168.703 145.638H138.316C136.387 145.638 134.817 143.396 134.817 140.64C134.817 137.883 136.387 135.641 138.316 135.641H168.703C170.633 135.641 172.203 137.883 172.203 140.64C172.203 143.396 170.633 145.638 168.703 145.638Z" fill="white"/>
<path d="M250.373 156.544H137.535C136.814 156.544 136.123 156.257 135.613 155.746C135.103 155.235 134.816 154.541 134.816 153.818C134.816 153.095 135.103 152.401 135.613 151.89C136.123 151.379 136.814 151.091 137.535 151.091H250.373C251.095 151.091 251.786 151.379 252.296 151.89C252.806 152.401 253.092 153.095 253.092 153.818C253.092 154.541 252.806 155.235 252.296 155.746C251.786 156.257 251.095 156.544 250.373 156.544Z" fill="#E6E6E6"/>
<path d="M192.459 167.451H137.535C136.814 167.451 136.123 167.163 135.613 166.652C135.103 166.141 134.816 165.447 134.816 164.724C134.816 164.001 135.103 163.307 135.613 162.796C136.123 162.285 136.814 161.998 137.535 161.998H192.459C193.18 161.998 193.872 162.285 194.382 162.796C194.892 163.307 195.178 164.001 195.178 164.724C195.178 165.447 194.892 166.141 194.382 166.652C193.872 167.163 193.18 167.451 192.459 167.451Z" fill="#E6E6E6"/>
<path d="M358 318.091H0V319H358V318.091Z" fill="#3F3D56"/>
</g>
<defs>
<clipPath id="clip0_426_9691">
<rect width="358" height="319" fill="white"/>
</clipPath>
</defs>
</svg>
