<svg width="53" height="65" viewBox="0 0 53 65" fill="none" xmlns="http://www.w3.org/2000/svg">
<g clip-path="url(#clip0_1560_3645)">
<path opacity="0.15" d="M52.33 30.9201C52.209 25.3206 49.8996 19.9913 45.8967 16.0739C41.8938 12.1566 36.5158 9.96289 30.915 9.96289C25.3142 9.96289 19.9362 12.1566 15.9333 16.0739C11.9304 19.9913 9.62101 25.3206 9.5 30.9201V32.0301C10.12 49.6401 26 64.5401 30.92 64.5401C35.84 64.5401 51.71 49.6401 52.3 32.0001C52.32 31.6468 52.33 31.2868 52.33 30.9201Z" fill="#2451DB"/>
<path d="M45.33 23.9201C45.209 18.3206 42.8996 12.9913 38.8967 9.07392C34.8938 5.15658 29.5158 2.96289 23.915 2.96289C18.3142 2.96289 12.9362 5.15658 8.93329 9.07392C4.93038 12.9913 2.62101 18.3206 2.5 23.9201V25.0301C3.12 42.6401 19 57.5401 23.92 57.5401C28.84 57.5401 44.71 42.6401 45.3 25.0001C45.32 24.6468 45.33 24.2868 45.33 23.9201Z" stroke="#2451DB" stroke-width="5" stroke-miterlimit="10"/>
<path d="M23.7 30.9402C26.953 30.9402 29.59 28.3031 29.59 25.0502C29.59 21.7972 26.953 19.1602 23.7 19.1602C20.447 19.1602 17.81 21.7972 17.81 25.0502C17.81 28.3031 20.447 30.9402 23.7 30.9402Z" stroke="#2451DB" stroke-width="2" stroke-miterlimit="10"/>
</g>
<defs>
<clipPath id="clip0_1560_3645">
<rect width="52.33" height="64.54" fill="white"/>
</clipPath>
</defs>
</svg>
