<svg width="312" height="244" viewBox="0 0 312 244" fill="none" xmlns="http://www.w3.org/2000/svg">
<rect width="224" height="48" rx="10" fill="#99B1F6"/>
<rect x="15" y="10" width="193" height="9" rx="4.5" fill="white"/>
<rect x="16" y="29" width="65" height="9" rx="4.5" fill="white"/>
<rect x="92" y="29" width="116" height="9" rx="4.5" fill="white"/>
<rect y="136" width="224" height="48" rx="10" fill="#99B1F6"/>
<rect x="15" y="146" width="193" height="9" rx="4.5" fill="white"/>
<rect x="16" y="165" width="65" height="9" rx="4.5" fill="white"/>
<rect x="92" y="165" width="116" height="9" rx="4.5" fill="white"/>
<rect y="204" width="185" height="39.6429" rx="8.25893" fill="#99B1F6"/>
<rect x="12.3887" y="212.258" width="159.397" height="7.43304" rx="3.71652" fill="white"/>
<rect x="13.2148" y="227.951" width="53.683" height="7.43304" rx="3.71652" fill="white"/>
<rect x="75.9824" y="227.951" width="95.8036" height="7.43304" rx="3.71652" fill="white"/>
<rect x="88.5" y="68.5" width="223" height="47" rx="9.5" fill="white" stroke="#F0F2FF"/>
<rect x="103" y="78" width="193" height="9" rx="4.5" fill="#99B1F6"/>
<rect x="180" y="97" width="116" height="9" rx="4.5" fill="#99B1F6"/>
</svg>
