<svg width="251" height="210" viewBox="0 0 251 210" fill="none" xmlns="http://www.w3.org/2000/svg">
<g clip-path="url(#clip0_411_11156)">
<path d="M11.6631 200.108C15.1446 206.579 22.534 209.358 22.534 209.358C22.534 209.358 24.2784 201.645 20.7972 195.173C17.3159 188.702 9.92629 185.924 9.92629 185.924C9.92629 185.924 8.18161 193.636 11.6631 200.108Z" fill="#2F2E41"/>
<path d="M14.0563 197.979C20.3419 201.769 22.7628 209.298 22.7628 209.298C22.7628 209.298 14.9925 210.681 8.70656 206.891C2.42064 203.1 0 195.573 0 195.573C0 195.573 7.77036 194.189 14.0563 197.979Z" fill="#4DBFA3"/>
<path d="M154.984 10.0815H115.765V10.6431H154.984V10.0815Z" fill="#F2F2F2"/>
<path d="M144.338 10.5027H143.778V15.6967H144.338V10.5027Z" fill="#F2F2F2"/>
<path d="M127.251 10.5027H126.69V15.6967H127.251V10.5027Z" fill="#F2F2F2"/>
<path d="M174.873 37.0344H135.655V37.5959H174.873V37.0344Z" fill="#F2F2F2"/>
<path d="M146.86 31.9807H146.299V37.1748H146.86V31.9807Z" fill="#F2F2F2"/>
<path d="M163.948 31.9807H163.388V37.1748H163.948V31.9807Z" fill="#F2F2F2"/>
<path d="M226.978 49.6687H187.759V50.2302H226.978V49.6687Z" fill="#F2F2F2"/>
<path d="M198.965 44.615H198.404V49.809H198.965V44.615Z" fill="#F2F2F2"/>
<path d="M216.053 44.615H215.492V49.809H216.053V44.615Z" fill="#F2F2F2"/>
<path d="M223.056 179.941H183.837V180.502H223.056V179.941Z" fill="#F2F2F2"/>
<path d="M195.043 174.887H194.482V180.082H195.043V174.887Z" fill="#F2F2F2"/>
<path d="M212.131 174.887H211.571V180.082H212.131V174.887Z" fill="#F2F2F2"/>
<path d="M156.104 89.8171H116.886V90.3787H156.104V89.8171Z" fill="#F2F2F2"/>
<path d="M128.091 84.7637H127.531V89.9577H128.091V84.7637Z" fill="#F2F2F2"/>
<path d="M145.179 84.7637H144.619V89.9577H145.179V84.7637Z" fill="#F2F2F2"/>
<path d="M168.43 157.48H129.211V158.042H168.43V157.48Z" fill="#F2F2F2"/>
<path d="M140.417 152.427H139.857V157.621H140.417V152.427Z" fill="#F2F2F2"/>
<path d="M157.505 152.427H156.944V157.621H157.505V152.427Z" fill="#F2F2F2"/>
<path d="M231.18 136.985H191.961V137.546H231.18V136.985Z" fill="#F2F2F2"/>
<path d="M203.167 131.931H202.606V137.125H203.167V131.931Z" fill="#F2F2F2"/>
<path d="M220.255 131.931H219.694V137.125H220.255V131.931Z" fill="#F2F2F2"/>
<path d="M101.425 197.145H35.0935V196.668H100.948V173.471H40.6698L37.7416 167.357L38.1719 167.15L40.9702 172.993H101.425V197.145Z" fill="#2F2E41"/>
<path d="M43.9219 208.863C46.6893 208.863 48.9326 206.614 48.9326 203.841C48.9326 201.067 46.6893 198.819 43.9219 198.819C41.1545 198.819 38.9111 201.067 38.9111 203.841C38.9111 206.614 41.1545 208.863 43.9219 208.863Z" fill="#17262F"/>
<path d="M93.3129 208.863C96.0802 208.863 98.3236 206.614 98.3236 203.841C98.3236 201.067 96.0802 198.819 93.3129 198.819C90.5455 198.819 88.3021 201.067 88.3021 203.841C88.3021 206.614 90.5455 208.863 93.3129 208.863Z" fill="#17262F"/>
<path d="M151.532 100.295C153.245 100.295 154.634 98.9027 154.634 97.1858C154.634 95.4688 153.245 94.0769 151.532 94.0769C149.819 94.0769 148.43 95.4688 148.43 97.1858C148.43 98.9027 149.819 100.295 151.532 100.295Z" fill="#021C2B"/>
<path d="M108.52 165.579H33.9626L17.83 112.73H125.134L125.036 113.041L108.52 165.579ZM34.3156 165.101H108.17L124.483 113.209H18.4751L34.3156 165.101Z" fill="#2F2E41"/>
<path d="M102.7 162.829H37.2136L23.0438 115.958H117.292L117.206 116.234L102.7 162.829Z" fill="#F2F2F2"/>
<path d="M126.471 108.008L126.009 107.885L129.158 95.99H147.476V96.4673H129.526L126.471 108.008Z" fill="#2F2E41"/>
<path d="M119.771 128.752H23.0432V129.23H119.771V128.752Z" fill="#2F2E41"/>
<path d="M114.232 146.372H28.4221V146.851H114.232V146.372Z" fill="#2F2E41"/>
<path d="M71.7193 112.969H71.2419V165.34H71.7193V112.969Z" fill="#2F2E41"/>
<path d="M93.0634 112.946L89.6597 165.323L90.1361 165.355L93.5398 112.977L93.0634 112.946Z" fill="#2F2E41"/>
<path d="M49.8866 112.953L49.4103 112.984L52.816 165.355L53.2923 165.324L49.8866 112.953Z" fill="#2F2E41"/>
<path d="M251 209.166H0V209.727H251V209.166Z" fill="#2F2E41"/>
<path d="M166.795 17.3723C166.795 17.3723 170.89 29.0535 168.37 30.8507C165.85 32.6478 176.875 47.3242 176.875 47.3242L190.105 43.7305L182.86 31.4501C182.86 31.4501 181.915 19.1697 181.915 17.3725C181.915 15.5754 166.795 17.3723 166.795 17.3723Z" fill="#A0616A"/>
<path opacity="0.1" d="M166.795 17.3723C166.795 17.3723 170.89 29.0535 168.37 30.8507C165.85 32.6478 176.875 47.3242 176.875 47.3242L190.105 43.7305L182.86 31.4501C182.86 31.4501 181.915 19.1697 181.915 17.3725C181.915 15.5754 166.795 17.3723 166.795 17.3723Z" fill="black"/>
<path d="M159.921 100.639C159.921 100.639 158.726 115.615 159.921 123.403C161.116 131.191 162.91 152.757 162.91 152.757C162.91 152.757 162.91 193.492 169.484 194.091C176.059 194.69 180.841 195.289 181.439 192.893C182.036 190.497 178.45 189.3 180.243 188.101C182.036 186.902 182.634 182.71 180.243 177.917C177.852 173.124 180.243 124.601 180.243 124.601L191.6 155.152C191.6 155.152 192.795 180.312 193.99 183.906C195.186 187.5 192.795 194.09 196.979 194.689C201.163 195.288 205.943 191.694 208.335 190.496C210.727 189.297 204.75 189.298 205.944 188.699C207.139 188.1 210.726 186.302 209.53 185.704C208.334 185.105 207.14 156.351 207.14 156.351C207.14 156.351 203.853 94.9489 199.669 92.5523C195.484 90.1558 192.795 94.2835 192.795 94.2835L159.921 100.639Z" fill="#17262F"/>
<path d="M170.68 191.694V196.486C170.68 196.486 165.301 209.514 170.68 209.514C176.058 209.514 180.243 210.864 180.243 209.066V192.892L170.68 191.694Z" fill="#021C2B"/>
<path d="M205.945 191.686V196.478C205.945 196.478 211.323 209.505 205.945 209.505C200.566 209.505 196.381 210.855 196.381 209.058V192.884L205.945 191.686Z" fill="#021C2B"/>
<path d="M175.163 26.0584C181.105 26.0584 185.921 21.2307 185.921 15.2755C185.921 9.32032 181.105 4.49268 175.163 4.49268C169.221 4.49268 164.404 9.32032 164.404 15.2755C164.404 21.2307 169.221 26.0584 175.163 26.0584Z" fill="#A0616A"/>
<path d="M171.875 35.3438C171.875 35.3438 174.864 44.3281 179.646 42.5312L184.427 40.7343L192.795 98.2426C192.795 98.2426 186.22 107.827 176.657 101.836C167.093 95.8455 171.875 35.3438 171.875 35.3438Z" fill="#4DBFA3"/>
<path d="M180.243 33.547L182.932 27.856C182.932 27.856 198.772 35.3438 201.164 37.7401C203.556 40.1364 203.555 43.7307 203.555 43.7307L199.371 58.7067C199.371 58.7067 200.566 91.6541 200.566 92.8521C200.566 94.0501 204.75 100.64 201.762 98.2427C198.773 95.8455 198.176 93.4504 195.784 97.0447C193.393 100.639 188.013 104.832 188.013 104.832L180.243 33.547Z" fill="#021C2B"/>
<path d="M201.164 76.6777L199.371 93.4509C199.371 93.4509 188.611 103.035 191.002 103.635C193.393 104.235 194.588 101.838 194.588 101.838C194.588 101.838 198.772 106.031 201.163 103.635C203.553 101.238 209.53 78.4752 209.53 78.4752L201.164 76.6777Z" fill="#A0616A"/>
<path d="M175.392 0.0364553C173.007 -0.0477726 170.454 -0.0912893 168.444 1.19684C167.519 1.84336 166.708 2.6396 166.043 3.55297C164.084 6.03432 162.392 9.15665 163.12 12.2355L163.965 11.9053C163.965 12.727 163.783 13.5384 163.432 14.2811C163.551 13.9343 163.95 14.495 163.843 14.8457L162.912 17.906C164.442 17.3444 166.346 18.4821 166.578 20.0987C166.685 16.544 167.053 12.4676 169.93 10.3864C171.381 9.33662 173.217 9.01627 174.984 8.73158C176.614 8.46907 178.323 8.21863 179.884 8.75657C181.445 9.2945 182.775 10.8945 182.421 12.5106C183.141 12.2621 183.946 12.765 184.301 13.4396C184.657 14.1143 184.676 14.9103 184.686 15.6731C185.454 16.2166 186.327 15.1374 186.64 14.2493C187.374 12.165 188.026 9.94615 187.631 7.77138C187.236 5.59662 185.467 3.51844 183.261 3.51114C183.528 3.21642 183.671 2.82888 183.659 2.43049L181.841 2.27664C182.303 2.21113 182.727 1.98682 183.042 1.64212C182.311 2.44734 176.572 0.07885 175.392 0.0364553Z" fill="#17262F"/>
<path d="M174.864 31.7499C174.864 31.7499 169.998 26.9711 168.247 27.2639C166.496 27.5567 164.105 31.7499 164.105 31.7499C164.105 31.7499 149.76 36.5422 150.358 41.3345C150.955 46.1267 157.529 69.4896 157.529 69.4896C157.529 69.4896 162.908 97.6447 158.127 100.64C153.346 103.635 180.84 111.423 181.438 107.827C182.035 104.232 183.231 68.2905 181.438 62.899C179.645 57.5076 174.864 31.7499 174.864 31.7499Z" fill="#021C2B"/>
<path d="M195.784 41.334H203.174C203.174 41.334 208.336 64.0977 208.933 66.494C209.531 68.8903 210.726 80.272 210.129 80.272C209.531 80.272 197.577 77.8757 197.577 79.6728L195.784 41.334Z" fill="#021C2B"/>
<path d="M195.533 97.7043H167.24C164.479 84.9747 164.248 72.6757 167.24 60.9248H195.533C190.967 72.4643 190.682 84.679 195.533 97.7043Z" fill="#F2F2F2"/>
<path d="M155.737 82.0692L164.105 85.6629C164.105 85.6629 180.243 88.0592 180.243 81.4695C180.243 74.8798 164.105 78.4743 164.105 78.4743L158.726 76.7505L155.737 82.0692Z" fill="#A0616A"/>
<path d="M157.53 37.74L150.359 39.5369L144.98 71.2863C144.98 71.2863 143.187 79.6728 146.176 80.2706C149.164 80.8683 157.532 85.6611 157.532 85.6611C157.532 85.6611 158.727 76.6768 161.118 76.6768L155.138 71.8854L158.724 50.9188L157.53 37.74Z" fill="#021C2B"/>
<path d="M56.0966 99.0823H16.8778V99.6438H56.0966V99.0823Z" fill="#F2F2F2"/>
<path d="M28.0829 94.0286H27.5226V99.2226H28.0829V94.0286Z" fill="#F2F2F2"/>
<path d="M45.1714 94.0286H44.6111V99.2226H45.1714V94.0286Z" fill="#F2F2F2"/>
<path d="M69.8229 15.9775H30.6041V16.5391H69.8229V15.9775Z" fill="#F2F2F2"/>
<path d="M59.1781 16.3987H58.6178V21.5927H59.1781V16.3987Z" fill="#F2F2F2"/>
<path d="M42.0898 16.3987H41.5295V21.5927H42.0898V16.3987Z" fill="#F2F2F2"/>
<path d="M109.322 71.2871H70.1033V71.8486H109.322V71.2871Z" fill="#F2F2F2"/>
<path d="M98.6768 71.7083H98.1166V76.9023H98.6768V71.7083Z" fill="#F2F2F2"/>
<path d="M81.5887 71.7083H81.0284V76.9023H81.5887V71.7083Z" fill="#F2F2F2"/>
<path d="M42.6498 71.0063H3.43103V71.5679H42.6498V71.0063Z" fill="#F2F2F2"/>
<path d="M32.0047 71.4275H31.4445V76.6215H32.0047V71.4275Z" fill="#F2F2F2"/>
<path d="M14.9168 71.4275H14.3566V76.6215H14.9168V71.4275Z" fill="#F2F2F2"/>
<path d="M89.7126 42.9304H50.4939V43.4919H89.7126V42.9304Z" fill="#F2F2F2"/>
<path d="M61.6992 37.8767H61.1389V43.0708H61.6992V37.8767Z" fill="#F2F2F2"/>
<path d="M78.7874 37.8767H78.2272V43.0708H78.7874V37.8767Z" fill="#F2F2F2"/>
</g>
<defs>
<clipPath id="clip0_411_11156">
<rect width="251" height="210" fill="white"/>
</clipPath>
</defs>
</svg>
