<svg width="374" height="269" viewBox="0 0 374 269" fill="none" xmlns="http://www.w3.org/2000/svg">
<path d="M168.8 -68.6006H0V100.199H168.8V-68.6006Z" fill="#CCCCCB"/>
<path d="M168.8 -68.6006C123.683 -66.8592 87.6344 -29.7476 87.6344 15.7994C87.6344 61.3465 123.683 98.458 168.8 100.199V-68.6006Z" fill="#4DBFA3"/>
<path d="M337.599 -68.6006H168.8V100.199H337.599V-68.6006Z" fill="white"/>
<path d="M337.599 100.2C335.858 55.0823 298.747 19.0337 253.2 19.0337C207.652 19.0337 170.541 55.0823 168.8 100.2H337.599Z" fill="#0E4F68"/>
<path d="M506.4 -68.6006H337.6V100.199H506.4V-68.6006Z" fill="#6368B0"/>
<path d="M337.6 -68.6006C339.341 -23.4832 376.453 12.5654 422 12.5654C467.547 12.5654 504.658 -23.4832 506.4 -68.6006H337.6Z" fill="white"/>
<path d="M506.4 100.2H337.6V269H506.4V100.2Z" fill="#0E4F68"/>
<path d="M337.599 100.2H168.8V269H337.599V100.2Z" fill="#4DBFA3"/>
<path d="M168.799 269C213.917 267.259 249.965 230.147 249.965 184.6C249.965 139.053 213.917 101.941 168.799 100.2L168.799 269Z" fill="white"/>
<path d="M168.8 100.2H0V269H168.8V100.2Z" fill="white"/>
<path d="M0 100.2C1.74137 145.317 38.8529 181.366 84.4 181.366C129.947 181.366 167.059 145.317 168.8 100.2H0Z" fill="#6368B0"/>
</svg>
