<svg width="358" height="263" viewBox="0 0 358 263" fill="none" xmlns="http://www.w3.org/2000/svg">
<path d="M117.813 70.1548L121.246 59.0382C117.116 54.5181 111.939 51.0689 106.164 48.99C111.806 58.2849 106.339 70.4103 108.617 81.0282C109.353 84.3345 110.828 87.4336 112.932 90.096C115.037 92.7584 117.716 94.9157 120.773 96.4082L125.982 102.826C128.712 98.0819 130.376 92.8053 130.859 87.3599C131.341 81.9144 130.631 76.4297 128.777 71.2836C127.708 68.4069 126.279 65.6755 124.523 63.1538C121.428 66.7725 117.813 70.1548 117.813 70.1548Z" fill="#F2F2F2"/>
<path d="M98.94 71.5752L97.0268 60.1031C91.3033 57.889 85.1228 57.0978 79.022 57.7982C88.2401 63.6154 88.7848 76.8927 95.5856 85.3859C97.7271 88.0187 100.437 90.1384 103.514 91.5882C106.592 93.0379 109.957 93.7803 113.363 93.7606L120.903 97.1949C121.219 91.7374 120.342 86.2766 118.332 81.1888C116.322 76.1009 113.226 71.5068 109.259 67.7232C107.012 65.6225 104.508 63.8116 101.806 62.3331C100.658 66.9447 98.94 71.5752 98.94 71.5752Z" fill="#F2F2F2"/>
<path d="M164.633 37.8831L168.158 33.5009C168.759 32.7537 169.045 31.8035 168.955 30.8508C168.865 29.8981 168.406 29.0175 167.676 28.3948C167.183 27.9746 166.587 27.6904 165.949 27.5706C165.311 27.4508 164.653 27.4997 164.04 27.7123C163.427 27.9249 162.88 28.2938 162.455 28.7821C162.031 29.2704 161.742 29.861 161.619 30.495L160.669 35.3746L157.065 45.0503L161.39 47.2005L164.633 37.8831Z" fill="#FFB8B8"/>
<path d="M153.822 50.4257L146.74 35.4192C146.361 34.6521 145.824 33.973 145.163 33.426C144.503 32.8791 143.734 32.4766 142.907 32.2447C142.079 32.0129 141.212 31.9569 140.362 32.0803C139.511 32.2038 138.696 32.5039 137.97 32.9613C136.62 33.8116 135.658 35.1533 135.289 36.6997C134.92 38.2461 135.174 39.8746 135.996 41.2374L147.599 61.0149C148.254 62.1015 149.241 62.9523 150.415 63.4438C151.59 63.9353 152.891 64.042 154.131 63.7485C155.136 63.5105 156.063 63.0181 156.82 62.3193C157.578 61.6204 158.141 60.7387 158.456 59.7596L162.831 46.1254L157.066 43.2585L153.822 50.4257Z" fill="#2F2E41"/>
<path d="M167.185 45.5961L162.546 45.2093C161.817 45.1477 161.143 44.8014 160.672 44.2463C160.2 43.6913 159.969 42.9727 160.029 42.2483L161.814 21.0785C161.876 20.3543 162.224 19.6841 162.782 19.2149C163.34 18.7457 164.063 18.5158 164.791 18.5758L169.431 18.9626C170.159 19.0242 170.833 19.3705 171.305 19.9256C171.777 20.4806 172.008 21.1992 171.948 21.9236L170.163 43.0934C170.101 43.8176 169.753 44.4878 169.194 44.957C168.636 45.4262 167.914 45.6561 167.185 45.5961Z" fill="#3F3D56"/>
<path d="M164.158 19.6101C163.765 19.5779 163.376 19.7017 163.075 19.9546C162.774 20.2074 162.586 20.5686 162.553 20.9589L160.768 42.1287C160.736 42.519 160.86 42.9062 161.114 43.2053C161.369 43.5045 161.732 43.6911 162.124 43.7243L166.764 44.1111C167.156 44.1434 167.546 44.0196 167.847 43.7667C168.147 43.5139 168.335 43.1527 168.368 42.7624L170.153 21.5926C170.186 21.2023 170.061 20.8151 169.807 20.5159C169.553 20.2168 169.19 20.0302 168.797 19.997L164.158 19.6101Z" fill="#6368B0"/>
<path d="M154.666 64.6505H135.363V83.846H154.666V64.6505Z" fill="#FFB8B8"/>
<path d="M158.42 63.0089C158.991 63.0089 159.454 62.5485 159.454 61.9806C159.454 61.4127 158.991 60.9523 158.42 60.9523C157.849 60.9523 157.386 61.4127 157.386 61.9806C157.386 62.5485 157.849 63.0089 158.42 63.0089Z" fill="#2F2E41"/>
<path d="M175.649 145.732L180.797 145.732L183.246 125.984L175.648 125.985L175.649 145.732Z" fill="#FFB6B6"/>
<path d="M174.372 143.206L182.51 142.723V146.191L190.247 151.505C190.63 151.767 190.917 152.144 191.069 152.581C191.22 153.018 191.228 153.491 191.089 153.932C190.951 154.373 190.675 154.758 190.301 155.032C189.927 155.306 189.474 155.453 189.01 155.453H179.321L177.651 152.023L176.999 155.453H173.346L174.372 143.206Z" fill="#2F2E41"/>
<path d="M137.442 159.829L141.856 162.463L154.175 146.785L147.661 142.897L137.442 159.829Z" fill="#FFB6B6"/>
<path d="M137.654 157.01L144.882 160.761L143.087 163.734L146.971 172.25C147.163 172.671 147.215 173.141 147.119 173.593C147.023 174.045 146.784 174.454 146.437 174.762C146.09 175.069 145.654 175.258 145.192 175.301C144.729 175.344 144.265 175.24 143.867 175.002L135.56 170.043L135.903 166.248L133.569 168.855L130.436 166.985L137.654 157.01Z" fill="#2F2E41"/>
<path d="M33.9246 158.11C33.8738 158.11 33.823 158.109 33.7717 158.107C33.1733 158.086 32.589 157.921 32.0685 157.626C31.548 157.332 31.1067 156.917 30.7821 156.416C28.3513 152.803 25.3682 149.59 21.9405 146.892C19.8655 145.242 17.6971 143.709 15.6004 142.226C10.1908 138.401 5.09647 134.798 2.26857 129.82C-3.89709 118.966 3.36389 103.847 13.7369 97.067C25.3716 89.4626 40.6753 88.2698 55.4798 88.1135C57.0184 88.0973 58.558 88.0893 60.0984 88.0894C86.7731 88.0995 113.392 90.5199 139.626 95.3208C148.349 96.9213 157.481 98.882 164.818 103.64C172.113 108.37 176.546 115.819 176.114 122.618C175.482 132.542 164.903 139.958 155.27 141.897C146.088 143.743 136.549 142.495 126.45 141.174C124.221 140.882 121.916 140.58 119.636 140.318C94.8632 137.471 48.325 146.248 46.3561 146.623L44.4027 146.995L36.8236 156.694C36.4827 157.136 36.0437 157.494 35.5409 157.74C35.038 157.985 34.4849 158.112 33.9246 158.11Z" fill="#6368B0"/>
<path d="M144.243 109.695H39.5346C38.9304 109.695 38.3509 109.456 37.9237 109.031C37.4964 108.607 37.2564 108.03 37.2564 107.429C37.2564 106.829 37.4964 106.252 37.9237 105.827C38.3509 105.403 38.9304 105.164 39.5346 105.164H144.243C144.847 105.164 145.427 105.403 145.854 105.827C146.281 106.252 146.521 106.829 146.521 107.429C146.521 108.03 146.281 108.607 145.854 109.031C145.427 109.456 144.847 109.695 144.243 109.695Z" fill="white"/>
<path d="M144.243 123.602H39.5346C39.2353 123.602 38.9387 123.544 38.662 123.431C38.3852 123.317 38.1337 123.151 37.9217 122.94C37.7097 122.73 37.5414 122.48 37.4265 122.206C37.3116 121.931 37.2523 121.636 37.252 121.338C37.2517 121.041 37.3104 120.746 37.4247 120.471C37.539 120.195 37.7068 119.945 37.9183 119.735C38.1298 119.524 38.3811 119.357 38.6576 119.243C38.9341 119.129 39.2305 119.07 39.5299 119.07H144.243C144.847 119.071 145.425 119.31 145.852 119.735C146.278 120.16 146.518 120.736 146.518 121.336C146.518 121.936 146.278 122.512 145.852 122.937C145.425 123.362 144.847 123.601 144.243 123.602Z" fill="white"/>
<path d="M51.7368 137.508H39.5346C38.9309 137.507 38.3523 137.268 37.9257 136.843C37.4991 136.418 37.2595 135.843 37.2595 135.242C37.2595 134.642 37.4991 134.066 37.9257 133.641C38.3523 133.216 38.9309 132.977 39.5346 132.977H51.7368C52.3405 132.977 52.9192 133.216 53.3457 133.641C53.7723 134.066 54.0119 134.642 54.0119 135.242C54.0119 135.843 53.7723 136.418 53.3457 136.843C52.9192 137.268 52.3405 137.507 51.7368 137.508Z" fill="white"/>
<path d="M155.349 78.3506L134.712 75.9015L135.305 79.7925C135.305 79.7925 121.331 90.9907 130.897 103.346L135.516 107.825L135.09 109.93H138.057L138.375 112.47L151.133 122.972L151.866 125.121H153.967L152.94 127.564L143.468 149.473L151.315 153.111L165.769 125.557L162.066 117.252L148.748 100.49L169.376 108.592L169.728 110.371L171.624 110.014L171.258 112.631L175.283 133.228L183.809 132.103L182.933 106.475C182.867 105.074 182.429 103.715 181.665 102.537C180.9 101.359 179.835 100.402 178.579 99.7656C174.208 97.5331 158.063 91.3302 158.063 91.3302L155.349 78.3506Z" fill="#2F2E41"/>
<path d="M147.083 33.4578L143.197 28.4914L137.655 28.2524L137.102 32.9234L134.356 34.1827C131.614 44.5421 131.191 55.3736 133.115 65.9135C133.484 66.2581 133.752 66.6941 133.894 67.1765C134.037 67.6589 134.047 68.1703 133.924 68.6579L133.746 69.3637L133.762 69.3896C134.346 70.3065 134.545 71.4152 134.314 72.4762L129.294 81.3474C139.955 85.6684 147.77 77.6102 155.01 67.0499L159.491 51.625L147.083 33.4578Z" fill="#3F3D56"/>
<path d="M158.763 62.0146L159.809 51.6079L145.918 31.1587L145.347 31.5421L159.098 51.7866L158.077 61.9462L158.763 62.0146Z" fill="#2F2E41"/>
<path d="M143.469 28.0837C149.128 28.0837 153.716 23.5214 153.716 17.8934C153.716 12.2655 149.128 7.70312 143.469 7.70312C137.809 7.70312 133.221 12.2655 133.221 17.8934C133.221 23.5214 137.809 28.0837 143.469 28.0837Z" fill="#FFB8B8"/>
<path d="M144.786 5.46543L143.5 5.506L143.064 5.51979L138.17 5.67419C133.833 5.81105 130.442 9.85576 130.597 14.7083C127.429 18.0796 128.541 22.1429 131.279 26.4686C135.984 26.9005 140.607 27.9751 145.017 29.662L145.551 27.0201L146.879 30.4354C147.979 30.9232 149.071 31.4601 150.156 32.046C148.728 26.2777 148.031 20.4998 148.741 15.9721L150.982 15.9014L150.904 13.4627L151.743 15.8774L155.805 15.7492C155.761 14.3544 155.44 12.9821 154.862 11.7104C154.285 10.4388 153.461 9.29279 152.437 8.33785C151.414 7.38292 150.212 6.63775 148.899 6.1449C147.586 5.65204 146.189 5.42116 144.786 5.46543Z" fill="#2F2E41"/>
<path d="M135.939 9.75826C138.604 9.75826 140.764 7.60974 140.764 4.95939C140.764 2.30905 138.604 0.160522 135.939 0.160522C133.274 0.160522 131.113 2.30905 131.113 4.95939C131.113 7.60974 133.274 9.75826 135.939 9.75826Z" fill="#2F2E41"/>
<path d="M167.642 43.0131L171.167 38.6309C171.768 37.8837 172.054 36.9335 171.964 35.9808C171.874 35.0281 171.415 34.1475 170.685 33.5248C170.192 33.1046 169.596 32.8204 168.958 32.7006C168.32 32.5809 167.662 32.6297 167.049 32.8423C166.436 33.0549 165.889 33.4238 165.465 33.9121C165.04 34.4004 164.751 34.991 164.628 35.625L163.678 40.5046L160.075 50.1803L164.399 52.3305L167.642 43.0131Z" fill="#FFB8B8"/>
<path d="M156.831 55.5556L149.749 40.5491C149.37 39.782 148.833 39.1028 148.172 38.5559C147.512 38.009 146.743 37.6065 145.916 37.3746C145.088 37.1428 144.221 37.0867 143.371 37.2102C142.52 37.3337 141.705 37.6338 140.979 38.0912C139.629 38.9415 138.667 40.2832 138.298 41.8296C137.929 43.376 138.183 45.0045 139.005 46.3673L150.608 66.1448C151.263 67.2314 152.25 68.0821 153.424 68.5737C154.599 69.0652 155.9 69.1719 157.14 68.8784C158.145 68.6404 159.072 68.148 159.83 67.4491C160.587 66.7503 161.15 65.8685 161.465 64.8895L165.84 51.2553L160.075 48.3884L156.831 55.5556Z" fill="#2F2E41"/>
<path d="M326.948 181.814L338.567 180.504C341.085 174.934 342.198 168.836 341.808 162.741C335.492 171.597 322.13 171.455 313.251 177.772C310.497 179.764 308.229 182.346 306.615 185.328C305.001 188.309 304.082 191.614 303.927 194.997L300.09 202.309C305.555 202.904 311.084 202.313 316.297 200.579C321.509 198.844 326.282 196.006 330.286 192.26C332.511 190.137 334.458 187.743 336.082 185.136C331.51 183.759 326.948 181.814 326.948 181.814Z" fill="#F2F2F2"/>
<path d="M318.102 165.174L327.914 158.848C327.669 152.746 325.93 146.795 322.848 141.513C321.167 152.24 309.144 158.039 304.03 167.631C302.458 170.635 301.586 173.952 301.478 177.337C301.371 180.721 302.03 184.087 303.409 187.183L303.254 195.429C308.411 193.538 313.095 190.558 316.983 186.693C320.871 182.829 323.87 178.172 325.774 173.044C326.813 170.156 327.482 167.15 327.766 164.096C323.057 164.892 318.102 165.174 318.102 165.174Z" fill="#F2F2F2"/>
<path d="M275.505 242.591C294.951 242.591 310.715 226.914 310.715 207.576C310.715 188.238 294.951 172.561 275.505 172.561C256.059 172.561 240.295 188.238 240.295 207.576C240.295 226.914 256.059 242.591 275.505 242.591Z" fill="white"/>
<path d="M275.505 243.018C268.456 243.018 261.566 240.94 255.705 237.045C249.844 233.151 245.276 227.615 242.578 221.139C239.881 214.663 239.175 207.537 240.55 200.662C241.925 193.787 245.32 187.471 250.304 182.515C255.288 177.558 261.639 174.182 268.552 172.815C275.465 171.447 282.631 172.149 289.144 174.832C295.656 177.514 301.222 182.057 305.138 187.885C309.054 193.714 311.145 200.566 311.145 207.576C311.134 216.972 307.376 225.981 300.694 232.626C294.013 239.27 284.954 243.008 275.505 243.018ZM275.505 172.989C268.626 172.989 261.902 175.017 256.182 178.818C250.463 182.618 246.005 188.02 243.373 194.34C240.74 200.66 240.051 207.614 241.393 214.324C242.735 221.033 246.048 227.196 250.912 232.033C255.776 236.87 261.973 240.164 268.72 241.499C275.467 242.833 282.46 242.148 288.815 239.53C295.17 236.913 300.602 232.479 304.424 226.792C308.245 221.104 310.285 214.417 310.285 207.576C310.274 198.406 306.607 189.615 300.087 183.13C293.566 176.646 284.726 172.999 275.505 172.989Z" fill="#3F3D56"/>
<path d="M272.869 221.57C272.794 221.57 272.719 221.567 272.644 221.564C271.981 221.532 271.332 221.358 270.743 221.053C270.154 220.749 269.638 220.321 269.23 219.8L263.346 212.277C262.975 211.802 262.701 211.259 262.54 210.679C262.38 210.099 262.336 209.493 262.411 208.896C262.486 208.299 262.678 207.723 262.977 207.199C263.276 206.676 263.676 206.217 264.154 205.848L264.365 205.684C264.843 205.314 265.389 205.042 265.973 204.882C266.556 204.722 267.166 204.678 267.766 204.753C268.367 204.828 268.946 205.019 269.472 205.317C269.999 205.614 270.46 206.012 270.832 206.487C271.129 206.867 271.505 207.178 271.934 207.4C272.364 207.621 272.836 207.748 273.319 207.772C273.802 207.795 274.285 207.714 274.734 207.535C275.183 207.356 275.587 207.083 275.92 206.734L287.867 194.191C288.708 193.31 289.866 192.797 291.087 192.764C292.308 192.731 293.493 193.181 294.381 194.015L294.577 194.2C295.016 194.614 295.369 195.11 295.615 195.659C295.862 196.209 295.997 196.801 296.014 197.403C296.03 198.004 295.927 198.603 295.711 199.165C295.494 199.726 295.169 200.24 294.752 200.677L276.212 220.139C275.782 220.591 275.263 220.951 274.689 221.197C274.114 221.443 273.495 221.57 272.869 221.57Z" fill="#6368B0"/>
<path d="M257.086 252.322L252.203 252.863L247.576 234.023L254.783 233.224L257.086 252.322Z" fill="#A0616A"/>
<path d="M289.257 167.621C289.105 167.471 288.941 167.325 288.777 167.186C287.517 166.146 286.2 165.177 284.833 164.281C283.286 163.256 281.545 162.21 279.576 161.129C278.622 160.606 277.615 160.072 276.554 159.526C276.022 159.253 275.475 158.978 274.913 158.7C274.889 158.686 274.864 158.674 274.839 158.662L274.676 158.58L262.826 168.308L261.984 168.966L264.167 171.643C264.167 171.643 263.977 173.771 263.981 173.772L261.814 179.15L261.79 179.161L254.07 182.665L246.114 186.277L241.841 188.218C240.85 188.667 239.959 189.307 239.219 190.102C238.479 190.897 237.906 191.83 237.533 192.847C237.14 193.903 236.962 195.027 237.011 196.152C237.059 197.278 237.332 198.382 237.814 199.402C237.909 199.609 238.017 199.817 238.131 200.018L239.906 211.12C240.967 217.761 243.029 224.205 246.024 230.233L248.736 240.626L249.148 240.42L255.281 237.365L256.902 236.56L257.208 229.577C257.243 228.781 257.248 227.98 257.219 227.182C257.177 225.875 257.052 224.571 256.843 223.28L253.326 201.504C253.95 201.251 254.566 200.996 255.173 200.741C257.988 199.57 260.652 198.386 263.167 197.189C271.346 193.302 278.009 189.267 283.452 184.895C284.982 183.67 286.417 182.415 287.757 181.131C288.249 180.662 288.729 180.188 289.195 179.71C289.306 179.599 289.414 179.49 289.521 179.378C290.479 178.378 291.17 177.154 291.531 175.82C291.891 174.485 291.909 173.082 291.583 171.739C291.218 170.174 290.411 168.745 289.257 167.621Z" fill="#2F2E41"/>
<path d="M256.688 249.024L251.402 249.605L250.573 249.696L251.113 252.817L244.97 258.785C244.666 259.08 244.464 259.464 244.395 259.88C244.326 260.297 244.393 260.724 244.586 261.101C244.779 261.477 245.087 261.782 245.467 261.971C245.846 262.16 246.277 262.224 246.695 262.153L255.419 260.667L256.389 257.323L257.509 260.31L260.795 259.751L257.974 248.884L256.688 249.024Z" fill="#2F2E41"/>
<path d="M261.719 140.928L266.245 136.155L259.86 122.263L258.911 117.383C258.787 116.749 258.499 116.158 258.074 115.67C257.649 115.182 257.103 114.813 256.49 114.6C255.877 114.388 255.218 114.339 254.58 114.459C253.942 114.578 253.347 114.863 252.854 115.283C252.123 115.906 251.665 116.786 251.575 117.739C251.484 118.692 251.77 119.642 252.371 120.389L255.897 124.771L261.719 140.928Z" fill="#A0616A"/>
<path d="M266.245 134.017L261.087 139.147L262.074 146.648C262.388 147.627 262.951 148.508 263.709 149.207C264.467 149.906 265.393 150.399 266.399 150.637C267.638 150.93 268.94 150.823 270.114 150.332C271.289 149.84 272.275 148.99 272.931 147.903L284.534 128.125C285.356 126.763 285.61 125.134 285.241 123.588C284.872 122.041 283.91 120.7 282.559 119.849C281.833 119.392 281.018 119.092 280.168 118.968C279.317 118.845 278.45 118.901 277.623 119.133C276.796 119.365 276.027 119.767 275.366 120.314C274.706 120.861 274.168 121.54 273.789 122.307L266.707 137.314L266.245 134.017Z" fill="#E6E6E6"/>
<path d="M261.049 209.715C260.782 209.985 260.515 210.252 260.244 210.519C259.707 211.053 259.161 211.582 258.614 212.105C258.339 212.367 258.06 212.63 257.785 212.888L257.787 212.898L257.769 212.905L257.763 212.91L257.304 213.146L256.162 211.473L255.635 210.703L254.891 209.611L253.527 207.615L246.347 197.105L252.786 193.8L253.294 194.781L253.297 194.78L253.548 195.266L258.257 204.34L259.218 206.196L259.249 206.252L259.826 207.359L260.325 208.319L260.881 209.392L261.049 209.715Z" fill="#A0616A"/>
<path d="M259.718 206.309L255.236 209.155L254.532 209.6L256.404 212.163L253.549 220.217C253.407 220.615 253.397 221.048 253.521 221.452C253.644 221.856 253.894 222.21 254.234 222.462C254.574 222.715 254.987 222.853 255.411 222.856C255.836 222.859 256.25 222.726 256.594 222.478L263.757 217.309L263.141 213.883L265.473 216.07L268.172 214.123L260.809 205.618L259.718 206.309Z" fill="#2F2E41"/>
<path d="M292.039 176.307C291.593 177.019 291.137 177.728 290.678 178.431C289.825 179.739 288.95 181.027 288.051 182.297C288.051 182.3 288.048 182.3 288.044 182.303C287.52 182.786 286.941 183.207 286.319 183.556C286.293 183.576 286.264 183.589 286.237 183.605C285.779 183.857 285.292 184.051 284.785 184.184C284.603 184.23 284.417 184.275 284.235 184.32C283.577 184.476 282.926 184.608 282.278 184.725C281.126 184.929 279.986 185.075 278.853 185.165C278.762 185.175 278.671 185.182 278.58 185.188C273.921 185.528 269.385 184.981 264.651 184.084C262.314 183.644 259.927 183.116 257.456 182.569C256.649 182.387 255.838 182.209 255.018 182.031C254.956 182.018 254.891 182.002 254.825 181.989C253.653 181.733 252.462 181.481 251.241 181.231C249.704 180.917 250.492 180.899 248.844 180.611C248.844 180.611 252.645 184.449 253.277 186.114C253.98 188.16 254.537 189.779 253.362 193.149L257.012 200.275L244.322 202.415C237.328 188.787 231.739 179.812 234.236 174.527C234.245 174.281 234.265 174.031 234.298 173.785C234.43 172.667 234.786 171.586 235.343 170.605C235.9 169.624 236.648 168.764 237.544 168.074C238.402 167.407 239.384 166.917 240.434 166.631C241.485 166.345 242.582 166.27 243.661 166.41L246.152 166.73L265.469 165.797L266.227 162.721L266.367 162.669L270.818 161.047L286.211 155.436L286.25 155.423L287.263 155.054L287.384 155.248C287.419 155.307 287.455 155.365 287.488 155.423C288.488 157.207 289.303 159.089 289.92 161.037C290.956 164.221 291.81 167.461 292.476 170.741C292.505 170.884 292.531 171.013 292.554 171.13L292.563 171.165C292.573 171.22 292.58 171.256 292.583 171.266C292.938 172.736 292.69 174.529 292.039 176.307Z" fill="#2F2E41"/>
<path d="M288.792 116.48L288.68 110.344L278.905 109.212L277.879 114.394L267.605 123.995C260.301 132.876 265.609 139.001 265.926 139.911L266.83 151.11L267.398 155.001L265.179 165.649L293.186 171.624C294.082 164.262 293.084 157.421 287.237 151.916L290.191 142.774C291.689 140.387 292.628 137.695 292.939 134.899L293.045 133.943C295.656 125.853 294.11 123.13 288.792 116.48Z" fill="#E6E6E6"/>
<path d="M302.507 97.3019C302.513 97.4606 302.516 97.6192 302.516 97.7746C302.514 99.4895 302.103 101.179 301.318 102.706C300.533 104.233 299.395 105.553 297.999 106.559C296.602 107.565 294.986 108.228 293.283 108.494C291.579 108.76 289.837 108.622 288.197 108.09L286.189 107.439C286.172 107.433 286.153 107.43 286.136 107.423L282.825 106.348C282.814 106.209 282.817 106.069 282.832 105.931C277.893 103.833 284.72 96.9393 286.416 91.7621C286.68 90.9559 277.613 91.5581 278.043 90.8685C277.948 90.8199 277.854 90.7713 277.766 90.7228C279.297 88.319 281.562 86.4651 284.228 85.4317C286.894 84.3984 289.823 84.2397 292.586 84.9789C292.658 84.9951 292.733 85.0178 292.804 85.0372C299.238 85.1959 302.617 89.6543 302.617 95.4434C302.617 96.0645 302.58 96.6851 302.507 97.3019Z" fill="#2F2E41"/>
<path d="M296.933 99.5812C296.07 102.21 294.192 104.391 291.712 105.643C289.233 106.896 286.355 107.118 283.711 106.261C283.411 106.164 283.118 106.054 282.832 105.931C280.426 104.905 278.492 103.021 277.412 100.65C276.332 98.2782 276.183 95.5906 276.994 93.1154C277.252 92.3272 277.604 91.5728 278.043 90.8684C279.391 88.6976 281.492 87.0936 283.949 86.36C286.406 85.6263 289.049 85.814 291.376 86.8875C293.703 87.961 295.554 89.8457 296.578 92.185C297.602 94.5243 297.728 97.1557 296.933 99.5812Z" fill="#A0616A"/>
<path d="M286.187 107.438C286.169 107.434 286.152 107.428 286.135 107.421L282.825 106.348C282.816 106.207 276.738 110.209 276.755 110.068C276.85 108.986 283.698 103.711 284.721 102.484C285.382 101.7 285.843 100.769 286.061 99.7689C286.28 98.7692 286.251 97.7316 285.977 96.7455C285.703 95.7593 285.192 94.8543 284.488 94.1084C283.784 93.3624 282.908 92.798 281.935 92.4637C281.906 92.4563 281.877 92.4463 281.849 92.4337C281.209 92.2115 280.594 91.9849 280.018 91.7583C279.734 90.5827 279.588 90.9717 278.905 89.9757C279.029 90.882 277.873 91.566 277.856 92.4808C277.619 92.3739 277.396 92.2628 277.181 92.1516C277.086 92.1003 276.996 92.0533 276.906 92.0063C276.243 91.6999 275.663 91.2395 275.216 90.664C276.871 85.6068 283.203 81.5585 288.289 83.2129L290.21 83.8327C292.634 84.6151 294.647 86.3195 295.811 88.5736C297.213 89.6421 298.332 91.0347 299.07 92.6304C303.274 101.03 295.154 110.303 286.187 107.438Z" fill="#2F2E41"/>
<path d="M300.091 93.3809C302.608 93.3809 304.649 91.3515 304.649 88.8481C304.649 86.3446 302.608 84.3152 300.091 84.3152C297.573 84.3152 295.533 86.3446 295.533 88.8481C295.533 91.3515 297.573 93.3809 300.091 93.3809Z" fill="#2F2E41"/>
<path d="M358 98.0935C357.034 102.461 355.1 106.558 352.34 110.088C349.579 113.618 346.062 116.491 342.043 118.497C341.532 118.75 341.012 118.985 340.487 119.203C340.535 117.089 339.924 115.012 338.738 113.256C338.93 114.679 338.953 116.12 338.806 117.548C338.726 118.367 338.59 119.18 338.398 119.981C335.026 121.087 331.484 121.595 327.935 121.481C327.733 119.913 327.163 118.413 326.272 117.104C326.464 118.527 326.487 119.967 326.34 121.396C322.773 121.108 319.288 120.179 316.054 118.656C314.373 117.86 312.722 116.864 311.639 115.36C310.199 113.355 309.958 110.709 310.311 108.272C310.663 105.831 311.544 103.501 312.159 101.116C312.774 98.7305 313.122 96.1784 312.4 93.8229C311.682 91.4632 309.666 89.3642 307.194 89.1804C306.068 89.0949 304.937 89.4027 303.811 89.3001C302.685 89.1933 301.464 88.4452 301.438 87.3209L302.517 85.5767C302.973 82.5245 304.538 79.4979 307.22 77.9461C309.898 76.3901 313.75 76.7235 315.663 79.1516C317.275 81.195 317.214 84.0335 317.743 86.577C318.973 92.4849 323.723 97.2385 329.242 99.7436C334.766 102.244 340.982 102.77 347.051 102.668C349.132 102.629 351.247 102.518 353.224 101.864C355.206 101.206 357.054 99.9402 358 98.0935Z" fill="#2F2E41"/>
<path d="M254.625 125.336L252.84 104.166C252.78 103.442 253.011 102.723 253.482 102.168C253.954 101.613 254.628 101.267 255.357 101.205L259.996 100.819C260.724 100.759 261.447 100.988 262.005 101.458C262.563 101.927 262.912 102.597 262.973 103.321L264.758 124.491C264.819 125.216 264.588 125.934 264.116 126.489C263.644 127.044 262.97 127.391 262.242 127.452L257.602 127.839C256.874 127.899 256.151 127.669 255.593 127.2C255.035 126.731 254.687 126.06 254.625 125.336Z" fill="#3F3D56"/>
<path d="M255.99 102.24C255.598 102.273 255.235 102.46 254.981 102.759C254.726 103.058 254.602 103.445 254.634 103.836L256.419 125.005C256.453 125.396 256.64 125.757 256.941 126.01C257.242 126.262 257.631 126.386 258.024 126.354L262.663 125.967C263.056 125.934 263.419 125.747 263.673 125.448C263.927 125.149 264.052 124.762 264.019 124.372L262.234 103.202C262.201 102.812 262.013 102.45 261.713 102.197C261.412 101.945 261.022 101.821 260.63 101.853L255.99 102.24Z" fill="#6368B0"/>
<path d="M263.813 132.6L268.33 130.886L265.707 120.903L265.247 115.954C265.187 115.311 264.959 114.695 264.585 114.167C264.211 113.639 263.704 113.219 263.115 112.947C262.526 112.675 261.875 112.561 261.229 112.618C260.582 112.674 259.961 112.899 259.429 113.268C258.64 113.816 258.096 114.647 257.911 115.586C257.727 116.525 257.917 117.499 258.441 118.302L261.513 123.009L263.813 132.6Z" fill="#A0616A"/>
<path d="M268.508 129.103L262.486 131.388L265.483 145.386C265.699 146.391 266.172 147.324 266.856 148.094C267.54 148.864 268.413 149.445 269.39 149.781C270.594 150.195 271.9 150.217 273.118 149.843C274.335 149.47 275.402 148.72 276.162 147.703L289.675 129.164C290.629 127.889 291.044 126.294 290.831 124.718C290.617 123.143 289.793 121.714 288.534 120.735C287.857 120.208 287.076 119.829 286.242 119.623C285.408 119.416 284.54 119.387 283.693 119.536C282.847 119.685 282.042 120.01 281.33 120.489C280.618 120.969 280.016 121.592 279.563 122.318L271.023 136.554L268.508 129.103Z" fill="#E6E6E6"/>
<path opacity="0.2" d="M263.61 136.638L266.654 148.932L267.286 149.697C267.786 150.302 268.425 150.779 269.149 151.088C269.874 151.397 270.662 151.528 271.448 151.471C272.234 151.414 272.994 151.169 273.666 150.759C274.337 150.349 274.899 149.784 275.305 149.112L284.953 133.16L276.255 145.129C275.767 145.801 275.116 146.338 274.362 146.691C273.609 147.043 272.778 147.2 271.947 147.146C271.116 147.093 270.312 146.83 269.611 146.383C268.91 145.937 268.334 145.32 267.938 144.592L263.61 136.638Z" fill="black"/>
</svg>
