<svg width="107" height="107" viewBox="0 0 107 107" fill="none" xmlns="http://www.w3.org/2000/svg">
<path d="M53.5 93.625C75.6604 93.625 93.625 75.6604 93.625 53.5C93.625 31.3396 75.6604 13.375 53.5 13.375C31.3396 13.375 13.375 31.3396 13.375 53.5C13.375 75.6604 31.3396 93.625 53.5 93.625Z" fill="#2451DB" fill-opacity="0.15"/>
<path d="M73.5625 51.8281H33.4375C32.5141 51.8281 31.7656 52.5766 31.7656 53.5V76.9062C31.7656 77.8296 32.5141 78.5781 33.4375 78.5781H73.5625C74.4859 78.5781 75.2344 77.8296 75.2344 76.9062V53.5C75.2344 52.5766 74.4859 51.8281 73.5625 51.8281Z" fill="#2451DB" fill-opacity="0.25"/>
<path d="M52.6641 58.5491C50.5607 58.8201 48.6308 59.8564 47.243 61.4601C45.8553 63.0637 45.1068 65.1224 45.1406 67.2429V78.5782H61.8594V66.8751C61.8554 65.7076 61.608 64.5539 61.1328 63.4875C60.6576 62.4211 59.9652 61.4656 59.0998 60.6821C58.2344 59.8985 57.2151 59.3041 56.1069 58.9368C54.9988 58.5695 53.8262 58.4375 52.6641 58.5491ZM78.4444 52.8648L71.7569 36.146C71.6353 35.838 71.4232 35.5742 71.1486 35.3891C70.8741 35.2041 70.5499 35.1066 70.2188 35.1094H36.7813C36.4502 35.1066 36.126 35.2041 35.8514 35.3891C35.5768 35.5742 35.3648 35.838 35.2431 36.146L28.5556 52.8648C28.4422 53.1181 28.3979 53.397 28.4273 53.6731C28.4567 53.9491 28.5586 54.2125 28.7228 54.4363C28.8702 54.6651 29.0734 54.8527 29.3132 54.9813C29.553 55.11 29.8216 55.1756 30.0938 55.1719H76.9063C77.1784 55.1756 77.447 55.11 77.6868 54.9813C77.9266 54.8527 78.1298 54.6651 78.2772 54.4363C78.4414 54.2125 78.5434 53.9491 78.5727 53.6731C78.6021 53.397 78.5578 53.1181 78.4444 52.8648Z" fill="#2451DB"/>
<path d="M65.2031 28.4219H41.7969C40.8735 28.4219 40.125 29.1704 40.125 30.0938V43.4688C40.125 44.3921 40.8735 45.1406 41.7969 45.1406H65.2031C66.1265 45.1406 66.875 44.3921 66.875 43.4688V30.0938C66.875 29.1704 66.1265 28.4219 65.2031 28.4219Z" fill="#2451DB" fill-opacity="0.25"/>
</svg>
