<svg width="281" height="844" viewBox="0 0 281 844" fill="none" xmlns="http://www.w3.org/2000/svg">
<path d="M111.599 168.8H-57.2004V337.6H111.599V168.8Z" fill="#4DBFA3"/>
<path d="M111.599 168.8C109.858 123.683 72.7466 87.6343 27.1995 87.6343C-18.3475 87.6343 -55.4591 123.683 -57.2004 168.8H111.599Z" fill="#0E4F68"/>
<path d="M111.6 0C113.341 45.1174 150.453 81.166 196 81.166C241.547 81.166 278.658 45.1174 280.4 0H111.6Z" fill="#6368B0"/>
<path d="M111.6 168.8C66.4826 170.542 30.434 207.653 30.434 253.2C30.434 298.747 66.4826 335.859 111.6 337.6V168.8Z" fill="white"/>
<path d="M280.4 168.8C235.283 170.542 199.234 207.653 199.234 253.2C199.234 298.747 235.283 335.859 280.4 337.6V168.8Z" fill="white"/>
<path d="M111.599 337.6H-57.2004V506.4H111.599V337.6Z" fill="#CCCCCB"/>
<path d="M111.599 506.4C109.858 461.283 72.7466 425.234 27.1995 425.234C-18.3475 425.234 -55.4591 461.283 -57.2004 506.4H111.599Z" fill="#4DBFA3"/>
<path d="M111.6 506.4C156.717 504.658 192.766 467.547 192.766 422C192.766 376.453 156.717 339.341 111.6 337.6V506.4Z" fill="#0E4F68"/>
<path d="M111.599 506.399H-57.2004V675.199H111.599V506.399Z" fill="white"/>
<path d="M111.599 675.2C109.858 630.082 72.7466 594.034 27.1995 594.034C-18.3475 594.034 -55.4591 630.082 -57.2004 675.2H111.599Z" fill="#0E4F68"/>
<path d="M280.4 506.399H111.6V675.199H280.4V506.399Z" fill="#6368B0"/>
<path d="M111.6 506.399C113.341 551.517 150.453 587.565 196 587.565C241.547 587.565 278.658 551.517 280.4 506.399H111.6Z" fill="white"/>
<path d="M280.4 675.2H111.6V844H280.4V675.2Z" fill="#0E4F68"/>
<path d="M280.4 675.2C235.283 676.941 199.234 714.053 199.234 759.6C199.234 805.147 235.283 842.258 280.4 844V675.2Z" fill="white"/>
<path d="M111.599 675.2H-57.2004V844H111.599V675.2Z" fill="#4DBFA3"/>
<path d="M-57.2005 844C-12.0832 842.259 23.9655 805.147 23.9655 759.6C23.9655 714.053 -12.0832 676.941 -57.2005 675.2L-57.2005 844Z" fill="white"/>
</svg>
