<svg width="135" height="32" viewBox="0 0 135 32" fill="none" xmlns="http://www.w3.org/2000/svg">
<path d="M22.6802 1.61109C22.6802 0.720864 21.9594 0 21.0691 0H1.61109C0.720857 0 0 0.720864 0 1.61109C0 2.50133 0.720857 3.22218 1.61109 3.22218H1.67306V5.41988C1.63898 6.35968 1.72985 7.30568 1.91368 8.22689C2.10577 9.18942 2.43316 10.1127 2.84729 11.0019C3.18397 11.7248 3.60636 12.4044 4.09279 13.0364C4.36337 13.3886 4.64324 13.7304 4.9479 14.0537C5.21642 14.3377 5.50043 14.6083 5.79683 14.8633C5.86396 14.9212 5.93108 14.978 5.99924 15.0337C6.43197 15.3911 6.43197 15.9591 5.99924 16.3164C5.93108 16.3722 5.86396 16.429 5.79683 16.4868C5.4994 16.7419 5.21642 17.0115 4.9479 17.2965C4.64324 17.6198 4.36337 17.9616 4.09279 18.3138C3.6074 18.9458 3.18397 19.6254 2.84729 20.3483C2.43316 21.2375 2.10681 22.1608 1.91368 23.1233C1.72985 24.0445 1.63898 24.9905 1.67306 25.9303V28.128H1.61109C0.720857 28.128 0 28.8489 0 29.7391C0 30.6293 0.720857 31.3502 1.61109 31.3502H21.0691C21.9594 31.3502 22.6802 30.6293 22.6802 29.7391C22.6802 28.8489 21.9594 28.128 21.0691 28.128H21.0072V25.9303C21.0413 24.9905 20.9504 24.0445 20.7665 23.1233C20.5745 22.1608 20.2471 21.2375 19.8329 20.3483C19.4963 19.6254 19.0739 18.9458 18.5874 18.3138C18.3169 17.9616 18.037 17.6198 17.7323 17.2965C17.4638 17.0125 17.1798 16.7419 16.8834 16.4868C16.8163 16.429 16.7491 16.3722 16.681 16.3164C16.2483 15.9591 16.2483 15.3911 16.681 15.0337C16.7491 14.978 16.8163 14.9212 16.8834 14.8633C17.1808 14.6083 17.4638 14.3387 17.7323 14.0537C18.037 13.7304 18.3169 13.3886 18.5874 13.0364C19.0728 12.4044 19.4963 11.7248 19.8329 11.0019C20.2471 10.1127 20.5734 9.18942 20.7665 8.22689C20.9504 7.30568 21.0413 6.35968 21.0072 5.41988V3.22218H21.0691C21.9594 3.22218 22.6802 2.50133 22.6802 1.61109ZM19.0987 7.18278C19.0739 7.35112 19.0449 7.51946 19.0129 7.68676C18.8714 8.41485 18.6556 9.12745 18.3737 9.8132C18.3065 9.96501 18.2373 10.1158 18.164 10.2645C17.8614 10.878 17.5 11.4615 17.0879 12.0068C16.9815 12.141 16.8731 12.2742 16.7615 12.4033C16.2999 12.9362 15.7877 13.4227 15.2351 13.8595C14.757 14.2199 14.2499 14.5422 13.7191 14.821C13.6705 14.8396 13.6261 14.8633 13.5838 14.8923C13.5073 14.9336 13.4402 14.9904 13.3834 15.0554C13.34 15.1009 13.3018 15.1525 13.2698 15.2104C13.2471 15.2527 13.2275 15.2971 13.2099 15.3415C13.1975 15.3715 13.1872 15.4004 13.1769 15.4303C13.151 15.5098 13.1407 15.5914 13.1428 15.673C13.1417 15.7546 13.1521 15.8362 13.1769 15.9157C13.1862 15.9457 13.1975 15.9756 13.2099 16.0045C13.2275 16.05 13.2471 16.0934 13.2698 16.1357C13.3008 16.1935 13.339 16.2452 13.3834 16.2906C13.4402 16.3567 13.5073 16.4125 13.5848 16.4548C13.6271 16.4837 13.6726 16.5075 13.7201 16.5261C14.2509 16.8049 14.758 17.1271 15.2362 17.4876C15.7887 17.9244 16.3009 18.4119 16.7626 18.9437C16.8751 19.0728 16.9825 19.2061 17.0889 19.3403C17.501 19.8866 17.8625 20.4691 18.165 21.0826C18.2384 21.2313 18.3086 21.3821 18.3747 21.5339C18.6577 22.2196 18.8725 22.9322 19.014 23.6603C19.047 23.8276 19.0749 23.996 19.0997 24.1643C19.1709 24.7375 19.1978 25.3148 19.1792 25.8921L19.1782 28.1239H3.50309L3.50205 25.8921C3.48346 25.3148 3.51032 24.7364 3.58158 24.1643C3.60636 23.996 3.63528 23.8276 3.6673 23.6603C3.80878 22.9322 4.02463 22.2196 4.30657 21.5339C4.3737 21.3821 4.44289 21.2313 4.51622 21.0826C4.81881 20.4691 5.18027 19.8856 5.59234 19.3403C5.69871 19.2061 5.80716 19.0728 5.91869 18.9437C6.38033 18.4108 6.89257 17.9244 7.44509 17.4876C7.92326 17.1271 8.43034 16.8049 8.96117 16.5261C9.00971 16.5075 9.05412 16.4837 9.09647 16.4548C9.17289 16.4135 9.24001 16.3567 9.29681 16.2916C9.34019 16.2462 9.37841 16.1946 9.41042 16.1367C9.43314 16.0944 9.45277 16.05 9.47032 16.0056C9.48272 15.9756 9.49304 15.9467 9.50336 15.9167C9.52918 15.8372 9.53951 15.7556 9.53745 15.6741C9.53848 15.5925 9.52815 15.5109 9.50336 15.4314C9.49407 15.4014 9.48272 15.3715 9.47032 15.3425C9.45277 15.2971 9.43314 15.2537 9.41042 15.2114C9.37944 15.1536 9.34122 15.1019 9.29681 15.0565C9.24001 14.9904 9.17289 14.9346 9.09647 14.8923C9.05412 14.8633 9.00868 14.8396 8.96117 14.821C8.43034 14.5422 7.92326 14.2199 7.44509 13.8595C6.89257 13.4227 6.38033 12.9352 5.91869 12.4033C5.80612 12.2742 5.69871 12.141 5.59234 12.0068C5.18027 11.4604 4.81881 10.878 4.51622 10.2645C4.44289 10.1158 4.37267 9.96501 4.30657 9.8132C4.0236 9.12745 3.80878 8.41485 3.6673 7.68676C3.63425 7.51946 3.60636 7.35112 3.58158 7.18278C3.51032 6.60961 3.48346 6.0323 3.50205 5.45499L3.50309 3.22322H19.1771L19.1782 5.45499C19.1968 6.0323 19.1699 6.60961 19.0987 7.18278Z" fill="#4DBFA3"/>
<path d="M11.3409 20.3792C7.64365 20.3792 4.64661 23.1046 4.64661 26.4662H18.0341C18.0341 23.1046 15.0371 20.3792 11.3409 20.3792Z" fill="#4DBFA3"/>
<path d="M12.6327 10.1962C11.3025 10.7188 10.0911 11.0038 8.52444 10.4813C7.68275 10.2004 6.75327 9.82443 6.07166 9.53629C6.07888 11.2692 7.09924 12.7853 8.62152 13.6208C8.62152 13.6208 10.9215 14.8684 11.0361 15.0987C11.1146 15.2567 12.7143 14.4543 13.9588 13.6756C14.4235 13.4329 14.8438 13.1272 15.2063 12.7719C15.2136 12.7647 15.2218 12.7574 15.2291 12.7502C15.6163 12.366 15.9355 11.923 16.1689 11.4397C16.269 11.2383 16.3114 11.1123 16.3114 11.1123C16.5055 10.6135 16.6109 10.0764 16.6109 9.51771C16.6088 9.51667 13.9629 9.67365 12.6327 10.1962Z" fill="#4DBFA3"/>
<path d="M38.6331 26.0224C35.6578 26.0224 32.1175 25.4574 30.6892 24.654C29.9157 24.2078 29.5583 23.5231 29.5583 22.8394C29.5583 21.501 30.8379 20.1615 32.5337 20.7274C34.1407 21.2634 35.8664 21.7096 38.2459 21.7096C40.6852 21.7096 42.4109 21.2634 42.4109 19.7164C42.4109 15.9086 30.4506 19.389 30.4506 11.0588C30.4506 5.58423 35.5979 4.8107 38.9006 4.8107C41.7861 4.8107 44.1067 5.49541 45.2675 6.09028C46.101 6.50648 46.4872 7.25006 46.4872 7.99467C46.4872 9.06563 45.6837 10.1066 44.3453 10.1066C44.0478 10.1066 43.6905 10.0467 43.3342 9.92798C41.9658 9.45188 40.8949 9.1245 38.693 9.1245C36.6699 9.1245 35.3015 9.39198 35.3015 10.8802C35.3015 14.7478 47.2318 11.1177 47.2318 19.5677C47.2318 25.2199 41.9359 26.0224 38.6331 26.0224Z" fill="#4DBFA3"/>
<path d="M69.9025 7.42789C69.9025 5.99959 71.212 5.04739 72.4317 5.04739C73.6514 5.04739 75.0198 5.99959 75.0198 7.42789V18.1385C75.0198 23.7619 72.0744 26.1413 67.4032 26.1413C65.0527 26.1413 63.327 25.5465 61.9286 23.6121C60.5303 25.5165 58.9233 26.1413 56.3652 26.1413C51.8727 26.1413 48.8385 24.207 48.8385 18.1385V7.42789C48.8385 5.99959 50.2069 5.04739 51.4266 5.04739C52.6463 5.04739 53.9558 5.99959 53.9558 7.42789V18.1385C53.9558 20.2216 54.908 21.3814 56.6637 21.3814C58.4193 21.3814 59.3715 20.2206 59.3715 18.1385V7.42789C59.3715 5.99959 60.681 5.04739 61.9007 5.04739C63.1204 5.04739 64.4888 5.99959 64.4888 7.42789V18.1385C64.4888 20.2216 65.441 21.3814 67.1967 21.3814C68.9523 21.3814 69.9045 20.2206 69.9045 18.1385V7.42789H69.9025Z" fill="#4DBFA3"/>
<path d="M127.77 24.565C127.354 25.5172 126.312 25.8746 125.509 25.8746C124.706 25.8746 123.665 25.5172 123.248 24.565L118.814 14.6723C118.635 14.2861 118.576 13.8988 118.576 13.5714C118.576 12.1132 119.845 11.2229 121.153 11.2229C122.045 11.2229 122.909 11.6391 123.295 12.6512L125.509 18.4067L130.18 6.50635C130.568 5.49529 131.43 5.07806 132.322 5.07806C133.632 5.07806 135 6.00031 135 7.45855C135 7.78593 134.94 8.17218 134.763 8.55946L127.77 24.565Z" fill="#4DBFA3"/>
<path d="M107.639 5.17116C101.562 5.17116 98.2135 8.31279 98.2135 14.1561V15.4759H95.7742V14.0373C95.7742 8.19403 92.4271 5.0524 86.3493 5.0524C80.2716 5.0524 76.9244 8.19403 76.9244 14.0373V23.551C76.9244 25.0196 77.982 25.9005 79.4206 25.9005C80.8592 25.9005 81.9168 25.0196 81.9168 23.551V14.0084C81.9168 10.2203 84.2363 9.45708 86.3503 9.45708C87.9294 9.45708 89.6221 9.8836 90.3791 11.6765C87.1208 12.0431 84.5874 14.8078 84.5874 18.1642C84.5874 21.7447 87.4698 24.6519 91.0401 24.6922C91.4325 25.4626 92.2463 25.8995 93.2801 25.8995C94.7487 25.8995 95.7763 25.0186 95.7763 23.55V17.9153H98.2156V23.6698C98.2156 25.1384 99.2732 26.0193 100.712 26.0193C102.15 26.0193 103.208 25.1384 103.208 23.6698V14.1272C103.208 10.339 105.527 9.57584 107.642 9.57584C109.187 9.57584 110.841 9.98378 111.62 11.6816C108.385 12.071 105.878 14.8243 105.878 18.1632C105.878 21.7251 108.729 24.6199 112.273 24.6912C112.64 25.536 113.484 26.0183 114.57 26.0183C116.039 26.0183 117.066 25.1373 117.066 23.6688V14.1551C117.065 8.31279 113.718 5.17116 107.639 5.17116Z" fill="#4DBFA3"/>
</svg>
