<svg width="335" height="294" viewBox="0 0 335 294" fill="none" xmlns="http://www.w3.org/2000/svg">
<g clip-path="url(#clip0_445_10017)">
<path d="M16.1646 100.186L0.0116862 91.0632C-0.206198 81.3024 1.9553 71.6359 6.30849 62.903C10.0326 79.8525 29.6314 87.9166 38.674 102.716C41.459 107.353 43.1677 112.559 43.6734 117.949C44.179 123.338 43.4687 128.773 41.5951 133.85L42.6575 146.991C34.3091 144.484 26.6021 140.192 20.0674 134.41C13.5326 128.628 8.32561 121.494 4.80501 113.5C2.87426 108.996 1.51686 104.266 0.764845 99.4217C8.29601 100.225 16.1646 100.186 16.1646 100.186Z" fill="#F2F2F2"/>
<path d="M306.539 266.159L307.034 254.991C312.198 252.223 317.957 250.762 323.812 250.732C315.754 257.338 316.761 270.073 311.298 278.956C309.573 281.714 307.251 284.047 304.505 285.782C301.758 287.518 298.657 288.611 295.432 288.982L288.689 293.122C287.764 287.949 287.968 282.637 289.287 277.551C290.606 272.466 293.009 267.727 296.331 263.662C298.216 261.401 300.379 259.386 302.767 257.666C304.382 261.936 306.539 266.159 306.539 266.159Z" fill="#F2F2F2"/>
<path d="M289.165 287.374L283.059 287.374L280.154 263.758L289.166 263.759L289.165 287.374Z" fill="#FFB6B6"/>
<path d="M290.722 293.309L271.035 293.309V293.059C271.035 291.021 271.842 289.067 273.279 287.626C274.716 286.185 276.665 285.375 278.698 285.375L282.294 282.639L289.004 285.375L290.722 285.375L290.722 293.309Z" fill="#2F2E41"/>
<path d="M260.799 287.374L254.693 287.374L251.788 263.758L260.8 263.759L260.799 287.374Z" fill="#FFB6B6"/>
<path d="M262.356 293.309L242.668 293.309V293.059C242.669 291.021 243.476 289.067 244.913 287.626C246.35 286.185 248.299 285.375 250.331 285.375L253.928 282.639L260.638 285.375L262.356 285.375L262.356 293.309Z" fill="#2F2E41"/>
<path d="M258.156 158.266L297.87 159.261C305.413 163.369 305.527 172.261 303.056 182.817C303.056 182.817 303.89 189.092 302.222 190.765C300.553 192.438 299.719 192.438 300.553 195.366C301.387 198.294 296.979 203.077 297.515 203.614C298.05 204.151 299.302 207.079 299.302 207.079L295.13 230.922C295.13 230.922 292.21 272.334 291.376 273.17C290.541 274.007 289.707 273.17 290.541 275.262C291.376 277.353 292.21 276.517 291.376 277.353C290.637 278.152 289.94 278.99 289.29 279.863H279.204C279.204 279.863 278.444 275.68 278.444 275.262C278.444 274.843 277.61 272.334 277.61 271.915C277.61 271.497 278.347 270.757 278.347 270.757C278.602 269.907 278.774 269.034 278.861 268.151C278.861 267.314 281.364 235.105 281.364 235.105L276.358 193.275L264.261 234.268C264.261 234.268 264.261 270.242 263.427 271.079C262.592 271.915 262.592 271.497 263.01 273.17C263.427 274.843 265.095 274.425 263.844 275.68C262.592 276.935 262.175 274.843 262.592 276.935L263.01 279.026L250.495 279.206C250.495 279.206 248.826 275.68 249.661 274.425C250.495 273.17 250.445 273.513 249.427 271.459C248.409 269.405 247.992 268.987 248.409 268.569C248.826 268.151 248.826 265.926 248.826 265.926L250.912 225.902C250.912 225.902 251.329 183.654 251.329 182.399C251.361 181.753 251.242 181.109 250.983 180.517V178.814L252.581 172.778L258.156 158.266Z" fill="#2F2E41"/>
<path d="M282.013 75.4579C288.828 75.4579 294.352 69.9181 294.352 63.0844C294.352 56.2507 288.828 50.7108 282.013 50.7108C275.198 50.7108 269.673 56.2507 269.673 63.0844C269.673 69.9181 275.198 75.4579 282.013 75.4579Z" fill="#FFB6B6"/>
<path d="M275.843 83.636C273.185 85.2207 271.595 88.1326 270.682 91.0956C268.992 96.5813 267.974 102.253 267.652 107.985L266.688 125.147L254.747 161.69C265.096 170.471 303.997 163.685 303.997 163.685C303.997 163.685 305.191 163.286 303.997 162.089C302.803 160.891 301.64 161.952 302.835 160.755C304.029 159.557 303.206 160.891 302.807 159.694C302.409 158.496 302.807 159.295 303.206 158.895C303.604 158.496 300.124 154.904 300.124 154.904L303.308 133.928L307.289 91.6188C302.512 85.6316 292.906 82.1022 292.906 82.1022L290.424 77.622L278.013 78.6176L275.843 83.636Z" fill="#E6E6E6"/>
<path d="M274.151 55.8226C274.628 55.8264 275.103 55.8889 275.566 56.0088C276.477 56.2285 277.402 56.3841 278.335 56.4745C281.192 56.744 283.876 57.9656 285.959 59.9443C288.042 61.9229 289.404 64.5444 289.827 67.3901C290.544 66.7633 292.175 65.6102 293.512 66.6819C293.533 66.6989 293.545 66.7076 293.592 66.6853C294.48 66.2628 296.056 61.0626 296.104 56.484C296.129 54.0538 295.748 50.9506 293.788 49.9679L293.685 49.9161L293.657 49.8036C293.526 49.2569 292.063 48.3238 289.521 47.5975C284.9 46.2776 278.011 43.7065 274.132 47.4904C273.839 48.766 272.884 51.4958 271.919 51.8052C270.851 52.1477 269.928 52.4433 269.783 53.7573C269.661 55.6272 269.67 57.5034 269.809 59.3721C270.171 58.2286 270.882 57.2278 271.841 56.5105C272.523 56.0502 273.329 55.8101 274.151 55.8226Z" fill="#2F2E41"/>
<path d="M251.183 124.192L271.34 111.247L261.188 97.7145L251.163 110.08L219.928 112.001C219.107 111.187 218.066 110.629 216.935 110.398C215.803 110.166 214.628 110.269 213.554 110.695C212.48 111.121 211.552 111.851 210.885 112.797C210.217 113.742 209.839 114.862 209.795 116.019C209.751 117.177 210.044 118.322 210.638 119.316C211.232 120.309 212.102 121.108 213.14 121.614C214.179 122.121 215.343 122.313 216.489 122.168C217.635 122.023 218.714 121.547 219.595 120.797L251.183 124.192Z" fill="#FFB6B6"/>
<path d="M290.048 93.1794C291.218 100.279 269.126 113.836 269.126 113.836C269.125 112.169 255.939 124.749 255.344 123.367C253.653 119.44 252.463 110.136 250.1 108.647C248.748 107.796 258.241 99.7961 258.241 99.7961C258.241 99.7961 263.21 94.7763 269.731 88.4447C271.541 86.6204 273.782 85.285 276.246 84.5629C278.709 83.8408 281.315 83.7555 283.82 84.3149C283.82 84.3149 288.878 86.08 290.048 93.1794Z" fill="#E6E6E6"/>
<path d="M331.594 127.59L318.261 107.656L304.984 118.12L317.524 127.909L320.101 159.182C319.307 160.023 318.773 161.077 318.566 162.217C318.359 163.357 318.487 164.532 318.934 165.6C319.382 166.668 320.129 167.582 321.086 168.231C322.043 168.88 323.167 169.236 324.322 169.256C325.477 169.275 326.613 168.957 327.591 168.341C328.569 167.724 329.347 166.836 329.83 165.783C330.313 164.731 330.48 163.561 330.311 162.415C330.142 161.269 329.644 160.197 328.878 159.33L331.594 127.59Z" fill="#FFB6B6"/>
<path d="M299.851 89.2831C306.904 87.9599 320.889 109.821 320.889 109.821C319.227 109.857 332.049 122.809 330.684 123.435C326.804 125.214 317.553 126.604 316.119 129.005C315.298 130.378 307.121 121.031 307.121 121.031C307.121 121.031 302.011 116.155 295.561 109.752C293.703 107.976 292.324 105.757 291.552 103.302C290.78 100.848 290.64 98.2375 291.145 95.7141C291.145 95.7141 292.797 90.6062 299.851 89.2831Z" fill="#E6E6E6"/>
<path d="M335 293.408C335 293.485 334.985 293.563 334.955 293.635C334.926 293.707 334.882 293.772 334.827 293.827C334.773 293.882 334.707 293.926 334.636 293.955C334.564 293.985 334.487 294 334.409 294H195.265C195.108 294 194.958 293.938 194.847 293.826C194.736 293.715 194.674 293.565 194.674 293.408C194.674 293.25 194.736 293.1 194.847 292.989C194.958 292.878 195.108 292.815 195.265 292.815H334.409C334.487 292.815 334.564 292.83 334.636 292.86C334.707 292.89 334.773 292.933 334.827 292.988C334.882 293.043 334.926 293.109 334.955 293.181C334.985 293.253 335 293.33 335 293.408Z" fill="#CCCCCC"/>
<path d="M206.099 113.893H37.2282C34.5898 113.896 32.0604 114.948 30.1948 116.819C28.3292 118.689 27.2798 121.226 27.2769 123.871V229.3C27.2799 231.945 28.3292 234.482 30.1948 236.352C32.0604 238.223 34.5898 239.275 37.2282 239.278H206.099C208.737 239.275 211.266 238.223 213.132 236.352C214.998 234.482 216.047 231.945 216.05 229.3V123.871C216.047 121.226 214.998 118.689 213.132 116.819C211.267 114.948 208.737 113.896 206.099 113.893Z" fill="#6368B0"/>
<path d="M206.099 113.893H37.2282C34.5898 113.896 32.0604 114.948 30.1948 116.819C28.3292 118.689 27.2798 121.226 27.2769 123.871V229.3C27.2799 231.945 28.3292 234.482 30.1948 236.352C32.0604 238.223 34.5898 239.275 37.2282 239.278H206.099C208.737 239.275 211.266 238.223 213.132 236.352C214.998 234.482 216.047 231.945 216.05 229.3V123.871C216.047 121.226 214.998 118.689 213.132 116.819C211.267 114.948 208.737 113.896 206.099 113.893ZM209.365 189.623C209.324 200.356 205.09 210.646 197.571 218.285C190.052 225.924 179.847 230.304 169.145 230.484C152.01 230.708 178.625 230.795 157.959 230.795C110.703 230.795 61.4272 230.342 43.042 230.049C40.623 229.999 38.3194 229.002 36.623 227.273C34.9266 225.543 33.9718 223.216 33.9625 220.79V123.879C33.9634 123.011 34.3075 122.177 34.9193 121.562C35.5312 120.947 36.3611 120.6 37.2275 120.597H206.092C206.958 120.598 207.789 120.943 208.402 121.557C209.015 122.17 209.361 123.002 209.365 123.871V189.623Z" fill="#3F3D56"/>
<path d="M185.311 53.1839H56.6494C55.5111 53.1855 54.4009 53.5394 53.4706 54.1972C52.5403 54.8551 51.8351 55.7848 51.4513 56.8595L31.5804 112.762C31.2838 113.597 31.1914 114.49 31.3108 115.368C31.4301 116.246 31.7579 117.082 32.2665 117.806C32.7751 118.53 33.4496 119.122 34.2334 119.53C35.0172 119.939 35.8874 120.153 36.7708 120.154L209.327 120.461H209.335C210.248 120.461 211.147 120.234 211.951 119.8C212.755 119.366 213.439 118.738 213.942 117.974C214.444 117.209 214.75 116.332 214.831 115.419C214.912 114.507 214.767 113.589 214.407 112.748L190.383 56.5377C189.959 55.5418 189.251 54.693 188.35 54.0967C187.448 53.5004 186.391 53.183 185.311 53.1839Z" fill="#3F3D56"/>
<path d="M214.854 113.962C214.853 114.711 214.701 115.453 214.407 116.142L190.385 159.411C189.957 160.404 189.249 161.251 188.347 161.846C187.446 162.442 186.391 162.76 185.311 162.761H56.6514C55.5126 162.76 54.4019 162.406 53.4708 161.749C52.5398 161.091 51.8336 160.162 51.4488 159.087L31.5817 116.127C31.3382 115.443 31.2316 114.717 31.2679 113.991C31.3043 113.265 31.483 112.554 31.7937 111.897C32.1045 111.241 32.5412 110.652 33.0789 110.165C33.6167 109.678 34.2449 109.302 34.9276 109.058C35.5183 108.844 36.1414 108.735 36.7694 108.735L57.8478 108.695L66.4509 108.68L179.657 108.481L188.265 108.466L209.328 108.426H209.333C210.797 108.426 212.201 109.01 213.237 110.048C214.272 111.086 214.853 112.494 214.854 113.962Z" fill="#3F3D56"/>
<path d="M49.888 192.976C52.4393 192.976 87.4747 195.123 87.4747 197.681C87.4747 200.24 52.4393 202.241 49.888 202.241C48.6628 202.241 47.4878 201.753 46.6215 200.884C45.7551 200.015 45.2684 198.837 45.2684 197.608C45.2684 196.38 45.7551 195.201 46.6215 194.333C47.4878 193.464 48.6628 192.976 49.888 192.976Z" fill="#3F3D56"/>
<path d="M177.069 75H68.9311C66.033 75.0021 63.2546 75.7128 61.2053 76.9762C59.1561 78.2396 58.0033 79.9527 58 81.7394V163H185.056C186.099 163.002 187.121 162.819 188 162.472V81.7394C187.997 79.9527 186.844 78.2397 184.795 76.9762C182.745 75.7128 179.967 75.0021 177.069 75Z" fill="#E6E6E6"/>
<path d="M121.5 147C136.136 147 148 135.583 148 121.5C148 107.417 136.136 96 121.5 96C106.864 96 95 107.417 95 121.5C95 135.583 106.864 147 121.5 147Z" fill="#6368B0"/>
<path d="M117.964 135C117.517 135 117.075 134.9 116.674 134.707C116.274 134.514 115.925 134.234 115.657 133.888L108.582 124.802C108.353 124.511 108.187 124.178 108.092 123.824C107.997 123.471 107.975 123.102 108.028 122.74C108.082 122.378 108.208 122.03 108.402 121.715C108.595 121.401 108.85 121.126 109.154 120.907C109.458 120.687 109.803 120.528 110.171 120.437C110.539 120.347 110.921 120.327 111.297 120.38C111.672 120.432 112.034 120.555 112.36 120.742C112.686 120.929 112.97 121.176 113.197 121.469L117.826 127.412L129.715 110.237C130.139 109.624 130.799 109.198 131.549 109.054C132.3 108.909 133.079 109.058 133.715 109.467C134.352 109.875 134.794 110.511 134.944 111.234C135.094 111.956 134.94 112.707 134.515 113.32L120.365 133.763C120.109 134.132 119.765 134.438 119.361 134.653C118.957 134.868 118.506 134.987 118.045 134.999C118.018 135 117.991 135 117.964 135Z" fill="white"/>
</g>
<defs>
<clipPath id="clip0_445_10017">
<rect width="335" height="294" fill="white"/>
</clipPath>
</defs>
</svg>
