<svg width="81" height="81" viewBox="0 0 81 81" fill="none" xmlns="http://www.w3.org/2000/svg">
<path d="M53.0111 17.8638L42.8861 7.73879C42.5728 7.42531 42.2008 7.17664 41.7914 7.00698C41.382 6.83732 40.9431 6.75 40.4999 6.75C40.0567 6.75 39.6179 6.83732 39.2084 7.00698C38.799 7.17664 38.427 7.42531 38.1137 7.73879L27.9887 17.8638C27.3624 18.498 27.0125 19.3543 27.0153 20.2456C27.0181 21.1369 27.3735 21.9909 28.0037 22.6212C28.634 23.2514 29.488 23.6067 30.3794 23.6095C31.2707 23.6123 32.1269 23.2623 32.7611 22.636L37.125 18.2724V57.3749C37.125 58.27 37.4806 59.1285 38.1135 59.7614C38.7465 60.3943 39.6049 60.7499 40.5 60.7499C41.3951 60.7499 42.2536 60.3943 42.8865 59.7614C43.5194 59.1285 43.875 58.27 43.875 57.3749V18.2724L48.2389 22.6362C48.8731 23.2625 49.7294 23.6124 50.6207 23.6096C51.512 23.6068 52.366 23.2514 52.9963 22.6212C53.6265 21.9909 53.9818 21.1369 53.9846 20.2455C53.9874 19.3542 53.6374 18.498 53.0111 17.8638V17.8638Z" fill="#2451DB"/>
<path opacity="0.15" d="M60.75 30.375H43.875V57.375C43.875 58.2701 43.5194 59.1286 42.8865 59.7615C42.2535 60.3944 41.3951 60.75 40.5 60.75C39.6049 60.75 38.7465 60.3944 38.1135 59.7615C37.4806 59.1286 37.125 58.2701 37.125 57.375V30.375H20.25C17.5656 30.3779 14.992 31.4456 13.0938 33.3438C11.1956 35.242 10.1279 37.8156 10.125 40.5V64.125C10.1279 66.8094 11.1956 69.383 13.0938 71.2812C14.992 73.1794 17.5656 74.2471 20.25 74.25H60.75C63.4344 74.2471 66.008 73.1794 67.9062 71.2812C69.8044 69.383 70.8721 66.8094 70.875 64.125V40.5C70.8721 37.8156 69.8044 35.242 67.9062 33.3438C66.008 31.4456 63.4344 30.3779 60.75 30.375Z" fill="#2451DB"/>
</svg>
