<svg width="335" height="294" viewBox="0 0 335 294" fill="none" xmlns="http://www.w3.org/2000/svg">
<g clip-path="url(#clip0_445_9924)">
<path d="M16.1646 100.186L0.0116862 91.0632C-0.206198 81.3024 1.9553 71.6359 6.30849 62.903C10.0326 79.8525 29.6314 87.9166 38.674 102.716C41.459 107.353 43.1677 112.559 43.6734 117.949C44.179 123.338 43.4687 128.773 41.5951 133.85L42.6575 146.991C34.3091 144.484 26.6021 140.192 20.0674 134.41C13.5326 128.628 8.32561 121.494 4.80501 113.5C2.87426 108.996 1.51686 104.266 0.764845 99.4217C8.29601 100.225 16.1646 100.186 16.1646 100.186Z" fill="#F2F2F2"/>
<path d="M306.539 266.159L307.034 254.991C312.198 252.223 317.957 250.762 323.812 250.732C315.754 257.338 316.761 270.073 311.298 278.956C309.573 281.714 307.251 284.047 304.505 285.782C301.758 287.518 298.657 288.611 295.432 288.982L288.689 293.122C287.764 287.949 287.968 282.637 289.287 277.551C290.606 272.466 293.009 267.727 296.331 263.662C298.216 261.401 300.379 259.386 302.767 257.666C304.382 261.936 306.539 266.159 306.539 266.159Z" fill="#F2F2F2"/>
<path d="M289.165 287.374L283.059 287.374L280.154 263.758L289.166 263.759L289.165 287.374Z" fill="#FFB6B6"/>
<path d="M290.722 293.309L271.035 293.309V293.059C271.035 291.021 271.842 289.067 273.279 287.626C274.716 286.185 276.665 285.375 278.697 285.375L282.294 282.639L289.004 285.375L290.722 285.375L290.722 293.309Z" fill="#2F2E41"/>
<path d="M260.799 287.374L254.693 287.374L251.788 263.758L260.8 263.759L260.799 287.374Z" fill="#FFB6B6"/>
<path d="M262.356 293.309L242.668 293.309V293.059C242.668 291.021 243.476 289.067 244.913 287.626C246.35 286.185 248.299 285.375 250.331 285.375L253.928 282.639L260.638 285.375L262.356 285.375L262.356 293.309Z" fill="#2F2E41"/>
<path d="M258.156 158.266L297.87 159.261C305.413 163.369 305.527 172.261 303.056 182.817C303.056 182.817 303.89 189.092 302.222 190.765C300.553 192.438 299.719 192.438 300.553 195.366C301.387 198.294 296.979 203.077 297.515 203.614C298.05 204.151 299.302 207.079 299.302 207.079L295.13 230.922C295.13 230.922 292.21 272.334 291.376 273.17C290.542 274.007 289.707 273.17 290.542 275.262C291.376 277.353 292.21 276.517 291.376 277.353C290.637 278.152 289.941 278.99 289.29 279.863H279.205C279.205 279.863 278.444 275.68 278.444 275.262C278.444 274.843 277.61 272.334 277.61 271.915C277.61 271.497 278.347 270.757 278.347 270.757C278.602 269.907 278.774 269.034 278.861 268.151C278.861 267.314 281.364 235.105 281.364 235.105L276.358 193.275L264.261 234.268C264.261 234.268 264.261 270.242 263.427 271.079C262.593 271.915 262.593 271.497 263.01 273.17C263.427 274.843 265.095 274.425 263.844 275.68C262.593 276.935 262.175 274.843 262.593 276.935L263.01 279.026L250.495 279.206C250.495 279.206 248.827 275.68 249.661 274.425C250.495 273.17 250.445 273.513 249.427 271.459C248.409 269.405 247.992 268.987 248.409 268.569C248.827 268.151 248.827 265.926 248.827 265.926L250.912 225.902C250.912 225.902 251.329 183.654 251.329 182.399C251.361 181.753 251.242 181.109 250.983 180.517V178.814L252.581 172.778L258.156 158.266Z" fill="#2F2E41"/>
<path d="M282.013 75.4579C288.828 75.4579 294.352 69.9181 294.352 63.0844C294.352 56.2507 288.828 50.7108 282.013 50.7108C275.198 50.7108 269.673 56.2507 269.673 63.0844C269.673 69.9181 275.198 75.4579 282.013 75.4579Z" fill="#FFB6B6"/>
<path d="M275.843 83.636C273.185 85.2207 271.594 88.1326 270.682 91.0956C268.991 96.5813 267.974 102.253 267.652 107.985L266.688 125.147L254.746 161.69C265.096 170.471 303.997 163.685 303.997 163.685C303.997 163.685 305.191 163.286 303.997 162.089C302.803 160.891 301.64 161.952 302.834 160.755C304.029 159.557 303.205 160.891 302.807 159.694C302.409 158.496 302.807 159.295 303.205 158.895C303.603 158.496 300.124 154.904 300.124 154.904L303.308 133.928L307.289 91.6188C302.512 85.6316 292.906 82.1022 292.906 82.1022L290.424 77.622L278.013 78.6176L275.843 83.636Z" fill="#E6E6E6"/>
<path d="M274.151 55.8226C274.628 55.8264 275.103 55.8889 275.566 56.0088C276.477 56.2285 277.402 56.3841 278.335 56.4745C281.192 56.744 283.876 57.9656 285.959 59.9443C288.042 61.9229 289.404 64.5444 289.827 67.3901C290.544 66.7633 292.175 65.6102 293.512 66.6819C293.533 66.6989 293.545 66.7076 293.592 66.6853C294.48 66.2628 296.056 61.0626 296.104 56.484C296.129 54.0538 295.748 50.9506 293.788 49.9679L293.685 49.9161L293.657 49.8036C293.526 49.2569 292.063 48.3238 289.521 47.5975C284.9 46.2776 278.011 43.7065 274.132 47.4904C273.839 48.766 272.884 51.4958 271.919 51.8052C270.851 52.1477 269.928 52.4433 269.783 53.7573C269.661 55.6272 269.67 57.5034 269.809 59.3721C270.171 58.2286 270.882 57.2278 271.841 56.5105C272.523 56.0502 273.329 55.8101 274.151 55.8226Z" fill="#2F2E41"/>
<path d="M251.183 124.192L271.34 111.247L261.188 97.7145L251.163 110.08L219.928 112.001C219.107 111.187 218.066 110.629 216.935 110.398C215.803 110.166 214.628 110.269 213.554 110.695C212.48 111.121 211.552 111.851 210.885 112.797C210.217 113.742 209.839 114.862 209.795 116.019C209.751 117.177 210.044 118.322 210.638 119.316C211.232 120.309 212.102 121.108 213.14 121.614C214.179 122.121 215.343 122.313 216.489 122.168C217.635 122.023 218.714 121.547 219.595 120.797L251.183 124.192Z" fill="#FFB6B6"/>
<path d="M290.048 93.1794C291.218 100.279 269.126 113.836 269.126 113.836C269.125 112.169 255.939 124.749 255.344 123.367C253.653 119.44 252.463 110.136 250.1 108.647C248.748 107.796 258.241 99.7961 258.241 99.7961C258.241 99.7961 263.21 94.7763 269.731 88.4447C271.541 86.6204 273.782 85.285 276.246 84.5629C278.709 83.8408 281.315 83.7555 283.82 84.3149C283.82 84.3149 288.878 86.08 290.048 93.1794Z" fill="#E6E6E6"/>
<path d="M331.594 127.59L318.261 107.656L304.984 118.12L317.524 127.909L320.101 159.182C319.307 160.023 318.773 161.077 318.566 162.217C318.359 163.357 318.487 164.532 318.934 165.6C319.382 166.668 320.129 167.582 321.086 168.231C322.043 168.88 323.167 169.236 324.322 169.256C325.477 169.275 326.613 168.957 327.591 168.341C328.569 167.724 329.347 166.836 329.83 165.783C330.313 164.731 330.48 163.561 330.311 162.415C330.142 161.269 329.644 160.197 328.878 159.33L331.594 127.59Z" fill="#FFB6B6"/>
<path d="M299.851 89.2831C306.904 87.9599 320.889 109.821 320.889 109.821C319.227 109.857 332.049 122.809 330.684 123.435C326.804 125.214 317.553 126.604 316.119 129.005C315.298 130.378 307.121 121.031 307.121 121.031C307.121 121.031 302.011 116.155 295.561 109.752C293.703 107.976 292.324 105.757 291.552 103.302C290.78 100.848 290.64 98.2375 291.145 95.7141C291.145 95.7141 292.797 90.6062 299.851 89.2831Z" fill="#E6E6E6"/>
<path d="M335 293.408C335 293.485 334.985 293.563 334.955 293.635C334.926 293.707 334.882 293.772 334.827 293.827C334.773 293.882 334.707 293.926 334.636 293.955C334.564 293.985 334.487 294 334.409 294H195.265C195.108 294 194.958 293.938 194.847 293.826C194.736 293.715 194.674 293.565 194.674 293.408C194.674 293.25 194.736 293.1 194.847 292.989C194.958 292.878 195.108 292.815 195.265 292.815H334.409C334.487 292.815 334.564 292.83 334.636 292.86C334.707 292.89 334.773 292.933 334.827 292.988C334.882 293.043 334.926 293.109 334.955 293.181C334.985 293.253 335 293.33 335 293.408Z" fill="#CCCCCC"/>
<path d="M206.099 113.893H37.2282C34.5898 113.896 32.0604 114.948 30.1948 116.819C28.3292 118.689 27.2798 121.226 27.2769 123.871V229.3C27.2799 231.945 28.3292 234.482 30.1948 236.352C32.0604 238.223 34.5898 239.275 37.2282 239.278H206.099C208.737 239.275 211.266 238.223 213.132 236.352C214.998 234.482 216.047 231.945 216.05 229.3V123.871C216.047 121.226 214.998 118.689 213.132 116.819C211.267 114.948 208.737 113.896 206.099 113.893Z" fill="#6368B0"/>
<path d="M206.099 113.893H37.2282C34.5898 113.896 32.0604 114.948 30.1948 116.819C28.3292 118.689 27.2798 121.226 27.2769 123.871V229.3C27.2799 231.945 28.3292 234.482 30.1948 236.352C32.0604 238.223 34.5898 239.275 37.2282 239.278H206.099C208.737 239.275 211.266 238.223 213.132 236.352C214.998 234.482 216.047 231.945 216.05 229.3V123.871C216.047 121.226 214.998 118.689 213.132 116.819C211.267 114.948 208.737 113.896 206.099 113.893ZM209.365 189.623C209.324 200.356 205.09 210.646 197.571 218.285C190.052 225.924 179.847 230.304 169.145 230.484C152.01 230.708 178.625 230.795 157.959 230.795C110.703 230.795 61.4272 230.342 43.042 230.049C40.623 229.999 38.3194 229.002 36.623 227.273C34.9266 225.543 33.9718 223.216 33.9625 220.79V123.879C33.9634 123.011 34.3075 122.177 34.9193 121.562C35.5312 120.947 36.3611 120.6 37.2275 120.597H206.092C206.958 120.598 207.789 120.943 208.402 121.557C209.015 122.17 209.361 123.002 209.365 123.871V189.623Z" fill="#3F3D56"/>
<path d="M185.311 53.1839H56.6494C55.5111 53.1855 54.4009 53.5394 53.4706 54.1972C52.5403 54.8551 51.8351 55.7848 51.4513 56.8595L31.5804 112.762C31.2838 113.597 31.1914 114.49 31.3108 115.368C31.4301 116.246 31.7579 117.082 32.2665 117.806C32.7751 118.53 33.4496 119.122 34.2334 119.53C35.0172 119.939 35.8874 120.153 36.7708 120.154L209.327 120.461H209.335C210.248 120.461 211.147 120.234 211.951 119.8C212.755 119.366 213.439 118.738 213.942 117.974C214.444 117.209 214.75 116.332 214.831 115.419C214.912 114.507 214.767 113.589 214.407 112.748L190.383 56.5377C189.959 55.5418 189.251 54.693 188.35 54.0967C187.448 53.5004 186.391 53.183 185.311 53.1839Z" fill="#3F3D56"/>
<path d="M214.854 113.962C214.853 114.711 214.701 115.453 214.407 116.142L190.385 159.411C189.957 160.404 189.249 161.251 188.347 161.846C187.446 162.442 186.391 162.76 185.311 162.761H56.6514C55.5126 162.76 54.4019 162.406 53.4708 161.749C52.5398 161.091 51.8336 160.162 51.4488 159.087L31.5817 116.127C31.3382 115.443 31.2316 114.717 31.2679 113.991C31.3043 113.265 31.483 112.554 31.7937 111.897C32.1045 111.241 32.5412 110.652 33.0789 110.165C33.6167 109.678 34.2449 109.302 34.9276 109.058C35.5183 108.844 36.1414 108.735 36.7694 108.735L57.8478 108.695L66.4509 108.68L179.657 108.481L188.265 108.466L209.328 108.426H209.333C210.797 108.426 212.201 109.01 213.237 110.048C214.272 111.086 214.853 112.494 214.854 113.962Z" fill="#3F3D56"/>
<path d="M49.888 192.976C52.4393 192.976 87.4747 195.123 87.4747 197.681C87.4747 200.24 52.4393 202.241 49.888 202.241C48.6628 202.241 47.4878 201.753 46.6215 200.884C45.7551 200.015 45.2684 198.837 45.2684 197.608C45.2684 196.38 45.7551 195.201 46.6215 194.333C47.4878 193.464 48.6628 192.976 49.888 192.976Z" fill="#3F3D56"/>
<path d="M177.299 19.1755H68.8139C65.9065 19.1789 63.1192 20.3385 61.0634 22.4C59.0076 24.4615 57.8511 27.2565 57.8478 30.1719V162.761H185.311C186.358 162.764 187.383 162.465 188.265 161.9V30.1719C188.262 27.2565 187.105 24.4615 185.049 22.4C182.993 20.3385 180.206 19.1789 177.299 19.1755Z" fill="#E6E6E6"/>
<path d="M135.892 28.0911H76.4391C73.7917 28.0937 71.2534 29.1491 69.381 31.0257C67.5086 32.9024 66.4548 35.4472 66.4509 38.1019V162.761H179.657V71.9772C179.643 60.342 175.028 49.1872 166.824 40.9599C158.619 32.7325 147.495 28.1045 135.892 28.0911Z" fill="white"/>
<path d="M160.37 151.69H85.7372C85.0921 151.69 84.4733 151.947 84.0172 152.404C83.561 152.862 83.3047 153.482 83.3047 154.129C83.3047 154.776 83.561 155.396 84.0172 155.854C84.4733 156.311 85.0921 156.568 85.7372 156.568H160.37C161.016 156.568 161.634 156.311 162.091 155.854C162.547 155.396 162.803 154.776 162.803 154.129C162.803 153.482 162.547 152.862 162.091 152.404C161.634 151.947 161.016 151.69 160.37 151.69Z" fill="#E4E4E4"/>
<path d="M160.371 142.043H85.7372C85.0914 142.043 84.4721 142.3 84.0154 142.758C83.5588 143.216 83.3022 143.837 83.3022 144.484C83.3022 145.132 83.5588 145.753 84.0154 146.211C84.4721 146.669 85.0914 146.926 85.7372 146.926H160.371C161.016 146.926 161.636 146.669 162.092 146.211C162.549 145.753 162.806 145.132 162.806 144.484C162.806 143.837 162.549 143.216 162.092 142.758C161.636 142.3 161.016 142.043 160.371 142.043Z" fill="#E4E4E4"/>
<path d="M118.09 132.4H85.7372C85.0921 132.4 84.4733 132.657 84.0172 133.115C83.561 133.572 83.3047 134.192 83.3047 134.839C83.3047 135.486 83.561 136.107 84.0172 136.564C84.4733 137.022 85.0921 137.279 85.7372 137.279H118.09C118.735 137.279 119.353 137.022 119.81 136.564C120.266 136.107 120.522 135.486 120.522 134.839C120.522 134.192 120.266 133.572 119.81 133.115C119.353 132.657 118.735 132.4 118.09 132.4Z" fill="#E4E4E4"/>
<path d="M160.371 112.199H85.7372C85.0914 112.199 84.4721 112.457 84.0154 112.915C83.5588 113.372 83.3022 113.994 83.3022 114.641C83.3022 115.289 83.5588 115.91 84.0154 116.368C84.4721 116.826 85.0914 117.083 85.7372 117.083H160.371C161.016 117.083 161.636 116.826 162.092 116.368C162.549 115.91 162.806 115.289 162.806 114.641C162.806 113.994 162.549 113.372 162.092 112.915C161.636 112.457 161.016 112.199 160.371 112.199Z" fill="#E4E4E4"/>
<path d="M160.37 102.557H85.7372C85.0921 102.557 84.4733 102.814 84.0172 103.271C83.561 103.729 83.3047 104.349 83.3047 104.996C83.3047 105.643 83.561 106.264 84.0172 106.721C84.4733 107.178 85.0921 107.435 85.7372 107.435H160.37C161.016 107.435 161.634 107.178 162.091 106.721C162.547 106.264 162.803 105.643 162.803 104.996C162.803 104.349 162.547 103.729 162.091 103.271C161.634 102.814 161.016 102.557 160.37 102.557Z" fill="#E4E4E4"/>
<path d="M118.09 92.9097H85.7372C85.0914 92.9097 84.4721 93.1669 84.0154 93.6248C83.5588 94.0827 83.3022 94.7038 83.3022 95.3514C83.3022 95.9989 83.5588 96.62 84.0154 97.0779C84.4721 97.5358 85.0914 97.7931 85.7372 97.7931H118.09C118.735 97.7931 119.355 97.5358 119.811 97.0779C120.268 96.62 120.525 95.9989 120.525 95.3514C120.525 94.7038 120.268 94.0827 119.811 93.6248C119.355 93.1669 118.735 92.9097 118.09 92.9097Z" fill="#E4E4E4"/>
<path d="M160.371 72.7089H85.7372C85.0914 72.7089 84.4721 72.9662 84.0154 73.4241C83.5588 73.882 83.3022 74.503 83.3022 75.1506C83.3022 75.7982 83.5588 76.4193 84.0154 76.8772C84.4721 77.3351 85.0914 77.5923 85.7372 77.5923H160.371C161.016 77.5923 161.636 77.3351 162.092 76.8772C162.549 76.4193 162.806 75.7982 162.806 75.1506C162.806 74.503 162.549 73.882 162.092 73.4241C161.636 72.9662 161.016 72.7089 160.371 72.7089Z" fill="#6368B0"/>
<path d="M160.371 63.0665H85.7372C85.0914 63.0665 84.4721 63.3238 84.0154 63.7817C83.5588 64.2396 83.3022 64.8607 83.3022 65.5082C83.3022 66.1558 83.5588 66.7769 84.0154 67.2348C84.4721 67.6927 85.0914 67.9499 85.7372 67.9499H160.371C161.016 67.9499 161.636 67.6927 162.092 67.2348C162.549 66.7769 162.806 66.1558 162.806 65.5082C162.806 64.8607 162.549 64.2396 162.092 63.7817C161.636 63.3238 161.016 63.0665 160.371 63.0665Z" fill="#6368B0"/>
<path d="M118.09 53.4192H85.7372C85.0914 53.4192 84.4721 53.6764 84.0154 54.1343C83.5588 54.5922 83.3022 55.2133 83.3022 55.8609C83.3022 56.5085 83.5588 57.1295 84.0154 57.5874C84.4721 58.0453 85.0914 58.3026 85.7372 58.3026H118.09C118.735 58.3026 119.355 58.0453 119.811 57.5874C120.268 57.1295 120.525 56.5085 120.525 55.8609C120.525 55.2133 120.268 54.5922 119.811 54.1343C119.355 53.6764 118.735 53.4192 118.09 53.4192Z" fill="#6368B0"/>
<path d="M184.198 37.9949C194.661 37.9949 203.143 29.4894 203.143 18.9974C203.143 8.50544 194.661 -7.62939e-06 184.198 -7.62939e-06C173.735 -7.62939e-06 165.253 8.50544 165.253 18.9974C165.253 29.4894 173.735 37.9949 184.198 37.9949Z" fill="#6368B0"/>
<path d="M181.613 28.8847C181.286 28.8847 180.963 28.8083 180.671 28.6616C180.378 28.5148 180.124 28.3018 179.928 28.0393L174.759 21.1288C174.592 20.9068 174.47 20.654 174.401 20.3849C174.332 20.1157 174.316 19.8355 174.355 19.5602C174.394 19.285 174.486 19.0201 174.627 18.7808C174.769 18.5415 174.955 18.3325 175.177 18.1657C175.399 17.9989 175.651 17.8777 175.92 17.8089C176.189 17.7401 176.468 17.7251 176.742 17.7648C177.017 17.8045 177.281 17.8981 177.519 18.0402C177.757 18.1824 177.965 18.3702 178.131 18.5931L181.512 23.1138L190.197 10.0508C190.507 9.5845 190.989 9.26076 191.537 9.15085C192.085 9.04093 192.654 9.15384 193.12 9.46473C193.585 9.77562 193.907 10.259 194.017 10.8086C194.127 11.3582 194.014 11.9289 193.704 12.3953L183.367 27.9437C183.18 28.2249 182.928 28.457 182.634 28.6206C182.339 28.7843 182.009 28.8746 181.672 28.8841C181.652 28.8844 181.633 28.8847 181.613 28.8847Z" fill="white"/>
</g>
<defs>
<clipPath id="clip0_445_9924">
<rect width="335" height="294" fill="white"/>
</clipPath>
</defs>
</svg>
