<svg width="31" height="30" viewBox="0 0 31 30" fill="none" xmlns="http://www.w3.org/2000/svg">
<path fill-rule="evenodd" clip-rule="evenodd" d="M15.75 30C24.0343 30 30.75 23.2843 30.75 15C30.75 6.71573 24.0343 0 15.75 0C7.46573 0 0.75 6.71573 0.75 15C0.75 23.2843 7.46573 30 15.75 30Z" fill="#3463ED"/>
<path fill-rule="evenodd" clip-rule="evenodd" d="M23.1327 12.797C23.5233 12.4064 23.5233 11.7733 23.1327 11.3827L22.5173 10.7673C22.1268 10.3768 21.4936 10.3768 21.1031 10.7673L13.691 18.1793L10.338 14.8262C9.94744 14.4357 9.31428 14.4357 8.92375 14.8262L8.3083 15.4417C7.91777 15.8322 7.91777 16.4654 8.3083 16.8559L12.9831 21.5307C13.1076 21.6552 13.2567 21.74 13.4148 21.7851C13.753 21.8821 14.1322 21.7975 14.3986 21.5311L23.1327 12.797Z" fill="white"/>
</svg>
