<svg width="55" height="48" viewBox="0 0 55 48" fill="none" xmlns="http://www.w3.org/2000/svg">
<path d="M52.8888 2.96893C52.8888 2.96893 52.0613 4.14169 51.3089 5.50361C51.0456 5.95758 50.2557 7.54648 49.3153 10.9513C48.751 13.0698 48.4877 14.6587 48.1491 16.6638C47.9234 18.0257 47.6977 19.8416 47.2463 23.3977C46.7949 26.8781 46.7573 27.4456 46.494 28.694C46.1931 30.0181 45.8545 31.5692 45.0646 33.4607C44.237 35.428 43.2966 36.7899 42.7324 37.5843C41.5662 39.2489 40.4377 40.4216 39.8735 41.0269C38.5193 42.351 37.3156 43.259 36.6761 43.7129C36.1871 44.0534 35.2843 44.6587 34.0429 45.3018C33.6667 45.491 31.9364 46.3611 29.3785 46.9664C28.0619 47.2691 26.3691 47.723 24.1874 47.6474C22.8708 47.6095 20.4257 47.5339 19.3724 46.8908C20.1624 46.9664 20.9523 47.0042 21.7423 47.0042C24.9773 47.0042 28.25 46.0206 28.4004 45.9828C31.2593 45.2262 33.8548 43.7508 35.999 41.8214C37.3532 40.6108 38.4817 39.1732 39.4221 37.5843C40.6634 35.428 40.8515 33.3851 40.9268 32.7419V32.6285C40.9268 31.6827 40.9268 30.5856 40.7763 29.4506C40.6258 28.0887 40.3249 26.916 39.8359 25.781C39.0083 23.8138 37.767 22.2249 36.1871 21.0522C35.7733 20.7495 35.3595 20.4847 34.9081 20.2199L34.8329 20.182H34.7576C34.6824 20.182 34.6448 20.182 34.6448 20.182H34.6072C34.6072 20.1442 34.5695 20.1064 34.5695 20.0686C34.4567 19.7659 34.3438 19.4633 34.0805 18.9336C33.4787 17.6474 33.3282 17.496 33.1777 16.8907C32.9896 16.172 33.0273 15.5667 33.0649 15.264C33.0649 15.037 33.1401 14.3182 33.4787 13.4481C34.0053 12.0862 34.9457 11.0269 35.1714 11.1026C35.2843 11.1404 35.1714 11.4431 35.3595 12.1997C35.4347 12.578 35.51 12.7293 35.5476 12.805C35.6228 12.9185 35.8109 13.2968 36.2247 13.4103C36.488 13.486 36.8642 13.4481 37.1275 13.259C37.466 12.9563 37.3156 12.5023 37.3908 11.7457C37.5036 10.9134 37.6917 10.346 37.955 9.66502C38.2184 8.9084 38.4441 8.3031 38.9707 7.65998C39.5726 6.94119 40.4001 6.37372 40.6258 6.56288C40.7011 6.63854 40.6258 6.78986 40.5506 7.47082C40.4754 8.07612 40.4377 8.4166 40.513 8.75708C40.5882 9.02189 40.6634 9.36237 40.9644 9.58936C41.3782 9.92984 42.0553 9.85418 42.469 9.58936C43.1085 9.17322 42.9204 8.45443 43.3718 7.24383C43.8232 5.99541 44.5379 5.23879 45.4784 4.29301C45.8169 3.95253 46.7573 3.08242 48.8262 1.98532C51.5346 0.585572 54.732 -0.360203 54.9954 0.1316C55.0706 0.282924 54.2054 1.07738 52.8888 2.96893Z" fill="#EB414E"/>
<path d="M40.1745 29.5263C40.0241 28.24 39.7231 27.1051 39.2717 26.0458C38.4818 24.1921 37.3157 22.6789 35.811 21.5439C35.5853 21.3548 35.322 21.2035 35.0587 21.0521C35.3596 22.1871 35.5101 23.3598 35.5101 24.5326C35.5101 26.462 35.0963 28.3157 34.3816 29.9803C34.1935 30.4342 33.9678 30.8882 33.7045 31.3043C33.4788 31.6826 33.2531 32.0988 32.9898 32.4393C32.9522 32.5149 32.8769 32.5906 32.8393 32.6663C32.7641 32.7798 32.6888 32.8932 32.576 33.0067C32.5008 33.0824 32.4255 33.1959 32.3503 33.2716C32.2751 33.3472 32.1998 33.4607 32.1246 33.5364C32.087 33.612 32.0117 33.6499 31.9741 33.7255C31.8613 33.839 31.786 33.9525 31.6732 34.0282C31.598 34.1038 31.5227 34.1795 31.4475 34.2552C31.297 34.4065 31.1089 34.5578 30.9585 34.747C30.6952 34.9739 30.4695 35.2009 30.2061 35.3901C30.1685 35.4279 30.1309 35.4658 30.0933 35.4658L30.0557 35.5036C30.0181 35.5414 29.9804 35.5792 29.9052 35.6171C29.8676 35.6549 29.7924 35.6927 29.7547 35.7306L29.7171 35.7684C27.4977 37.3573 24.7517 38.2652 21.8176 38.2652C20.313 38.2652 18.8459 38.0004 17.4917 37.5465L19.7487 35.2766C19.8992 35.0496 20.1625 34.7848 20.5011 34.4443C21.8553 33.0824 22.5324 32.0988 24.1875 30.2072C24.5637 29.7533 24.7517 29.7154 25.1655 29.7911C28.062 30.4342 30.0557 29.1101 31.5227 26.8024C32.2374 25.6675 32.3127 23.776 32.0494 23.0193C31.598 21.5818 30.0557 20.8251 28.8519 20.9386C25.8426 21.2035 22.57 23.8138 23.2847 27.4077C23.3975 27.9374 23.548 28.3913 23.0966 28.8075C21.5167 30.3207 17.7927 33.8769 15.009 36.3737C12.9025 35.1253 11.1345 33.3472 9.93079 31.1908C12.3759 28.694 15.6861 25.2135 16.8522 24.0408C17.4917 23.3598 18.1688 22.868 19.1469 23.0572C19.5983 23.1328 20.0497 23.2085 20.5387 23.1707C21.0277 23.1328 21.3286 23.0572 21.8176 22.868C23.3599 22.2627 24.4132 21.0521 25.4664 19.8415C25.8426 19.4254 26.5197 18.9336 26.0307 18.4418C25.6545 18.1013 25.1279 18.7066 24.7141 19.0849C24.5636 19.2362 24.4132 19.3497 24.2627 19.5011C23.2094 20.4468 22.1186 21.5818 21.6296 21.0521C21.291 20.7117 22.6828 19.5767 24.827 17.6852C24.9774 17.5717 25.0527 17.1555 24.9022 16.9664C24.7517 16.7772 24.3756 16.8151 24.2251 16.9285C23.0214 17.9122 20.9148 20.2198 20.4258 19.728C20.0873 19.3876 20.6515 19.0093 20.9148 18.7066L22.8333 16.9664C23.059 16.7394 23.9242 16.2476 23.5104 15.7558C23.1718 15.3396 22.6828 15.718 22.3819 15.9071C21.78 16.3611 21.291 16.8151 20.7644 17.3069C20.0873 17.95 19.5606 18.7066 19.2221 18.3661C18.8459 17.9878 19.2973 17.6473 19.5606 17.3825C20.2377 16.6637 20.9148 15.9449 21.5919 15.2262C21.8553 14.9613 22.1562 14.5452 21.8929 14.2804C21.6296 14.0156 21.1405 14.2804 20.8772 14.5074C20.1625 15.0748 19.4102 15.6423 18.8083 16.3611C17.567 17.7608 15.9494 19.0471 16.8899 21.3169C17.1156 21.8844 16.5889 22.1114 16.2504 22.4519C14.6329 24.003 12.8273 25.3649 11.0593 26.7646L8.65182 28.5427C8.27565 27.2564 8.04996 25.9323 8.04996 24.5326C8.04996 16.9285 14.2191 10.7243 21.78 10.7243C24.4132 10.7243 26.9711 11.4809 29.1905 12.9185C29.1905 12.6915 29.2281 12.3888 29.3033 11.9349C29.3786 11.4809 29.4914 11.0269 29.6043 10.5351C29.7171 10.119 29.8676 9.70282 30.0557 9.32451C30.4318 8.60572 30.9209 8.18958 31.297 7.8491C31.7484 7.43296 32.1998 7.09248 32.7265 6.82766C32.9898 6.67634 33.2531 6.56285 33.554 6.44935C33.6669 6.41152 33.7421 6.37369 33.855 6.29803C30.2814 3.91467 26.1059 2.62842 21.78 2.62842C9.78032 2.62842 0 12.4267 0 24.4948C0 35.5792 8.27565 44.81 18.9212 46.2098C19.8616 46.3233 20.802 46.3989 21.78 46.3989C24.9022 46.3989 28.2125 45.4153 28.2501 45.4153C30.9961 44.6587 33.554 43.2589 35.5853 41.4052C36.8643 40.2325 37.9928 38.8327 38.858 37.3195C40.0241 35.3144 40.2122 33.3472 40.2874 32.7041V32.6284C40.2874 31.6826 40.2874 30.6234 40.1745 29.5263Z" fill="#1B66FF"/>
</svg>
