<svg width="43" height="70" viewBox="0 0 43 70" fill="none" xmlns="http://www.w3.org/2000/svg">
<path d="M19.857 9.26221C12.9373 9.26221 7.30859 15.1723 7.30859 22.4381V35.6139H19.857C26.7768 35.6139 32.4055 29.7038 32.4055 22.4381C32.4055 15.1723 26.7768 9.26221 19.857 9.26221ZM19.857 28.2394H14.332V22.4381C14.332 19.2393 16.8106 16.6367 19.857 16.6367C22.9035 16.6367 25.3841 19.2393 25.3841 22.4381C25.3841 25.6369 22.9054 28.2394 19.857 28.2394Z" fill="#3463ED"/>
<path d="M13.4767 9.21988C13.4479 9.16146 10.7544 9.60059 10.5684 9.61469C8.60964 9.75972 6.58571 9.70131 4.68647 9.1393C3.66203 8.83513 0.953185 7.75746 0.206915 5.27578C0.101402 4.92125 -0.230477 3.76099 0.264478 2.49597C0.767106 1.2088 1.80689 0.630686 2.11001 0.467523C3.02701 -0.0239784 3.87688 0.000193851 4.26824 0.000193851C6.5646 0.0102656 8.50414 1.61167 9.94105 3.35207C11.401 5.12067 12.4503 7.15718 13.4767 9.21988Z" fill="#FFB81F"/>
<path d="M14.3651 8.96031C14.3958 8.94017 14.0658 7.34682 14.0504 7.23603C13.9046 6.07173 13.8663 4.8591 14.1061 3.70487C14.2346 3.08244 14.7277 1.42664 16.0456 0.896867C16.2336 0.820322 16.8514 0.582629 17.5535 0.834422C18.2691 1.09025 18.6182 1.69254 18.7161 1.86778C19.0134 2.39957 19.0307 2.90719 19.0422 3.14085C19.1151 4.51263 18.3151 5.72728 17.4211 6.64582C16.5137 7.57847 15.4451 8.27745 14.3632 8.96031H14.3651Z" fill="#FFB81F"/>
<path d="M22.2283 27.6781C18.5756 26.3365 15.9378 22.7308 15.838 18.4624C14.9057 19.5018 14.332 20.8998 14.332 22.4387V25.3454C14.8558 26.4392 15.5618 27.4202 16.4135 28.2401H19.859C20.707 28.2401 21.5108 28.0386 22.2302 27.6781H22.2283Z" fill="#FFB81F"/>
<path d="M25.2291 23.7906C25.3288 23.3555 25.3825 22.9002 25.3825 22.4329C25.3825 19.6632 23.5236 17.3406 21.0469 16.7686C21.4171 19.6974 22.9903 22.2274 25.2291 23.7906Z" fill="#FFB81F"/>
<path d="M16.908 69.6967C18.7622 69.6967 20.2653 68.1185 20.2653 66.1716C20.2653 64.2247 18.7622 62.6465 16.908 62.6465C15.0539 62.6465 13.5508 64.2247 13.5508 66.1716C13.5508 68.1185 15.0539 69.6967 16.908 69.6967Z" fill="#FFB81F"/>
<path d="M29.7615 69.6967C31.6157 69.6967 33.1188 68.1185 33.1188 66.1716C33.1188 64.2247 31.6157 62.6465 29.7615 62.6465C27.9074 62.6465 26.4043 64.2247 26.4043 66.1716C26.4043 68.1185 27.9074 69.6967 29.7615 69.6967Z" fill="#FFB81F"/>
<path d="M33.265 32.3005L26.9034 36.6878C29.8501 38.1764 31.8894 41.3409 31.8894 44.997C31.8894 50.0792 27.9509 54.2147 23.1107 54.2147C18.2705 54.2147 14.33 50.0792 14.33 44.997V35.7773L21.0445 35.5517C26.6751 35.3261 30.0401 30.125 30.0573 30.0989C27.9586 29.0151 25.6027 28.4048 23.1107 28.4048H7.30859V44.997C7.30859 54.1462 14.3972 61.5892 23.1107 61.5892C31.8242 61.5892 38.9128 54.1462 38.9128 44.997C38.9128 39.9047 36.7143 35.3442 33.265 32.2985V32.3005Z" fill="#3463ED"/>
<path d="M32.5509 41.6419L42.9453 34.2246L38.9976 28.1253L28.6032 35.5425L32.5509 41.6419Z" fill="#3463ED"/>
</svg>
