<svg width="58" height="59" viewBox="0 0 58 59" fill="none" xmlns="http://www.w3.org/2000/svg">
<path d="M0 6.50012C0 3.18642 2.68629 0.500122 6 0.500122H52C55.3137 0.500122 58 3.18641 58 6.50012V52.4999C58 55.8136 55.3137 58.4999 52 58.4999H6C2.68629 58.4999 0 55.8136 0 52.4999V6.50012Z" fill="#002401"/>
<path d="M28.1465 17.0182C24.4945 17.0182 21.5239 19.9013 21.5239 23.4458V29.8733H28.1465C31.7984 29.8733 34.769 26.9902 34.769 23.4458C34.769 19.9013 31.7984 17.0182 28.1465 17.0182ZM28.1465 26.2758H25.2306V23.4458C25.2306 21.8853 26.5387 20.6157 28.1465 20.6157C29.7543 20.6157 31.0634 21.8853 31.0634 23.4458C31.0634 25.0062 29.7553 26.2758 28.1465 26.2758Z" fill="white"/>
<path d="M24.7794 16.9978C24.7642 16.9693 23.3427 17.1836 23.2445 17.1904C22.2108 17.2612 21.1427 17.2327 20.1403 16.9585C19.5997 16.8102 18.17 16.2844 17.7762 15.0738C17.7205 14.9009 17.5454 14.3348 17.8066 13.7177C18.0718 13.0898 18.6206 12.8078 18.7806 12.7282C19.2645 12.4884 19.713 12.5002 19.9196 12.5002C21.1315 12.5051 22.1551 13.2863 22.9135 14.1354C23.6839 14.9981 24.2378 15.9916 24.7794 16.9978Z" fill="#00B207"/>
<path d="M25.2482 16.8704C25.2644 16.8605 25.0903 16.0833 25.0822 16.0292C25.0052 15.4612 24.985 14.8697 25.1115 14.3066C25.1794 14.003 25.4396 13.1952 26.1351 12.9368C26.2344 12.8994 26.5604 12.7835 26.9309 12.9063C27.3086 13.0311 27.4929 13.3249 27.5445 13.4104C27.7014 13.6698 27.7105 13.9175 27.7166 14.0315C27.7551 14.7007 27.3329 15.2932 26.8611 15.7413C26.3822 16.1963 25.8182 16.5372 25.2472 16.8704H25.2482Z" fill="#00B207"/>
<path d="M29.3978 26.0018C27.47 25.3473 26.0779 23.5884 26.0253 21.5061C25.5332 22.0132 25.2305 22.6951 25.2305 23.4459V24.8638C25.5069 25.3974 25.8795 25.876 26.329 26.2759H28.1474C28.5949 26.2759 29.0191 26.1777 29.3988 26.0018H29.3978Z" fill="#00B207"/>
<path d="M30.9816 24.1055C31.0342 23.8932 31.0626 23.6711 31.0626 23.4432C31.0626 22.092 30.0815 20.959 28.7744 20.6799C28.9698 22.1087 29.8 23.3429 30.9816 24.1055Z" fill="#00B207"/>
<path d="M26.5907 46.5C27.5692 46.5 28.3625 45.7301 28.3625 44.7803C28.3625 43.8306 27.5692 43.0607 26.5907 43.0607C25.6121 43.0607 24.8188 43.8306 24.8188 44.7803C24.8188 45.7301 25.6121 46.5 26.5907 46.5Z" fill="#00B207"/>
<path d="M33.3744 46.5C34.3529 46.5 35.1462 45.7301 35.1462 44.7803C35.1462 43.8306 34.3529 43.0607 33.3744 43.0607C32.3958 43.0607 31.6025 43.8306 31.6025 44.7803C31.6025 45.7301 32.3958 46.5 33.3744 46.5Z" fill="#00B207"/>
<path d="M35.2236 28.2578L31.8662 30.398C33.4214 31.1242 34.4976 32.6679 34.4976 34.4515C34.4976 36.9307 32.419 38.9481 29.8646 38.9481C27.3101 38.9481 25.2305 36.9307 25.2305 34.4515V29.9538L28.7742 29.8438C31.7457 29.7337 33.5216 27.1965 33.5307 27.1837C32.4231 26.655 31.1798 26.3573 29.8646 26.3573H21.5249V34.4515C21.5249 38.9147 25.266 42.5456 29.8646 42.5456C34.4632 42.5456 38.2043 38.9147 38.2043 34.4515C38.2043 31.9673 37.044 29.7426 35.2236 28.2568V28.2578Z" fill="white"/>
<path d="M34.8468 32.8143L40.3325 29.1959L38.2491 26.2205L32.7633 29.8388L34.8468 32.8143Z" fill="white"/>
</svg>
