<svg width="24" height="34" viewBox="0 0 24 34" fill="none" xmlns="http://www.w3.org/2000/svg">
<path d="M11.1467 4.51813C7.49477 4.51813 4.5242 7.40125 4.5242 10.9457V17.3733H11.1467C14.7987 17.3733 17.7693 14.4902 17.7693 10.9457C17.7693 7.40125 14.7987 4.51813 11.1467 4.51813ZM11.1467 13.7758H8.23083V10.9457C8.23083 9.38524 9.53894 8.11564 11.1467 8.11564C12.7545 8.11564 14.0637 9.38524 14.0637 10.9457C14.0637 12.5062 12.7555 13.7758 11.1467 13.7758Z" fill="#002401"/>
<path d="M7.77964 4.49782C7.76445 4.46932 6.34294 4.68354 6.24473 4.69042C5.21101 4.76117 4.14286 4.73267 3.14052 4.45851C2.59986 4.31013 1.17025 3.78441 0.776403 2.57377C0.720718 2.40082 0.545566 1.83481 0.806782 1.2177C1.07205 0.589781 1.6208 0.307758 1.78077 0.228163C2.26473 -0.0116058 2.71326 0.000186119 2.9198 0.000186119C4.13172 0.00509941 5.15533 0.786313 5.91367 1.63533C6.68416 2.49811 7.23797 3.49157 7.77964 4.49782Z" fill="#00B207"/>
<path d="M8.24861 4.3704C8.26481 4.36057 8.09067 3.58329 8.08257 3.52924C8.00562 2.96126 7.98537 2.3697 8.11193 1.80664C8.17977 1.503 8.43997 0.69525 9.13553 0.436811C9.23476 0.39947 9.56077 0.283516 9.93133 0.406348C10.309 0.531146 10.4932 0.824961 10.5449 0.910452C10.7018 1.16987 10.7109 1.4175 10.717 1.53149C10.7555 2.20068 10.3333 2.79323 9.86147 3.24132C9.38257 3.69629 8.81863 4.03727 8.2476 4.3704H8.24861Z" fill="#00B207"/>
<path d="M12.3977 13.5017C10.47 12.8473 9.07788 11.0883 9.02524 9.00604C8.53318 9.51309 8.23044 10.1951 8.23044 10.9458V12.3638C8.50684 12.8974 8.87944 13.3759 9.32897 13.7759H11.1474C11.5949 13.7759 12.0191 13.6776 12.3988 13.5017H12.3977Z" fill="#00B207"/>
<path d="M13.9818 11.6055C14.0345 11.3932 14.0628 11.1711 14.0628 10.9431C14.0628 9.59198 13.0817 8.45898 11.7746 8.1799C11.97 9.60869 12.8003 10.8429 13.9818 11.6055Z" fill="#00B207"/>
<path d="M9.5907 33.9999C10.5692 33.9999 11.3625 33.23 11.3625 32.2802C11.3625 31.3305 10.5692 30.5606 9.5907 30.5606C8.61216 30.5606 7.81889 31.3305 7.81889 32.2802C7.81889 33.23 8.61216 33.9999 9.5907 33.9999Z" fill="#00B207"/>
<path d="M16.3746 33.9999C17.3531 33.9999 18.1464 33.23 18.1464 32.2802C18.1464 31.3305 17.3531 30.5606 16.3746 30.5606C15.396 30.5606 14.6027 31.3305 14.6027 32.2802C14.6027 33.23 15.396 33.9999 16.3746 33.9999Z" fill="#00B207"/>
<path d="M18.2236 15.7577L14.8663 17.8979C16.4214 18.6241 17.4977 20.1679 17.4977 21.9514C17.4977 24.4307 15.4191 26.4481 12.8646 26.4481C10.3102 26.4481 8.23057 24.4307 8.23057 21.9514V17.4538L11.7742 17.3437C14.7458 17.2337 16.5217 14.6964 16.5308 14.6837C15.4231 14.155 14.1798 13.8572 12.8646 13.8572H4.52495V21.9514C4.52495 26.4146 8.26601 30.0456 12.8646 30.0456C17.4632 30.0456 21.2043 26.4146 21.2043 21.9514C21.2043 19.4672 20.044 17.2425 18.2236 15.7567V15.7577Z" fill="#002401"/>
<path d="M17.8471 20.3142L23.3328 16.6959L21.2494 13.7205L15.7636 17.3388L17.8471 20.3142Z" fill="#002401"/>
</svg>
