<svg width="21" height="32" viewBox="0 0 21 32" fill="none" xmlns="http://www.w3.org/2000/svg">
<path d="M9.40354 4.23438C6.12653 4.23438 3.46094 6.93614 3.46094 10.2576V16.2809H9.40354C12.6806 16.2809 15.3462 13.5791 15.3462 10.2576C15.3462 6.93614 12.6806 4.23438 9.40354 4.23438ZM9.40354 12.9097H6.78701V10.2576C6.78701 8.79532 7.96082 7.60559 9.40354 7.60559C10.8463 7.60559 12.021 8.79532 12.021 10.2576C12.021 11.7199 10.8472 12.9097 9.40354 12.9097Z" fill="#C2D0FA"/>
<path d="M6.3822 4.2148C6.36857 4.1881 5.09301 4.38884 5.00489 4.39529C4.07729 4.46159 3.11882 4.43488 2.21938 4.17797C1.73424 4.03892 0.451402 3.54627 0.0979896 2.41178C0.0480212 2.24972 -0.109148 1.71931 0.125249 1.14102C0.363281 0.552596 0.855696 0.288313 0.999242 0.213725C1.43351 -0.0109615 1.83599 8.86178e-05 2.02132 8.86178e-05C3.10882 0.00469285 4.02733 0.736765 4.70781 1.53238C5.39919 2.34088 5.89614 3.27185 6.3822 4.2148Z" fill="#C2D0FA"/>
<path d="M6.80395 4.09631C6.81848 4.0871 6.66222 3.35871 6.65495 3.30807C6.5859 2.77582 6.56773 2.22147 6.6813 1.69382C6.74217 1.40928 6.97566 0.652346 7.59981 0.410164C7.68884 0.375172 7.98138 0.266512 8.3139 0.381618C8.65278 0.498565 8.81812 0.773898 8.86445 0.854012C9.00527 1.09712 9.01346 1.32917 9.01891 1.43599C9.05343 2.06308 8.67457 2.61835 8.25121 3.03826C7.82148 3.46461 7.31544 3.78414 6.80304 4.09631H6.80395Z" fill="#C2D0FA"/>
<path d="M10.5266 12.6523C8.79675 12.039 7.54755 10.3907 7.5003 8.43945C7.05876 8.91461 6.78711 9.55368 6.78711 10.2572V11.586C7.03513 12.086 7.36948 12.5345 7.77286 12.9092H9.40455C9.80611 12.9092 10.1868 12.8172 10.5275 12.6523H10.5266Z" fill="#C2D0FA"/>
<path d="M11.9474 10.8761C11.9946 10.6772 12.0201 10.4691 12.0201 10.2554C12.0201 8.98927 11.1397 7.92754 9.9668 7.66602C10.1421 9.00493 10.8871 10.1615 11.9474 10.8761Z" fill="#C2D0FA"/>
<path d="M8.00787 31.8616C8.88595 31.8616 9.59778 31.1401 9.59778 30.2502C9.59778 29.3602 8.88595 28.6387 8.00787 28.6387C7.12979 28.6387 6.41797 29.3602 6.41797 30.2502C6.41797 31.1401 7.12979 31.8616 8.00787 31.8616Z" fill="#C2D0FA"/>
<path d="M14.0938 31.8616C14.9719 31.8616 15.6837 31.1401 15.6837 30.2502C15.6837 29.3602 14.9719 28.6387 14.0938 28.6387C13.2157 28.6387 12.5039 29.3602 12.5039 30.2502C12.5039 31.1401 13.2157 31.8616 14.0938 31.8616Z" fill="#C2D0FA"/>
<path d="M15.7532 14.7663L12.7405 16.7719C14.136 17.4524 15.1018 18.899 15.1018 20.5704C15.1018 22.8937 13.2366 24.7842 10.9444 24.7842C8.6522 24.7842 6.7861 22.8937 6.7861 20.5704V16.3556L9.96591 16.2525C12.6324 16.1494 14.226 13.7718 14.2341 13.7598C13.2402 13.2644 12.1245 12.9854 10.9444 12.9854H3.46094V20.5704C3.46094 24.7528 6.8179 28.1554 10.9444 28.1554C15.0709 28.1554 18.4278 24.7528 18.4278 20.5704C18.4278 18.2425 17.3867 16.1577 15.7532 14.7653V14.7663Z" fill="#C2D0FA"/>
<path d="M15.4154 19.0363L20.3379 15.6455L18.4684 12.8572L13.5458 16.248L15.4154 19.0363Z" fill="#C2D0FA"/>
</svg>
