<svg width="56" height="56" viewBox="0 0 56 56" fill="none" xmlns="http://www.w3.org/2000/svg">
<g clip-path="url(#clip0_1035_39452)">
<rect width="56" height="56" rx="28" fill="#F5F7FE"/>
<rect width="56" height="56" rx="28" fill="#EBEFFD"/>
<path d="M35.2711 37.7838L19.7915 37.6872C18.8706 36.4208 18.3818 34.8916 18.3975 33.3258L36.7171 33.4366C36.7126 35.003 36.2058 36.5268 35.2711 37.7838Z" fill="#3463ED"/>
<path d="M18.7406 31.5189C19.5354 27.9963 22.9209 25.0214 27.5916 24.9651L27.7739 24.9666L27.9562 24.9681C32.6275 25.0795 35.9765 28.0956 36.7261 31.6253L18.7406 31.5189Z" fill="#F8B623"/>
<path d="M33.834 39.4014L27.6428 46.743L21.5416 39.3271L33.834 39.4014Z" fill="#F8B623"/>
<path d="M19.8892 22.3448C19.8965 21.3285 20.104 20.3237 20.4996 19.3876C20.8953 18.4515 21.4714 17.6024 22.1952 16.889C22.919 16.1756 23.7762 15.6117 24.7179 15.2295C25.6596 14.8474 26.6673 14.6544 27.6836 14.6617C28.6999 14.6691 29.7047 14.8765 30.6409 15.2721C31.577 15.6678 32.426 16.2439 33.1394 16.9677C33.8528 17.6915 34.4167 18.5487 34.7989 19.4904C35.1811 20.4321 35.374 21.4399 35.3667 22.4561C35.36 23.1906 35.25 23.9205 35.0399 24.6242L27.6176 23.6802L20.1865 24.5313C19.9826 23.8206 19.8825 23.0842 19.8892 22.3448Z" fill="#3463ED"/>
<path d="M31.8066 39.9824L27.7185 44.8314L23.6882 39.9342L31.8066 39.9824Z" fill="#FFCC74"/>
<path d="M21.0952 30.7516C21.7014 28.0613 24.29 25.7886 27.8599 25.7437L27.999 25.7459L28.1361 25.7466C31.7066 25.8333 34.2681 28.1368 34.8405 30.8368L21.0952 30.7516Z" fill="#FFCC74"/>
<path d="M29.086 20.2734L28.0261 20.6558C28.2028 18.6238 28.9574 16.6847 30.2007 15.0678C31.444 13.4508 33.1242 12.2234 35.0426 11.5306L35.3953 12.4745C33.7336 13.0742 32.2679 14.1175 31.1571 15.4913C30.0463 16.865 29.333 18.5167 29.0944 20.2672L29.086 20.2734Z" fill="#3463ED"/>
<path d="M20.3329 11.4396L19.977 12.3843C21.6393 13.0019 23.0983 14.0675 24.1925 15.463C24.5044 15.3073 24.8266 15.1731 25.1567 15.0614C23.9343 13.4116 22.2583 12.1532 20.3329 11.4396Z" fill="#3463ED"/>
<path opacity="0.3" d="M41.5416 40.411C41.5721 40.3737 41.6144 40.346 41.6488 40.3119C41.6832 40.2778 41.7082 40.2392 41.7525 40.2131C46.0188 36.0964 44.3411 29.4678 38.9082 28.7765L29.8276 27.624L30.335 36.7669C30.6389 42.2332 37.1236 44.3644 41.5416 40.411Z" fill="#3463ED"/>
<path opacity="0.3" d="M13.6661 40.3223L13.5541 40.2307L13.4421 40.1392C9.22893 35.9709 10.9853 29.3634 16.4264 28.7374L25.5227 27.6936L24.9042 36.8306C24.5445 42.2789 18.0264 44.3387 13.6661 40.3223Z" fill="#3463ED"/>
<path d="M41.2896 37.9096C41.3185 37.8742 41.3588 37.8449 41.3952 37.8124C41.4316 37.7799 41.4563 37.7377 41.5006 37.7116C45.7669 33.595 44.0891 26.9664 38.6563 26.2751L29.574 25.1245L30.083 34.2654C30.3854 39.7337 36.87 41.8649 41.2896 37.9096Z" fill="#7192F2"/>
<path d="M14.1011 37.7447L13.9891 37.6531L13.8871 37.5534C9.67034 33.3855 11.4283 26.776 16.8679 26.152L25.9661 25.1098L25.3456 34.2452C24.981 39.6993 18.4614 41.7611 14.1011 37.7447Z" fill="#7192F2"/>
</g>
<defs>
<clipPath id="clip0_1035_39452">
<rect width="56" height="56" rx="28" fill="white"/>
</clipPath>
</defs>
</svg>
