<svg width="22" height="22" viewBox="0 0 22 22" fill="none" xmlns="http://www.w3.org/2000/svg">
<path fill-rule="evenodd" clip-rule="evenodd" d="M11.3431 14.4046C10.7715 14.4046 10.2422 14.3177 9.7663 14.1459C10.2654 15.1792 11.0424 16.2791 12.1151 17.3357C15.1184 20.2938 18.4665 20.9693 19.7101 19.7444C20.9537 18.5194 20.2679 15.2216 17.2646 12.2635C17.2126 12.2122 17.1602 12.1614 17.1076 12.1112C15.8505 13.0768 14.4993 13.7794 13.1876 14.1383C12.5371 14.3158 11.9179 14.4046 11.3431 14.4046ZM7.37902 10.5642C7.38115 10.713 7.38944 10.8595 7.40398 11.0031C7.39326 11.1102 7.38602 11.2189 7.38221 11.329C7.22193 11.7917 6.77592 12.1259 6.25296 12.1259C5.59587 12.1259 5.06028 11.5984 5.06028 10.9512C5.06028 10.3039 5.59587 9.77638 6.25296 9.77638C6.77249 9.77638 7.21607 10.1062 7.37902 10.5642ZM7.70205 8.48222C7.27552 8.2383 6.78043 8.09851 6.25296 8.09851C4.65662 8.09851 3.35683 9.37879 3.35683 10.9512C3.35683 12.5235 4.65532 13.8038 6.25296 13.8038C6.77021 13.8038 7.25633 13.6694 7.67718 13.4341C8.17305 15.1114 9.27691 16.9141 10.9094 18.522C13.1915 20.7699 15.859 22 18.0249 22C19.1732 22 20.1804 21.6539 20.9145 20.9307C23.0347 18.8424 21.9596 14.5139 18.4691 11.0758C18.4433 11.0504 18.4174 11.0251 18.3915 11C18.4174 10.9748 18.4433 10.9495 18.4691 10.9241C21.9596 7.48599 23.0347 3.15621 20.9145 1.06916C18.7944 -1.01917 14.3999 0.0397947 10.9094 3.47789C9.30413 5.05903 8.20973 6.82876 7.70205 8.48222ZM9.14779 10.8654C9.23609 10.4534 9.41121 10.1093 9.66966 9.85474C9.89397 9.63379 10.1609 9.48883 10.4466 9.39905V12.6022C10.1602 12.5125 9.89273 12.3674 9.66837 12.1465C9.40732 11.8893 9.23129 11.5409 9.14386 11.1234C9.14732 11.0664 9.14908 11.009 9.14908 10.9512C9.14908 10.9225 9.14865 10.8939 9.14779 10.8654ZM12.7317 12.5222C12.3978 12.6137 11.9446 12.709 11.4695 12.7243V9.27654C11.9452 9.29179 12.3989 9.38702 12.733 9.47902C12.8573 9.51306 12.9821 9.5509 13.1074 9.59246V12.4084C12.9817 12.4501 12.8564 12.488 12.7317 12.5222ZM14.1302 11.9914V10.0093C14.6838 10.2762 15.2372 10.6093 15.7767 11.0002C15.2374 11.3911 14.684 11.7243 14.1302 11.9914ZM12.1138 4.66552C11.0418 5.72139 10.2651 6.82053 9.76601 7.85324C10.7211 7.50809 11.8913 7.506 13.1876 7.86162C14.4993 8.22047 15.8505 8.92316 17.1076 9.88873C17.1598 9.83893 17.2117 9.7886 17.2633 9.73773C20.2666 6.77959 20.9524 3.48175 19.7088 2.2568C19.3208 1.87464 18.7264 1.67649 18.0014 1.67649C16.4064 1.67649 14.1778 2.63123 12.1138 4.66552ZM0.0561304 8.34743L0.055538 8.34858C-0.0722661 8.59628 0.0279917 8.89914 0.279472 9.02503L2.02283 9.89771C2.27431 10.0236 2.58178 9.92483 2.70959 9.67713L2.71018 9.67598C2.83798 9.42828 2.73772 9.12543 2.48624 8.99954L0.742884 8.12686C0.491404 8.00098 0.183934 8.09973 0.0561304 8.34743ZM0.393094 12.8508L2.13645 11.9781C2.38793 11.8523 2.6954 11.951 2.82321 12.1987L2.8238 12.1999C2.9516 12.4476 2.85134 12.7504 2.59986 12.8763L0.856505 13.749C0.605025 13.8749 0.297557 13.7761 0.169753 13.5284L0.169161 13.5273C0.0413571 13.2796 0.141613 12.9767 0.393094 12.8508Z" fill="#0E0E0E"/>
</svg>
