<svg width="24" height="28" viewBox="0 0 24 28" fill="none" xmlns="http://www.w3.org/2000/svg">
<path d="M3.24063 8.25379L2.55031 8.06758L2.55031 8.06758L3.24063 8.25379ZM9.26284 1.92547L9.4842 2.60535V2.60535L9.26284 1.92547ZM3.16561 8.5319L3.85593 8.71812V8.71812L3.16561 8.5319ZM2.88357 14.49L2.17873 14.6101H2.17873L2.88357 14.49ZM2.91634 14.6822L3.62117 14.5621V14.5621L2.91634 14.6822ZM2.97673 14.9907L3.26184 15.6464C3.57566 15.5099 3.74879 15.1702 3.67482 14.8361L2.97673 14.9907ZM3.6233 21.2399L3.47996 21.9404H3.47996L3.6233 21.2399ZM4.13811 21.3453L4.28145 20.6448L4.28145 20.6448L4.13811 21.3453ZM19.7888 21.3453L19.6455 20.6448L19.7888 21.3453ZM20.3036 21.2399L20.447 21.9404L20.3036 21.2399ZM20.9485 14.9899L20.2512 14.8316C20.1751 15.1669 20.3484 15.5089 20.6637 15.6458L20.9485 14.9899ZM21.0169 14.6453L21.7217 14.7654V14.7654L21.0169 14.6453ZM21.0516 14.4415L21.7565 14.5617V14.5617L21.0516 14.4415ZM20.7973 8.57316L21.4891 8.39246V8.39246L20.7973 8.57316ZM20.697 8.18909L20.0052 8.36979L20.697 8.18909ZM14.8474 1.93452L15.0725 1.25588V1.25588L14.8474 1.93452ZM15.8079 23.2615L15.1093 23.1094V23.1094L15.8079 23.2615ZM15.7086 23.7177L16.4072 23.8698V23.8698L15.7086 23.7177ZM8.21834 23.7177L8.91697 23.5655L8.21834 23.7177ZM8.11901 23.2615L7.42038 23.4136L8.11901 23.2615ZM13.1763 26.3088L13.01 25.6134L13.0099 25.6134L13.1763 26.3088ZM12.9078 26.373L13.0741 27.0684L13.0741 27.0684L12.9078 26.373ZM11.0192 26.373L10.8528 27.0684H10.8528L11.0192 26.373ZM10.7507 26.3088L10.917 25.6134L10.917 25.6134L10.7507 26.3088ZM9.11323 22.4599C9.37259 22.1621 9.34144 21.7105 9.04367 21.4511C8.7459 21.1918 8.29426 21.2229 8.0349 21.5207L9.11323 22.4599ZM15.892 21.5207C15.6327 21.2229 15.181 21.1918 14.8833 21.4511C14.5855 21.7105 14.5543 22.1621 14.8137 22.4599L15.892 21.5207ZM3.93096 8.44001C4.67334 5.68794 6.78149 3.48532 9.4842 2.60535L9.04148 1.2456C5.88299 2.27398 3.41947 4.84552 2.55031 8.06758L3.93096 8.44001ZM3.85593 8.71812L3.93096 8.44001L2.55031 8.06758L2.47529 8.34569L3.85593 8.71812ZM3.5884 14.3698C3.26775 12.4888 3.35906 10.5601 3.85593 8.71812L2.47529 8.34569C1.92452 10.3874 1.82333 12.5252 2.17873 14.6101L3.5884 14.3698ZM3.62117 14.5621L3.5884 14.3698L2.17873 14.6101L2.21151 14.8024L3.62117 14.5621ZM3.67482 14.8361C3.6548 14.7457 3.63689 14.6543 3.62117 14.5621L2.21151 14.8024C2.23116 14.9177 2.25356 15.032 2.27863 15.1452L3.67482 14.8361ZM1.715 18.0137C1.715 16.9529 2.35185 16.0421 3.26184 15.6464L2.69162 14.335C1.27558 14.9507 0.285 16.3663 0.285 18.0137H1.715ZM3.76664 20.5394C2.57495 20.2956 1.715 19.2413 1.715 18.0137H0.285C0.285 19.9162 1.61848 21.5595 3.47996 21.9404L3.76664 20.5394ZM4.28145 20.6448L3.76664 20.5394L3.47996 21.9404L3.99478 22.0457L4.28145 20.6448ZM19.6455 20.6448C14.5762 21.6821 9.35076 21.6821 4.28145 20.6448L3.99478 22.0457C9.25324 23.1218 14.6737 23.1218 19.9321 22.0457L19.6455 20.6448ZM20.1603 20.5394L19.6455 20.6448L19.9321 22.0457L20.447 21.9404L20.1603 20.5394ZM22.2119 18.0137C22.2119 19.2413 21.352 20.2956 20.1603 20.5394L20.447 21.9404C22.3084 21.5595 23.6419 19.9162 23.6419 18.0137H22.2119ZM20.6637 15.6458C21.5744 16.0412 22.2119 16.9523 22.2119 18.0137H23.6419C23.6419 16.3654 22.6504 14.9493 21.2332 14.3341L20.6637 15.6458ZM20.3121 14.5251C20.2945 14.6284 20.2741 14.7306 20.2512 14.8316L21.6457 15.1482C21.6744 15.0219 21.6998 14.8943 21.7217 14.7654L20.3121 14.5251ZM20.3468 14.3214L20.3121 14.5251L21.7217 14.7654L21.7565 14.5617L20.3468 14.3214ZM20.1055 8.75386C20.5802 10.5711 20.6625 12.4695 20.3468 14.3214L21.7565 14.5617C22.1062 12.5096 22.0151 10.4062 21.4891 8.39246L20.1055 8.75386ZM20.0052 8.36979L20.1055 8.75386L21.4891 8.39246L21.3888 8.00839L20.0052 8.36979ZM14.6222 2.61315C17.2699 3.49146 19.2967 5.65735 20.0052 8.36979L21.3888 8.00839C20.5584 4.82955 18.182 2.28739 15.0725 1.25588L14.6222 2.61315ZM9.4842 2.60535C11.1501 2.06293 12.9625 2.06258 14.6222 2.61315L15.0725 1.25588C13.1198 0.608122 10.9945 0.609731 9.04148 1.2456L9.4842 2.60535ZM15.1093 23.1094L15.01 23.5655L16.4072 23.8698L16.5065 23.4136L15.1093 23.1094ZM8.91697 23.5655L8.81764 23.1094L7.42038 23.4136L7.51971 23.8698L8.91697 23.5655ZM13.0099 25.6134L12.7414 25.6776L13.0741 27.0684L13.3426 27.0042L13.0099 25.6134ZM11.1855 25.6776L10.917 25.6134L10.5843 27.0042L10.8528 27.0684L11.1855 25.6776ZM8.81764 23.1094C8.77572 22.9169 8.76294 22.8291 8.76064 22.7845C8.75944 22.7613 8.76373 22.807 8.73524 22.8669C8.71933 22.9003 8.70783 22.9014 8.78688 22.8157C8.84902 22.7483 8.97593 22.6175 9.11323 22.4599L8.0349 21.5207C7.91363 21.6599 7.83339 21.7402 7.7355 21.8464C7.65452 21.9342 7.53011 22.0715 7.4441 22.2522C7.25166 22.6564 7.34692 23.0763 7.42038 23.4136L8.81764 23.1094ZM16.5065 23.4136C16.58 23.0763 16.6753 22.6564 16.4828 22.2522C16.3968 22.0715 16.2724 21.9342 16.1914 21.8464C16.0935 21.7402 16.0133 21.6599 15.892 21.5207L14.8137 22.4599C14.951 22.6175 15.0779 22.7483 15.14 22.8157C15.2191 22.9014 15.2076 22.9003 15.1917 22.8669C15.1632 22.807 15.1675 22.7613 15.1663 22.7845C15.164 22.8291 15.1512 22.9169 15.1093 23.1094L16.5065 23.4136ZM12.7414 25.6776C12.2299 25.8 11.697 25.8 11.1855 25.6776L10.8528 27.0684C11.583 27.243 12.3439 27.243 13.0741 27.0684L12.7414 25.6776ZM7.51971 23.8698C7.85665 25.4172 9.04656 26.6364 10.5843 27.0042L10.917 25.6134C9.91608 25.374 9.1377 24.5792 8.91697 23.5655L7.51971 23.8698ZM15.01 23.5655C14.7892 24.5792 14.0108 25.374 13.01 25.6134L13.3426 27.0042C14.8804 26.6364 16.0703 25.4172 16.4072 23.8698L15.01 23.5655Z" fill="#292931"/>
</svg>
