<svg width="26" height="28" viewBox="0 0 26 28" fill="none" xmlns="http://www.w3.org/2000/svg">
<path d="M23 10.5C23 7.84784 21.9464 5.3043 20.0711 3.42893C18.1957 1.55357 15.6522 0.5 13 0.5C10.3804 0.499527 7.86527 1.52697 5.99527 3.36144C4.12527 5.19591 3.04977 7.6909 3 10.31C2.20435 10.31 1.44129 10.6261 0.87868 11.1887C0.316071 11.7513 0 12.5144 0 13.31V17.31C0 18.1056 0.316071 18.8687 0.87868 19.4313C1.44129 19.9939 2.20435 20.31 3 20.31H5C5.79565 20.31 6.55871 19.9939 7.12132 19.4313C7.68393 18.8687 8 18.1056 8 17.31V13.31C8 12.5144 7.68393 11.7513 7.12132 11.1887C6.55871 10.6261 5.79565 10.31 5 10.31C5.04962 8.22137 5.91433 6.23502 7.40928 4.77558C8.90422 3.31613 10.9108 2.49941 13 2.5C15.1217 2.5 17.1566 3.34285 18.6569 4.84315C20.1571 6.34344 21 8.37827 21 10.5C20.2044 10.5 19.4413 10.8161 18.8787 11.3787C18.3161 11.9413 18 12.7044 18 13.5V17.5C18.0027 18.1612 18.2237 18.8031 18.6288 19.3257C19.0339 19.8483 19.6003 20.2225 20.24 20.39C19.484 21.7634 18.2206 22.7863 16.72 23.24C16.4797 22.7208 16.096 22.2811 15.6141 21.9728C15.1321 21.6646 14.5721 21.5005 14 21.5H12C11.2044 21.5 10.4413 21.8161 9.87868 22.3787C9.31607 22.9413 9 23.7044 9 24.5C9 25.2956 9.31607 26.0587 9.87868 26.6213C10.4413 27.1839 11.2044 27.5 12 27.5H14C14.6626 27.4967 15.3054 27.2742 15.8282 26.8672C16.351 26.4602 16.7244 25.8915 16.89 25.25C18.1185 24.9501 19.2584 24.3632 20.2162 23.5375C21.1739 22.7119 21.9224 21.6709 22.4 20.5H23C23.7956 20.5 24.5587 20.1839 25.1213 19.6213C25.6839 19.0587 26 18.2956 26 17.5V13.5C26 12.7044 25.6839 11.9413 25.1213 11.3787C24.5587 10.8161 23.7956 10.5 23 10.5ZM6 13.31V17.31C6 17.5752 5.89464 17.8296 5.70711 18.0171C5.51957 18.2046 5.26522 18.31 5 18.31H3C2.73478 18.31 2.48043 18.2046 2.29289 18.0171C2.10536 17.8296 2 17.5752 2 17.31V13.31C2 13.0448 2.10536 12.7904 2.29289 12.6029C2.48043 12.4154 2.73478 12.31 3 12.31H5C5.26522 12.31 5.51957 12.4154 5.70711 12.6029C5.89464 12.7904 6 13.0448 6 13.31ZM14 25.5H12C11.7348 25.5 11.4804 25.3946 11.2929 25.2071C11.1054 25.0196 11 24.7652 11 24.5C11 24.2348 11.1054 23.9804 11.2929 23.7929C11.4804 23.6054 11.7348 23.5 12 23.5H14C14.2652 23.5 14.5196 23.6054 14.7071 23.7929C14.8946 23.9804 15 24.2348 15 24.5C15 24.7652 14.8946 25.0196 14.7071 25.2071C14.5196 25.3946 14.2652 25.5 14 25.5ZM24 17.5C24 17.7652 23.8946 18.0196 23.7071 18.2071C23.5196 18.3946 23.2652 18.5 23 18.5H21C20.7348 18.5 20.4804 18.3946 20.2929 18.2071C20.1054 18.0196 20 17.7652 20 17.5V13.5C20 13.2348 20.1054 12.9804 20.2929 12.7929C20.4804 12.6054 20.7348 12.5 21 12.5H23C23.2652 12.5 23.5196 12.6054 23.7071 12.7929C23.8946 12.9804 24 13.2348 24 13.5V17.5Z" fill="url(#paint0_linear_2227_4691)"/>
<defs>
<linearGradient id="paint0_linear_2227_4691" x1="13" y1="0.5" x2="13" y2="27.5" gradientUnits="userSpaceOnUse">
<stop stop-color="#D00F24"/>
<stop offset="1" stop-color="#2451DB"/>
</linearGradient>
</defs>
</svg>
