<svg width="13" height="15" viewBox="0 0 13 15" fill="none" xmlns="http://www.w3.org/2000/svg">
<path d="M12.7151 12.9663L11.821 3.29448C11.8019 3.07975 11.6135 2.91718 11.3932 2.91718H9.55402C9.52848 1.30368 8.15551 0 6.46963 0C4.78374 0 3.41077 1.30368 3.38523 2.91718H1.54609C1.32258 2.91718 1.13739 3.07975 1.11823 3.29448L0.224201 12.9663C0.224201 12.9785 0.221008 12.9908 0.221008 13.0031C0.221008 14.1043 1.27149 15 2.56464 15H10.3746C11.6678 15 12.7182 14.1043 12.7182 13.0031C12.7182 12.9908 12.7182 12.9785 12.7151 12.9663ZM6.46963 0.828221C7.67976 0.828221 8.66638 1.76074 8.69193 2.91718H4.24733C4.27287 1.76074 5.2595 0.828221 6.46963 0.828221ZM10.3746 14.1718H2.56464C1.75363 14.1718 1.09588 13.6564 1.08311 13.0215L1.93882 3.74847H3.38204V5.00613C3.38204 5.2362 3.57361 5.42025 3.81309 5.42025C4.05256 5.42025 4.24413 5.2362 4.24413 5.00613V3.74847H8.69193V5.00613C8.69193 5.2362 8.8835 5.42025 9.12298 5.42025C9.36245 5.42025 9.55402 5.2362 9.55402 5.00613V3.74847H10.9972L11.8561 13.0215C11.8434 13.6564 11.1824 14.1718 10.3746 14.1718Z" fill="#6CC51D"/>
</svg>
