<svg width="44" height="45" viewBox="0 0 44 45" fill="none" xmlns="http://www.w3.org/2000/svg">
<rect width="44" height="45" rx="6" fill="#D9D9D9"/>
<path d="M30.016 30.0481C28.8899 30.0481 27.9316 30.7804 27.5859 31.7941H32.4462C32.1005 30.7804 31.1421 30.0481 30.016 30.0481Z" fill="#515250"/>
<path d="M15.8231 30.0481C14.697 30.0481 13.7387 30.7804 13.393 31.7941H18.2532C17.9075 30.7804 16.9492 30.0481 15.8231 30.0481Z" fill="#515250"/>
<path d="M37 15.1522H10.2248V13.2399C10.2248 12.5572 9.66902 12 8.98929 12H4.23548C3.55575 12 3 12.5587 3 13.2399C3 13.9211 3.55575 14.4797 4.23548 14.4797H8.10971L8.40436 16.0653L11.3144 31.7941H12.6841C13.0502 30.3981 14.3192 29.3669 15.8231 29.3669C17.327 29.3669 18.596 30.3996 18.9636 31.7941H26.8769C27.243 30.3981 28.512 29.3669 30.0159 29.3669C31.5198 29.3669 32.7889 30.3996 33.155 31.7941H33.7165L37 15.1522Z" fill="#515250"/>
<path d="M18.3904 32.624C18.3904 34.0447 17.2381 35.2 15.8232 35.2C14.4083 35.2 13.256 34.0447 13.256 32.624C13.256 32.3337 13.3041 32.0551 13.3931 31.794H12.6827C12.6127 32.0595 12.5762 32.3366 12.5762 32.624C12.5762 34.4196 14.0334 35.8812 15.8232 35.8812C17.613 35.8812 19.0702 34.4196 19.0702 32.624C19.0702 32.3366 19.0323 32.0595 18.9637 31.794H18.2533C18.3408 32.0551 18.3904 32.3337 18.3904 32.624Z" fill="#515250"/>
<path d="M32.5831 32.624C32.5831 34.0447 31.4307 35.2 30.0158 35.2C28.5995 35.2 27.4486 34.0447 27.4486 32.624C27.4486 32.3337 27.4967 32.0551 27.5857 31.794H26.8753C26.8053 32.0595 26.7688 32.3366 26.7688 32.624C26.7688 34.4196 28.226 35.8812 30.0158 35.8812C31.8056 35.8812 33.2628 34.4196 33.2628 32.624C33.2628 32.3366 33.2249 32.0595 33.1563 31.794H32.4459C32.5335 32.0551 32.5831 32.3337 32.5831 32.624Z" fill="#515250"/>
</svg>
