<svg width="148" height="148" viewBox="0 0 148 148" fill="none" xmlns="http://www.w3.org/2000/svg">
<path fill-rule="evenodd" clip-rule="evenodd" d="M23.9185 104.085C27.3879 100.616 32.0935 98.6667 37 98.6667C41.9065 98.6667 46.6121 100.616 50.0815 104.085C53.5509 107.555 55.5 112.26 55.5 117.167C55.5 122.073 53.5509 126.779 50.0815 130.248C46.6121 133.718 41.9065 135.667 37 135.667C32.0935 135.667 27.3879 133.718 23.9185 130.248C20.4491 126.779 18.5 122.073 18.5 117.167C18.5 112.26 20.4491 107.555 23.9185 104.085ZM37 111C35.3645 111 33.796 111.65 32.6395 112.806C31.483 113.963 30.8333 115.531 30.8333 117.167C30.8333 118.802 31.483 120.371 32.6395 121.527C33.796 122.684 35.3645 123.333 37 123.333C38.6355 123.333 40.204 122.684 41.3605 121.527C42.517 120.371 43.1667 118.802 43.1667 117.167C43.1667 115.531 42.517 113.963 41.3605 112.806C40.204 111.65 38.6355 111 37 111ZM91.7519 104.085C95.2213 100.616 99.9268 98.6667 104.833 98.6667C109.74 98.6667 114.445 100.616 117.915 104.085C121.384 107.555 123.333 112.26 123.333 117.167C123.333 122.073 121.384 126.779 117.915 130.248C114.445 133.718 109.74 135.667 104.833 135.667C99.9268 135.667 95.2213 133.718 91.7519 130.248C88.2824 126.779 86.3333 122.073 86.3333 117.167C86.3333 112.26 88.2824 107.555 91.7519 104.085ZM104.833 111C103.198 111 101.629 111.65 100.473 112.806C99.3164 113.963 98.6667 115.531 98.6667 117.167C98.6667 118.802 99.3164 120.371 100.473 121.527C101.629 122.684 103.198 123.333 104.833 123.333C106.469 123.333 108.037 122.684 109.194 121.527C110.35 120.371 111 118.802 111 117.167C111 115.531 110.35 113.963 109.194 112.806C108.037 111.65 106.469 111 104.833 111Z" fill="#99B1F6"/>
<path fill-rule="evenodd" clip-rule="evenodd" d="M18.5 18.5C18.5 15.0943 21.2609 12.3334 24.6667 12.3334H37C40.4058 12.3334 43.1667 15.0943 43.1667 18.5V98.6667H104.833C108.239 98.6667 111 101.428 111 104.833C111 108.239 108.239 111 104.833 111H37C33.5942 111 30.8333 108.239 30.8333 104.833V24.6667H24.6667C21.2609 24.6667 18.5 21.9058 18.5 18.5Z" fill="#99B1F6"/>
<path fill-rule="evenodd" clip-rule="evenodd" d="M111 12.3334C114.406 12.3334 117.167 15.0943 117.167 18.5V30.8334H129.5C132.906 30.8334 135.667 33.5943 135.667 37C135.667 40.4058 132.906 43.1667 129.5 43.1667H117.167V55.5C117.167 58.9058 114.406 61.6667 111 61.6667C107.594 61.6667 104.834 58.9058 104.834 55.5V43.1667H92.5002C89.0945 43.1667 86.3336 40.4058 86.3336 37C86.3336 33.5943 89.0945 30.8334 92.5002 30.8334H104.834V18.5C104.834 15.0943 107.594 12.3334 111 12.3334ZM30.8493 30.3936C31.0922 26.9965 34.0429 24.4395 37.44 24.6824L74.44 27.3279C77.8371 27.5708 80.3941 30.5216 80.1512 33.9187C79.9083 37.3158 76.9575 39.8727 73.5604 39.6298L36.5604 36.9843C33.1634 36.7414 30.6064 33.7907 30.8493 30.3936ZM118.891 67.9078C122.262 68.3899 124.605 71.5139 124.122 74.8853L123.241 81.052C122.806 84.0896 120.205 86.3457 117.136 86.3457H36.9694C33.5636 86.3457 30.8027 83.5848 30.8027 80.179C30.8027 76.7733 33.5636 74.0124 36.9694 74.0124H111.789L111.913 73.1394C112.395 69.768 115.519 67.4257 118.891 67.9078Z" fill="#99B1F6"/>
<g clip-path="url(#clip0_392_64478)">
<rect x="83" y="6" width="60" height="60" rx="20" fill="#FFB81F"/>
<rect x="98" y="34" width="30" height="4" rx="2" fill="#0E0E0E"/>
<rect x="115" y="21" width="30" height="4" rx="2" transform="rotate(90 115 21)" fill="#0E0E0E"/>
</g>
<defs>
<clipPath id="clip0_392_64478">
<rect width="60" height="60" fill="white" transform="translate(83 6)"/>
</clipPath>
</defs>
</svg>
