<svg width="23" height="23" viewBox="0 0 23 23" fill="none" xmlns="http://www.w3.org/2000/svg">
<path fill-rule="evenodd" clip-rule="evenodd" d="M1 5.08333C1 2.02058 1.03279 1 5.08333 1C9.13387 1 9.16667 2.02058 9.16667 5.08333C9.16667 8.14608 9.17958 9.16667 5.08333 9.16667C0.987082 9.16667 1 8.14608 1 5.08333Z" stroke="black" stroke-width="0.875" stroke-linecap="round" stroke-linejoin="round"/>
<path opacity="0.4" fill-rule="evenodd" clip-rule="evenodd" d="M13.8335 5.08333C13.8335 2.02058 13.8663 1 17.9168 1C21.9674 1 22.0002 2.02058 22.0002 5.08333C22.0002 8.14608 22.0131 9.16667 17.9168 9.16667C13.8206 9.16667 13.8335 8.14608 13.8335 5.08333Z" stroke="black" stroke-width="0.875" stroke-linecap="round" stroke-linejoin="round"/>
<path fill-rule="evenodd" clip-rule="evenodd" d="M1 17.9163C1 14.8536 1.03279 13.833 5.08333 13.833C9.13387 13.833 9.16667 14.8536 9.16667 17.9163C9.16667 20.9791 9.17958 21.9997 5.08333 21.9997C0.987082 21.9997 1 20.9791 1 17.9163Z" stroke="black" stroke-width="0.875" stroke-linecap="round" stroke-linejoin="round"/>
<path fill-rule="evenodd" clip-rule="evenodd" d="M13.8335 17.9163C13.8335 14.8536 13.8663 13.833 17.9168 13.833C21.9674 13.833 22.0002 14.8536 22.0002 17.9163C22.0002 20.9791 22.0131 21.9997 17.9168 21.9997C13.8206 21.9997 13.8335 20.9791 13.8335 17.9163Z" stroke="black" stroke-width="0.875" stroke-linecap="round" stroke-linejoin="round"/>
</svg>
