<svg width="36" height="26" viewBox="0 0 36 26" fill="none" xmlns="http://www.w3.org/2000/svg">
<path d="M36 18.6147C33.9087 17.9274 32.2576 16.2871 31.595 14.1865C31.5934 14.1835 31.5934 14.1819 31.5919 14.1788C31.4575 13.751 31.3927 13.3031 31.3927 12.8536V5.73794C31.3927 2.58246 28.8102 0 25.6547 0H11.8558C8.70036 0 6.11792 2.58246 6.11792 5.73794V11.3616C6.11792 11.9269 6.20286 12.4737 6.35731 12.9911C6.76816 12.849 7.20989 12.7702 7.66862 12.7702H16.7999C19.0209 12.7702 20.8281 14.5773 20.8281 16.7984V17.0995H27.6302C28.455 17.0995 29.2597 17.3343 29.9686 17.7575C30.3655 17.9954 30.9216 18.224 31.6985 18.3861C34.1234 18.8896 36 18.6147 36 18.6147Z" fill="#898989"/>
<path d="M11.8558 17.1011H20.3662V16.7999C20.3662 14.8337 18.766 13.2336 16.7999 13.2336H7.66857C7.26236 13.2336 6.87159 13.3031 6.50708 13.4282C7.33958 15.572 9.42625 17.1011 11.8558 17.1011Z" fill="#898989"/>
<path d="M20.3662 20.5207C20.3662 22.4869 18.7661 24.087 16.7999 24.087H6.36194C5.78429 24.087 5.20817 24.2492 4.69693 24.555C4.41583 24.7234 4.05596 24.8531 3.62349 24.9427C2.91609 25.0894 2.27975 25.1327 1.79477 25.1373C2.81879 24.5473 3.60031 23.5928 3.95864 22.4529C4.05286 22.1517 4.10229 21.8335 4.10229 21.5076V16.7984C4.10229 15.2384 5.10932 13.9101 6.50712 13.4266C6.45152 13.283 6.40055 13.1378 6.35731 12.9895C4.77879 13.5348 3.64048 15.036 3.64048 16.7984V21.5076C3.64048 21.7857 3.59877 22.0575 3.51691 22.3201C3.10452 23.6267 2.07124 24.6678 0.75066 25.1002L0 25.4323L0.789273 25.5481C0.81553 25.5528 1.1615 25.6007 1.7129 25.6007C2.23032 25.6007 2.92999 25.5574 3.7177 25.3937C4.1996 25.2933 4.6089 25.145 4.93325 24.9504C5.37344 24.6878 5.86769 24.5473 6.36194 24.5473H16.7999C19.0209 24.5473 20.828 22.7402 20.828 20.5191V17.1011H20.3662V20.5207Z" fill="#898989"/>
</svg>
