<svg width="30" height="31" viewBox="0 0 30 31" fill="none" xmlns="http://www.w3.org/2000/svg">
<g clip-path="url(#clip0_6537_66411)">
<path d="M13.125 5.8382L14.0625 3.9632L15.9375 3.0257L14.0625 2.0882L13.125 0.213196L12.1875 2.0882L10.3125 3.0257L12.1875 3.9632L13.125 5.8382ZM4.6875 9.5882L6.24961 6.46339L9.375 4.9007L6.24961 3.338L4.6875 0.213196L3.12539 3.338L0 4.9007L3.12539 6.46339L4.6875 9.5882ZM25.3125 17.0882L23.7504 20.213L20.625 21.7757L23.7504 23.3384L25.3125 26.4632L26.8746 23.3384L30 21.7757L26.8746 20.213L25.3125 17.0882Z" fill="#3463ED"/>
<path d="M14.4956 9.07123C12.3714 9.07123 10.6436 10.8949 10.6436 13.1369V17.2026H14.4956C16.6198 17.2026 18.3477 15.3789 18.3477 13.1369C18.3477 10.8949 16.6198 9.07123 14.4956 9.07123ZM14.4956 14.927H12.7996V13.1369C12.7996 12.1499 13.5604 11.3468 14.4956 11.3468C15.4308 11.3468 16.1923 12.1499 16.1923 13.1369C16.1923 14.124 15.4314 14.927 14.4956 14.927Z" fill="#3463ED"/>
<path d="M12.5374 9.05819C12.5286 9.04016 11.7018 9.17566 11.6446 9.18001C11.0433 9.22477 10.4221 9.20674 9.83903 9.03332C9.52455 8.93947 8.693 8.60693 8.46391 7.84115C8.43152 7.73175 8.32964 7.37373 8.48158 6.98338C8.63587 6.5862 8.95507 6.40781 9.04811 6.35746C9.32961 6.2058 9.5905 6.21326 9.71064 6.21326C10.4156 6.21636 11.011 6.71051 11.4521 7.24755C11.9002 7.79329 12.2224 8.4217 12.5374 9.05819Z" fill="#FFB81F"/>
<path d="M12.8102 8.97803C12.8196 8.97181 12.7183 8.48015 12.7136 8.44596C12.6688 8.0867 12.6571 7.71251 12.7307 7.35635C12.7701 7.16428 12.9215 6.65335 13.3261 6.48988C13.3838 6.46626 13.5734 6.39291 13.789 6.47061C14.0086 6.54955 14.1158 6.7354 14.1458 6.78948C14.2371 6.95357 14.2424 7.11021 14.246 7.18231C14.2683 7.6056 14.0228 7.98041 13.7483 8.26384C13.4698 8.55163 13.1417 8.76732 12.8096 8.97803H12.8102Z" fill="#FFB81F"/>
<path d="M15.2238 14.7538C14.1025 14.3399 13.2927 13.2273 13.2621 11.9102C12.9759 12.2309 12.7998 12.6623 12.7998 13.1371V14.0341C12.9606 14.3716 13.1773 14.6743 13.4388 14.9273H14.4965C14.7568 14.9273 15.0035 14.8651 15.2244 14.7538H15.2238Z" fill="#FFB81F"/>
<path d="M16.1452 13.5543C16.1758 13.42 16.1923 13.2796 16.1923 13.1354C16.1923 12.2807 15.6216 11.564 14.8613 11.3875C14.975 12.2913 15.4579 13.072 16.1452 13.5543Z" fill="#FFB81F"/>
<path d="M13.5911 27.7196C14.1603 27.7196 14.6217 27.2326 14.6217 26.6318C14.6217 26.0311 14.1603 25.5441 13.5911 25.5441C13.022 25.5441 12.5605 26.0311 12.5605 26.6318C12.5605 27.2326 13.022 27.7196 13.5911 27.7196Z" fill="#FFB81F"/>
<path d="M17.5365 27.7196C18.1056 27.7196 18.5671 27.2326 18.5671 26.6318C18.5671 26.0311 18.1056 25.5441 17.5365 25.5441C16.9673 25.5441 16.5059 26.0311 16.5059 26.6318C16.5059 27.2326 16.9673 27.7196 17.5365 27.7196Z" fill="#FFB81F"/>
<path d="M18.6125 16.1802L16.6597 17.534C17.5643 17.9933 18.1903 18.9698 18.1903 20.0979C18.1903 21.6662 16.9812 22.9422 15.4954 22.9422C14.0096 22.9422 12.8 21.6662 12.8 20.0979V17.253L14.8611 17.1834C16.5896 17.1138 17.6226 15.5089 17.6279 15.5008C16.9836 15.1664 16.2604 14.9781 15.4954 14.9781H10.6445V20.0979C10.6445 22.9211 12.8206 25.2178 15.4954 25.2178C18.1703 25.2178 20.3463 22.9211 20.3463 20.0979C20.3463 18.5266 19.6714 17.1194 18.6125 16.1796V16.1802Z" fill="#3463ED"/>
<path d="M18.3931 19.0626L21.584 16.7739L20.3721 14.8918L17.1813 17.1806L18.3931 19.0626Z" fill="#3463ED"/>
</g>
<defs>
<clipPath id="clip0_6537_66411">
<rect width="30" height="30" fill="white" transform="translate(0 0.213196)"/>
</clipPath>
</defs>
</svg>
