<svg width="27" height="30" viewBox="0 0 27 30" fill="none" xmlns="http://www.w3.org/2000/svg">
<g clip-path="url(#clip0_3961_134248)">
<path d="M25.4473 6.73315C23.4229 5.19425 20.8967 4.08672 18.6039 3.00832C16.7487 2.13395 14.9226 1.43446 12.8749 1.19546C11.6847 1.05556 8.60437 0.542596 7.57174 1.29456C6.7258 1.90662 6.34659 3.49797 5.85653 4.37817C4.74806 6.35425 3.95463 8.2429 3.03285 10.3181C2.1519 12.2883 1.16012 14.2119 0.384187 16.2288C-0.333402 18.0883 0.174161 20.2451 0.261672 22.2154C0.267506 22.3844 0.384187 22.5709 0.559208 22.6059C2.26275 22.9732 1.79019 25.2873 0.506702 25.8469C0.384187 25.8994 0.296676 26.0743 0.30251 26.1967C0.419191 27.858 0.0691477 30.3645 2.45528 29.8166C4.47969 29.3561 6.4516 28.4875 8.48185 27.9862C10.0746 27.5898 11.6672 27.1643 13.2541 26.7504C16.0486 26.016 18.849 25.3456 21.6201 24.5004C23.2478 24.0049 26.3341 23.7659 26.7133 21.7957C26.7366 21.7432 26.7483 21.6849 26.7483 21.6208C26.7133 19.4349 26.6841 17.2489 26.8124 15.063C26.8241 14.8998 26.6783 14.7016 26.5149 14.6666C24.4788 14.2936 24.9864 11.9386 26.6724 11.5305C26.8475 11.4897 26.97 11.3149 26.97 11.14C27.0108 8.90742 27.3025 8.13214 25.4648 6.73898L25.4473 6.73315ZM7.14586 3.54461C7.35588 3.14822 7.60091 2.39626 7.96846 2.13978C8.34767 1.87164 8.8844 1.92993 9.46197 1.90662C11.6206 1.81335 13.8083 1.9824 15.8561 2.71104C18.108 3.51546 20.255 4.71626 22.3611 5.84129C23.4987 6.44752 25.0739 7.16451 25.8382 8.27787C25.809 8.2837 25.774 8.2837 25.7448 8.30119C23.2945 9.37375 20.8851 10.5396 18.4231 11.6005C17.0988 9.72933 13.5458 10.388 12.6007 12.3116C12.484 12.5506 12.4548 13.0403 12.3032 13.2443C12.0873 13.5358 12.3148 13.2268 12.0406 13.4017C11.078 14.0196 9.59032 14.2527 8.51686 14.655C6.10156 15.5643 3.61042 16.3338 1.12511 17.0391C1.42265 15.71 2.00022 14.4917 2.64197 13.1044C4.13548 9.88089 5.51232 6.68652 7.14586 3.55044V3.54461ZM17.8338 12.2009C17.6938 13.3143 16.6437 14.2644 15.5877 14.4626C14.5376 14.6608 13.7792 14.1478 13.1083 13.4367C13.4 11.4897 16.7604 10.388 17.8397 12.2067L17.8338 12.2009ZM24.6538 11.8162C24.0238 12.6322 24.0238 13.8039 24.7005 14.5908C25.0039 14.9464 25.3889 14.9989 25.7156 15.2845C25.8323 15.3894 25.914 15.4477 25.9665 15.4769C25.9373 15.5177 25.914 15.6226 25.9373 15.8558C26.1182 17.7153 25.8907 19.7438 25.9198 21.6208C25.7915 22.8741 22.3319 23.4278 21.3926 23.7134C20.185 24.0807 18.9773 24.4538 17.7522 24.7744C14.5901 25.5963 11.4222 26.4123 8.25432 27.1993C7.33838 27.4266 6.41076 27.6306 5.50649 27.9046C4.73639 28.1378 3.38872 28.9539 2.56612 28.9189C1.28847 28.8664 1.30597 27.8696 1.16595 27.0127C1.16595 26.9894 1.12511 26.7155 1.11344 26.5114C1.14261 26.4823 1.18929 26.4357 1.25929 26.3482C2.21025 25.1882 3.31288 23.422 1.63851 22.2037C1.48682 22.0929 1.18929 22.0347 1.08427 21.9064C0.845077 21.615 1.11344 21.953 1.04927 21.7957C0.810073 21.1894 0.97926 20.1635 0.932588 19.499C0.891749 18.9394 0.915086 18.4148 0.973426 17.9135C4.86474 16.8176 8.82606 15.576 12.5657 14.0371C13.5516 15.0513 14.7535 15.6401 16.2061 15.1446C17.4021 14.7366 18.3997 13.6349 18.6214 12.3874C21.1534 11.3032 23.6271 10.1024 26.1532 8.99486C26.1649 8.99486 26.1649 8.9832 26.1765 8.97737C26.3107 9.42039 26.3224 9.91586 26.1474 10.4755C26.089 10.6737 26.0599 10.7902 26.0482 10.8718C25.879 10.9418 25.6456 11.0292 25.6456 11.0292C25.3014 11.3032 24.9339 11.4431 24.6538 11.8045V11.8162Z" fill="#F2F2F2"/>
<path d="M10.0934 7.49831C10.916 7.42253 11.7094 7.10775 12.4386 6.74052C12.9462 6.48404 13.6696 6.16343 13.8155 5.54554C14.1364 4.16404 12.4036 3.76765 11.4469 3.68605C10.1867 3.62775 8.43648 3.95419 7.96976 5.33569C7.4972 6.72886 8.84487 7.61489 10.0934 7.49831ZM9.29409 4.93931C9.9125 4.51961 10.7234 4.46715 11.441 4.50213C12.1469 4.56042 13.5821 4.86353 12.4912 5.77871C11.9719 6.21589 11.1026 6.47238 10.4551 6.61811C10.0292 6.71137 9.54495 6.78132 9.15991 6.53067C8.50649 6.10514 8.72819 5.32404 9.29409 4.93931Z" fill="#F2F2F2"/>
<path d="M6.70915 13.1398C7.28089 13.0932 7.83513 12.8717 8.34852 12.6093C8.73357 12.417 9.2353 12.178 9.33448 11.7117C9.55034 10.6916 8.34852 10.3768 7.61343 10.3127C6.70915 10.2719 5.47817 10.5283 5.15146 11.5193C4.81892 12.5394 5.77571 13.2214 6.70332 13.1398H6.70915ZM6.24243 11.4085C6.63331 11.1404 7.15838 11.1113 7.61343 11.1346C7.98681 11.1637 8.79191 11.2686 8.24934 11.7408C7.9168 12.0264 7.3334 12.1955 6.91335 12.2887C6.66832 12.3412 6.36494 12.3995 6.14325 12.2479C5.79904 12.0089 5.93322 11.6184 6.2366 11.4085H6.24243Z" fill="#F2F2F2"/>
<path d="M18.5227 9.40881C19.4036 9.33303 21.3988 8.77343 21.6264 7.75333C21.8889 6.57585 20.4537 6.2261 19.6253 6.15032C18.5635 6.09786 17.105 6.38931 16.7199 7.54931C16.3291 8.73263 17.455 9.50208 18.5227 9.40881ZM17.9101 7.31615C18.4001 6.98389 19.0536 6.94308 19.6253 6.9664C20.1445 7.01303 21.2238 7.19374 20.4421 7.86409C20.0337 8.21384 19.3219 8.42369 18.8027 8.54027C18.476 8.61022 18.0968 8.67434 17.8051 8.48198C17.3267 8.16137 17.4959 7.60178 17.9159 7.31615H17.9101Z" fill="#F2F2F2"/>
<path d="M19.7538 17.8085C18.4294 17.9309 16.9476 18.8753 16.9184 20.3267C16.8893 21.7782 18.2661 22.8333 19.6196 22.9207C20.9089 23.0081 21.959 21.9939 22.1341 20.7406C22.2507 19.9245 21.9707 19.2483 21.5098 18.5896C21.0898 17.9951 20.4714 17.8435 19.7596 17.7969L19.7538 17.8085ZM19.5554 22.0988C18.6745 21.9939 17.6944 21.3177 17.7294 20.3326C17.7644 19.3707 18.8728 18.7121 19.7479 18.6304C21.9532 18.7587 21.714 22.3669 19.5496 22.1046L19.5554 22.0988Z" fill="#F2F2F2"/>
<path d="M8.28446 18.1125C8.28446 18.1125 8.25529 18.1241 8.24362 18.1241C8.22028 18.1241 8.20278 18.1241 8.17945 18.1241C7.00097 18.4214 5.83416 19.3891 6.19587 20.7123C6.4759 21.7382 7.64271 22.8457 8.78035 22.5076C9.83632 22.1987 10.5831 20.7647 10.4139 19.733C10.2389 18.6954 9.33459 18.0367 8.29029 18.1066L8.28446 18.1125ZM8.85036 21.5225C8.19695 22.0588 7.39185 21.3943 7.08264 20.7706C6.62175 19.8262 7.51436 19.1501 8.34863 18.9227C8.84453 18.9111 9.35792 19.1267 9.53878 19.6164C9.80131 20.3217 9.4046 21.0678 8.85036 21.5225Z" fill="#F2F2F2"/>
</g>
<defs>
<clipPath id="clip0_3961_134248">
<rect width="27" height="29" fill="white" transform="translate(0 0.898438)"/>
</clipPath>
</defs>
</svg>
