<svg width="36" height="36" viewBox="0 0 36 36" fill="none" xmlns="http://www.w3.org/2000/svg">
<rect x="0.25" y="0.25" width="35.5" height="35.5" rx="17.75" fill="white"/>
<path d="M10 25C10 25.5304 10.2107 26.0391 10.5858 26.4142C10.9609 26.7893 11.4696 27 12 27C12.5304 27 13.0391 26.7893 13.4142 26.4142C13.7893 26.0391 14 25.5304 14 25C14 24.4696 13.7893 23.9609 13.4142 23.5858C13.0391 23.2107 12.5304 23 12 23C11.4696 23 10.9609 23.2107 10.5858 23.5858C10.2107 23.9609 10 24.4696 10 25ZM21 25C21 25.5304 21.2107 26.0391 21.5858 26.4142C21.9609 26.7893 22.4696 27 23 27C23.5304 27 24.0391 26.7893 24.4142 26.4142C24.7893 26.0391 25 25.5304 25 25C25 24.4696 24.7893 23.9609 24.4142 23.5858C24.0391 23.2107 23.5304 23 23 23C22.4696 23 21.9609 23.2107 21.5858 23.5858C21.2107 23.9609 21 24.4696 21 25Z" stroke="#0E0E0E" stroke-width="2" stroke-linecap="round" stroke-linejoin="round"/>
<path d="M23 23H12V9H10" stroke="#0E0E0E" stroke-width="2" stroke-linecap="round" stroke-linejoin="round"/>
<path d="M11.9991 11L17.9991 11.429M25.1371 18.002L24.9941 19.002H11.9941M20.9991 12H26.9991M23.9991 9V15" stroke="#0E0E0E" stroke-width="2" stroke-linecap="round" stroke-linejoin="round"/>
<rect x="0.25" y="0.25" width="35.5" height="35.5" rx="17.75" stroke="#DDDDDD" stroke-width="0.5"/>
</svg>
