<svg width="12" height="12" viewBox="0 0 12 12" fill="none" xmlns="http://www.w3.org/2000/svg">
<rect width="12" height="12" rx="6" fill="#7C7C7C"/>
<path d="M8.11305 3.37136L3.37041 8.114L8.11305 3.37136ZM8.11305 8.114L3.37041 3.37136L8.11305 8.114Z" fill="white"/>
<path fill-rule="evenodd" clip-rule="evenodd" d="M3.17157 8.82843C2.81276 8.46962 2.81276 7.88788 3.17157 7.52907L4.70063 6.00001L3.17157 4.47094C2.81276 4.11213 2.81276 3.53039 3.17157 3.17158C3.53038 2.81277 4.11213 2.81277 4.47094 3.17158L6 4.70064L7.52906 3.17158C7.88787 2.81277 8.46962 2.81277 8.82843 3.17158C9.18724 3.53039 9.18724 4.11213 8.82843 4.47094L7.29936 6.00001L8.82843 7.52907C9.18724 7.88788 9.18724 8.46962 8.82843 8.82843C8.46962 9.18724 7.88787 9.18724 7.52906 8.82843L6 7.29937L4.47094 8.82843C4.11213 9.18724 3.53038 9.18724 3.17157 8.82843Z" fill="white"/>
</svg>
