<svg width="36" height="36" viewBox="0 0 36 36" fill="none" xmlns="http://www.w3.org/2000/svg">
<rect x="0.5" y="0.5" width="35" height="35" rx="17.5" fill="#7192F2"/>
<path d="M24.2987 11.7102C24.1119 11.5229 23.8583 11.4177 23.5938 11.4177C23.3292 11.4177 23.0756 11.5229 22.8888 11.7102L17.9988 16.5902L13.1087 11.7002C12.9219 11.5129 12.6683 11.4077 12.4038 11.4077C12.1392 11.4077 11.8856 11.5129 11.6987 11.7002C11.3088 12.0902 11.3088 12.7202 11.6987 13.1102L16.5887 18.0002L11.6987 22.8902C11.3088 23.2802 11.3088 23.9102 11.6987 24.3002C12.0888 24.6902 12.7188 24.6902 13.1087 24.3002L17.9988 19.4102L22.8888 24.3002C23.2788 24.6902 23.9087 24.6902 24.2987 24.3002C24.6888 23.9102 24.6888 23.2802 24.2987 22.8902L19.4087 18.0002L24.2987 13.1102C24.6788 12.7302 24.6788 12.0902 24.2987 11.7102Z" fill="white"/>
<rect x="0.5" y="0.5" width="35" height="35" rx="17.5" stroke="#DDDDDD"/>
</svg>
