<svg width="33" height="33" viewBox="0 0 33 33" fill="none" xmlns="http://www.w3.org/2000/svg">
<g clip-path="url(#clip0_889_1969)">
<path d="M-0.309499 8.22802H3.44729C3.57863 8.22802 3.70458 8.17585 3.79744 8.08298C3.89031 7.99012 3.94248 7.86416 3.94248 7.73283C3.94248 7.6015 3.89031 7.47555 3.79744 7.38268C3.70458 7.28982 3.57863 7.23764 3.44729 7.23764H-0.309499C-0.440831 7.23764 -0.566784 7.28982 -0.65965 7.38268C-0.752516 7.47555 -0.804687 7.6015 -0.804688 7.73283C-0.804687 7.86416 -0.752516 7.99012 -0.65965 8.08298C-0.566784 8.17585 -0.440831 8.22802 -0.309499 8.22802ZM0.18569 9.71359C0.185687 9.77862 0.198494 9.84301 0.223379 9.90309C0.248264 9.96317 0.284739 10.0178 0.330722 10.0637C0.376705 10.1097 0.431295 10.1462 0.491375 10.1711C0.551455 10.196 0.615849 10.2088 0.680878 10.2088H4.43767C4.569 10.2088 4.69496 10.1566 4.78782 10.0637C4.88069 9.97087 4.93286 9.84492 4.93286 9.71359C4.93286 9.58225 4.88069 9.4563 4.78782 9.36344C4.69496 9.27057 4.569 9.2184 4.43767 9.2184H0.680878C0.615849 9.2184 0.551455 9.2312 0.491375 9.25609C0.431295 9.28097 0.376705 9.31745 0.330722 9.36343C0.284739 9.40941 0.248264 9.464 0.223379 9.52408C0.198494 9.58416 0.185687 9.64856 0.18569 9.71359ZM32.505 26.4024H30.6322C31.264 25.8434 31.6858 25.0853 31.8277 24.2537C31.9871 23.308 31.777 22.3373 31.2408 21.5422L31.5237 21.3738C31.5796 21.3406 31.6284 21.2966 31.6673 21.2445C31.7062 21.1924 31.7345 21.1332 31.7505 21.0701C31.7665 21.0071 31.7699 20.9415 31.7606 20.8772C31.7512 20.8128 31.7293 20.7509 31.6961 20.695C31.2428 19.9353 30.5739 19.3275 29.7744 18.9488C28.9749 18.5701 28.0808 18.4377 27.2058 18.5683C26.7836 17.5636 26.349 16.1313 25.928 14.7431C25.6826 13.9339 25.4308 13.1039 25.1789 12.3495H25.4477C25.5127 12.3495 25.5771 12.3367 25.6372 12.3118C25.6972 12.2869 25.7518 12.2504 25.7978 12.2044C25.8438 12.1585 25.8803 12.1039 25.9052 12.0438C25.93 11.9837 25.9429 11.9193 25.9428 11.8543V8.94311C25.9429 8.87808 25.93 8.81369 25.9052 8.75361C25.8803 8.69353 25.8438 8.63894 25.7978 8.59296C25.7518 8.54697 25.6972 8.5105 25.6372 8.48562C25.5771 8.46073 25.5127 8.44792 25.4477 8.44793H23.4428C23.0118 8.44849 22.593 8.59153 22.2518 8.8548C21.9105 9.11806 21.6658 9.48676 21.5559 9.90351H19.6612C19.5298 9.90351 19.4039 9.95568 19.311 10.0485C19.2182 10.1414 19.166 10.2674 19.166 10.3987C19.166 10.53 19.2182 10.656 19.311 10.7488C19.4039 10.8417 19.5298 10.8939 19.6612 10.8939H21.5559C21.6293 11.1726 21.7637 11.4315 21.9494 11.652C21.9537 11.6811 21.9606 11.7097 21.97 11.7375C22.2458 12.5447 22.7315 14.3583 22.7664 14.523C23.3081 17.0812 23.3839 20.2561 20.669 20.854C20.0759 20.9814 19.4596 20.9494 18.883 20.7612C18.3063 20.573 17.7898 20.2353 17.3861 19.7825C16.3645 18.6129 16.2967 16.8128 17.2207 15.404C17.4757 15.2415 17.6711 15.0007 17.7775 14.7177C17.8839 14.4347 17.8957 14.1248 17.8109 13.8346C17.7262 13.5444 17.5495 13.2895 17.3076 13.1082C17.0656 12.927 16.7713 12.8291 16.4689 12.8294H14.664C14.6723 12.7747 14.6767 12.7196 14.6772 12.6643V6.76286C14.6768 6.45653 14.555 6.16284 14.3384 5.94623C14.1218 5.72962 13.8281 5.60777 13.5217 5.60742H7.07867C6.77234 5.60777 6.47865 5.72962 6.26204 5.94623C6.04543 6.16284 5.92358 6.45653 5.92323 6.76286V12.6643C5.92358 12.9706 6.04543 13.2643 6.26204 13.4809C6.47865 13.6976 6.77234 13.8194 7.07867 13.8198H7.84986C7.77186 14.0746 7.76864 14.3464 7.8406 14.603C7.91256 14.8595 8.05667 15.0901 8.2558 15.2671C8.08479 15.3467 7.91743 15.4326 7.75505 15.5264C6.05825 16.5071 4.62266 18.417 4.09761 20.3924C3.77062 21.6228 3.84331 22.7405 4.30093 23.5445L4.30207 23.5466C4.30588 23.5532 4.30918 23.5603 4.31303 23.5669C4.31481 23.57 4.31708 23.5727 4.31892 23.5757C4.32644 23.588 4.33457 23.5999 4.34314 23.6116C4.34606 23.6155 4.34867 23.6197 4.35169 23.6235C4.3633 23.6383 4.37574 23.6523 4.38895 23.6656C4.39284 23.6695 4.39693 23.6732 4.40093 23.677C4.41151 23.687 4.42252 23.6966 4.43398 23.7057C4.43815 23.709 4.44228 23.7123 4.44655 23.7155C4.46119 23.7264 4.47642 23.7365 4.49218 23.7458L4.49471 23.7474C4.51204 23.7572 4.52995 23.7661 4.54834 23.7738C4.55228 23.7754 4.55631 23.7767 4.56026 23.7783C4.57441 23.7838 4.5889 23.7888 4.60373 23.7931C4.60947 23.7947 4.61519 23.7963 4.62098 23.7977C4.62626 23.799 4.63134 23.8008 4.63671 23.802C4.64596 23.804 4.65518 23.805 4.66442 23.8064C4.66972 23.8072 4.67496 23.8083 4.68031 23.809C4.70068 23.8117 4.7212 23.8131 4.74174 23.8132L4.74457 23.813L4.74742 23.813L6.50298 23.7901C6.52773 24.2883 6.65263 24.7764 6.87023 25.2252C7.08783 25.674 7.39367 26.0744 7.76947 26.4024H-0.309499C-0.440831 26.4024 -0.566784 26.4546 -0.65965 26.5474C-0.752516 26.6403 -0.804687 26.7662 -0.804688 26.8976C-0.804687 27.0289 -0.752516 27.1549 -0.65965 27.2477C-0.566784 27.3406 -0.440831 27.3928 -0.309499 27.3928H32.505C32.6363 27.3928 32.7623 27.3406 32.8552 27.2477C32.948 27.1549 33.0002 27.0289 33.0002 26.8976C33.0002 26.7662 32.948 26.6403 32.8552 26.5474C32.7623 26.4546 32.6363 26.4024 32.505 26.4024ZM27.8614 19.5091C28.3788 19.5086 28.8897 19.6238 29.3568 19.8461C29.824 20.0684 30.2355 20.3922 30.5614 20.794L30.3242 20.9351C30.2674 20.9561 30.2148 20.9873 30.1693 21.0273L24.4702 24.4186C24.152 23.6489 24.1212 22.7903 24.3835 21.9997C24.6458 21.2092 25.1837 20.5393 25.899 20.1125L26.0953 19.9957C26.6293 19.677 27.2396 19.5089 27.8614 19.5091ZM28.8987 23.7516C28.8698 23.9206 28.7835 24.0745 28.6545 24.1874C28.5255 24.3002 28.3615 24.3653 28.1902 24.3715C28.0188 24.3778 27.8506 24.3248 27.7137 24.2216C27.5768 24.1184 27.4796 23.9712 27.4384 23.8048L28.6665 23.074C28.7588 23.1585 28.8285 23.2648 28.8691 23.3832C28.9097 23.5016 28.9198 23.6283 28.8987 23.7516ZM22.4824 10.3987C22.4827 10.1441 22.584 9.89996 22.764 9.71992C22.9441 9.53987 23.1882 9.43859 23.4428 9.4383H24.9525V11.3591H23.4428C23.1882 11.3588 22.9441 11.2575 22.764 11.0775C22.584 10.8974 22.4827 10.6533 22.4824 10.3987ZM16.4689 13.8198C16.5765 13.8197 16.6798 13.8622 16.7561 13.938C16.8325 14.0138 16.8757 14.1167 16.8765 14.2243C16.8773 14.3319 16.8354 14.4354 16.7601 14.5123C16.6849 14.5891 16.5822 14.6331 16.4747 14.6346H11.7622C11.4544 14.617 11.1458 14.6171 10.8381 14.6348H9.18684C9.13328 14.6349 9.08022 14.6244 9.03072 14.604C8.98121 14.5835 8.93622 14.5535 8.89832 14.5157C8.86042 14.4778 8.83036 14.4329 8.80984 14.3834C8.78933 14.3339 8.77877 14.2809 8.77877 14.2273C8.77877 14.1737 8.78933 14.1207 8.80984 14.0712C8.83036 14.0217 8.86042 13.9768 8.89832 13.9389C8.93622 13.9011 8.98121 13.8711 9.03072 13.8506C9.08022 13.8302 9.13328 13.8197 9.18684 13.8198H16.4689ZM7.07868 12.8294C7.03491 12.8293 6.99296 12.8119 6.96201 12.781C6.93107 12.75 6.91366 12.7081 6.91361 12.6643V6.76286C6.91366 6.7191 6.93107 6.67714 6.96201 6.6462C6.99296 6.61525 7.03491 6.59785 7.07868 6.5978H13.5217C13.5655 6.59785 13.6075 6.61525 13.6384 6.6462C13.6694 6.67714 13.6868 6.7191 13.6868 6.76286V12.6643C13.6868 12.7081 13.6694 12.75 13.6384 12.781C13.6075 12.8119 13.5655 12.8293 13.5217 12.8294H7.07868ZM5.05472 20.6468C5.51561 18.9128 6.77009 17.2396 8.25062 16.3839C9.05198 15.9317 9.94752 15.6719 10.8665 15.6252H15.9809C15.2771 17.2587 15.5091 19.139 16.6402 20.434C17.1615 21.0195 17.8288 21.4563 18.5739 21.7C19.319 21.9437 20.1154 21.9855 20.882 21.8211C23.6189 21.2184 24.6322 18.5537 23.7353 14.3179C23.7016 14.1585 23.4429 13.1856 23.1923 12.3328C23.2754 12.3437 23.359 12.3493 23.4428 12.3495H24.1331C24.4154 13.1681 24.7019 14.113 24.9802 15.0305C25.3915 16.3868 25.8157 17.7845 26.2407 18.826C26.0151 18.9144 25.7971 19.0209 25.5888 19.1446L25.3925 19.2614C24.8033 19.6122 24.303 20.0944 23.9309 20.6703C23.5587 21.2463 23.3247 21.9005 23.2471 22.5819L15.66 22.6806C15.1599 20.3821 13.5551 18.5408 11.5634 18.0306C10.2069 17.6829 8.6658 17.9554 7.33517 18.7779C6.30514 19.4224 5.46722 20.3319 4.90902 21.4111C4.93845 21.153 4.98715 20.8976 5.05472 20.6468ZM5.38992 22.8141C5.82479 21.4774 6.70056 20.3345 7.85589 19.6204C8.95885 18.9387 10.2207 18.709 11.3176 18.9899C12.8947 19.394 14.1814 20.8485 14.6464 22.6937L5.38992 22.8141ZM10.9514 23.7323C10.9219 23.9041 10.8332 24.0601 10.7007 24.1733C10.5682 24.2865 10.4002 24.3498 10.2259 24.352C10.0516 24.3543 9.88201 24.2955 9.74657 24.1857C9.61114 24.076 9.51841 23.9223 9.48447 23.7514L10.9514 23.7323ZM10.2165 26.3334C9.52306 26.3325 8.85593 26.0678 8.35046 25.5931C7.84499 25.1184 7.53903 24.4692 7.49465 23.7772L8.48714 23.7643C8.527 24.1995 8.7295 24.6037 9.05422 24.8962C9.37895 25.1887 9.80202 25.348 10.239 25.3423C10.676 25.3366 11.0948 25.1664 11.4118 24.8655C11.7288 24.5647 11.9207 24.1554 11.9493 23.7193L12.9417 23.7064C12.9149 24.4115 12.6162 25.079 12.1081 25.5687C11.6001 26.0584 10.9222 26.3325 10.2165 26.3334ZM12.6624 26.4024C13.0505 26.0637 13.3638 25.648 13.5825 25.1816C13.8011 24.7152 13.9203 24.2084 13.9324 23.6935L15.2205 23.6767C15.2429 23.678 15.2653 23.6777 15.2876 23.6759L23.2431 23.5724C23.3109 24.2073 23.5152 24.8201 23.842 25.3686C23.8753 25.4245 23.9192 25.4733 23.9713 25.5122C24.0234 25.5511 24.0827 25.5794 24.1457 25.5954C24.2087 25.6114 24.2743 25.6148 24.3387 25.6055C24.403 25.5961 24.4649 25.5742 24.5208 25.541L24.8625 25.3376C25.0718 25.7402 25.3531 26.1011 25.6924 26.4024H12.6624ZM28.1643 26.3535C27.6546 26.3535 27.1551 26.2108 26.7223 25.9415C26.2896 25.6722 25.9408 25.2872 25.7156 24.83L26.5721 24.3203C26.6706 24.5461 26.816 24.7484 26.9987 24.9136C27.1814 25.0789 27.3972 25.2034 27.6317 25.2789C27.8662 25.3543 28.114 25.379 28.3588 25.3513C28.6036 25.3236 28.8397 25.2442 29.0514 25.1182C29.2631 24.9922 29.4456 24.8226 29.5867 24.6207C29.7278 24.4188 29.8243 24.1891 29.8698 23.947C29.9154 23.7049 29.9089 23.4559 29.8507 23.2165C29.7926 22.9771 29.6842 22.7528 29.5327 22.5586L30.3887 22.0492C30.5972 22.341 30.7456 22.6715 30.825 23.0212C30.9045 23.371 30.9135 23.7331 30.8515 24.0864C30.7421 24.7201 30.4126 25.295 29.9211 25.7097C29.4295 26.1244 28.8074 26.3524 28.1643 26.3535ZM-0.309499 12.1895H3.44729C3.57863 12.1895 3.70458 12.1374 3.79744 12.0445C3.89031 11.9516 3.94248 11.8257 3.94248 11.6943C3.94248 11.563 3.89031 11.4371 3.79744 11.3442C3.70458 11.2513 3.57863 11.1992 3.44729 11.1992H-0.309499C-0.440831 11.1992 -0.566784 11.2513 -0.65965 11.3442C-0.752516 11.4371 -0.804687 11.563 -0.804688 11.6943C-0.804687 11.8257 -0.752516 11.9516 -0.65965 12.0445C-0.566784 12.1374 -0.440831 12.1895 -0.309499 12.1895Z" fill="#727272"/>
<path d="M11.1877 8.45172C11.1148 8.32526 11.0088 8.22101 10.8812 8.15012C10.7536 8.07923 10.6092 8.04437 10.4633 8.04928H9.65839C9.44493 8.04928 9.2402 8.13408 9.08926 8.28503C8.93832 8.43597 8.85352 8.6407 8.85352 8.85416C8.85352 9.06763 8.93832 9.27235 9.08926 9.4233C9.2402 9.57424 9.44493 9.65904 9.65839 9.65904H10.4633C10.6767 9.65904 10.8815 9.74384 11.0324 9.89478C11.1834 10.0457 11.2681 10.2505 11.2681 10.4639C11.2681 10.6774 11.1834 10.8821 11.0324 11.0331C10.8815 11.184 10.6767 11.2688 10.4633 11.2688H9.65839C9.51251 11.2737 9.36803 11.2389 9.24043 11.168C9.11283 11.0971 9.00691 10.9928 8.934 10.8664" stroke="#727272" stroke-width="0.643902" stroke-linecap="round" stroke-linejoin="round"/>
<path d="M10.0605 11.2685V12.0734M10.0605 7.24414V8.04902V7.24414Z" stroke="#727272" stroke-width="0.643902" stroke-linecap="round" stroke-linejoin="round"/>
</g>
<defs>
<clipPath id="clip0_889_1969">
<rect width="33" height="33" fill="white"/>
</clipPath>
</defs>
</svg>
