<svg width="34" height="34" viewBox="0 0 34 34" fill="none" xmlns="http://www.w3.org/2000/svg">
<path d="M2.05665 12.2241H5.83512C5.96722 12.2241 6.0939 12.1717 6.1873 12.0783C6.2807 11.9849 6.33317 11.8582 6.33317 11.7261C6.33317 11.594 6.2807 11.4673 6.1873 11.3739C6.0939 11.2805 5.96722 11.228 5.83512 11.228H2.05665C1.92456 11.228 1.79788 11.2805 1.70448 11.3739C1.61107 11.4673 1.5586 11.594 1.5586 11.7261C1.5586 11.8582 1.61107 11.9849 1.70448 12.0783C1.79788 12.1717 1.92456 12.2241 2.05665 12.2241ZM1.06055 14.2163H5.83512C5.96722 14.2163 6.0939 14.1638 6.1873 14.0704C6.2807 13.977 6.33317 13.8504 6.33317 13.7183C6.33317 13.5862 6.2807 13.4595 6.1873 13.3661C6.0939 13.2727 5.96722 13.2202 5.83512 13.2202H1.06055C0.928464 13.2202 0.801784 13.2727 0.708382 13.3661C0.61498 13.4595 0.562507 13.5862 0.562507 13.7183C0.562507 13.8504 0.61498 13.977 0.708382 14.0704C0.801784 14.1638 0.928464 14.2163 1.06055 14.2163ZM3.05274 10.2319H5.83512C5.96722 10.2319 6.0939 10.1795 6.1873 10.0861C6.2807 9.99267 6.33317 9.86599 6.33317 9.7339C6.33317 9.60181 6.2807 9.47513 6.1873 9.38173C6.0939 9.28833 5.96722 9.23585 5.83512 9.23585H3.05274C2.92065 9.23585 2.79397 9.28833 2.70057 9.38173C2.60717 9.47513 2.55469 9.60181 2.55469 9.7339C2.55469 9.86599 2.60717 9.99267 2.70057 10.0861C2.79397 10.1795 2.92065 10.2319 3.05274 10.2319ZM33.502 28.4883H32.2088C32.8301 27.9283 33.2439 27.1748 33.3832 26.3501C33.5436 25.399 33.3323 24.4226 32.793 23.623L33.0775 23.4537C33.1337 23.4202 33.1828 23.376 33.2219 23.3236C33.2611 23.2712 33.2895 23.2116 33.3056 23.1482C33.3217 23.0848 33.3251 23.0189 33.3157 22.9542C33.3064 22.8894 33.2843 22.8272 33.2509 22.771C32.7951 22.0063 32.1223 21.3944 31.318 21.0131C30.5136 20.6317 29.6141 20.4981 28.7336 20.6292C28.3093 19.6188 27.8725 18.1796 27.4495 16.7846C27.2027 15.9708 26.9494 15.136 26.696 14.3772H26.9664C27.0318 14.3772 27.0966 14.3643 27.157 14.3393C27.2174 14.3142 27.2723 14.2776 27.3186 14.2313C27.3648 14.1851 27.4015 14.1302 27.4265 14.0697C27.4516 14.0093 27.4644 13.9445 27.4644 13.8791V10.9512C27.4644 10.8858 27.4516 10.821 27.4265 10.7606C27.4015 10.7001 27.3648 10.6452 27.3186 10.599C27.2723 10.5527 27.2174 10.5161 27.157 10.491C27.0966 10.466 27.0318 10.4531 26.9664 10.4531H24.9499C24.5164 10.4537 24.0953 10.5976 23.7521 10.8623C23.4088 11.1271 23.1627 11.4979 23.0521 11.9171H21.1465C21.0144 11.9171 20.8877 11.9696 20.7943 12.063C20.7009 12.1564 20.6485 12.2831 20.6485 12.4151C20.6485 12.5472 20.7009 12.6739 20.7943 12.7673C20.8877 12.8607 21.0144 12.9132 21.1465 12.9132H23.0521C23.126 13.1935 23.2612 13.4539 23.4479 13.6757C23.4523 13.7049 23.4592 13.7337 23.4686 13.7617C23.7461 14.5737 24.2346 16.3977 24.2697 16.5633C24.8145 19.1362 24.8907 22.3294 22.1601 22.9308C21.5636 23.0589 20.9438 23.0267 20.3638 22.8374C19.7838 22.6481 19.2643 22.3085 18.8583 21.8532C17.8308 20.6768 17.7626 18.8663 18.6919 17.4493C18.9484 17.2859 19.1449 17.0437 19.2519 16.7591C19.359 16.4745 19.3708 16.1628 19.2856 15.8709C19.2003 15.579 19.0227 15.3226 18.7793 15.1403C18.5359 14.958 18.2399 14.8596 17.9358 14.8599H17.5106C17.519 14.8049 17.5235 14.7493 17.5239 14.6937V12.7995C18.2194 12.7367 18.8877 12.4994 19.4671 12.1096C20.0465 11.7198 20.5181 11.1902 20.8384 10.5697C21.1587 9.94923 21.3173 9.25796 21.2994 8.55991C21.2816 7.86187 21.0879 7.1796 20.7363 6.57629C20.3848 5.97298 19.8866 5.46813 19.2881 5.10848C18.6896 4.74883 18.01 4.546 17.3122 4.51878C16.6145 4.49156 15.9212 4.64082 15.2964 4.95275C14.6717 5.26468 14.1358 5.72919 13.7382 6.30328H8.49137C8.18327 6.30363 7.88789 6.42618 7.67003 6.64404C7.45217 6.8619 7.32962 7.15728 7.32927 7.46539V14.6937C7.32962 15.0018 7.45217 15.2972 7.67003 15.5151C7.88789 15.7329 8.18327 15.8555 8.49137 15.8558H9.26706C9.18856 16.1121 9.18531 16.3856 9.25768 16.6436C9.33006 16.9017 9.47501 17.1336 9.67533 17.3117C9.50332 17.3917 9.33501 17.4782 9.17171 17.5726C7.46509 18.5588 6.02115 20.4798 5.49311 22.4665C5.16427 23.7037 5.23734 24.8276 5.69727 25.6361C5.69798 25.6375 5.69874 25.6388 5.69947 25.6402C5.70306 25.6465 5.70617 25.6532 5.7098 25.6594C5.71149 25.6623 5.71363 25.6648 5.71536 25.6677C5.72322 25.6806 5.73167 25.6931 5.7407 25.7052C5.74336 25.7088 5.74575 25.7126 5.74851 25.7162C5.76029 25.7311 5.77291 25.7453 5.78631 25.7588C5.79004 25.7626 5.79399 25.7661 5.79785 25.7698C5.80866 25.7801 5.81994 25.7899 5.83169 25.7992C5.83574 25.8024 5.83974 25.8056 5.84388 25.8087C5.85886 25.8199 5.87446 25.8302 5.89061 25.8397L5.89238 25.8408C5.90988 25.8508 5.92798 25.8597 5.94656 25.8675C5.95038 25.8691 5.95431 25.8704 5.95817 25.8719C5.97254 25.8775 5.98724 25.8825 6.00229 25.8869C6.00799 25.8885 6.01368 25.8901 6.01944 25.8915C6.02477 25.8929 6.0299 25.8946 6.03531 25.8958C6.04468 25.8978 6.05402 25.8988 6.06337 25.9003C6.06861 25.9011 6.07378 25.9022 6.07907 25.9028C6.09958 25.9056 6.12023 25.907 6.14092 25.9071C6.1421 25.9071 6.14323 25.9068 6.14441 25.9068L6.14669 25.9068L7.9124 25.8838C7.937 26.3791 8.06007 26.8646 8.27442 27.3117C8.48877 27.7589 8.7901 28.1589 9.1608 28.4883H0.498047C0.365957 28.4883 0.239276 28.5408 0.145875 28.6342C0.0524726 28.7276 0 28.8542 0 28.9863C0 29.1184 0.0524726 29.2451 0.145875 29.3385C0.239276 29.4319 0.365957 29.4844 0.498047 29.4844H33.502C33.634 29.4844 33.7607 29.4319 33.8541 29.3385C33.9475 29.2451 34 29.1184 34 28.9863C34 28.8542 33.9475 28.7276 33.8541 28.6342C33.7607 28.5408 33.634 28.4883 33.502 28.4883ZM29.3941 21.5782C29.9144 21.5777 30.4283 21.6935 30.8981 21.9171C31.3679 22.1407 31.7818 22.4664 32.1096 22.8705L31.8709 23.0125C31.8139 23.0336 31.7612 23.0649 31.7155 23.105L25.9833 26.516C25.6632 25.7418 25.6322 24.8783 25.8961 24.0832C26.1599 23.2881 26.7009 22.6144 27.4203 22.1851L27.6177 22.0676C28.1548 21.747 28.7687 21.5779 29.3941 21.5782ZM30.4373 25.8451C30.4082 26.0151 30.3215 26.1698 30.1917 26.2834C30.062 26.3969 29.8971 26.4623 29.7247 26.4686C29.5524 26.4749 29.3832 26.4217 29.2455 26.3179C29.1078 26.2141 29.0101 26.066 28.9687 25.8987L30.2038 25.1637C30.2967 25.2486 30.3668 25.3555 30.4076 25.4746C30.4484 25.5937 30.4586 25.7211 30.4373 25.8451H30.4373ZM23.984 12.4151C23.9843 12.1591 24.0862 11.9135 24.2672 11.7325C24.4483 11.5514 24.6938 11.4495 24.9499 11.4492H26.4683V13.3811H24.9499C24.6938 13.3808 24.4483 13.2789 24.2672 13.0978C24.0862 12.9168 23.9843 12.6712 23.984 12.4151ZM17.9358 15.856C18.0441 15.8559 18.148 15.8987 18.2248 15.975C18.3016 16.0513 18.3451 16.1549 18.3458 16.2632C18.3465 16.3714 18.3043 16.4756 18.2284 16.5528C18.1526 16.6301 18.0492 16.6742 17.941 16.6755H13.202C12.8926 16.6578 12.5824 16.6579 12.273 16.6758H10.6117C10.503 16.6758 10.3987 16.6326 10.3219 16.5557C10.245 16.4788 10.2018 16.3746 10.2018 16.2659C10.2018 16.1571 10.245 16.0529 10.3219 15.976C10.3987 15.8991 10.503 15.856 10.6117 15.856H17.9358ZM17.1475 5.51172C17.7715 5.51163 18.3815 5.69658 18.9003 6.04318C19.4192 6.38978 19.8236 6.88245 20.0625 7.4589C20.3013 8.03535 20.3639 8.66968 20.2422 9.28168C20.1205 9.89367 19.8201 10.4558 19.3789 10.8971C18.9377 11.3383 18.3756 11.6388 17.7636 11.7606C17.1516 11.8824 16.5173 11.8199 15.9408 11.5812C15.3643 11.3424 14.8716 10.938 14.5249 10.4192C14.1782 9.90043 13.9932 9.29048 13.9932 8.6665C13.9941 7.83015 14.3267 7.0283 14.918 6.43687C15.5094 5.84544 16.3112 5.51272 17.1475 5.51172ZM8.49137 14.8597C8.44736 14.8597 8.40516 14.8422 8.37404 14.811C8.34292 14.7799 8.32541 14.7377 8.32536 14.6937V7.46539C8.32541 7.42137 8.34292 7.37918 8.37404 7.34805C8.40516 7.31693 8.44736 7.29942 8.49137 7.29937H13.2295C13.0282 7.8753 12.9563 8.48854 13.0191 9.0954C13.0819 9.70226 13.2778 10.2878 13.5928 10.8103C13.9078 11.3328 14.3341 11.7794 14.8414 12.1183C15.3487 12.4572 15.9246 12.68 16.5279 12.7709V14.6937C16.5278 14.7377 16.5103 14.7799 16.4792 14.811C16.4481 14.8422 16.4059 14.8597 16.3618 14.8597H8.49137ZM6.45577 22.7224C6.91929 20.9784 8.181 19.2955 9.67012 18.4349C10.4759 17.98 11.3765 17.7188 12.3006 17.6718H17.445C16.7372 19.3148 16.9705 21.2059 18.1081 22.5084C18.6325 23.0973 19.3035 23.5366 20.053 23.7817C20.8024 24.0267 21.6034 24.0688 22.3744 23.9035C25.1271 23.2973 26.1463 20.6173 25.2442 16.357C25.2103 16.1968 24.9501 15.2183 24.698 14.3605C24.7815 14.3714 24.8657 14.377 24.9499 14.3772H25.6443C25.9282 15.2006 26.2164 16.1509 26.4962 17.0737C26.9098 18.4376 27.3364 19.8432 27.7638 20.8907C27.5371 20.9799 27.3179 21.0872 27.1084 21.2116L26.9109 21.3291C26.4042 21.6287 25.9619 22.0259 25.6097 22.4977C25.2575 22.9694 25.0024 23.5063 24.8591 24.0773C24.81 24.2719 24.7739 24.4694 24.7509 24.6687L17.1223 24.7679C16.6192 22.4563 15.0052 20.6043 13.002 20.091C11.6376 19.7415 10.0877 20.0155 8.74928 20.8428C7.71334 21.491 6.8706 22.4057 6.30921 23.4911C6.3388 23.2316 6.38779 22.9746 6.45577 22.7224ZM6.79288 24.9022C7.23025 23.5578 8.11104 22.4084 9.27304 21.6901C10.3823 21.0044 11.6514 20.7732 12.7547 21.056C14.3409 21.4624 15.6351 22.9253 16.1028 24.7812L6.79288 24.9022ZM12.3865 25.8257C12.3569 25.9984 12.2676 26.1554 12.1343 26.2693C12.001 26.3831 11.8321 26.4467 11.6568 26.449C11.4815 26.4513 11.3109 26.3921 11.1747 26.2818C11.0385 26.1714 10.9452 26.0168 10.9111 25.8448L12.3865 25.8257ZM11.6473 28.4418C10.9499 28.4409 10.2789 28.1747 9.77052 27.6973C9.26212 27.2198 8.9544 26.5669 8.90978 25.8709L9.908 25.8579C9.94809 26.2956 10.1518 26.7021 10.4784 26.9963C10.805 27.2905 11.2305 27.4507 11.67 27.445C12.1095 27.4393 12.5307 27.268 12.8495 26.9655C13.1684 26.6629 13.3614 26.2512 13.3901 25.8126L14.3883 25.7996C14.3614 26.5089 14.0609 27.1801 13.5499 27.6727C13.0389 28.1653 12.3571 28.4409 11.6473 28.4418ZM14.1339 28.4883C14.5166 28.148 14.8253 27.7325 15.0405 27.2677C15.2557 26.8029 15.3728 26.2987 15.3847 25.7867L16.68 25.7698C16.7027 25.7711 16.7254 25.7708 16.748 25.7689L24.7463 25.6649C24.8157 26.3036 25.0222 26.9198 25.3515 27.4715C25.3849 27.5277 25.4291 27.5768 25.4815 27.6159C25.5339 27.655 25.5935 27.6835 25.6569 27.6996C25.7203 27.7157 25.7863 27.7191 25.851 27.7097C25.9157 27.7003 25.978 27.6783 26.0342 27.6448L26.3779 27.4403C26.5824 27.8348 26.8556 28.1897 27.1847 28.4883H14.1339ZM31.2816 27.9581C30.9576 28.1873 30.5878 28.3434 30.1976 28.4158C29.8074 28.4882 29.4061 28.475 29.0215 28.3772C28.6369 28.2795 28.2781 28.0994 27.9698 27.8495C27.6615 27.5996 27.4111 27.2858 27.2359 26.9298L28.0974 26.4171C28.1964 26.6442 28.3427 26.8476 28.5264 27.0139C28.7102 27.1801 28.9272 27.3053 29.163 27.3812C29.3989 27.4571 29.6482 27.482 29.8944 27.4541C30.1406 27.4262 30.378 27.3463 30.5909 27.2196C30.8038 27.0929 30.9874 26.9223 31.1293 26.7193C31.2712 26.5162 31.3683 26.2852 31.4141 26.0417C31.4599 25.7982 31.4533 25.5477 31.3949 25.307C31.3364 25.0662 31.2274 24.8406 31.075 24.6452L31.9359 24.133C32.1443 24.427 32.2927 24.7593 32.3725 25.1107C32.4524 25.4622 32.4623 25.8259 32.4015 26.1811C32.3407 26.5364 32.2106 26.8762 32.0184 27.1811C31.8262 27.486 31.5759 27.75 31.2816 27.9581V27.9581ZM17.1475 9.16455H18.5838C18.7159 9.16455 18.8425 9.11208 18.9359 9.01868C19.0293 8.92527 19.0818 8.79859 19.0818 8.6665C19.0818 8.53441 19.0293 8.40773 18.9359 8.31433C18.8425 8.22093 18.7159 8.16846 18.5838 8.16846H17.6456V6.78352C17.6456 6.65143 17.5931 6.52475 17.4997 6.43135C17.4063 6.33795 17.2796 6.28548 17.1475 6.28548C17.0154 6.28548 16.8888 6.33795 16.7954 6.43135C16.702 6.52475 16.6495 6.65143 16.6495 6.78352V8.6665C16.6495 8.79859 16.702 8.92527 16.7954 9.01868C16.8888 9.11208 17.0154 9.16455 17.1475 9.16455Z" fill="#727272"/>
</svg>
