<svg width="17" height="18" viewBox="0 0 17 18" fill="none" xmlns="http://www.w3.org/2000/svg">
<path d="M9.56242 5.50021L12.3958 8.33355M11.3333 13.646H14.1666M12.7499 12.2294V15.0627M5.66659 15.0627L13.1041 7.62521C13.2901 7.43917 13.4377 7.21831 13.5384 6.97524C13.6391 6.73217 13.6909 6.47165 13.6909 6.20855C13.6909 5.94545 13.6391 5.68493 13.5384 5.44185C13.4377 5.19878 13.2901 4.97792 13.1041 4.79188C12.918 4.60584 12.6972 4.45827 12.4541 4.35758C12.211 4.2569 11.9505 4.20508 11.6874 4.20508C11.4243 4.20508 11.1638 4.2569 10.9207 4.35758C10.6777 4.45827 10.4568 4.60584 10.2708 4.79188L2.83325 12.2294V15.0627H5.66659Z" stroke="#053754" stroke-linecap="round" stroke-linejoin="round"/>
</svg>
