<svg width="64" height="64" viewBox="0 0 64 64" fill="none" xmlns="http://www.w3.org/2000/svg">
<g filter="url(#filter0_dd_4_190175)">
<path d="M3 8C3 4.68629 5.68629 2 9 2H55C58.3137 2 61 4.68629 61 8V54C61 57.3137 58.3137 60 55 60H9C5.68629 60 3 57.3137 3 54V8Z" fill="#002401" shape-rendering="crispEdges"/>
<path d="M32 35.25H29.1667M36.0729 31H29.1667M39.0833 26.75H29.1667M21.7292 31.3542H25.2708M21.7292 27.1042H25.2708M44.75 39.8145V22.1855C44.75 20.7944 43.7633 19.6667 42.546 19.6667H27.1206C25.9034 19.6667 24.9167 20.7944 24.9167 22.1855V39.8145C24.9167 41.2057 25.9034 42.3334 27.1206 42.3334H42.546C43.7633 42.3334 44.75 41.2057 44.75 39.8145Z" stroke="white" stroke-width="1.5" stroke-linecap="round" stroke-linejoin="round"/>
</g>
<defs>
<filter id="filter0_dd_4_190175" x="0" y="0" width="64" height="64" filterUnits="userSpaceOnUse" color-interpolation-filters="sRGB">
<feFlood flood-opacity="0" result="BackgroundImageFix"/>
<feColorMatrix in="SourceAlpha" type="matrix" values="0 0 0 0 0 0 0 0 0 0 0 0 0 0 0 0 0 0 127 0" result="hardAlpha"/>
<feOffset dy="1"/>
<feGaussianBlur stdDeviation="1.5"/>
<feComposite in2="hardAlpha" operator="out"/>
<feColorMatrix type="matrix" values="0 0 0 0 0 0 0 0 0 0.698039 0 0 0 0 0.027451 0 0 0 0.1 0"/>
<feBlend mode="normal" in2="BackgroundImageFix" result="effect1_dropShadow_4_190175"/>
<feColorMatrix in="SourceAlpha" type="matrix" values="0 0 0 0 0 0 0 0 0 0 0 0 0 0 0 0 0 0 127 0" result="hardAlpha"/>
<feMorphology radius="1" operator="erode" in="SourceAlpha" result="effect2_dropShadow_4_190175"/>
<feOffset dy="1"/>
<feGaussianBlur stdDeviation="1"/>
<feComposite in2="hardAlpha" operator="out"/>
<feColorMatrix type="matrix" values="0 0 0 0 0.172549 0 0 0 0 0.454902 0 0 0 0 0.184314 0 0 0 0.1 0"/>
<feBlend mode="normal" in2="effect1_dropShadow_4_190175" result="effect2_dropShadow_4_190175"/>
<feBlend mode="normal" in="SourceGraphic" in2="effect2_dropShadow_4_190175" result="shape"/>
</filter>
</defs>
</svg>
