<svg width="18" height="20" viewBox="0 0 18 20" fill="none" xmlns="http://www.w3.org/2000/svg">
<path d="M17.6823 6.22301L9.46781 0.153773C9.18974 -0.0512575 8.80935 -0.0512575 8.53215 0.153773L0.317625 6.22301C-0.288365 6.67043 0.0308049 7.62695 0.78545 7.62695H1.36521V18.524C1.36521 19.3397 2.03066 20 2.85176 20H5.96303C5.92805 19.9062 5.90795 19.8045 5.90795 19.6985V14.1914C5.90795 13.7127 6.29795 13.3252 6.77977 13.3252H11.2211C11.7029 13.3252 12.0929 13.7127 12.0929 14.1914V19.6985C12.0929 19.8045 12.0728 19.9062 12.0378 20H15.1491C15.9702 20 16.6356 19.3389 16.6356 18.524V7.62695H17.2154C17.9692 7.62695 18.2883 6.67043 17.6823 6.22301Z" fill="#515250"/>
</svg>
