<svg width="64" height="64" viewBox="0 0 64 64" fill="none" xmlns="http://www.w3.org/2000/svg">
<g filter="url(#filter0_dd_4_70686)">
<path d="M3 8C3 4.68629 5.68629 2 9 2H55C58.3137 2 61 4.68629 61 8V54C61 57.3137 58.3137 60 55 60H9C5.68629 60 3 57.3137 3 54V8Z" fill="#002401" shape-rendering="crispEdges"/>
<path d="M28.2226 42.3332V34.7777C28.2226 34.1097 28.488 33.4691 28.9603 32.9968C29.4326 32.5245 30.0732 32.2591 30.7412 32.2591H33.2597C33.9276 32.2591 34.5682 32.5245 35.0405 32.9968C35.5129 33.4691 35.7782 34.1097 35.7782 34.7777V42.3332M23.1852 31H20.6667L32 19.6667L43.3333 31H40.8148V39.8148C40.8148 40.4828 40.5495 41.1234 40.0771 41.5957C39.6048 42.068 38.9642 42.3334 38.2963 42.3334H25.7037C25.0357 42.3334 24.3951 42.068 23.9228 41.5957C23.4505 41.1234 23.1852 40.4828 23.1852 39.8148V31Z" stroke="white" stroke-width="1.5" stroke-linecap="round" stroke-linejoin="round"/>
</g>
<defs>
<filter id="filter0_dd_4_70686" x="0" y="0" width="64" height="64" filterUnits="userSpaceOnUse" color-interpolation-filters="sRGB">
<feFlood flood-opacity="0" result="BackgroundImageFix"/>
<feColorMatrix in="SourceAlpha" type="matrix" values="0 0 0 0 0 0 0 0 0 0 0 0 0 0 0 0 0 0 127 0" result="hardAlpha"/>
<feOffset dy="1"/>
<feGaussianBlur stdDeviation="1.5"/>
<feComposite in2="hardAlpha" operator="out"/>
<feColorMatrix type="matrix" values="0 0 0 0 0 0 0 0 0 0.698039 0 0 0 0 0.027451 0 0 0 0.1 0"/>
<feBlend mode="normal" in2="BackgroundImageFix" result="effect1_dropShadow_4_70686"/>
<feColorMatrix in="SourceAlpha" type="matrix" values="0 0 0 0 0 0 0 0 0 0 0 0 0 0 0 0 0 0 127 0" result="hardAlpha"/>
<feMorphology radius="1" operator="erode" in="SourceAlpha" result="effect2_dropShadow_4_70686"/>
<feOffset dy="1"/>
<feGaussianBlur stdDeviation="1"/>
<feComposite in2="hardAlpha" operator="out"/>
<feColorMatrix type="matrix" values="0 0 0 0 0.172549 0 0 0 0 0.454902 0 0 0 0 0.184314 0 0 0 0.1 0"/>
<feBlend mode="normal" in2="effect1_dropShadow_4_70686" result="effect2_dropShadow_4_70686"/>
<feBlend mode="normal" in="SourceGraphic" in2="effect2_dropShadow_4_70686" result="shape"/>
</filter>
</defs>
</svg>
