<svg width="34" height="35" viewBox="0 0 34 35" fill="none" xmlns="http://www.w3.org/2000/svg">
<path d="M13.2225 28.8331V21.2776C13.2225 20.6096 13.4878 19.969 13.9602 19.4967C14.4325 19.0244 15.0731 18.7591 15.741 18.7591H18.2595C18.9275 18.7591 19.5681 19.0244 20.0404 19.4967C20.5127 19.969 20.778 20.6096 20.778 21.2776V28.8331M8.18502 17.5H5.6665L16.9998 6.16663L28.3332 17.5H25.8147V26.3148C25.8147 26.9827 25.5493 27.6233 25.077 28.0956C24.6047 28.568 23.9641 28.8333 23.2961 28.8333H10.7035C10.0356 28.8333 9.39499 28.568 8.92268 28.0956C8.45037 27.6233 8.18502 26.9827 8.18502 26.3148V17.5Z" stroke="#002401" stroke-width="1.5" stroke-linecap="round" stroke-linejoin="round"/>
</svg>
