<svg width="52" height="80" viewBox="0 0 52 80" fill="none" xmlns="http://www.w3.org/2000/svg">
<path d="M24.0147 10.5854C15.6466 10.5854 8.83984 17.3399 8.83984 25.6436V40.7017H24.0147C32.3828 40.7017 39.1896 33.9473 39.1896 25.6436C39.1896 17.3399 32.3828 10.5854 24.0147 10.5854ZM24.0147 32.2737H17.3332V25.6436C17.3332 21.9878 20.3306 19.0135 24.0147 19.0135C27.6988 19.0135 30.6985 21.9878 30.6985 25.6436C30.6985 29.2993 27.7011 32.2737 24.0147 32.2737Z" fill="#C2D0FA"/>
<path d="M16.2974 10.537C16.2626 10.4702 13.0054 10.9721 12.7803 10.9882C10.4117 11.154 7.96412 11.0872 5.66736 10.4449C4.4285 10.0973 1.15269 8.86567 0.250223 6.02946C0.122625 5.62429 -0.278716 4.29827 0.319833 2.85254C0.927663 1.38149 2.18508 0.720783 2.55163 0.534312C3.66058 -0.0274038 4.68832 0.000221544 5.16159 0.000221544C7.93859 0.0117321 10.2841 1.84191 12.0217 3.83094C13.7872 5.8522 15.0562 8.17964 16.2974 10.537Z" fill="#C2D0FA"/>
<path d="M17.3734 10.2403C17.4105 10.2173 17.0114 8.3963 16.9929 8.26968C16.8166 6.93906 16.7702 5.55318 17.0602 4.23407C17.2156 3.52272 17.8118 1.63038 19.4056 1.02492C19.633 0.937441 20.38 0.665791 21.2291 0.953556C22.0945 1.24592 22.5167 1.93426 22.635 2.13454C22.9946 2.7423 23.0155 3.32243 23.0294 3.58948C23.1176 5.15722 22.1501 6.54539 21.069 7.59516C19.9717 8.66104 18.6795 9.45987 17.371 10.2403H17.3734Z" fill="#C2D0FA"/>
<path d="M26.881 31.6318C22.4638 30.0986 19.2739 25.9778 19.1532 21.0996C18.0257 22.2875 17.332 23.8852 17.332 25.644V28.9659C17.9654 30.216 18.8191 31.3371 19.8492 32.2741H24.0159C25.0413 32.2741 26.0133 32.0439 26.8833 31.6318H26.881Z" fill="#C2D0FA"/>
<path d="M30.5107 27.1892C30.6313 26.692 30.6963 26.1717 30.6963 25.6376C30.6963 22.4722 28.4482 19.8179 25.4531 19.1641C25.9009 22.5113 27.8033 25.4028 30.5107 27.1892Z" fill="#C2D0FA"/>
<path d="M20.4467 79.6531C22.6889 79.6531 24.5066 77.8494 24.5066 75.6244C24.5066 73.3994 22.6889 71.5957 20.4467 71.5957C18.2044 71.5957 16.3867 73.3994 16.3867 75.6244C16.3867 77.8494 18.2044 79.6531 20.4467 79.6531Z" fill="#C2D0FA"/>
<path d="M35.9896 79.6531C38.2319 79.6531 40.0496 77.8494 40.0496 75.6244C40.0496 73.3994 38.2319 71.5957 35.9896 71.5957C33.7474 71.5957 31.9297 73.3994 31.9297 75.6244C31.9297 77.8494 33.7474 79.6531 35.9896 79.6531Z" fill="#C2D0FA"/>
<path d="M40.2289 36.9147L32.5359 41.9287C36.0994 43.63 38.5655 47.2466 38.5655 51.4249C38.5655 57.2332 33.8026 61.9594 27.9494 61.9594C22.0961 61.9594 17.3309 57.2332 17.3309 51.4249V40.8881L25.4508 40.6303C32.2598 40.3725 36.3291 34.4284 36.35 34.3985C33.8119 33.1599 30.963 32.4624 27.9494 32.4624H8.83984V51.4249C8.83984 61.8811 17.4121 70.3874 27.9494 70.3874C38.4866 70.3874 47.0589 61.8811 47.0589 51.4249C47.0589 45.6052 44.4002 40.3932 40.2289 36.9124V36.9147Z" fill="#C2D0FA"/>
<path d="M39.3636 47.5906L51.9336 39.1138L47.1596 32.1431L34.5896 40.62L39.3636 47.5906Z" fill="#C2D0FA"/>
</svg>
