<svg width="35" height="51" viewBox="0 0 35 51" fill="none" xmlns="http://www.w3.org/2000/svg">
<path d="M31.9019 0H3.09814C1.38988 0 0 1.95509 0 4.35813V46.6419C0 49.0449 1.38988 51 3.09814 51H31.9019C33.6101 51 35 49.0449 35 46.6419V4.35813C35 1.95509 33.6101 0 31.9019 0ZM2.6328 6.53608H32.3651C32.906 6.53608 33.3979 6.23157 33.7591 5.73949V15.5899C33.3958 15.0979 32.906 14.7934 32.3651 14.7934H2.6328C2.09195 14.7934 1.60009 15.0979 1.23885 15.5899V5.73949C1.60214 6.23157 2.09399 6.53608 2.6328 6.53608ZM33.7612 19.6634V30.4252C33.3979 29.9331 32.908 29.6286 32.3672 29.6286H2.6328C2.09195 29.6286 1.60009 29.9331 1.23885 30.4252V19.6634C1.60214 20.1555 2.09195 20.46 2.6328 20.46H32.3651C32.906 20.46 33.3979 20.1555 33.7612 19.6634ZM32.3672 44.4617H2.6328C2.09195 44.4617 1.60009 44.7662 1.23885 45.2583V34.4965C1.60214 34.9886 2.09195 35.2931 2.6328 35.2931H32.3651C32.906 35.2931 33.3979 34.9886 33.7591 34.4965V45.2583C33.3979 44.7662 32.906 44.4617 32.3672 44.4617Z" fill="#515250" fill-opacity="0.7"/>
</svg>
