<svg width="22" height="26" viewBox="0 0 22 26" fill="none" xmlns="http://www.w3.org/2000/svg">
<path fill-rule="evenodd" clip-rule="evenodd" d="M1 10.9661C1.01876 5.44327 5.5111 0.981354 11.0339 1.00006C16.5567 1.01888 21.0186 5.51122 20.9999 11.034V11.1473C20.9319 14.7373 18.9274 18.0555 16.4699 20.6489C15.0644 22.1084 13.495 23.4005 11.7927 24.4994C11.3375 24.8931 10.6624 24.8931 10.2072 24.4994C7.66953 22.8477 5.4423 20.7623 3.62739 18.3386C2.00979 16.2252 1.09138 13.6599 1 11.0001V10.9661Z" stroke="#727272" stroke-width="1.5" stroke-linecap="round" stroke-linejoin="round"/>
<path d="M10.9999 14.3631C12.7699 14.3631 14.2049 12.9281 14.2049 11.1581C14.2049 9.38804 12.7699 7.95312 10.9999 7.95312C9.22983 7.95312 7.79492 9.38804 7.79492 11.1581C7.79492 12.9281 9.22983 14.3631 10.9999 14.3631Z" stroke="#727272" stroke-width="1.5" stroke-linecap="round" stroke-linejoin="round"/>
</svg>
