<svg width="34" height="44" viewBox="0 0 34 44" fill="none" xmlns="http://www.w3.org/2000/svg">
<path d="M33.9792 23.3568C33.9656 20.3932 32.0923 17.8758 29.3117 16.913C28.7243 16.7104 27.6447 16.5898 27.588 16.3121C27.5086 15.9297 27.5404 15.0261 27.5222 14.3751C27.4723 12.5087 27.6901 10.6286 27.2818 8.77812C26.1932 3.85028 21.5755 0.144737 16.2548 0.527128C11.5056 0.868548 7.34833 4.56044 6.63164 9.24245C6.30278 11.3888 6.50917 13.5466 6.49783 15.6998C6.4933 16.4032 6.24608 16.6057 5.63372 16.7241C2.20904 17.3887 0.0294841 20.004 0.013608 23.482C-0.00453601 27.7383 -0.00453601 31.997 0.013608 36.2533C0.0294841 40.2844 2.90305 43.1569 6.91741 43.1705C10.2831 43.1842 13.6488 43.1728 17.0146 43.1705C20.437 43.1705 23.8594 43.1887 27.2796 43.1637C31.0127 43.1364 33.9566 40.2024 33.9815 36.4673C34.0087 32.0971 34.0042 27.7247 33.9815 23.3545L33.9792 23.3568ZM10.6891 10.3873C11.027 7.28953 13.5286 4.83357 16.5519 4.66969C19.7566 4.49671 22.6868 6.63627 23.2017 9.76596C23.5464 11.8577 23.2788 14.0087 23.3128 16.1346C23.3219 16.6854 22.9159 16.5807 22.5961 16.5807C20.7046 16.5875 18.8108 16.583 16.9193 16.583C15.0278 16.583 13.134 16.5739 11.2425 16.5898C10.8025 16.5944 10.5553 16.5124 10.5757 15.9912C10.6483 14.1248 10.4827 12.2538 10.6868 10.3873H10.6891ZM29.8719 35.9347C29.8673 37.9559 28.781 39.0439 26.7829 39.0462C20.2533 39.0484 13.7214 39.0484 7.19184 39.0462C5.20507 39.0462 4.12096 37.94 4.12096 35.921C4.11869 31.8923 4.11869 27.8635 4.12096 23.8348C4.12096 21.8454 5.15971 20.812 7.16462 20.8075C10.4442 20.8029 13.7237 20.8075 17.0032 20.8075C20.31 20.8075 23.619 20.8029 26.9257 20.8075C28.8082 20.812 29.8673 21.8659 29.8719 23.7619C29.8832 27.818 29.881 31.8763 29.8719 35.9324V35.9347Z" fill="#3463ED"/>
</svg>
