<svg width="34" height="43" viewBox="0 0 34 43" fill="none" xmlns="http://www.w3.org/2000/svg">
<path d="M33.9792 22.8568C33.9656 19.8932 32.0923 17.3758 29.3117 16.413C28.7243 16.2104 27.6447 16.0898 27.588 15.8121C27.5086 15.4297 27.5404 14.5261 27.5222 13.8751C27.4723 12.0087 27.6901 10.1286 27.2818 8.27812C26.1932 3.35028 21.5755 -0.355263 16.2548 0.0271276C11.5056 0.368548 7.34833 4.06044 6.63164 8.74245C6.30278 10.8888 6.50917 13.0466 6.49783 15.1998C6.4933 15.9032 6.24608 16.1057 5.63372 16.2241C2.20904 16.8887 0.029484 19.504 0.013608 22.982C-0.00453601 27.2383 -0.00453601 31.497 0.013608 35.7533C0.029484 39.7844 2.90305 42.6569 6.91741 42.6705C10.2831 42.6842 13.6488 42.6728 17.0146 42.6705C20.437 42.6705 23.8594 42.6887 27.2796 42.6637C31.0127 42.6364 33.9566 39.7024 33.9815 35.9673C34.0087 31.5971 34.0042 27.2247 33.9815 22.8545L33.9792 22.8568ZM10.6891 9.88734C11.027 6.78952 13.5286 4.33357 16.5519 4.16969C19.7566 3.99671 22.6868 6.13627 23.2017 9.26596C23.5464 11.3577 23.2788 13.5087 23.3128 15.6346C23.3219 16.1854 22.9159 16.0807 22.5961 16.0807C20.7046 16.0875 18.8108 16.083 16.9193 16.083C15.0278 16.083 13.134 16.0739 11.2425 16.0898C10.8025 16.0944 10.5553 16.0124 10.5757 15.4912C10.6483 13.6248 10.4827 11.7538 10.6868 9.88734H10.6891ZM29.8719 35.4347C29.8673 37.4559 28.781 38.5439 26.7829 38.5462C20.2533 38.5484 13.7214 38.5484 7.19184 38.5462C5.20507 38.5462 4.12096 37.44 4.12096 35.421C4.11869 31.3923 4.11869 27.3635 4.12096 23.3348C4.12096 21.3454 5.15971 20.312 7.16462 20.3075C10.4442 20.3029 13.7237 20.3075 17.0032 20.3075C20.31 20.3075 23.619 20.3029 26.9257 20.3075C28.8082 20.312 29.8673 21.3659 29.8719 23.2619C29.8832 27.318 29.881 31.3763 29.8719 35.4324V35.4347Z" fill="#3463ED"/>
<path d="M19.041 26.783C19.007 25.679 18.1043 24.7982 17.0338 24.7754C15.9202 24.7504 14.9722 25.6312 14.9518 26.783C14.9223 28.5083 14.9223 30.2359 14.9518 31.9612C14.9699 33.1721 15.8204 33.9824 16.9975 33.9801C18.1746 33.9801 19.0093 33.1721 19.0455 31.9589C19.0705 31.1099 19.0501 30.2609 19.0501 29.4119C19.0501 28.5356 19.0705 27.657 19.0433 26.7807L19.041 26.783Z" fill="#3463ED"/>
</svg>
