<svg width="35" height="26" viewBox="0 0 35 26" fill="none" xmlns="http://www.w3.org/2000/svg">
<mask id="path-1-outside-1_889_1980" maskUnits="userSpaceOnUse" x="0" y="-0.776367" width="35" height="27" fill="black">
<rect fill="white" y="-0.776367" width="35" height="27"/>
<path d="M31.583 11.7259H19.409L19.031 7.9994C18.9687 7.40213 18.7918 6.82248 18.5099 6.29221L18.2994 5.89611L18.2916 5.88072C18.2906 5.87865 18.2895 5.8766 18.2885 5.87456L16.5208 2.37851C16.3799 2.09982 16.1674 1.86367 15.905 1.69434C15.6426 1.52502 15.3399 1.42863 15.0279 1.41508C15.01 1.41436 14.9921 1.41458 14.9742 1.41574L14.2184 1.46704C11.9535 1.62075 9.68871 1.77424 7.42398 1.92753L6.41671 1.99617C6.25482 1.99116 6.08721 1.98317 5.91808 1.9725C5.79999 1.965 5.67942 1.95569 5.55283 1.94471C5.52938 1.72553 5.43827 1.5191 5.29214 1.35407C5.14602 1.18904 4.95213 1.07361 4.73741 1.0238L1.60086 0.23812C1.47649 0.20697 1.34485 0.2265 1.23488 0.292413C1.12491 0.358327 1.04564 0.465224 1.01449 0.58959C0.983337 0.713956 1.00287 0.845602 1.06878 0.955568C1.13469 1.06553 1.24159 1.14481 1.36596 1.17596L4.50698 1.96278C4.5105 1.96366 4.51403 1.96451 4.51761 1.96529C4.5426 1.97098 4.56432 1.98636 4.57798 2.00804C4.59165 2.02973 4.59615 2.05595 4.5905 2.08095L3.02594 8.98297C3.02314 8.99535 3.01793 9.00706 3.0106 9.01743C3.00327 9.02779 2.99398 9.03661 2.98324 9.04338C2.9725 9.05015 2.96053 9.05474 2.94802 9.05688C2.9355 9.05902 2.92269 9.05867 2.91031 9.05586L1.59028 8.75663C1.52837 8.74259 1.46431 8.74089 1.40174 8.75162C1.33917 8.76234 1.27932 8.78528 1.22562 8.81914C1.11717 8.88751 1.04031 8.99616 1.01197 9.12119C0.983624 9.24623 1.00611 9.3774 1.07448 9.48585C1.14285 9.59431 1.2515 9.67116 1.37653 9.69951L2.69662 9.99874C2.77442 10.0164 2.85395 10.0254 2.93373 10.0254C3.17457 10.0248 3.40807 9.94245 3.59608 9.79192C3.78409 9.64139 3.91549 9.43156 3.96882 9.19669L3.97658 9.16248L4.90591 9.80468C5.13787 9.965 5.39102 10.0922 5.65807 10.1828L6.95292 10.6242C6.76602 10.7512 6.61607 10.9254 6.51829 11.1291C6.42051 11.3329 6.37838 11.5588 6.39619 11.7841C6.39682 11.7968 6.39796 11.8096 6.39959 11.8226C6.42954 12.1408 6.57714 12.4364 6.81352 12.6515C7.04989 12.8666 7.35803 12.9858 7.67764 12.9858C7.69268 12.9858 7.70792 12.9855 7.72309 12.985C8.00527 12.9752 8.28755 12.9653 8.56993 12.9554C8.45454 13.1957 8.41277 13.4648 8.44985 13.7288C8.48693 13.9928 8.60122 14.24 8.77835 14.4392C8.95548 14.6385 9.18755 14.7809 9.44539 14.8487C9.70324 14.9165 9.97536 14.9065 10.2276 14.8201L11.0276 14.5464V23.4203C11.0284 24.0611 11.2832 24.6754 11.7363 25.1285C12.1895 25.5817 12.8038 25.8365 13.4446 25.8373H31.583C32.2238 25.8365 32.8382 25.5817 33.2913 25.1285C33.7444 24.6754 33.9993 24.0611 34 23.4203V14.1429C33.9993 13.5021 33.7444 12.8877 33.2913 12.4346C32.8382 11.9815 32.2238 11.7266 31.583 11.7259ZM7.68954 12.0187C7.60813 12.0214 7.52881 11.9927 7.46786 11.9387C7.40691 11.8846 7.36896 11.8093 7.36179 11.7282C7.36148 11.7245 7.3611 11.7207 7.36066 11.717L7.36041 11.7136C7.35371 11.6385 7.37401 11.5634 7.41767 11.5019C7.46133 11.4403 7.5255 11.3964 7.59865 11.3779C7.68676 11.3556 7.84758 11.3048 8.102 11.2237C8.20637 11.1905 8.32621 11.1523 8.41855 11.1239L10.0813 11.6907L9.70977 11.9482C9.0361 11.972 8.36269 11.9955 7.68954 12.0187ZM11.1163 13.4943L9.91361 13.9057C9.86281 13.923 9.80897 13.9295 9.75551 13.9249C9.70204 13.9202 9.65014 13.9045 9.6031 13.8786C9.55606 13.8528 9.51491 13.8175 9.48228 13.7749C9.44966 13.7323 9.42626 13.6833 9.41359 13.6312C9.39522 13.5536 9.40102 13.4723 9.43021 13.3982C9.4594 13.324 9.51057 13.2606 9.57687 13.2164L10.0837 12.8653C10.1343 12.8419 10.1806 12.8098 10.2203 12.7706L11.1273 12.1423L11.7018 12.4694C11.4246 12.7571 11.2234 13.1094 11.1163 13.4943ZM11.1501 11.0428C11.1236 11.0277 11.0958 11.0152 11.067 11.0053L8.5962 10.163C8.59388 10.1622 8.59151 10.1614 8.58918 10.1606L5.96882 9.26728C5.78649 9.20548 5.61364 9.11861 5.45527 9.00915L4.33508 8.23509C4.29413 8.2068 4.24905 8.185 4.20144 8.17047L5.39613 2.90013C5.40573 2.90156 5.4152 2.9033 5.42499 2.90417C5.57593 2.91764 5.71717 2.9285 5.85697 2.93735C6.04504 2.94924 6.2316 2.95796 6.41143 2.96325C6.42616 2.96372 6.44139 2.96347 6.45637 2.96249L7.48951 2.89209C9.75449 2.73898 12.0193 2.5855 14.2838 2.43164L15.0097 2.38235C15.1458 2.39228 15.277 2.43727 15.3906 2.51294C15.5041 2.58861 15.5962 2.69238 15.6577 2.81417L17.4254 6.31018L17.4409 6.34055C17.4425 6.34364 17.444 6.34672 17.4457 6.34981L17.656 6.74553C17.8794 7.16586 18.0198 7.62531 18.0693 8.09876L18.4372 11.7259H17.2537L16.9272 9.07638C16.9186 9.00653 16.8949 8.9394 16.8577 8.87968C16.8204 8.81996 16.7706 8.76909 16.7116 8.73064L16.1438 8.36011C16.1406 8.35796 16.1378 8.35554 16.1346 8.35345L14.6475 7.38395C14.484 7.27745 14.3004 7.20565 14.1081 7.17301C13.9157 7.14037 13.7187 7.14758 13.5292 7.19419C13.3398 7.24081 13.1619 7.32583 13.0067 7.444C12.8514 7.56217 12.7221 7.71097 12.6267 7.88117C12.5448 8.02694 12.4894 8.18611 12.4632 8.35125C12.4589 8.37555 12.4556 8.40066 12.4533 8.42502C12.4477 8.47538 12.445 8.52601 12.445 8.57668C12.444 8.79242 12.4925 9.00551 12.5867 9.19961C12.6809 9.39371 12.8182 9.56366 12.9883 9.69642L16.6533 12.582L16.6546 12.583L17.422 13.1872C17.5032 13.2503 17.5673 13.333 17.6083 13.4274C17.6605 13.5478 17.6739 13.6814 17.6466 13.8097C17.6361 13.8575 17.62 13.9039 17.5986 13.9479C17.5976 13.9503 17.5963 13.9525 17.5953 13.9548C17.5436 14.0589 17.4638 14.1464 17.365 14.2074C17.2661 14.2685 17.1521 14.3006 17.0359 14.3001C16.9278 14.3004 16.8216 14.2722 16.7278 14.2184L11.1501 11.0428ZM18.2546 14.7002C18.2749 14.676 18.2943 14.6514 18.313 14.6263H29.7439C29.8302 14.9518 30.001 15.2486 30.2391 15.4867C30.4773 15.7248 30.7741 15.8957 31.0996 15.982V21.5812C30.7741 21.6674 30.4773 21.8383 30.2391 22.0764C30.001 22.3145 29.8302 22.6114 29.7439 22.9369H15.2837C15.1975 22.6114 15.0266 22.3145 14.7885 22.0764C14.5504 21.8383 14.2535 21.6674 13.928 21.5812V15.982C14.2535 15.8957 14.5504 15.7248 14.7885 15.4867C15.0266 15.2486 15.1975 14.9518 15.2837 14.6263H15.4902L16.2496 15.0586C16.573 15.2426 16.9506 15.3075 17.3169 15.2421C17.6832 15.1766 18.015 14.9849 18.2546 14.7002ZM16.1884 10.9854L13.5852 8.93586C13.5307 8.89322 13.4868 8.83867 13.4567 8.77641C13.4267 8.71414 13.4113 8.64582 13.4118 8.57668C13.4117 8.56078 13.4126 8.54489 13.4144 8.52909C13.4149 8.52503 13.4152 8.52176 13.4155 8.5177C13.4163 8.51357 13.417 8.50945 13.4176 8.5053C13.4258 8.45207 13.4436 8.40075 13.47 8.35383C13.5007 8.29913 13.5423 8.2513 13.5922 8.21332C13.6421 8.17533 13.6993 8.148 13.7602 8.13301C13.821 8.11802 13.8844 8.11569 13.9462 8.12617C14.008 8.13664 14.0671 8.15971 14.1196 8.19392L14.5328 8.46329L14.5346 8.4646L15.9952 9.41755L16.1884 10.9854ZM33.0332 23.4203C33.0328 23.8048 32.8798 24.1734 32.608 24.4452C32.3361 24.7171 31.9675 24.87 31.583 24.8705H13.4446C13.0601 24.87 12.6915 24.7171 12.4197 24.4452C12.1478 24.1734 11.9949 23.8048 11.9944 23.4203V14.1429C11.9948 13.9151 12.0487 13.6907 12.1517 13.4876C12.2548 13.2845 12.4041 13.1085 12.5877 12.9737L14.3994 14.0052C14.386 14.0499 14.3792 14.0962 14.3792 14.1429C14.3789 14.3906 14.2804 14.6282 14.1051 14.8034C13.9299 14.9786 13.6924 15.0772 13.4446 15.0774C13.3811 15.0774 13.3183 15.0899 13.2596 15.1142C13.201 15.1385 13.1477 15.1741 13.1028 15.219C13.0579 15.2639 13.0223 15.3172 12.998 15.3758C12.9737 15.4345 12.9612 15.4974 12.9612 15.5608V22.0023C12.9612 22.0658 12.9737 22.1287 12.998 22.1873C13.0223 22.246 13.0579 22.2992 13.1028 22.3441C13.1477 22.389 13.201 22.4246 13.2596 22.4489C13.3183 22.4732 13.3811 22.4857 13.4446 22.4857C13.6924 22.486 13.9299 22.5845 14.1051 22.7598C14.2804 22.935 14.3789 23.1725 14.3792 23.4203C14.3792 23.4838 14.3917 23.5466 14.416 23.6053C14.4403 23.6639 14.4759 23.7172 14.5208 23.7621C14.5657 23.807 14.6189 23.8426 14.6776 23.8669C14.7362 23.8912 14.7991 23.9037 14.8626 23.9037H30.165C30.2285 23.9037 30.2914 23.8912 30.35 23.8669C30.4087 23.8426 30.462 23.807 30.5069 23.7621C30.5517 23.7172 30.5874 23.6639 30.6116 23.6053C30.6359 23.5466 30.6484 23.4838 30.6484 23.4203C30.6487 23.1725 30.7473 22.935 30.9225 22.7598C31.0977 22.5845 31.3352 22.486 31.583 22.4857C31.6465 22.4857 31.7094 22.4732 31.768 22.4489C31.8266 22.4246 31.8799 22.389 31.9248 22.3441C31.9697 22.2992 32.0053 22.246 32.0296 22.1873C32.0539 22.1287 32.0664 22.0658 32.0664 22.0023V15.5608C32.0664 15.4974 32.0539 15.4345 32.0296 15.3758C32.0053 15.3172 31.9697 15.2639 31.9248 15.219C31.8799 15.1741 31.8266 15.1385 31.768 15.1142C31.7094 15.0899 31.6465 15.0774 31.583 15.0774C31.3352 15.0772 31.0977 14.9786 30.9225 14.8034C30.7473 14.6282 30.6487 14.3906 30.6484 14.1429C30.6484 14.0794 30.6359 14.0165 30.6116 13.9579C30.5874 13.8992 30.5517 13.8459 30.5069 13.8011C30.462 13.7562 30.4087 13.7206 30.35 13.6963C30.2914 13.672 30.2285 13.6595 30.165 13.6595H18.6262C18.624 13.4465 18.5792 13.2362 18.4944 13.0409C18.44 12.9162 18.3697 12.7992 18.2851 12.6927H31.583C31.9675 12.6931 32.3361 12.846 32.608 13.1179C32.8798 13.3898 33.0328 13.7584 33.0332 14.1429V23.4203Z"/>
</mask>
<path d="M31.583 11.7259H19.409L19.031 7.9994C18.9687 7.40213 18.7918 6.82248 18.5099 6.29221L18.2994 5.89611L18.2916 5.88072C18.2906 5.87865 18.2895 5.8766 18.2885 5.87456L16.5208 2.37851C16.3799 2.09982 16.1674 1.86367 15.905 1.69434C15.6426 1.52502 15.3399 1.42863 15.0279 1.41508C15.01 1.41436 14.9921 1.41458 14.9742 1.41574L14.2184 1.46704C11.9535 1.62075 9.68871 1.77424 7.42398 1.92753L6.41671 1.99617C6.25482 1.99116 6.08721 1.98317 5.91808 1.9725C5.79999 1.965 5.67942 1.95569 5.55283 1.94471C5.52938 1.72553 5.43827 1.5191 5.29214 1.35407C5.14602 1.18904 4.95213 1.07361 4.73741 1.0238L1.60086 0.23812C1.47649 0.20697 1.34485 0.2265 1.23488 0.292413C1.12491 0.358327 1.04564 0.465224 1.01449 0.58959C0.983337 0.713956 1.00287 0.845602 1.06878 0.955568C1.13469 1.06553 1.24159 1.14481 1.36596 1.17596L4.50698 1.96278C4.5105 1.96366 4.51403 1.96451 4.51761 1.96529C4.5426 1.97098 4.56432 1.98636 4.57798 2.00804C4.59165 2.02973 4.59615 2.05595 4.5905 2.08095L3.02594 8.98297C3.02314 8.99535 3.01793 9.00706 3.0106 9.01743C3.00327 9.02779 2.99398 9.03661 2.98324 9.04338C2.9725 9.05015 2.96053 9.05474 2.94802 9.05688C2.9355 9.05902 2.92269 9.05867 2.91031 9.05586L1.59028 8.75663C1.52837 8.74259 1.46431 8.74089 1.40174 8.75162C1.33917 8.76234 1.27932 8.78528 1.22562 8.81914C1.11717 8.88751 1.04031 8.99616 1.01197 9.12119C0.983624 9.24623 1.00611 9.3774 1.07448 9.48585C1.14285 9.59431 1.2515 9.67116 1.37653 9.69951L2.69662 9.99874C2.77442 10.0164 2.85395 10.0254 2.93373 10.0254C3.17457 10.0248 3.40807 9.94245 3.59608 9.79192C3.78409 9.64139 3.91549 9.43156 3.96882 9.19669L3.97658 9.16248L4.90591 9.80468C5.13787 9.965 5.39102 10.0922 5.65807 10.1828L6.95292 10.6242C6.76602 10.7512 6.61607 10.9254 6.51829 11.1291C6.42051 11.3329 6.37838 11.5588 6.39619 11.7841C6.39682 11.7968 6.39796 11.8096 6.39959 11.8226C6.42954 12.1408 6.57714 12.4364 6.81352 12.6515C7.04989 12.8666 7.35803 12.9858 7.67764 12.9858C7.69268 12.9858 7.70792 12.9855 7.72309 12.985C8.00527 12.9752 8.28755 12.9653 8.56993 12.9554C8.45454 13.1957 8.41277 13.4648 8.44985 13.7288C8.48693 13.9928 8.60122 14.24 8.77835 14.4392C8.95548 14.6385 9.18755 14.7809 9.44539 14.8487C9.70324 14.9165 9.97536 14.9065 10.2276 14.8201L11.0276 14.5464V23.4203C11.0284 24.0611 11.2832 24.6754 11.7363 25.1285C12.1895 25.5817 12.8038 25.8365 13.4446 25.8373H31.583C32.2238 25.8365 32.8382 25.5817 33.2913 25.1285C33.7444 24.6754 33.9993 24.0611 34 23.4203V14.1429C33.9993 13.5021 33.7444 12.8877 33.2913 12.4346C32.8382 11.9815 32.2238 11.7266 31.583 11.7259ZM7.68954 12.0187C7.60813 12.0214 7.52881 11.9927 7.46786 11.9387C7.40691 11.8846 7.36896 11.8093 7.36179 11.7282C7.36148 11.7245 7.3611 11.7207 7.36066 11.717L7.36041 11.7136C7.35371 11.6385 7.37401 11.5634 7.41767 11.5019C7.46133 11.4403 7.5255 11.3964 7.59865 11.3779C7.68676 11.3556 7.84758 11.3048 8.102 11.2237C8.20637 11.1905 8.32621 11.1523 8.41855 11.1239L10.0813 11.6907L9.70977 11.9482C9.0361 11.972 8.36269 11.9955 7.68954 12.0187ZM11.1163 13.4943L9.91361 13.9057C9.86281 13.923 9.80897 13.9295 9.75551 13.9249C9.70204 13.9202 9.65014 13.9045 9.6031 13.8786C9.55606 13.8528 9.51491 13.8175 9.48228 13.7749C9.44966 13.7323 9.42626 13.6833 9.41359 13.6312C9.39522 13.5536 9.40102 13.4723 9.43021 13.3982C9.4594 13.324 9.51057 13.2606 9.57687 13.2164L10.0837 12.8653C10.1343 12.8419 10.1806 12.8098 10.2203 12.7706L11.1273 12.1423L11.7018 12.4694C11.4246 12.7571 11.2234 13.1094 11.1163 13.4943ZM11.1501 11.0428C11.1236 11.0277 11.0958 11.0152 11.067 11.0053L8.5962 10.163C8.59388 10.1622 8.59151 10.1614 8.58918 10.1606L5.96882 9.26728C5.78649 9.20548 5.61364 9.11861 5.45527 9.00915L4.33508 8.23509C4.29413 8.2068 4.24905 8.185 4.20144 8.17047L5.39613 2.90013C5.40573 2.90156 5.4152 2.9033 5.42499 2.90417C5.57593 2.91764 5.71717 2.9285 5.85697 2.93735C6.04504 2.94924 6.2316 2.95796 6.41143 2.96325C6.42616 2.96372 6.44139 2.96347 6.45637 2.96249L7.48951 2.89209C9.75449 2.73898 12.0193 2.5855 14.2838 2.43164L15.0097 2.38235C15.1458 2.39228 15.277 2.43727 15.3906 2.51294C15.5041 2.58861 15.5962 2.69238 15.6577 2.81417L17.4254 6.31018L17.4409 6.34055C17.4425 6.34364 17.444 6.34672 17.4457 6.34981L17.656 6.74553C17.8794 7.16586 18.0198 7.62531 18.0693 8.09876L18.4372 11.7259H17.2537L16.9272 9.07638C16.9186 9.00653 16.8949 8.9394 16.8577 8.87968C16.8204 8.81996 16.7706 8.76909 16.7116 8.73064L16.1438 8.36011C16.1406 8.35796 16.1378 8.35554 16.1346 8.35345L14.6475 7.38395C14.484 7.27745 14.3004 7.20565 14.1081 7.17301C13.9157 7.14037 13.7187 7.14758 13.5292 7.19419C13.3398 7.24081 13.1619 7.32583 13.0067 7.444C12.8514 7.56217 12.7221 7.71097 12.6267 7.88117C12.5448 8.02694 12.4894 8.18611 12.4632 8.35125C12.4589 8.37555 12.4556 8.40066 12.4533 8.42502C12.4477 8.47538 12.445 8.52601 12.445 8.57668C12.444 8.79242 12.4925 9.00551 12.5867 9.19961C12.6809 9.39371 12.8182 9.56366 12.9883 9.69642L16.6533 12.582L16.6546 12.583L17.422 13.1872C17.5032 13.2503 17.5673 13.333 17.6083 13.4274C17.6605 13.5478 17.6739 13.6814 17.6466 13.8097C17.6361 13.8575 17.62 13.9039 17.5986 13.9479C17.5976 13.9503 17.5963 13.9525 17.5953 13.9548C17.5436 14.0589 17.4638 14.1464 17.365 14.2074C17.2661 14.2685 17.1521 14.3006 17.0359 14.3001C16.9278 14.3004 16.8216 14.2722 16.7278 14.2184L11.1501 11.0428ZM18.2546 14.7002C18.2749 14.676 18.2943 14.6514 18.313 14.6263H29.7439C29.8302 14.9518 30.001 15.2486 30.2391 15.4867C30.4773 15.7248 30.7741 15.8957 31.0996 15.982V21.5812C30.7741 21.6674 30.4773 21.8383 30.2391 22.0764C30.001 22.3145 29.8302 22.6114 29.7439 22.9369H15.2837C15.1975 22.6114 15.0266 22.3145 14.7885 22.0764C14.5504 21.8383 14.2535 21.6674 13.928 21.5812V15.982C14.2535 15.8957 14.5504 15.7248 14.7885 15.4867C15.0266 15.2486 15.1975 14.9518 15.2837 14.6263H15.4902L16.2496 15.0586C16.573 15.2426 16.9506 15.3075 17.3169 15.2421C17.6832 15.1766 18.015 14.9849 18.2546 14.7002ZM16.1884 10.9854L13.5852 8.93586C13.5307 8.89322 13.4868 8.83867 13.4567 8.77641C13.4267 8.71414 13.4113 8.64582 13.4118 8.57668C13.4117 8.56078 13.4126 8.54489 13.4144 8.52909C13.4149 8.52503 13.4152 8.52176 13.4155 8.5177C13.4163 8.51357 13.417 8.50945 13.4176 8.5053C13.4258 8.45207 13.4436 8.40075 13.47 8.35383C13.5007 8.29913 13.5423 8.2513 13.5922 8.21332C13.6421 8.17533 13.6993 8.148 13.7602 8.13301C13.821 8.11802 13.8844 8.11569 13.9462 8.12617C14.008 8.13664 14.0671 8.15971 14.1196 8.19392L14.5328 8.46329L14.5346 8.4646L15.9952 9.41755L16.1884 10.9854ZM33.0332 23.4203C33.0328 23.8048 32.8798 24.1734 32.608 24.4452C32.3361 24.7171 31.9675 24.87 31.583 24.8705H13.4446C13.0601 24.87 12.6915 24.7171 12.4197 24.4452C12.1478 24.1734 11.9949 23.8048 11.9944 23.4203V14.1429C11.9948 13.9151 12.0487 13.6907 12.1517 13.4876C12.2548 13.2845 12.4041 13.1085 12.5877 12.9737L14.3994 14.0052C14.386 14.0499 14.3792 14.0962 14.3792 14.1429C14.3789 14.3906 14.2804 14.6282 14.1051 14.8034C13.9299 14.9786 13.6924 15.0772 13.4446 15.0774C13.3811 15.0774 13.3183 15.0899 13.2596 15.1142C13.201 15.1385 13.1477 15.1741 13.1028 15.219C13.0579 15.2639 13.0223 15.3172 12.998 15.3758C12.9737 15.4345 12.9612 15.4974 12.9612 15.5608V22.0023C12.9612 22.0658 12.9737 22.1287 12.998 22.1873C13.0223 22.246 13.0579 22.2992 13.1028 22.3441C13.1477 22.389 13.201 22.4246 13.2596 22.4489C13.3183 22.4732 13.3811 22.4857 13.4446 22.4857C13.6924 22.486 13.9299 22.5845 14.1051 22.7598C14.2804 22.935 14.3789 23.1725 14.3792 23.4203C14.3792 23.4838 14.3917 23.5466 14.416 23.6053C14.4403 23.6639 14.4759 23.7172 14.5208 23.7621C14.5657 23.807 14.6189 23.8426 14.6776 23.8669C14.7362 23.8912 14.7991 23.9037 14.8626 23.9037H30.165C30.2285 23.9037 30.2914 23.8912 30.35 23.8669C30.4087 23.8426 30.462 23.807 30.5069 23.7621C30.5517 23.7172 30.5874 23.6639 30.6116 23.6053C30.6359 23.5466 30.6484 23.4838 30.6484 23.4203C30.6487 23.1725 30.7473 22.935 30.9225 22.7598C31.0977 22.5845 31.3352 22.486 31.583 22.4857C31.6465 22.4857 31.7094 22.4732 31.768 22.4489C31.8266 22.4246 31.8799 22.389 31.9248 22.3441C31.9697 22.2992 32.0053 22.246 32.0296 22.1873C32.0539 22.1287 32.0664 22.0658 32.0664 22.0023V15.5608C32.0664 15.4974 32.0539 15.4345 32.0296 15.3758C32.0053 15.3172 31.9697 15.2639 31.9248 15.219C31.8799 15.1741 31.8266 15.1385 31.768 15.1142C31.7094 15.0899 31.6465 15.0774 31.583 15.0774C31.3352 15.0772 31.0977 14.9786 30.9225 14.8034C30.7473 14.6282 30.6487 14.3906 30.6484 14.1429C30.6484 14.0794 30.6359 14.0165 30.6116 13.9579C30.5874 13.8992 30.5517 13.8459 30.5069 13.8011C30.462 13.7562 30.4087 13.7206 30.35 13.6963C30.2914 13.672 30.2285 13.6595 30.165 13.6595H18.6262C18.624 13.4465 18.5792 13.2362 18.4944 13.0409C18.44 12.9162 18.3697 12.7992 18.2851 12.6927H31.583C31.9675 12.6931 32.3361 12.846 32.608 13.1179C32.8798 13.3898 33.0328 13.7584 33.0332 14.1429V23.4203Z" fill="#727272"/>
<path d="M31.583 11.7259H19.409L19.031 7.9994C18.9687 7.40213 18.7918 6.82248 18.5099 6.29221L18.2994 5.89611L18.2916 5.88072C18.2906 5.87865 18.2895 5.8766 18.2885 5.87456L16.5208 2.37851C16.3799 2.09982 16.1674 1.86367 15.905 1.69434C15.6426 1.52502 15.3399 1.42863 15.0279 1.41508C15.01 1.41436 14.9921 1.41458 14.9742 1.41574L14.2184 1.46704C11.9535 1.62075 9.68871 1.77424 7.42398 1.92753L6.41671 1.99617C6.25482 1.99116 6.08721 1.98317 5.91808 1.9725C5.79999 1.965 5.67942 1.95569 5.55283 1.94471C5.52938 1.72553 5.43827 1.5191 5.29214 1.35407C5.14602 1.18904 4.95213 1.07361 4.73741 1.0238L1.60086 0.23812C1.47649 0.20697 1.34485 0.2265 1.23488 0.292413C1.12491 0.358327 1.04564 0.465224 1.01449 0.58959C0.983337 0.713956 1.00287 0.845602 1.06878 0.955568C1.13469 1.06553 1.24159 1.14481 1.36596 1.17596L4.50698 1.96278C4.5105 1.96366 4.51403 1.96451 4.51761 1.96529C4.5426 1.97098 4.56432 1.98636 4.57798 2.00804C4.59165 2.02973 4.59615 2.05595 4.5905 2.08095L3.02594 8.98297C3.02314 8.99535 3.01793 9.00706 3.0106 9.01743C3.00327 9.02779 2.99398 9.03661 2.98324 9.04338C2.9725 9.05015 2.96053 9.05474 2.94802 9.05688C2.9355 9.05902 2.92269 9.05867 2.91031 9.05586L1.59028 8.75663C1.52837 8.74259 1.46431 8.74089 1.40174 8.75162C1.33917 8.76234 1.27932 8.78528 1.22562 8.81914C1.11717 8.88751 1.04031 8.99616 1.01197 9.12119C0.983624 9.24623 1.00611 9.3774 1.07448 9.48585C1.14285 9.59431 1.2515 9.67116 1.37653 9.69951L2.69662 9.99874C2.77442 10.0164 2.85395 10.0254 2.93373 10.0254C3.17457 10.0248 3.40807 9.94245 3.59608 9.79192C3.78409 9.64139 3.91549 9.43156 3.96882 9.19669L3.97658 9.16248L4.90591 9.80468C5.13787 9.965 5.39102 10.0922 5.65807 10.1828L6.95292 10.6242C6.76602 10.7512 6.61607 10.9254 6.51829 11.1291C6.42051 11.3329 6.37838 11.5588 6.39619 11.7841C6.39682 11.7968 6.39796 11.8096 6.39959 11.8226C6.42954 12.1408 6.57714 12.4364 6.81352 12.6515C7.04989 12.8666 7.35803 12.9858 7.67764 12.9858C7.69268 12.9858 7.70792 12.9855 7.72309 12.985C8.00527 12.9752 8.28755 12.9653 8.56993 12.9554C8.45454 13.1957 8.41277 13.4648 8.44985 13.7288C8.48693 13.9928 8.60122 14.24 8.77835 14.4392C8.95548 14.6385 9.18755 14.7809 9.44539 14.8487C9.70324 14.9165 9.97536 14.9065 10.2276 14.8201L11.0276 14.5464V23.4203C11.0284 24.0611 11.2832 24.6754 11.7363 25.1285C12.1895 25.5817 12.8038 25.8365 13.4446 25.8373H31.583C32.2238 25.8365 32.8382 25.5817 33.2913 25.1285C33.7444 24.6754 33.9993 24.0611 34 23.4203V14.1429C33.9993 13.5021 33.7444 12.8877 33.2913 12.4346C32.8382 11.9815 32.2238 11.7266 31.583 11.7259ZM7.68954 12.0187C7.60813 12.0214 7.52881 11.9927 7.46786 11.9387C7.40691 11.8846 7.36896 11.8093 7.36179 11.7282C7.36148 11.7245 7.3611 11.7207 7.36066 11.717L7.36041 11.7136C7.35371 11.6385 7.37401 11.5634 7.41767 11.5019C7.46133 11.4403 7.5255 11.3964 7.59865 11.3779C7.68676 11.3556 7.84758 11.3048 8.102 11.2237C8.20637 11.1905 8.32621 11.1523 8.41855 11.1239L10.0813 11.6907L9.70977 11.9482C9.0361 11.972 8.36269 11.9955 7.68954 12.0187ZM11.1163 13.4943L9.91361 13.9057C9.86281 13.923 9.80897 13.9295 9.75551 13.9249C9.70204 13.9202 9.65014 13.9045 9.6031 13.8786C9.55606 13.8528 9.51491 13.8175 9.48228 13.7749C9.44966 13.7323 9.42626 13.6833 9.41359 13.6312C9.39522 13.5536 9.40102 13.4723 9.43021 13.3982C9.4594 13.324 9.51057 13.2606 9.57687 13.2164L10.0837 12.8653C10.1343 12.8419 10.1806 12.8098 10.2203 12.7706L11.1273 12.1423L11.7018 12.4694C11.4246 12.7571 11.2234 13.1094 11.1163 13.4943ZM11.1501 11.0428C11.1236 11.0277 11.0958 11.0152 11.067 11.0053L8.5962 10.163C8.59388 10.1622 8.59151 10.1614 8.58918 10.1606L5.96882 9.26728C5.78649 9.20548 5.61364 9.11861 5.45527 9.00915L4.33508 8.23509C4.29413 8.2068 4.24905 8.185 4.20144 8.17047L5.39613 2.90013C5.40573 2.90156 5.4152 2.9033 5.42499 2.90417C5.57593 2.91764 5.71717 2.9285 5.85697 2.93735C6.04504 2.94924 6.2316 2.95796 6.41143 2.96325C6.42616 2.96372 6.44139 2.96347 6.45637 2.96249L7.48951 2.89209C9.75449 2.73898 12.0193 2.5855 14.2838 2.43164L15.0097 2.38235C15.1458 2.39228 15.277 2.43727 15.3906 2.51294C15.5041 2.58861 15.5962 2.69238 15.6577 2.81417L17.4254 6.31018L17.4409 6.34055C17.4425 6.34364 17.444 6.34672 17.4457 6.34981L17.656 6.74553C17.8794 7.16586 18.0198 7.62531 18.0693 8.09876L18.4372 11.7259H17.2537L16.9272 9.07638C16.9186 9.00653 16.8949 8.9394 16.8577 8.87968C16.8204 8.81996 16.7706 8.76909 16.7116 8.73064L16.1438 8.36011C16.1406 8.35796 16.1378 8.35554 16.1346 8.35345L14.6475 7.38395C14.484 7.27745 14.3004 7.20565 14.1081 7.17301C13.9157 7.14037 13.7187 7.14758 13.5292 7.19419C13.3398 7.24081 13.1619 7.32583 13.0067 7.444C12.8514 7.56217 12.7221 7.71097 12.6267 7.88117C12.5448 8.02694 12.4894 8.18611 12.4632 8.35125C12.4589 8.37555 12.4556 8.40066 12.4533 8.42502C12.4477 8.47538 12.445 8.52601 12.445 8.57668C12.444 8.79242 12.4925 9.00551 12.5867 9.19961C12.6809 9.39371 12.8182 9.56366 12.9883 9.69642L16.6533 12.582L16.6546 12.583L17.422 13.1872C17.5032 13.2503 17.5673 13.333 17.6083 13.4274C17.6605 13.5478 17.6739 13.6814 17.6466 13.8097C17.6361 13.8575 17.62 13.9039 17.5986 13.9479C17.5976 13.9503 17.5963 13.9525 17.5953 13.9548C17.5436 14.0589 17.4638 14.1464 17.365 14.2074C17.2661 14.2685 17.1521 14.3006 17.0359 14.3001C16.9278 14.3004 16.8216 14.2722 16.7278 14.2184L11.1501 11.0428ZM18.2546 14.7002C18.2749 14.676 18.2943 14.6514 18.313 14.6263H29.7439C29.8302 14.9518 30.001 15.2486 30.2391 15.4867C30.4773 15.7248 30.7741 15.8957 31.0996 15.982V21.5812C30.7741 21.6674 30.4773 21.8383 30.2391 22.0764C30.001 22.3145 29.8302 22.6114 29.7439 22.9369H15.2837C15.1975 22.6114 15.0266 22.3145 14.7885 22.0764C14.5504 21.8383 14.2535 21.6674 13.928 21.5812V15.982C14.2535 15.8957 14.5504 15.7248 14.7885 15.4867C15.0266 15.2486 15.1975 14.9518 15.2837 14.6263H15.4902L16.2496 15.0586C16.573 15.2426 16.9506 15.3075 17.3169 15.2421C17.6832 15.1766 18.015 14.9849 18.2546 14.7002ZM16.1884 10.9854L13.5852 8.93586C13.5307 8.89322 13.4868 8.83867 13.4567 8.77641C13.4267 8.71414 13.4113 8.64582 13.4118 8.57668C13.4117 8.56078 13.4126 8.54489 13.4144 8.52909C13.4149 8.52503 13.4152 8.52176 13.4155 8.5177C13.4163 8.51357 13.417 8.50945 13.4176 8.5053C13.4258 8.45207 13.4436 8.40075 13.47 8.35383C13.5007 8.29913 13.5423 8.2513 13.5922 8.21332C13.6421 8.17533 13.6993 8.148 13.7602 8.13301C13.821 8.11802 13.8844 8.11569 13.9462 8.12617C14.008 8.13664 14.0671 8.15971 14.1196 8.19392L14.5328 8.46329L14.5346 8.4646L15.9952 9.41755L16.1884 10.9854ZM33.0332 23.4203C33.0328 23.8048 32.8798 24.1734 32.608 24.4452C32.3361 24.7171 31.9675 24.87 31.583 24.8705H13.4446C13.0601 24.87 12.6915 24.7171 12.4197 24.4452C12.1478 24.1734 11.9949 23.8048 11.9944 23.4203V14.1429C11.9948 13.9151 12.0487 13.6907 12.1517 13.4876C12.2548 13.2845 12.4041 13.1085 12.5877 12.9737L14.3994 14.0052C14.386 14.0499 14.3792 14.0962 14.3792 14.1429C14.3789 14.3906 14.2804 14.6282 14.1051 14.8034C13.9299 14.9786 13.6924 15.0772 13.4446 15.0774C13.3811 15.0774 13.3183 15.0899 13.2596 15.1142C13.201 15.1385 13.1477 15.1741 13.1028 15.219C13.0579 15.2639 13.0223 15.3172 12.998 15.3758C12.9737 15.4345 12.9612 15.4974 12.9612 15.5608V22.0023C12.9612 22.0658 12.9737 22.1287 12.998 22.1873C13.0223 22.246 13.0579 22.2992 13.1028 22.3441C13.1477 22.389 13.201 22.4246 13.2596 22.4489C13.3183 22.4732 13.3811 22.4857 13.4446 22.4857C13.6924 22.486 13.9299 22.5845 14.1051 22.7598C14.2804 22.935 14.3789 23.1725 14.3792 23.4203C14.3792 23.4838 14.3917 23.5466 14.416 23.6053C14.4403 23.6639 14.4759 23.7172 14.5208 23.7621C14.5657 23.807 14.6189 23.8426 14.6776 23.8669C14.7362 23.8912 14.7991 23.9037 14.8626 23.9037H30.165C30.2285 23.9037 30.2914 23.8912 30.35 23.8669C30.4087 23.8426 30.462 23.807 30.5069 23.7621C30.5517 23.7172 30.5874 23.6639 30.6116 23.6053C30.6359 23.5466 30.6484 23.4838 30.6484 23.4203C30.6487 23.1725 30.7473 22.935 30.9225 22.7598C31.0977 22.5845 31.3352 22.486 31.583 22.4857C31.6465 22.4857 31.7094 22.4732 31.768 22.4489C31.8266 22.4246 31.8799 22.389 31.9248 22.3441C31.9697 22.2992 32.0053 22.246 32.0296 22.1873C32.0539 22.1287 32.0664 22.0658 32.0664 22.0023V15.5608C32.0664 15.4974 32.0539 15.4345 32.0296 15.3758C32.0053 15.3172 31.9697 15.2639 31.9248 15.219C31.8799 15.1741 31.8266 15.1385 31.768 15.1142C31.7094 15.0899 31.6465 15.0774 31.583 15.0774C31.3352 15.0772 31.0977 14.9786 30.9225 14.8034C30.7473 14.6282 30.6487 14.3906 30.6484 14.1429C30.6484 14.0794 30.6359 14.0165 30.6116 13.9579C30.5874 13.8992 30.5517 13.8459 30.5069 13.8011C30.462 13.7562 30.4087 13.7206 30.35 13.6963C30.2914 13.672 30.2285 13.6595 30.165 13.6595H18.6262C18.624 13.4465 18.5792 13.2362 18.4944 13.0409C18.44 12.9162 18.3697 12.7992 18.2851 12.6927H31.583C31.9675 12.6931 32.3361 12.846 32.608 13.1179C32.8798 13.3898 33.0328 13.7584 33.0332 14.1429V23.4203Z" stroke="#727272" stroke-width="0.2112" mask="url(#path-1-outside-1_889_1980)"/>
<path d="M24.3137 17.487C24.2172 17.3197 24.0772 17.1818 23.9084 17.0881C23.7396 16.9943 23.5485 16.9482 23.3556 16.9547H22.2911C22.0088 16.9547 21.738 17.0669 21.5384 17.2665C21.3387 17.4661 21.2266 17.7369 21.2266 18.0192C21.2266 18.3015 21.3387 18.5723 21.5384 18.7719C21.738 18.9716 22.0088 19.0837 22.2911 19.0837H23.3556C23.6379 19.0837 23.9087 19.1959 24.1083 19.3955C24.308 19.5952 24.4201 19.8659 24.4201 20.1483C24.4201 20.4306 24.308 20.7013 24.1083 20.901C23.9087 21.1006 23.6379 21.2128 23.3556 21.2128H22.2911C22.0981 21.2193 21.907 21.1732 21.7383 21.0794C21.5695 20.9857 21.4294 20.8478 21.333 20.6805" stroke="#727272" stroke-width="0.798387" stroke-linecap="round" stroke-linejoin="round"/>
<path d="M22.8228 21.2122V22.2767M22.8228 15.8896V16.9542V15.8896Z" stroke="#727272" stroke-width="0.798387" stroke-linecap="round" stroke-linejoin="round"/>
</svg>
