<svg width="26" height="26" viewBox="0 0 26 26" fill="none" xmlns="http://www.w3.org/2000/svg">
<ellipse cx="10" cy="10.5" rx="10" ry="10.5" fill="#898989"/>
<ellipse cx="16" cy="15.5" rx="10" ry="10.5" fill="#D9D9D9"/>
<path d="M15.9973 15.2404C18.0078 15.2404 19.6376 13.6125 19.6376 11.6044C19.6376 9.59619 18.0078 7.96826 15.9973 7.96826C13.9868 7.96826 12.357 9.59619 12.357 11.6044C12.357 13.6125 13.9868 15.2404 15.9973 15.2404Z" fill="#3D3E3B"/>
<path d="M19.6018 24.3498H12.5619C12.096 24.3498 11.7148 23.969 11.7148 23.5037V18.3009C11.7148 16.8301 12.9198 15.6265 14.3923 15.6265H17.7707C19.2432 15.6265 20.4482 16.8301 20.4482 18.3009V23.5037C20.4489 23.969 20.0677 24.3498 19.6018 24.3498Z" fill="#3D3E3B"/>
</svg>
