<svg width="22" height="22" viewBox="0 0 22 22" fill="none" xmlns="http://www.w3.org/2000/svg">
<circle cx="11" cy="11" r="11" fill="#D9D9D9"/>
<path d="M11.0009 9.95581C13.1714 9.95581 14.931 8.19624 14.931 6.02571C14.931 3.85518 13.1714 2.09562 11.0009 2.09562C8.83037 2.09562 7.0708 3.85518 7.0708 6.02571C7.0708 8.19624 8.83037 9.95581 11.0009 9.95581Z" fill="#3D3E3B"/>
<path d="M14.8005 19.8016H7.20015C6.69717 19.8016 6.28564 19.3901 6.28564 18.8871V13.2637C6.28564 11.674 7.58653 10.3731 9.17625 10.3731H12.8236C14.4133 10.3731 15.7142 11.674 15.7142 13.2637V18.8871C15.715 19.3901 15.3034 19.8016 14.8005 19.8016Z" fill="#3D3E3B"/>
</svg>
