<svg width="58" height="58" viewBox="0 0 58 58" fill="none" xmlns="http://www.w3.org/2000/svg">
<path d="M0 6C0 2.68629 2.68629 0 6 0H52C55.3137 0 58 2.68629 58 6V52C58 55.3137 55.3137 58 52 58H6C2.68629 58 0 55.3137 0 52V6Z" fill="#002401"/>
<path d="M21.6559 37.6247C21.9676 36.5873 22.6054 35.6781 23.4746 35.0318C24.3438 34.3856 25.3982 34.0367 26.4814 34.0371H31.5184C32.603 34.0367 33.6587 34.3864 34.5286 35.0341C35.3984 35.6819 36.036 36.5931 36.3464 37.6322M40.3333 29C40.3333 35.2592 35.2592 40.3334 29 40.3334C22.7407 40.3334 17.6666 35.2592 17.6666 29C17.6666 22.7408 22.7407 17.6667 29 17.6667C35.2592 17.6667 40.3333 22.7408 40.3333 29ZM32.7777 26.4815C32.7777 28.5679 31.0864 30.2593 29 30.2593C26.9136 30.2593 25.2222 28.5679 25.2222 26.4815C25.2222 24.3951 26.9136 22.7037 29 22.7037C31.0864 22.7037 32.7777 24.3951 32.7777 26.4815Z" stroke="white" stroke-width="1.5" stroke-linecap="round" stroke-linejoin="round"/>
</svg>
