<svg width="111" height="111" viewBox="0 0 111 111" fill="none" xmlns="http://www.w3.org/2000/svg">
<g clip-path="url(#clip0_1457_4030)">
<path d="M55.4776 32.1136C55.8279 32.1136 56.1639 31.9744 56.4116 31.7267C56.6593 31.479 56.7984 31.143 56.7985 30.7927V26.8301C56.7985 26.4798 56.6593 26.1439 56.4116 25.8961C56.1639 25.6484 55.8279 25.5093 55.4776 25.5093C55.1273 25.5093 54.7913 25.6484 54.5436 25.8961C54.2959 26.1439 54.1567 26.4798 54.1567 26.8301V30.7927C54.1568 31.143 54.2959 31.479 54.5436 31.7267C54.7913 31.9744 55.1273 32.1136 55.4776 32.1136Z" fill="#2D4356"/>
<path d="M49.2601 32.3872C49.5079 32.6341 49.8436 32.7726 50.1934 32.7723C50.5433 32.7719 50.8787 32.6328 51.1261 32.3854C51.3734 32.1381 51.5126 31.8026 51.5129 31.4528C51.5132 31.103 51.3747 30.7673 51.1278 30.5194L48.4861 27.8777C48.2383 27.6308 47.9026 27.4923 47.5527 27.4927C47.2029 27.493 46.8675 27.6321 46.6201 27.8795C46.3727 28.1269 46.2336 28.4623 46.2333 28.8121C46.233 29.162 46.3714 29.4977 46.6183 29.7455L49.2601 32.3872ZM60.7606 32.7578C61.1087 32.7624 61.4444 32.6292 61.6947 32.3872L64.3364 29.7455C64.583 29.4976 64.7212 29.162 64.7208 28.8124C64.7203 28.4627 64.5812 28.1275 64.3339 27.8802C64.0867 27.633 63.7515 27.4939 63.4018 27.4934C63.0521 27.4929 62.7166 27.6311 62.4686 27.8777L59.8269 30.5194C59.6399 30.7019 59.5119 30.9364 59.4596 31.1925C59.4074 31.4485 59.4332 31.7144 59.5339 31.9556C59.6345 32.1968 59.8052 32.4022 60.0239 32.5453C60.2427 32.6883 60.4993 32.7623 60.7606 32.7578V32.7578ZM48.4426 50.0279L47.2372 56.9843C47.1951 57.2269 47.2217 57.4764 47.3139 57.7047C47.4061 57.9329 47.5602 58.1309 47.7589 58.2762C47.9576 58.4215 48.193 58.5084 48.4385 58.5271C48.6839 58.5458 48.9297 58.4955 49.1481 58.382L55.4774 55.0895L61.8069 58.382C62.0253 58.4955 62.2712 58.5458 62.5166 58.5271C62.7621 58.5084 62.9974 58.4215 63.1961 58.2762C63.3948 58.1309 63.549 57.9329 63.6412 57.7046C63.7334 57.4764 63.76 57.2269 63.7179 56.9843L62.5119 50.0279L67.6218 45.0992C67.7997 44.9275 67.9259 44.7094 67.986 44.4696C68.0461 44.2297 68.0376 43.9779 67.9616 43.7426C67.8856 43.5074 67.7451 43.2981 67.5561 43.1388C67.367 42.9794 67.1371 42.8763 66.8924 42.8412L59.8198 41.8248L56.6596 35.4869C56.55 35.2671 56.3814 35.0823 56.1726 34.9531C55.9638 34.8239 55.7231 34.7555 55.4775 34.7555C55.232 34.7555 54.9913 34.8239 54.7825 34.9531C54.5737 35.0823 54.4051 35.2671 54.2955 35.4869L51.1346 41.8248L44.0621 42.8412C43.8174 42.8764 43.5875 42.9796 43.3985 43.1389C43.2095 43.2983 43.0691 43.5075 42.9931 43.7428C42.9171 43.978 42.9087 44.2298 42.9688 44.4696C43.0289 44.7094 43.155 44.9276 43.3329 45.0992L48.4426 50.0279ZM52.1959 44.3407C52.4072 44.3104 52.6081 44.2292 52.7812 44.1042C52.9543 43.9792 53.0945 43.814 53.1897 43.6229L55.4774 39.036L57.7643 43.6229C57.8597 43.8141 58 43.9793 58.1732 44.1043C58.3464 44.2293 58.5474 44.3105 58.7589 44.3407L63.8449 45.0721L60.1739 48.6129C60.0186 48.7627 59.9024 48.9482 59.8354 49.1533C59.7683 49.3583 59.7526 49.5767 59.7895 49.7893L60.6595 54.807L56.0869 52.4284C55.8986 52.3305 55.6896 52.2794 55.4774 52.2794C55.2652 52.2794 55.0561 52.3305 54.8679 52.4284L50.2955 54.807L51.1653 49.7893C51.2021 49.5767 51.1863 49.3584 51.1193 49.1533C51.0523 48.9482 50.9361 48.7627 50.7809 48.6129L47.1098 45.0721L52.1959 44.3407Z" fill="#D00F24"/>
<path d="M43.1097 51.0401L38.7682 50.4371L36.8372 46.697C36.7259 46.4817 36.5576 46.3012 36.3505 46.1751C36.1435 46.0491 35.9058 45.9824 35.6634 45.9824C35.421 45.9824 35.1833 46.0491 34.9763 46.1751C34.7693 46.3012 34.6009 46.4817 34.4896 46.697L32.5586 50.4371L28.2172 51.0401C27.9698 51.0745 27.7373 51.1782 27.5465 51.3393C27.3557 51.5005 27.2145 51.7124 27.1393 51.9505C27.064 52.1886 27.0578 52.4432 27.1214 52.6846C27.1849 52.9261 27.3156 53.1447 27.4984 53.3149L30.6038 56.2081L29.8733 60.2784C29.83 60.5199 29.8547 60.7686 29.9448 60.9967C30.0348 61.2249 30.1866 61.4235 30.3832 61.5703C30.5797 61.717 30.8132 61.8061 31.0576 61.8277C31.3019 61.8492 31.5474 61.8023 31.7666 61.6922L35.6634 59.7341L39.5602 61.6922C39.7793 61.8023 40.0249 61.8492 40.2692 61.8277C40.5135 61.8061 40.7471 61.717 40.9436 61.5703C41.1401 61.4235 41.2919 61.2249 41.382 60.9967C41.472 60.7686 41.4968 60.5199 41.4534 60.2784L40.723 56.2081L43.8284 53.3149C44.0111 53.1447 44.1418 52.9261 44.2054 52.6846C44.269 52.4432 44.2628 52.1886 44.1875 51.9505C44.1123 51.7124 43.9711 51.5005 43.7803 51.3393C43.5895 51.1782 43.357 51.0745 43.1096 51.0401L43.1097 51.0401ZM38.3954 54.7667C38.2338 54.9172 38.1125 55.1059 38.0426 55.3155C37.9728 55.5251 37.9566 55.7488 37.9956 55.9663L38.3867 58.1462L36.2565 57.0756C36.0724 56.9831 35.8694 56.935 35.6634 56.935C35.4575 56.935 35.2544 56.9831 35.0704 57.0756L32.9401 58.1462L33.3313 55.9663C33.3703 55.7489 33.3541 55.5251 33.2842 55.3155C33.2144 55.106 33.0931 54.9173 32.9314 54.7667L31.3306 53.2749L33.5999 52.9602C33.8094 52.931 34.0088 52.852 34.1815 52.7298C34.3542 52.6076 34.495 52.4457 34.5922 52.2578L35.6634 50.1824L36.7347 52.2578C36.8319 52.4457 36.9727 52.6076 37.1453 52.7298C37.318 52.852 37.5174 52.931 37.7269 52.9602L39.9962 53.2749L38.3954 54.7667Z" fill="#2451DB"/>
<path d="M25.2845 58.3659L22.318 57.9408L20.9949 55.2978C20.8851 55.0786 20.7164 54.8942 20.5078 54.7654C20.2992 54.6366 20.0589 54.5684 19.8137 54.5684C19.5685 54.5684 19.3281 54.6366 19.1195 54.7654C18.9109 54.8942 18.7423 55.0786 18.6324 55.2978L17.3093 57.9408L14.3429 58.3659C14.0979 58.4009 13.8676 58.5041 13.6784 58.6637C13.4892 58.8233 13.3487 59.0328 13.2728 59.2684C13.1969 59.504 13.1888 59.7562 13.2493 59.9962C13.3098 60.2361 13.4365 60.4543 13.615 60.6258L15.7502 62.6774L15.2471 65.5693C15.2049 65.8118 15.2312 66.0612 15.3232 66.2894C15.4151 66.5177 15.5691 66.7157 15.7675 66.8611C15.966 67.0066 16.2012 67.0937 16.4466 67.1126C16.6919 67.1315 16.9377 67.0815 17.1561 66.9682L19.8137 65.5912L22.4712 66.9682C22.6896 67.0815 22.9354 67.1315 23.1808 67.1126C23.4261 67.0937 23.6613 67.0066 23.8598 66.8611C24.0583 66.7157 24.2122 66.5177 24.3042 66.2894C24.3961 66.0612 24.4225 65.8118 24.3802 65.5693L23.8772 62.6774L26.0123 60.6258C26.1908 60.4543 26.3175 60.2361 26.378 59.9961C26.4385 59.7561 26.4304 59.504 26.3545 59.2684C26.2786 59.0328 26.1381 58.8233 25.9489 58.6637C25.7597 58.5041 25.5295 58.4009 25.2845 58.3659ZM21.5402 61.2591C21.3842 61.409 21.2675 61.5949 21.2002 61.8005C21.1329 62.006 21.1171 62.225 21.1542 62.4381L21.3209 63.3965L20.4215 62.9308C20.2337 62.8334 20.0253 62.7825 19.8137 62.7825C19.6021 62.7825 19.3936 62.8334 19.2058 62.9308L18.3064 63.3965L18.4731 62.4381C18.5103 62.225 18.4945 62.006 18.4272 61.8005C18.3599 61.5949 18.2431 61.409 18.0871 61.2591L17.3977 60.5967L18.3684 60.4574C18.5795 60.4272 18.7802 60.3463 18.9533 60.2216C19.1263 60.0969 19.2667 59.9322 19.3622 59.7415L19.8137 58.8392L20.2652 59.7415C20.3607 59.9322 20.5011 60.0969 20.6741 60.2216C20.8472 60.3463 21.0479 60.4272 21.259 60.4574L22.2297 60.5967L21.5402 61.2591Z" fill="#D00F24"/>
<path d="M82.7358 51.0401L78.394 50.4371L76.463 46.697C76.3517 46.4817 76.1833 46.3012 75.9763 46.1751C75.7693 46.0491 75.5316 45.9824 75.2892 45.9824C75.0468 45.9824 74.8091 46.0491 74.6021 46.1751C74.3951 46.3012 74.2267 46.4817 74.1154 46.697L72.1844 50.4371L67.8426 51.0401C67.5953 51.0745 67.3628 51.1783 67.172 51.3395C66.9813 51.5006 66.8402 51.7125 66.7649 51.9506C66.6897 52.1887 66.6836 52.4433 66.7471 52.6847C66.8107 52.9262 66.9414 53.1447 67.1241 53.3149L70.2295 56.2081L69.4988 60.2784C69.4555 60.5198 69.4803 60.7685 69.5703 60.9966C69.6604 61.2247 69.8121 61.4232 70.0086 61.57C70.2051 61.7167 70.4385 61.8059 70.6828 61.8275C70.9271 61.849 71.1726 61.8022 71.3917 61.6922L75.2892 59.7341L79.1866 61.6922C79.4058 61.8022 79.6512 61.849 79.8955 61.8275C80.1398 61.8059 80.3733 61.7167 80.5698 61.57C80.7662 61.4232 80.918 61.2247 81.008 60.9966C81.0981 60.7685 81.1228 60.5198 81.0795 60.2784L80.3488 56.2081L83.4543 53.3149C83.637 53.1447 83.7677 52.9262 83.8312 52.6847C83.8948 52.4433 83.8886 52.1887 83.8134 51.9506C83.7382 51.7125 83.5971 51.5006 83.4063 51.3395C83.2156 51.1783 82.9831 51.0745 82.7358 51.0401L82.7358 51.0401ZM78.0212 54.7667C77.8596 54.9172 77.7383 55.1059 77.6684 55.3155C77.5985 55.5251 77.5824 55.7488 77.6213 55.9663L78.0128 58.1462L75.8819 57.0756C75.698 56.9831 75.495 56.935 75.2892 56.935C75.0834 56.935 74.8804 56.9831 74.6965 57.0756L72.5656 58.1462L72.9571 55.9663C72.996 55.7489 72.9799 55.5251 72.91 55.3155C72.8401 55.106 72.7188 54.9173 72.5572 54.7667L70.9564 53.2749L73.226 52.9602C73.4354 52.9309 73.6348 52.8519 73.8074 52.7296C73.98 52.6074 74.1208 52.4456 74.218 52.2578L75.2892 50.1824L76.3605 52.2578C76.4577 52.4456 76.5984 52.6074 76.771 52.7296C76.9436 52.8519 77.143 52.9309 77.3525 52.9602L79.622 53.2749L78.0212 54.7667Z" fill="#2451DB"/>
<path d="M97.6802 59.2681C97.6043 59.0326 97.4637 58.8231 97.2746 58.6636C97.0854 58.5041 96.8552 58.4009 96.6102 58.3659L93.6441 57.9408L92.3207 55.2978C92.2109 55.0786 92.0424 54.8943 91.8338 54.7654C91.6252 54.6366 91.3849 54.5684 91.1398 54.5684C90.8946 54.5684 90.6543 54.6366 90.4458 54.7654C90.2372 54.8943 90.0686 55.0786 89.9589 55.2978L88.6354 57.9408L85.6693 58.3659C85.4243 58.4009 85.1941 58.5041 85.0049 58.6637C84.8158 58.8233 84.6752 59.0328 84.5993 59.2683C84.5234 59.5039 84.5152 59.7561 84.5756 59.9961C84.6361 60.2361 84.7628 60.4543 84.9412 60.6258L87.0766 62.6774L86.5729 65.5693C86.5307 65.8118 86.557 66.0612 86.649 66.2894C86.741 66.5177 86.8949 66.7157 87.0934 66.8611C87.2919 67.0066 87.5271 67.0937 87.7724 67.1126C88.0178 67.1315 88.2635 67.0815 88.482 66.9682L91.1398 65.5912L93.7976 66.9682C94.0161 67.0815 94.2618 67.1315 94.5072 67.1126C94.7526 67.0937 94.9877 67.0066 95.1862 66.8611C95.3847 66.7157 95.5386 66.5177 95.6306 66.2894C95.7226 66.0612 95.7489 65.8118 95.7067 65.5693L95.203 62.6774L97.3384 60.6258C97.5169 60.4542 97.6435 60.236 97.704 59.996C97.7644 59.7559 97.7562 59.5037 97.6802 59.2681ZM92.8663 61.2591C92.7104 61.409 92.5937 61.5949 92.5263 61.8005C92.459 62.006 92.443 62.225 92.48 62.4381L92.647 63.3965L91.7473 62.9308C91.5596 62.8334 91.3512 62.7825 91.1398 62.7825C90.9283 62.7825 90.7199 62.8334 90.5322 62.9308L89.6325 63.3965L89.7996 62.4381C89.8365 62.225 89.8206 62.006 89.7532 61.8005C89.6858 61.5949 89.5691 61.409 89.4132 61.2591L88.7238 60.5967L89.6945 60.4574C89.9057 60.4273 90.1064 60.3464 90.2795 60.2218C90.4526 60.0971 90.5929 59.9323 90.6883 59.7415L91.1398 58.8399L91.5913 59.7415C91.6867 59.9323 91.827 60.0971 92.0001 60.2218C92.1732 60.3464 92.374 60.4273 92.5851 60.4574L93.5558 60.5967L92.8663 61.2591Z" fill="#D00F24"/>
<path d="M1.32086 100.138C2.05035 100.138 2.64172 99.5464 2.64172 98.817C2.64172 98.0875 2.05035 97.4961 1.32086 97.4961C0.591369 97.4961 0 98.0875 0 98.817C0 99.5464 0.591369 100.138 1.32086 100.138Z" fill="#2D4356"/>
<path d="M7.26479 97.4961H5.28351C4.93319 97.4961 4.59723 97.6353 4.34952 97.883C4.10181 98.1307 3.96265 98.4666 3.96265 98.817C3.96265 99.1673 4.10181 99.5032 4.34952 99.7509C4.59723 99.9987 4.93319 100.138 5.28351 100.138H7.26479C7.61511 100.138 7.95107 99.9987 8.19878 99.7509C8.44649 99.5032 8.58565 99.1673 8.58565 98.817C8.58565 98.4666 8.44649 98.1307 8.19878 97.883C7.95107 97.6353 7.61511 97.4961 7.26479 97.4961ZM105.669 97.4961H103.688C103.337 97.4961 103.001 97.6353 102.754 97.883C102.506 98.1307 102.367 98.4666 102.367 98.817C102.367 99.1673 102.506 99.5032 102.754 99.7509C103.001 99.9987 103.337 100.138 103.688 100.138H105.669C106.019 100.138 106.355 99.9987 106.603 99.7509C106.85 99.5032 106.99 99.1673 106.99 98.817C106.99 98.4666 106.85 98.1307 106.603 97.883C106.355 97.6353 106.019 97.4961 105.669 97.4961Z" fill="#2D4356"/>
<path d="M109.632 100.138C110.361 100.138 110.953 99.5464 110.953 98.817C110.953 98.0875 110.361 97.4961 109.632 97.4961C108.902 97.4961 108.311 98.0875 108.311 98.817C108.311 99.5464 108.902 100.138 109.632 100.138Z" fill="#2D4356"/>
<path d="M78.0324 102.779H72.5457C72.2137 102.806 71.9038 102.957 71.6779 103.201C71.4519 103.446 71.3264 103.767 71.3264 104.1C71.3264 104.433 71.4519 104.754 71.6779 104.999C71.9038 105.244 72.2137 105.394 72.5457 105.421H78.0324C78.3644 105.394 78.6743 105.244 78.9002 104.999C79.1262 104.754 79.2516 104.433 79.2516 104.1C79.2516 103.767 79.1262 103.446 78.9002 103.201C78.6743 102.957 78.3644 102.806 78.0324 102.779ZM38.4066 102.779H32.9199C32.5879 102.806 32.278 102.957 32.0521 103.201C31.8261 103.446 31.7007 103.767 31.7007 104.1C31.7007 104.433 31.8261 104.754 32.0521 104.999C32.278 105.244 32.5879 105.394 32.9199 105.421H38.4066C38.7387 105.394 39.0485 105.244 39.2745 104.999C39.5004 104.754 39.6259 104.433 39.6259 104.1C39.6259 103.767 39.5004 103.446 39.2745 103.201C39.0485 102.957 38.7387 102.806 38.4066 102.779ZM68.6847 102.779H42.2676C41.9173 102.779 41.5813 102.918 41.3336 103.166C41.0859 103.414 40.9467 103.75 40.9467 104.1C40.9467 104.45 41.0859 104.786 41.3336 105.034C41.5813 105.282 41.9173 105.421 42.2676 105.421H52.7948V106.742H47.551C47.2007 106.742 46.8647 106.881 46.617 107.129C46.3693 107.376 46.2301 107.712 46.2301 108.063C46.2301 108.413 46.3693 108.749 46.617 108.997C46.8647 109.244 47.2007 109.384 47.551 109.384H64.0617C64.4121 109.384 64.748 109.244 64.9957 108.997C65.2434 108.749 65.3826 108.413 65.3826 108.063C65.3826 107.712 65.2434 107.376 64.9957 107.129C64.748 106.881 64.4121 106.742 64.0617 106.742H58.1575V105.421H68.6847C69.0351 105.421 69.371 105.282 69.6187 105.034C69.8664 104.786 70.0056 104.45 70.0056 104.1C70.0056 103.75 69.8664 103.414 69.6187 103.166C69.371 102.918 69.0351 102.779 68.6847 102.779Z" fill="#D00F24"/>
<path d="M99.5411 97.4962H73.3081V94.8545C73.3064 94.3069 73.1342 93.7733 72.8154 93.328C72.4967 92.8827 72.0471 92.5477 71.5293 92.3695C72.2908 89.0564 72.6648 85.6659 72.6437 82.2664C72.6419 82.151 72.5352 76.4808 72.5352 76.4808C72.4976 75.2871 71.995 74.1555 71.1345 73.3273C70.2741 72.4992 69.1241 72.0401 67.9299 72.0481L67.8701 72.0485C67.7576 72.0501 67.6462 72.0556 67.5357 72.0651C67.1022 71.4923 66.5419 71.0278 65.8987 70.7081C65.2554 70.3884 64.5468 70.2222 63.8286 70.2225C63.7509 70.2319 63.6725 70.2337 63.5944 70.2279C63.1839 69.681 62.6576 69.2316 62.0531 68.9118C61.4487 68.592 60.781 68.4097 60.0979 68.378V64.4747L60.0976 64.4407C60.0639 61.8245 58.2067 59.8518 55.7776 59.8518L55.7261 59.852C55.1789 59.8543 54.6375 59.9653 54.1336 60.1786C53.6296 60.3919 53.1731 60.7033 52.7905 61.0946C52.3647 61.5491 52.0326 62.0831 51.8134 62.6661C51.5941 63.249 51.492 63.8695 51.5128 64.492V74.6984C50.8772 74.4298 50.1946 74.2903 49.5046 74.2878C48.5806 74.2635 47.6709 74.5205 46.8963 75.0249C46.1217 75.5293 45.5186 76.2571 45.1671 77.112C44.4937 78.9834 45.1295 81.2342 47.1111 83.9905L52.312 92.5054C51.8751 92.7234 51.5074 93.0585 51.2499 93.4733C50.9923 93.8881 50.8551 94.3663 50.8535 94.8545V97.4962H11.4117C11.2237 97.4717 11.0328 97.4875 10.8515 97.5426C10.6701 97.5978 10.5027 97.691 10.3603 97.816C10.2179 97.941 10.1038 98.095 10.0256 98.2676C9.94742 98.4403 9.90698 98.6276 9.90698 98.8171C9.90698 99.0066 9.94742 99.1939 10.0256 99.3666C10.1038 99.5392 10.2179 99.6932 10.3603 99.8182C10.5027 99.9432 10.6701 100.036 10.8515 100.092C11.0328 100.147 11.2237 100.162 11.4117 100.138H99.5411C99.729 100.162 99.92 100.147 100.101 100.092C100.283 100.036 100.45 99.9432 100.592 99.8182C100.735 99.6932 100.849 99.5392 100.927 99.3666C101.005 99.1939 101.046 99.0066 101.046 98.8171C101.046 98.6276 101.005 98.4403 100.927 98.2676C100.849 98.095 100.735 97.941 100.592 97.816C100.45 97.691 100.283 97.5978 100.101 97.5426C99.92 97.4875 99.729 97.4717 99.5411 97.4962ZM49.3123 82.5263C48.4852 81.1721 46.1211 78.2673 48.4772 77.1711C49.7041 76.6001 50.9754 77.2361 51.9205 78.0952C52.3007 78.4457 52.652 78.8263 52.971 79.2333C53.057 79.3387 53.1732 79.4153 53.304 79.4529C53.4348 79.4904 53.5739 79.487 53.7027 79.4431C53.8315 79.3993 53.9439 79.3171 54.0246 79.2076C54.1054 79.0981 54.1507 78.9665 54.1545 78.8305V64.4747C54.1387 63.4492 54.6711 62.5078 55.7561 62.4936L55.7776 62.4935C56.8488 62.4935 57.443 63.4573 57.4561 64.4747V72.5811C57.4561 72.5811 57.4649 72.7481 57.4842 72.7481C57.4885 72.7481 57.4934 72.7397 57.4988 72.719C57.5099 72.6765 57.523 72.6343 57.5382 72.5923C57.7448 72.1442 58.0693 71.7607 58.4771 71.4828C58.8849 71.2049 59.3605 71.0432 59.8531 71.0148L59.8791 71.0147C60.3811 71.0014 60.8682 71.186 61.2354 71.5286C61.6026 71.8712 61.8205 72.3443 61.8421 72.846L61.8573 74.2613C61.8573 74.2613 61.8678 74.3215 61.8872 74.3215C61.8978 74.3215 61.9111 74.3033 61.9268 74.2469C62.0481 73.8454 62.2959 73.4939 62.6333 73.2448C62.9707 72.9956 63.3795 72.8622 63.7989 72.8644L63.8285 72.8642C64.3304 72.8519 64.8172 73.0368 65.1843 73.3793C65.5514 73.7218 65.7696 74.1945 65.7921 74.6961L65.9356 76.2293C65.9356 76.2293 65.9536 76.2824 65.9713 76.2824C65.9796 76.2824 65.9879 76.2705 65.9941 76.2355C66.0844 75.7969 66.324 75.4031 66.6721 75.1213C67.0202 74.8394 67.4553 74.687 67.9031 74.69L67.9299 74.6898C68.4317 74.6772 68.9184 74.8618 69.2856 75.204C69.6528 75.5463 69.8711 76.0188 69.8938 76.5203L69.9939 83.2107L70.0022 82.3063C70.0195 85.6428 69.6331 88.9691 68.8515 92.2128H55.2288L49.3123 82.5263ZM53.4952 94.8545H70.6664V97.4962H53.4952V94.8545ZM39.1669 16.7587C39.5587 16.7587 39.9418 16.6425 40.2676 16.4248C40.5934 16.2071 40.8474 15.8977 40.9973 15.5356C41.1473 15.1736 41.1865 14.7752 41.1101 14.3909C41.0336 14.0066 40.8449 13.6535 40.5679 13.3765C40.2908 13.0994 39.9377 12.9107 39.5534 12.8342C39.1691 12.7578 38.7707 12.797 38.4087 12.947C38.0466 13.0969 37.7372 13.3509 37.5195 13.6767C37.3018 14.0025 37.1856 14.3856 37.1856 14.7774C37.1862 15.3027 37.3951 15.8063 37.7666 16.1778C38.138 16.5492 38.6416 16.7581 39.1669 16.7587ZM39.1669 13.7868C39.3628 13.7868 39.5543 13.8449 39.7172 13.9537C39.8802 14.0626 40.0071 14.2173 40.0821 14.3983C40.1571 14.5794 40.1767 14.7785 40.1385 14.9707C40.1003 15.1629 40.0059 15.3394 39.8674 15.4779C39.7288 15.6165 39.5523 15.7108 39.3601 15.749C39.168 15.7873 38.9688 15.7677 38.7878 15.6927C38.6068 15.6177 38.452 15.4907 38.3432 15.3278C38.2343 15.1649 38.1762 14.9734 38.1762 14.7774C38.1765 14.5148 38.2809 14.263 38.4667 14.0772C38.6524 13.8915 38.9042 13.7871 39.1669 13.7868ZM82.554 20.7213C82.2927 20.7213 82.0374 20.7988 81.8202 20.9439C81.6029 21.089 81.4336 21.2953 81.3337 21.5367C81.2337 21.778 81.2075 22.0436 81.2585 22.2998C81.3095 22.5561 81.4353 22.7914 81.62 22.9762C81.8047 23.1609 82.0401 23.2867 82.2963 23.3376C82.5525 23.3886 82.8181 23.3624 83.0594 23.2625C83.3008 23.1625 83.5071 22.9932 83.6522 22.776C83.7974 22.5588 83.8748 22.3034 83.8748 22.0422C83.8744 21.692 83.7351 21.3562 83.4875 21.1086C83.2399 20.861 82.9042 20.7217 82.554 20.7213ZM82.554 22.7026C82.4234 22.7026 82.2957 22.6639 82.1871 22.5913C82.0785 22.5187 81.9938 22.4156 81.9438 22.2949C81.8938 22.1742 81.8808 22.0414 81.9062 21.9133C81.9317 21.7852 81.9946 21.6675 82.087 21.5752C82.1793 21.4828 82.297 21.4199 82.4251 21.3944C82.5532 21.3689 82.686 21.382 82.8067 21.432C82.9274 21.482 83.0305 21.5666 83.1031 21.6752C83.1757 21.7839 83.2144 21.9115 83.2144 22.0422C83.2142 22.2173 83.1446 22.3851 83.0208 22.509C82.897 22.6328 82.7291 22.7024 82.554 22.7026ZM94.1115 41.855C93.8503 41.855 93.5949 41.9325 93.3777 42.0776C93.1604 42.2228 92.9911 42.4291 92.8912 42.6704C92.7912 42.9118 92.7651 43.1774 92.816 43.4336C92.867 43.6898 92.9928 43.9252 93.1775 44.1099C93.3622 44.2946 93.5976 44.4204 93.8538 44.4714C94.11 44.5224 94.3756 44.4962 94.617 44.3962C94.8583 44.2962 95.0646 44.1269 95.2097 43.9097C95.3549 43.6925 95.4324 43.4371 95.4324 43.1759C95.432 42.8257 95.2927 42.49 95.045 42.2424C94.7974 41.9947 94.4617 41.8554 94.1115 41.855ZM94.1115 43.8363C93.9809 43.8363 93.8532 43.7976 93.7446 43.725C93.636 43.6525 93.5513 43.5493 93.5013 43.4286C93.4514 43.308 93.4383 43.1752 93.4638 43.0471C93.4892 42.9189 93.5521 42.8013 93.6445 42.7089C93.7369 42.6165 93.8545 42.5536 93.9827 42.5282C94.1108 42.5027 94.2436 42.5158 94.3642 42.5657C94.4849 42.6157 94.5881 42.7004 94.6606 42.809C94.7332 42.9176 94.7719 43.0453 94.7719 43.1759C94.7717 43.351 94.7021 43.5189 94.5783 43.6427C94.4545 43.7665 94.2866 43.8362 94.1115 43.8363ZM90.6442 1.56885C90.383 1.56885 90.1276 1.64631 89.9104 1.79145C89.6932 1.93659 89.5239 2.14288 89.4239 2.38424C89.3239 2.62559 89.2978 2.89117 89.3488 3.14739C89.3997 3.40361 89.5255 3.63897 89.7103 3.82369C89.895 4.00842 90.1303 4.13422 90.3866 4.18519C90.6428 4.23615 90.9083 4.20999 91.1497 4.11002C91.3911 4.01005 91.5974 3.84075 91.7425 3.62354C91.8876 3.40632 91.9651 3.15095 91.9651 2.88971C91.9647 2.53952 91.8254 2.20378 91.5778 1.95616C91.3302 1.70854 90.9944 1.56925 90.6442 1.56885ZM90.6442 3.55014C90.5136 3.55014 90.3859 3.5114 90.2773 3.43883C90.1687 3.36626 90.0841 3.26312 90.0341 3.14244C89.9841 3.02176 89.971 2.88897 89.9965 2.76086C90.022 2.63275 90.0849 2.51508 90.1772 2.42271C90.2696 2.33035 90.3873 2.26745 90.5154 2.24197C90.6435 2.21648 90.7763 2.22956 90.897 2.27955C91.0177 2.32954 91.1208 2.41418 91.1934 2.52279C91.2659 2.6314 91.3047 2.75909 91.3047 2.88971C91.3045 3.06481 91.2349 3.23269 91.111 3.35651C90.9872 3.48032 90.8193 3.54996 90.6442 3.55014ZM18.1621 4.871C18.1621 4.60975 18.0846 4.35438 17.9395 4.13717C17.7944 3.91995 17.5881 3.75065 17.3467 3.65068C17.1054 3.55071 16.8398 3.52455 16.5836 3.57552C16.3273 3.62648 16.092 3.75228 15.9073 3.93701C15.7225 4.12173 15.5967 4.35709 15.5458 4.61331C15.4948 4.86953 15.521 5.13511 15.6209 5.37647C15.7209 5.61782 15.8902 5.82411 16.1074 5.96925C16.3246 6.11439 16.58 6.19185 16.8412 6.19185C17.1914 6.19145 17.5272 6.05216 17.7748 5.80454C18.0224 5.55692 18.1617 5.22119 18.1621 4.871ZM16.1808 4.871C16.1808 4.74037 16.2196 4.61269 16.2921 4.50408C16.3647 4.39547 16.4678 4.31082 16.5885 4.26084C16.7092 4.21085 16.842 4.19777 16.9701 4.22326C17.0982 4.24874 17.2159 4.31164 17.3082 4.404C17.4006 4.49636 17.4635 4.61404 17.489 4.74215C17.5145 4.87026 17.5014 5.00305 17.4514 5.12373C17.4014 5.24441 17.3168 5.34755 17.2082 5.42012C17.0996 5.49269 16.9719 5.53142 16.8412 5.53142C16.6661 5.53125 16.4983 5.46161 16.3744 5.3378C16.2506 5.21398 16.181 5.0461 16.1808 4.871Z" fill="#2D4356"/>
<path d="M4.54918 25.5165L5.53124 24.2254L4.9111 23.874L4.28039 25.3204H4.25991L3.6193 23.8839L2.98859 24.2458L3.96008 25.5066V25.5271L2.44043 25.3309V26.0336L3.96998 25.8375V25.858L2.98859 27.1181L3.57703 27.4905L4.24935 26.0336H4.26982L4.88996 27.48L5.54115 27.1081L4.54918 25.8679V25.8474L6.10912 26.0336V25.3309L4.54918 25.537V25.5165Z" fill="#D00F24"/>
<path d="M21.5185 41.8994L20.9531 42.6252L21.2926 42.8392L21.6796 42.0004H21.6908L22.0481 42.8332L22.4233 42.6192L21.852 41.9047V41.8928L22.7502 42.0004V41.5956L21.852 41.7145V41.7026L22.4173 40.9589L22.0607 40.7568L21.6974 41.5896H21.6856L21.3164 40.7621L20.9531 40.9708L21.5125 41.6966V41.7085L20.6375 41.5956V42.0004L21.5185 41.8875V41.8994Z" fill="#D00F24"/>
<path d="M108.513 22.0174V21.3286L106.983 21.5313V21.5109L107.945 20.2442L107.337 19.8994L106.719 21.318H106.699L106.07 19.9093L105.452 20.2646L106.405 21.501V21.5214L104.914 21.3286V22.0174L106.415 21.8252V21.8457L105.452 23.082L106.03 23.4472L106.689 22.0174H106.708L107.317 23.4367L107.955 23.0721L106.983 21.8556V21.8351L108.513 22.0174Z" fill="#D00F24"/>
<path d="M63.8954 7.5694L64.7262 6.47639L64.2012 6.1792L63.6682 7.40297H63.6504L63.1088 6.18779L62.5745 6.49422L63.3968 7.56082V7.57799L62.1116 7.41222V8.00661L63.4054 7.84018V7.85801L62.5745 8.9246L63.0732 9.23963L63.6418 8.00661H63.659L64.184 9.23038L64.7348 8.91602L63.8954 7.8666V7.84877L65.2149 8.00661V7.41222L63.8954 7.58657V7.5694Z" fill="#D00F24"/>
</g>
<defs>
<clipPath id="clip0_1457_4030">
<rect width="110.952" height="110.952" fill="white"/>
</clipPath>
</defs>
</svg>
