<svg width="16" height="17" viewBox="0 0 16 17" fill="none" xmlns="http://www.w3.org/2000/svg">
<path fill-rule="evenodd" clip-rule="evenodd" d="M2 7C2 4.51472 4.01472 2.5 6.5 2.5C8.98528 2.5 11 4.51472 11 7C11 9.48528 8.98528 11.5 6.5 11.5C4.01472 11.5 2 9.48528 2 7ZM6.5 0.5C2.91015 0.5 0 3.41015 0 7C0 10.5899 2.91015 13.5 6.5 13.5C7.9341 13.5 9.25973 13.0356 10.3347 12.2489L14.2929 16.2071L15.7071 14.7929L11.7489 10.8347C12.5356 9.75973 13 8.4341 13 7C13 3.41015 10.0899 0.5 6.5 0.5Z" fill="#0E0E0E"/>
</svg>
