<svg width="20" height="18" viewBox="0 0 20 18" fill="none" xmlns="http://www.w3.org/2000/svg">
<path fill-rule="evenodd" clip-rule="evenodd" d="M6 7.5C6 5.01472 8.01472 3 10.5 3C12.9853 3 15 5.01472 15 7.5C15 9.98528 12.9853 12 10.5 12C8.01472 12 6 9.98528 6 7.5ZM10.5 1C6.91015 1 4 3.91015 4 7.5C4 11.0899 6.91015 14 10.5 14C11.9341 14 13.2597 13.5356 14.3347 12.7489L18.2929 16.7071L19.7071 15.2929L15.7489 11.3347C16.5356 10.2597 17 8.9341 17 7.5C17 3.91015 14.0899 1 10.5 1Z" fill="#0E0E0E"/>
</svg>
