<svg width="43" height="43" viewBox="0 0 43 43" fill="none" xmlns="http://www.w3.org/2000/svg">
<g clip-path="url(#clip0_6541_34813)">
<path d="M17.6778 21.213H37.1232M17.6778 21.213L14.5842 30.4938C14.5383 30.6172 14.5289 30.7512 14.5569 30.8798C14.585 31.0084 14.6494 31.1263 14.7425 31.2194C14.8356 31.3125 14.9534 31.3769 15.0821 31.4049C15.2107 31.433 15.3447 31.4236 15.4681 31.3777L37.1232 21.213M17.6778 21.213L14.5842 11.9323C14.5383 11.8089 14.5289 11.6749 14.5569 11.5463C14.585 11.4177 14.6494 11.2998 14.7425 11.2067C14.8356 11.1136 14.9534 11.0492 15.0821 11.0212C15.2107 10.9931 15.3447 11.0025 15.4681 11.0484L37.1232 21.213" stroke="#3463ED" stroke-width="2" stroke-linecap="round" stroke-linejoin="round"/>
</g>
<defs>
<clipPath id="clip0_6541_34813">
<rect width="30" height="30" fill="white" transform="translate(21.2129) rotate(45)"/>
</clipPath>
</defs>
</svg>
