<svg width="36" height="36" viewBox="0 0 36 36" fill="none" xmlns="http://www.w3.org/2000/svg">
<rect width="36" height="36" rx="18" fill="#FFB81F"/>
<path d="M16.0006 21L27.0006 10M16.0006 21L19.5006 28C19.5444 28.0957 19.6149 28.1769 19.7035 28.2338C19.7921 28.2906 19.8952 28.3209 20.0006 28.3209C20.1059 28.3209 20.209 28.2906 20.2976 28.2338C20.3862 28.1769 20.4567 28.0957 20.5006 28L27.0006 10M16.0006 21L9.00056 17.5C8.90482 17.4561 8.82369 17.3857 8.7668 17.2971C8.70992 17.2084 8.67969 17.1053 8.67969 17C8.67969 16.8947 8.70992 16.7916 8.7668 16.7029C8.82369 16.6143 8.90482 16.5439 9.00056 16.5L27.0006 10" stroke="white" stroke-width="2" stroke-linecap="round" stroke-linejoin="round"/>
</svg>
