<svg width="36" height="36" viewBox="0 0 36 36" fill="none" xmlns="http://www.w3.org/2000/svg">
<rect width="36" height="36" rx="18" fill="#3463ED"/>
<path d="M15.9996 21L26.9996 10M15.9996 21L19.4996 28C19.5435 28.0957 19.6139 28.1769 19.7025 28.2338C19.7912 28.2906 19.8943 28.3209 19.9996 28.3209C20.1049 28.3209 20.208 28.2906 20.2966 28.2338C20.3853 28.1769 20.4557 28.0957 20.4996 28L26.9996 10M15.9996 21L8.99958 17.5C8.90384 17.4561 8.82271 17.3857 8.76583 17.2971C8.70895 17.2084 8.67871 17.1053 8.67871 17C8.67871 16.8947 8.70895 16.7916 8.76583 16.7029C8.82271 16.6143 8.90384 16.5439 8.99958 16.5L26.9996 10" stroke="white" stroke-width="2" stroke-linecap="round" stroke-linejoin="round"/>
</svg>
