<svg width="21" height="22" viewBox="0 0 21 22" fill="none" xmlns="http://www.w3.org/2000/svg">
<path d="M15.8323 14.1415C14.9718 14.3998 14.2616 14.9211 13.7644 15.5909L7.78414 12.3713C7.93928 11.9434 8.02505 11.4818 8.02505 11C8.02505 10.5182 7.94025 10.0566 7.78414 9.6287L13.7644 6.40911C14.2616 7.07886 14.9718 7.60019 15.8323 7.85846C17.9552 8.49544 20.1927 7.29087 20.8296 5.16792C21.4666 3.04497 20.2621 0.807343 18.1392 0.170362C16.0164 -0.466619 13.7788 0.737952 13.1419 2.8609C12.8836 3.72145 12.9279 4.60128 13.2141 5.38474L7.23392 8.60529C6.50253 7.62236 5.33171 6.98635 4.01348 6.98635C1.79715 6.98635 0 8.78358 0 11C0 13.2164 1.79715 15.0137 4.01348 15.0137C5.33267 15.0137 6.50253 14.3776 7.23392 13.3947L13.2141 16.6153C12.9289 17.3997 12.8836 18.2785 13.1419 19.1391C13.7788 21.262 16.0164 22.4666 18.1392 21.8296C20.2621 21.1927 21.4666 18.955 20.8296 16.8321C20.1927 14.7091 17.9552 13.5046 15.8323 14.1415Z" fill="#898989"/>
</svg>
