<svg width="24" height="25" viewBox="0 0 24 25" fill="none" xmlns="http://www.w3.org/2000/svg">
<path d="M6 15.9023C7.65685 15.9023 9 14.5592 9 12.9023C9 11.2455 7.65685 9.90234 6 9.90234C4.34315 9.90234 3 11.2455 3 12.9023C3 14.5592 4.34315 15.9023 6 15.9023Z" stroke="#3463ED" stroke-width="2" stroke-linecap="round" stroke-linejoin="round"/>
<path d="M18 9.90234C19.6569 9.90234 21 8.5592 21 6.90234C21 5.24549 19.6569 3.90234 18 3.90234C16.3431 3.90234 15 5.24549 15 6.90234C15 8.5592 16.3431 9.90234 18 9.90234Z" stroke="#3463ED" stroke-width="2" stroke-linecap="round" stroke-linejoin="round"/>
<path d="M18 21.9023C19.6569 21.9023 21 20.5592 21 18.9023C21 17.2455 19.6569 15.9023 18 15.9023C16.3431 15.9023 15 17.2455 15 18.9023C15 20.5592 16.3431 21.9023 18 21.9023Z" stroke="#3463ED" stroke-width="2" stroke-linecap="round" stroke-linejoin="round"/>
<path d="M8.70001 11.6031L15.3 8.20312M8.70001 14.2031L15.3 17.6031" stroke="#3463ED" stroke-width="2" stroke-linecap="round" stroke-linejoin="round"/>
</svg>
