<svg width="29" height="29" viewBox="0 0 29 29" fill="none" xmlns="http://www.w3.org/2000/svg">
<path d="M17.7625 27.4897H11.2375C5.26833 27.4897 2.73083 24.9401 2.73083 18.983V13.5576C2.73083 13.0622 3.14167 12.6514 3.63708 12.6514C4.1325 12.6514 4.54333 13.0622 4.54333 13.5576V18.983C4.54333 23.9251 6.29542 25.6772 11.2375 25.6772H17.7504C22.6925 25.6772 24.4446 23.9251 24.4446 18.983V13.5576C24.4446 13.0622 24.8554 12.6514 25.3508 12.6514C25.8463 12.6514 26.2571 13.0622 26.2571 13.5576V18.983C26.2692 24.9401 23.7196 27.4897 17.7625 27.4897Z" fill="#292D32"/>
<path d="M14.5 15.4066C13.1709 15.4066 11.9625 14.887 11.1046 13.9324C10.2467 12.9778 9.84796 11.7332 9.98088 10.4041L10.7905 2.33241C10.8388 1.87324 11.2255 1.51074 11.6967 1.51074H17.3396C17.8109 1.51074 18.1975 1.86116 18.2459 2.33241L19.0555 10.4041C19.1884 11.7332 18.7896 12.9778 17.9317 13.9324C17.0375 14.887 15.8292 15.4066 14.5 15.4066ZM12.5063 3.32324L11.7813 10.5853C11.6967 11.3949 11.9384 12.1562 12.4459 12.712C13.473 13.8478 15.5271 13.8478 16.5542 12.712C17.0617 12.1441 17.3034 11.3828 17.2188 10.5853L16.4938 3.32324H12.5063Z" fill="#292D32"/>
<path d="M22.1246 15.4066C19.6717 15.4066 17.4846 13.4249 17.2309 10.9841L16.385 2.51366C16.3609 2.25991 16.4455 2.00616 16.6146 1.81283C16.7838 1.61949 17.0255 1.51074 17.2913 1.51074H20.9767C24.5292 1.51074 26.1846 2.99699 26.68 6.64616L27.0184 10.0053C27.1634 11.4312 26.7284 12.7845 25.798 13.8116C24.8675 14.8387 23.5625 15.4066 22.1246 15.4066ZM18.2942 3.32324L19.0434 10.8028C19.2005 12.3132 20.6021 13.5941 22.1246 13.5941C23.043 13.5941 23.8646 13.2437 24.4567 12.6032C25.0367 11.9628 25.3025 11.1049 25.218 10.1866L24.8796 6.86366C24.505 4.13283 23.623 3.32324 20.9767 3.32324H18.2942Z" fill="#292D32"/>
<path d="M6.81503 15.4066C5.37711 15.4066 4.07211 14.8387 3.14169 13.8116C2.21128 12.7845 1.77628 11.4312 1.92128 10.0053L2.24753 6.68241C2.75503 2.99699 4.41044 1.51074 7.96294 1.51074H11.6484C11.9021 1.51074 12.1438 1.61949 12.325 1.81283C12.5063 2.00616 12.5788 2.25991 12.5546 2.51366L11.7088 10.9841C11.455 13.4249 9.26794 15.4066 6.81503 15.4066ZM7.96294 3.32324C5.31669 3.32324 4.43461 4.12074 4.04794 6.88783L3.72169 10.1866C3.62503 11.1049 3.90294 11.9628 4.48294 12.6032C5.06294 13.2437 5.88461 13.5941 6.81503 13.5941C8.33753 13.5941 9.75128 12.3132 9.89628 10.8028L10.6454 3.32324H7.96294Z" fill="#292D32"/>
<path d="M17.5208 27.4899H11.4791C10.9837 27.4899 10.5729 27.0791 10.5729 26.5837V23.5628C10.5729 21.0253 11.9625 19.6357 14.5 19.6357C17.0375 19.6357 18.427 21.0253 18.427 23.5628V26.5837C18.427 27.0791 18.0162 27.4899 17.5208 27.4899ZM12.3854 25.6774H16.6145V23.5628C16.6145 22.0403 16.0225 21.4482 14.5 21.4482C12.9775 21.4482 12.3854 22.0403 12.3854 23.5628V25.6774Z" fill="#292D32"/>
</svg>
