<svg width="29" height="29" viewBox="0 0 29 29" fill="none" xmlns="http://www.w3.org/2000/svg">
<path d="M21.2909 11.625H14.9471C14.4517 11.625 14.0409 11.2142 14.0409 10.7188C14.0409 10.2233 14.4517 9.8125 14.9471 9.8125H21.2909C21.7863 9.8125 22.1971 10.2233 22.1971 10.7188C22.1971 11.2142 21.7984 11.625 21.2909 11.625Z" fill="#292931"/>
<path d="M8.6033 12.5419C8.37372 12.5419 8.14414 12.4573 7.96289 12.2761L7.05664 11.3698C6.70622 11.0194 6.70622 10.4394 7.05664 10.089C7.40705 9.73857 7.98705 9.73857 8.33747 10.089L8.6033 10.3548L10.6816 8.27648C11.0321 7.92607 11.6121 7.92607 11.9625 8.27648C12.3129 8.6269 12.3129 9.2069 11.9625 9.55732L9.24372 12.2761C9.07455 12.4452 8.84497 12.5419 8.6033 12.5419Z" fill="#292931"/>
<path d="M21.2909 20.082H14.9471C14.4517 20.082 14.0409 19.6712 14.0409 19.1758C14.0409 18.6804 14.4517 18.2695 14.9471 18.2695H21.2909C21.7863 18.2695 22.1971 18.6804 22.1971 19.1758C22.1971 19.6712 21.7984 20.082 21.2909 20.082Z" fill="#292931"/>
<path d="M8.6033 21.0009C8.37372 21.0009 8.14414 20.9163 7.96289 20.7351L7.05664 19.8288C6.70622 19.4784 6.70622 18.8984 7.05664 18.548C7.40705 18.1976 7.98705 18.1976 8.33747 18.548L8.6033 18.8138L10.6816 16.7355C11.0321 16.3851 11.6121 16.3851 11.9625 16.7355C12.3129 17.0859 12.3129 17.6659 11.9625 18.0163L9.24372 20.7351C9.07455 20.9042 8.84497 21.0009 8.6033 21.0009Z" fill="#292931"/>
<path d="M18.125 27.4889H10.875C4.31371 27.4889 1.51038 24.6856 1.51038 18.1243V10.8743C1.51038 4.3131 4.31371 1.50977 10.875 1.50977H18.125C24.6862 1.50977 27.4895 4.3131 27.4895 10.8743V18.1243C27.4895 24.6856 24.6862 27.4889 18.125 27.4889ZM10.875 3.32227C5.30454 3.32227 3.32288 5.30393 3.32288 10.8743V18.1243C3.32288 23.6948 5.30454 25.6764 10.875 25.6764H18.125C23.6954 25.6764 25.677 23.6948 25.677 18.1243V10.8743C25.677 5.30393 23.6954 3.32227 18.125 3.32227H10.875Z" fill="#292931"/>
</svg>
