<svg width="24" height="25" viewBox="0 0 24 25" fill="none" xmlns="http://www.w3.org/2000/svg">
<path d="M4 8.5V6.5C4 5.96957 4.21071 5.46086 4.58579 5.08579C4.96086 4.71071 5.46957 4.5 6 4.5H8M4 16.5V18.5C4 19.0304 4.21071 19.5391 4.58579 19.9142C4.96086 20.2893 5.46957 20.5 6 20.5H8M16 4.5H18C18.5304 4.5 19.0391 4.71071 19.4142 5.08579C19.7893 5.46086 20 5.96957 20 6.5V8.5M16 20.5H18C18.5304 20.5 19.0391 20.2893 19.4142 19.9142C19.7893 19.5391 20 19.0304 20 18.5V16.5M8.603 10.11C8.7929 9.91649 9.01948 9.76278 9.26947 9.65785C9.51947 9.55291 9.78787 9.49887 10.059 9.49887C10.3301 9.49887 10.5985 9.55291 10.8485 9.65785C11.0985 9.76278 11.3251 9.91649 11.515 10.11L12 10.5L12.5 10.104C12.6898 9.91262 12.9157 9.76083 13.1646 9.65747C13.4135 9.5541 13.6804 9.50121 13.95 9.50186C14.2195 9.50251 14.4862 9.55669 14.7346 9.66126C14.983 9.76583 15.2082 9.9187 15.397 10.111C15.7835 10.5044 16.0001 11.0339 16.0001 11.5855C16.0001 12.1371 15.7835 12.6666 15.397 13.06L12 16.5L8.603 13.06C8.21617 12.6665 7.9994 12.1368 7.9994 11.585C7.9994 11.0332 8.21617 10.5035 8.603 10.11Z" stroke="#3463ED" stroke-width="2" stroke-linecap="round" stroke-linejoin="round"/>
</svg>
