<svg width="33" height="33" viewBox="0 0 33 33" fill="none" xmlns="http://www.w3.org/2000/svg">
<path d="M14.7695 7.8197C12.3117 7.8197 10.3125 9.84602 10.3125 12.3371V16.8546H14.7695C17.2272 16.8546 19.2264 14.8283 19.2264 12.3371C19.2264 9.84602 17.2272 7.8197 14.7695 7.8197ZM14.7695 14.3262H12.8071V12.3371C12.8071 11.2404 13.6874 10.3481 14.7695 10.3481C15.8515 10.3481 16.7325 11.2404 16.7325 12.3371C16.7325 13.4339 15.8522 14.3262 14.7695 14.3262Z" fill="#99B1F6"/>
<path d="M12.5054 7.80527C12.4952 7.78524 11.5385 7.9358 11.4724 7.94063C10.7767 7.99036 10.0579 7.97033 9.38329 7.77764C9.01943 7.67335 8.0573 7.30386 7.79224 6.453C7.75477 6.33145 7.63689 5.93365 7.81269 5.49993C7.99121 5.05861 8.36052 4.8604 8.46818 4.80446C8.79388 4.63594 9.09574 4.64423 9.23474 4.64423C10.0504 4.64768 10.7392 5.19674 11.2496 5.79345C11.7681 6.39982 12.1409 7.09806 12.5054 7.80527Z" fill="#99B1F6"/>
<path d="M12.8173 7.71615C12.8282 7.70925 12.711 7.16296 12.7056 7.12497C12.6538 6.72578 12.6402 6.31002 12.7253 5.91429C12.771 5.70088 12.9461 5.13318 13.4142 4.95154C13.481 4.9253 13.7004 4.8438 13.9498 4.93013C14.2039 5.01784 14.3279 5.22434 14.3627 5.28443C14.4683 5.46676 14.4744 5.6408 14.4785 5.72091C14.5044 6.19123 14.2203 6.60769 13.9028 6.92261C13.5805 7.24238 13.2009 7.48203 12.8166 7.71615H12.8173Z" fill="#99B1F6"/>
<path d="M15.6171 14.1338C14.3197 13.6738 13.3828 12.4376 13.3474 10.9741C13.0162 11.3305 12.8125 11.8098 12.8125 12.3374V13.334C12.9985 13.709 13.2493 14.0454 13.5518 14.3265H14.7756C15.0768 14.3265 15.3623 14.2574 15.6178 14.1338H15.6171Z" fill="#99B1F6"/>
<path d="M16.6807 12.801C16.7162 12.6518 16.7353 12.4957 16.7353 12.3355C16.7353 11.3859 16.075 10.5896 15.1953 10.3934C15.3268 11.3976 15.8856 12.2651 16.6807 12.801Z" fill="#99B1F6"/>
<path d="M13.7237 28.5401C14.3822 28.5401 14.9161 27.999 14.9161 27.3315C14.9161 26.664 14.3822 26.1229 13.7237 26.1229C13.0651 26.1229 12.5312 26.664 12.5312 27.3315C12.5312 27.999 13.0651 28.5401 13.7237 28.5401Z" fill="#99B1F6"/>
<path d="M18.2862 28.5401C18.9447 28.5401 19.4786 27.999 19.4786 27.3315C19.4786 26.664 18.9447 26.1229 18.2862 26.1229C17.6276 26.1229 17.0938 26.664 17.0938 27.3315C17.0938 27.999 17.6276 28.5401 18.2862 28.5401Z" fill="#99B1F6"/>
<path d="M19.5317 15.7186L17.2722 17.2228C18.3188 17.7332 19.0431 18.8182 19.0431 20.0717C19.0431 21.8142 17.6442 23.232 15.9251 23.232C14.2059 23.232 12.8064 21.8142 12.8064 20.0717V16.9107L15.1912 16.8333C17.1911 16.756 18.3863 14.9727 18.3924 14.9638C17.647 14.5922 16.8102 14.3829 15.9251 14.3829H10.3125V20.0717C10.3125 23.2086 12.8302 25.7604 15.9251 25.7604C19.0199 25.7604 21.5377 23.2086 21.5377 20.0717C21.5377 18.3258 20.7568 16.7622 19.5317 15.7179V15.7186Z" fill="#99B1F6"/>
<path d="M19.2769 18.9214L22.9688 16.3783L21.5666 14.2871L17.8747 16.8302L19.2769 18.9214Z" fill="#99B1F6"/>
</svg>
