<svg width="33" height="33" viewBox="0 0 33 33" fill="none" xmlns="http://www.w3.org/2000/svg">
<path d="M7.07292 16.3873H4.40625L16.4063 4.38733L28.4063 16.3873H25.7396M7.07292 16.3873V25.7207C7.07292 26.4279 7.35387 27.1062 7.85397 27.6063C8.35406 28.1064 9.03234 28.3873 9.73958 28.3873H23.0729C23.7802 28.3873 24.4584 28.1064 24.9585 27.6063C25.4586 27.1062 25.7396 26.4279 25.7396 25.7207V16.3873" stroke="#3463ED" stroke-width="2" stroke-linecap="round" stroke-linejoin="round"/>
<path d="M12.4062 28.3874V20.3874C12.4062 19.6801 12.6872 19.0018 13.1873 18.5018C13.6874 18.0017 14.3657 17.7207 15.0729 17.7207H17.7396C18.4468 17.7207 19.1251 18.0017 19.6252 18.5018C20.1253 19.0018 20.4063 19.6801 20.4063 20.3874V28.3874" stroke="#3463ED" stroke-width="2" stroke-linecap="round" stroke-linejoin="round"/>
</svg>
